<?xml version="1.0" encoding="UTF-8"?>
<svg id="_图层_1" data-name="图层 1" xmlns="http://www.w3.org/2000/svg" width="1973.77" height="500" viewBox="0 0 1973.77 500">
  <g id="Logo">
    <path d="M241.82,170.47h-72.33l-51.91,164.02h69.09l48.84-34c1.55-.94,2.59-2.65,2.59-4.6s-1.12-3.79-2.78-4.71l-75.98-53.12s-.05-.03-.07-.04l-.12-.08v-.02c-1.14-.85-1.9-2.2-1.9-3.74,0-2.26,1.62-4.15,3.76-4.56.22-.05.44-.09.67-.09.02,0,.04,0,.06,0h0s52.37,0,52.37,0c0,0,3.25.07,4.9-1.31,2-1.69,2.35-3.43,2.35-3.43l16.11-51.15h.02c.62-1.82,2.3-3.13,4.31-3.16M141.38,319.96l-1.47,4.63c-.24.77-1.07,1.39-1.83,1.39h-7.59c-.77,0-1.19-.63-.95-1.39l1.47-4.63c.24-.77,1.06-1.39,1.83-1.39h7.59c.77,0,1.2.62.96,1.39M146.99,302.3l-1.47,4.63c-.24.76-1.07,1.39-1.83,1.39h-7.59c-.77,0-1.19-.63-.95-1.39l1.47-4.63c.24-.77,1.06-1.39,1.83-1.39h7.59c.77,0,1.2.63.95,1.39M152.6,284.64l-1.47,4.63c-.24.77-1.07,1.39-1.83,1.39h-7.59c-.77,0-1.2-.62-.95-1.39l1.47-4.63c.24-.77,1.06-1.39,1.83-1.39h7.59c.77,0,1.19.62.95,1.39M158.21,266.98l-1.47,4.63c-.24.77-1.07,1.39-1.83,1.39h-7.59c-.77,0-1.2-.62-.95-1.39l1.47-4.63c.24-.76,1.06-1.38,1.83-1.38h7.59c.76,0,1.2.62.95,1.38M162.87,247.93c.76,0,1.19.62.95,1.39l-1.47,4.62c-.25.77-1.07,1.39-1.84,1.39h-7.59c-.76,0-1.19-.63-.94-1.39l1.47-4.62c.24-.77,1.06-1.39,1.83-1.39h7.59ZM175.04,214l-1.47,4.63c-.24.77-1.06,1.39-1.83,1.39h-7.59c-.77,0-1.19-.62-.95-1.39l1.47-4.63c.24-.77,1.06-1.39,1.83-1.39h7.59c.76,0,1.2.62.95,1.39M180.65,196.34l-1.47,4.62c-.24.77-1.07,1.39-1.84,1.39h-7.59c-.77,0-1.2-.63-.95-1.39l1.47-4.62c.24-.77,1.06-1.4,1.83-1.4h7.59c.77,0,1.2.63.96,1.4M186.25,178.68l-1.47,4.63c-.24.77-1.07,1.39-1.83,1.39h-7.59c-.77,0-1.2-.62-.95-1.39l1.47-4.63c.24-.77,1.06-1.39,1.83-1.39h7.59c.77,0,1.2.63.95,1.39"/>
    <path d="M314.32,170.47h-72.39c2.07.02,3.79,1.39,4.38,3.27h.02l16.26,51.07s1.17,2.85,2.6,3.7c2.02,1.22,4.77,1.02,4.77,1.02h52.44s.01,0,.01,0c0,0,.02,0,.02,0,2.56,0,4.65,2.08,4.65,4.65,0,1.55-.78,2.92-1.95,3.77h-.02c-.09.07-.18.13-.27.18l-42.59,29.72s-2.19,1.3-3.04,3.72c-1.01,2.87-.24,4.78-.24,4.78l18.57,58.14h68.99l-52.22-164.02ZM298.76,183.31l-1.46-4.63c-.24-.77.18-1.39.94-1.39h7.59c.77,0,1.59.63,1.84,1.39l1.46,4.63c.24.77-.18,1.39-.95,1.39h-7.59c-.76,0-1.59-.62-1.83-1.39M304.36,200.96l-1.47-4.62c-.24-.77.19-1.4.96-1.4h7.59c.77,0,1.59.63,1.83,1.4l1.47,4.62c.24.77-.19,1.4-.95,1.4h-7.59c-.77,0-1.59-.63-1.84-1.4M319.39,220.02h-7.59c-.77,0-1.59-.62-1.84-1.39l-1.46-4.63c-.25-.77.19-1.39.95-1.39h7.59c.76,0,1.58.62,1.82,1.39l1.46,4.63c.25.77-.18,1.39-.95,1.39M321.17,253.95l-1.47-4.62c-.24-.77.19-1.39.95-1.39h7.59c.77,0,1.59.62,1.83,1.39l1.47,4.62c.25.77-.18,1.4-.95,1.4h-7.59c-.77,0-1.59-.63-1.83-1.4M326.77,271.61l-1.47-4.63c-.24-.77.19-1.39.96-1.39h7.59c.77,0,1.59.62,1.83,1.39l1.47,4.63c.25.76-.18,1.39-.95,1.39h-7.59c-.76,0-1.6-.63-1.83-1.39M332.37,289.27l-1.47-4.62c-.24-.77.18-1.39.95-1.39h7.59c.77,0,1.59.62,1.83,1.39l1.47,4.62c.25.77-.18,1.39-.95,1.39h-7.59c-.77,0-1.59-.62-1.83-1.39M337.97,306.93l-1.48-4.63c-.24-.76.19-1.39.96-1.39h7.59c.77,0,1.59.63,1.83,1.39l1.47,4.63c.24.76-.18,1.39-.95,1.39h-7.6c-.77,0-1.59-.63-1.83-1.39M353,325.98h-7.59c-.77,0-1.59-.62-1.84-1.39l-1.47-4.63c-.24-.77.19-1.39.96-1.39h7.6c.76,0,1.58.62,1.82,1.39l1.47,4.63c.25.77-.18,1.39-.95,1.39"/>
  </g>
  <g>
    <path d="M701.89,300.56c-1.51-1.46-3.29-2.59-5.35-3.39-2.06-.8-4.29-1.2-6.69-1.2h-12.64v32.43h12.73c2.37,0,4.57-.4,6.62-1.2,2.04-.8,3.82-1.93,5.33-3.39,1.51-1.46,2.68-3.18,3.51-5.17.83-1.98,1.25-4.14,1.25-6.48s-.42-4.49-1.25-6.46c-.83-1.97-2-3.68-3.51-5.14ZM698.91,317.77c-.88,1.61-2.11,2.86-3.69,3.74-1.58.88-3.41,1.31-5.47,1.31h-6.27v-21.27h6.27c2.06,0,3.88.45,5.44,1.34,1.57.89,2.8,2.12,3.69,3.69.89,1.57,1.34,3.41,1.34,5.54s-.44,4.04-1.31,5.65Z"/>
    <path d="M726.94,307.04c-1.66-.95-3.54-1.43-5.63-1.43-2.21,0-4.21.51-6,1.52-1.78,1.02-3.19,2.4-4.22,4.15-1.03,1.75-1.55,3.74-1.55,5.95s.52,4.24,1.57,6c1.05,1.75,2.48,3.14,4.31,4.15,1.83,1.02,3.91,1.52,6.25,1.52,1.81,0,3.49-.32,5.03-.97,1.54-.65,2.88-1.61,4.01-2.91l-3.6-3.6c-.68.8-1.48,1.38-2.4,1.75-.92.37-1.95.55-3.09.55-1.26,0-2.37-.26-3.32-.78-.95-.52-1.68-1.28-2.19-2.28-.2-.39-.35-.83-.47-1.28l16.27-.04c.12-.49.2-.95.23-1.36s.05-.82.05-1.22c0-2.15-.46-4.07-1.38-5.77-.92-1.69-2.21-3.01-3.88-3.97ZM718.13,311.47c.89-.52,1.94-.78,3.14-.78,1.14,0,2.09.23,2.86.69.77.46,1.37,1.14,1.8,2.03.21.43.36.91.48,1.44l-10.75.03c.11-.41.25-.81.42-1.17.48-.97,1.16-1.71,2.05-2.24Z"/>
    <path d="M753.9,307.18c-1.65-1.02-3.5-1.52-5.56-1.52-1.6,0-3.04.34-4.34,1.02-.75.39-1.4.88-1.98,1.43v-1.98h-6.04v31.65h6v-11.31c.59.57,1.26,1.05,2.03,1.44,1.29.65,2.74.97,4.34.97,2.06,0,3.91-.51,5.54-1.52,1.63-1.02,2.91-2.4,3.85-4.15.94-1.75,1.41-3.72,1.41-5.91s-.46-4.2-1.38-5.95c-.92-1.75-2.21-3.14-3.85-4.15ZM752.2,320.35c-.48.91-1.13,1.62-1.96,2.15-.83.52-1.8.78-2.91.78s-2.1-.26-2.98-.78c-.88-.52-1.54-1.24-1.98-2.15-.45-.91-.67-1.95-.67-3.11s.24-2.2.72-3.09c.48-.89,1.14-1.6,1.98-2.12.85-.52,1.81-.78,2.88-.78,1.14,0,2.12.26,2.95.78.83.52,1.48,1.23,1.96,2.12.48.89.72,1.92.72,3.09s-.24,2.21-.72,3.11Z"/>
    <path d="M778.79,308.24c-.62-.64-1.33-1.19-2.17-1.61-1.26-.65-2.68-.97-4.24-.97-2.06,0-3.9.51-5.51,1.52-1.61,1.02-2.88,2.4-3.81,4.15-.92,1.75-1.38,3.74-1.38,5.95s.46,4.15,1.38,5.91c.92,1.75,2.19,3.14,3.81,4.15,1.61,1.02,3.44,1.52,5.47,1.52,1.6,0,3.04-.32,4.31-.97.83-.42,1.54-.96,2.14-1.59v2.1h6.09v-22.28h-6.09v2.12ZM777.59,321.57c-1.05,1.14-2.42,1.71-4.11,1.71-1.08,0-2.05-.26-2.91-.78-.86-.52-1.53-1.23-2.01-2.12-.48-.89-.71-1.94-.71-3.14s.24-2.2.71-3.09c.48-.89,1.14-1.6,1.98-2.12.85-.52,1.82-.78,2.93-.78s2.12.25,2.95.76,1.49,1.22,1.98,2.14c.49.92.74,1.97.74,3.14,0,1.72-.52,3.15-1.57,4.29Z"/>
    <path d="M804.88,306.19c-.85-.35-1.82-.53-2.93-.53-2.49,0-4.4.79-5.72,2.38-.02.02-.03.05-.05.07v-1.98h-6.04v22.28h6.04v-12.27c0-1.69.41-2.94,1.22-3.74.81-.8,1.87-1.2,3.16-1.2.62,0,1.16.08,1.64.25.48.17.88.45,1.22.85l3.78-4.38c-.71-.8-1.48-1.38-2.33-1.73Z"/>
    <polygon points="819.48 296.84 813.44 296.84 813.44 306.12 808.23 306.12 808.23 311.42 813.44 311.42 813.44 328.4 819.48 328.4 819.48 311.42 824.7 311.42 824.7 306.12 819.48 306.12 819.48 296.84"/>
    <path d="M858.93,306.69c-1.32-.69-2.81-1.04-4.48-1.04s-3.17.36-4.52,1.08c-1.08.58-1.99,1.34-2.75,2.28-.69-.97-1.55-1.75-2.6-2.33-1.26-.69-2.66-1.04-4.2-1.04-1.63,0-3.09.35-4.38,1.04-.7.37-1.31.83-1.85,1.37v-1.95h-6.04v22.28h6.04v-13.1c0-.89.19-1.64.58-2.26.38-.61.89-1.08,1.52-1.41.63-.32,1.35-.48,2.15-.48,1.2,0,2.2.36,3,1.08.8.72,1.2,1.73,1.2,3.02v13.15h6.09v-13.1c0-.89.19-1.64.58-2.26.38-.61.89-1.08,1.52-1.41.63-.32,1.36-.48,2.19-.48,1.17,0,2.15.36,2.95,1.08.8.72,1.2,1.73,1.2,3.02v13.15h6.14v-14.07c0-1.81-.39-3.37-1.18-4.66-.78-1.29-1.84-2.28-3.16-2.98Z"/>
    <path d="M884.02,307.04c-1.66-.95-3.54-1.43-5.63-1.43-2.21,0-4.21.51-6,1.52-1.78,1.02-3.19,2.4-4.22,4.15-1.03,1.75-1.55,3.74-1.55,5.95s.52,4.24,1.57,6c1.05,1.75,2.48,3.14,4.31,4.15,1.83,1.02,3.91,1.52,6.25,1.52,1.81,0,3.49-.32,5.03-.97,1.54-.65,2.88-1.61,4.01-2.91l-3.6-3.6c-.68.8-1.48,1.38-2.4,1.75-.92.37-1.95.55-3.09.55-1.26,0-2.37-.26-3.32-.78-.95-.52-1.68-1.28-2.19-2.28-.2-.39-.35-.83-.47-1.28l16.27-.04c.12-.49.2-.95.23-1.36s.05-.82.05-1.22c0-2.15-.46-4.07-1.38-5.77-.92-1.69-2.21-3.01-3.88-3.97ZM875.21,311.47c.89-.52,1.94-.78,3.14-.78,1.14,0,2.09.23,2.86.69.77.46,1.37,1.14,1.8,2.03.21.43.36.91.48,1.44l-10.75.03c.11-.41.25-.81.42-1.17.48-.97,1.16-1.71,2.05-2.24Z"/>
    <path d="M909.97,306.88c-1.28-.81-2.74-1.22-4.41-1.22s-3.21.37-4.54,1.11c-.73.4-1.36.89-1.91,1.46v-2.11h-6.04v22.28h6.04v-12.78c0-.86.19-1.64.58-2.33.38-.69.92-1.22,1.59-1.59.68-.37,1.45-.55,2.31-.55,1.29,0,2.35.42,3.18,1.25.83.83,1.25,1.91,1.25,3.23v12.78h6.09v-14.16c0-1.48-.37-2.87-1.11-4.17-.74-1.31-1.75-2.37-3.02-3.18Z"/>
    <polygon points="928.31 296.84 922.27 296.84 922.27 306.12 917.06 306.12 917.06 311.42 922.27 311.42 922.27 328.4 928.31 328.4 928.31 311.42 933.53 311.42 933.53 306.12 928.31 306.12 928.31 296.84"/>
    <path d="M962.47,307.13c-1.8-1.02-3.84-1.52-6.11-1.52s-4.27.52-6.07,1.55c-1.8,1.03-3.22,2.41-4.27,4.15-1.05,1.74-1.57,3.7-1.57,5.88s.52,4.21,1.57,5.98c1.05,1.77,2.47,3.17,4.27,4.2,1.8,1.03,3.82,1.55,6.07,1.55s4.32-.52,6.14-1.55c1.81-1.03,3.24-2.44,4.29-4.22,1.05-1.78,1.57-3.77,1.57-5.95s-.53-4.15-1.59-5.9c-1.06-1.75-2.49-3.14-4.29-4.15ZM961.41,320.33c-.48.89-1.15,1.6-2.03,2.12-.88.52-1.88.78-3.02.78s-2.09-.26-2.95-.78c-.86-.52-1.53-1.23-2.01-2.12-.48-.89-.71-1.92-.71-3.09s.24-2.2.71-3.09c.48-.89,1.15-1.59,2.01-2.1.86-.51,1.85-.76,2.95-.76s2.13.25,2.98.76c.85.51,1.52,1.21,2.03,2.1.51.89.76,1.92.76,3.09s-.24,2.2-.72,3.09Z"/>
    <path d="M982.08,301.02c.6-.6,1.45-.9,2.56-.9.62,0,1.13.09,1.55.28.42.18.78.45,1.08.78l3.88-3.83c-.86-.92-1.82-1.62-2.86-2.1-1.05-.48-2.29-.72-3.74-.72-1.91,0-3.57.4-4.98,1.2-1.41.8-2.51,1.89-3.3,3.28-.78,1.38-1.18,2.95-1.18,4.71v2.4h-5.12v5.31h5.12v16.98h6.09v-16.98h6.6v-5.31h-6.6v-2.54c0-1.11.3-1.96.9-2.56Z"/>
    <polygon points="1005.77 295.97 1001.16 295.97 1001.16 328.4 1007.43 328.4 1007.43 315.11 1022.1 315.11 1022.1 309.58 1007.43 309.58 1007.43 301.5 1022.89 301.5 1022.89 295.97 1007.43 295.97 1005.77 295.97"/>
    <path d="M1030.22,295.6c-.98,0-1.8.34-2.45,1.02-.65.68-.97,1.49-.97,2.45s.32,1.81.97,2.47c.65.66,1.46.99,2.45.99s1.84-.33,2.47-.99c.63-.66.95-1.48.95-2.47s-.32-1.77-.95-2.45c-.63-.68-1.45-1.02-2.47-1.02Z"/>
    <rect x="1027.13" y="306.12" width="6.14" height="22.28"/>
    <rect x="1038.62" y="295.05" width="6.04" height="33.36"/>
    <path d="M1080.83,306.69c-1.32-.69-2.81-1.04-4.48-1.04s-3.17.36-4.52,1.08c-1.08.58-1.99,1.34-2.75,2.28-.69-.97-1.55-1.75-2.6-2.33-1.26-.69-2.66-1.04-4.2-1.04-1.63,0-3.09.35-4.38,1.04-.7.37-1.31.83-1.85,1.37v-1.95h-6.04v22.28h6.04v-13.1c0-.89.19-1.64.58-2.26.38-.61.89-1.08,1.52-1.41.63-.32,1.35-.48,2.15-.48,1.2,0,2.2.36,3,1.08.8.72,1.2,1.73,1.2,3.02v13.15h6.09v-13.1c0-.89.19-1.64.58-2.26.38-.61.89-1.08,1.52-1.41.63-.32,1.36-.48,2.19-.48,1.17,0,2.15.36,2.95,1.08.8.72,1.2,1.73,1.2,3.02v13.15h6.14v-14.07c0-1.81-.39-3.37-1.18-4.66-.78-1.29-1.84-2.28-3.16-2.98Z"/>
    <path d="M1108.17,306.56c-.35-.6-.53-1.33-.53-2.19s.35-1.64,1.06-2.26c.71-.62,1.58-.92,2.63-.92.98,0,1.84.25,2.56.74.72.49,1.42,1.18,2.1,2.08l4.15-3.92c-.52-.8-1.2-1.55-2.03-2.24-.83-.69-1.82-1.27-2.98-1.73-1.15-.46-2.44-.69-3.85-.69-1.88,0-3.53.41-4.96,1.22-1.43.82-2.55,1.89-3.37,3.23-.82,1.34-1.22,2.84-1.22,4.5,0,1.41.28,2.69.83,3.83.33.67.76,1.37,1.28,2.08-1.67.91-2.99,2.01-3.89,3.34-1.06,1.55-1.59,3.32-1.59,5.28s.45,3.61,1.36,5.12c.91,1.51,2.18,2.7,3.83,3.58,1.64.88,3.58,1.31,5.79,1.31,1.41,0,2.74-.19,3.97-.58,1.23-.38,2.34-.89,3.34-1.52.46-.29.88-.6,1.24-.92l2.28,2.51h7.24l-17.72-19.79c-.68-.77-1.19-1.45-1.55-2.05ZM1112.82,322.43c-.91.54-2.01.81-3.3.81-1.05,0-1.97-.19-2.77-.58-.8-.38-1.42-.92-1.85-1.59-.43-.68-.65-1.49-.65-2.45,0-1.17.28-2.16.83-2.98.47-.69,1.11-1.25,1.9-1.71l6.96,7.64c-.34.32-.71.61-1.13.86Z"/>
    <polygon points="1137.71 301.55 1148.05 301.55 1148.05 328.4 1154.37 328.4 1154.37 301.55 1164.7 301.55 1164.7 295.97 1137.71 295.97 1137.71 301.55"/>
    <polygon points="1181.99 318.74 1173.42 295.97 1166.59 295.97 1179.42 328.4 1184.4 328.4 1197.32 295.97 1190.63 295.97 1181.99 318.74"/>
    <polygon points="1235.24 301.55 1235.24 295.97 1208.25 295.97 1208.25 301.55 1218.59 301.55 1218.59 328.4 1224.91 328.4 1224.91 301.55 1235.24 301.55"/>
    <path d="M1251.39,307.04c-1.66-.95-3.54-1.43-5.63-1.43-2.21,0-4.21.51-6,1.52-1.78,1.02-3.19,2.4-4.22,4.15-1.03,1.75-1.55,3.74-1.55,5.95s.52,4.24,1.57,6c1.05,1.75,2.48,3.14,4.31,4.15,1.83,1.02,3.91,1.52,6.25,1.52,1.81,0,3.49-.32,5.03-.97s2.88-1.61,4.01-2.91l-3.6-3.6c-.68.8-1.48,1.38-2.4,1.75-.92.37-1.95.55-3.09.55-1.26,0-2.37-.26-3.32-.78-.95-.52-1.68-1.28-2.19-2.28-.2-.39-.35-.83-.47-1.28l16.27-.04c.12-.49.2-.95.23-1.36s.05-.82.05-1.22c0-2.15-.46-4.07-1.38-5.77-.92-1.69-2.21-3.01-3.88-3.97ZM1242.58,311.47c.89-.52,1.94-.78,3.14-.78,1.14,0,2.09.23,2.86.69.77.46,1.37,1.14,1.8,2.03.21.43.36.91.48,1.44l-10.75.03c.11-.41.25-.81.42-1.17.48-.97,1.16-1.71,2.05-2.24Z"/>
    <path d="M1267.97,312.05c.88-.51,1.87-.76,2.98-.76.98,0,1.88.17,2.7.51.81.34,1.5.85,2.05,1.52l3.97-3.97c-1.11-1.23-2.4-2.16-3.88-2.79-1.48-.63-3.09-.95-4.84-.95-2.28,0-4.32.51-6.14,1.52-1.82,1.02-3.25,2.41-4.29,4.18-1.05,1.77-1.57,3.76-1.57,5.97s.52,4.11,1.57,5.88c1.05,1.77,2.48,3.17,4.29,4.2,1.81,1.03,3.84,1.55,6.09,1.55,1.78,0,3.42-.33,4.91-.99,1.49-.66,2.78-1.61,3.85-2.84l-3.88-3.92c-.62.68-1.32,1.19-2.12,1.55-.8.35-1.71.53-2.72.53-1.11,0-2.1-.26-2.98-.78-.88-.52-1.56-1.23-2.05-2.12-.49-.89-.74-1.92-.74-3.09s.25-2.2.74-3.09c.49-.89,1.18-1.59,2.05-2.1Z"/>
    <path d="M1299.97,306.74c-1.29-.72-2.78-1.08-4.47-1.08s-3.2.37-4.52,1.11c-.7.39-1.31.86-1.85,1.41v-13.13h-6.04v33.36h6.04v-12.78c0-.86.19-1.64.58-2.33.38-.69.92-1.22,1.59-1.59.68-.37,1.45-.55,2.31-.55,1.29,0,2.35.42,3.18,1.25.83.83,1.25,1.91,1.25,3.23v12.78h6.09v-14.16c0-1.69-.37-3.18-1.11-4.47-.74-1.29-1.75-2.3-3.05-3.02Z"/>
    <path d="M1313.16,321.2c-1.14,0-2.06.36-2.77,1.08-.71.72-1.06,1.64-1.06,2.74s.35,1.99,1.06,2.75c.71.75,1.63,1.13,2.77,1.13,1.08,0,1.98-.38,2.7-1.13.72-.75,1.08-1.67,1.08-2.75s-.36-2.02-1.08-2.74c-.72-.72-1.62-1.08-2.7-1.08Z"/>
    <path d="M1335.72,321.2c-1.14,0-2.07.38-2.79,1.15-.72.77-1.08,1.71-1.08,2.81,0,1.02.34,1.86,1.02,2.54.48.48.98.78,1.5.92l-2.79,5.26,3.14,1.71,3.55-6.55c.52-.95.87-1.73,1.04-2.33.17-.6.25-1.11.25-1.55,0-1.11-.39-2.04-1.15-2.81-.77-.77-1.66-1.15-2.68-1.15Z"/>
    <path d="M1373.12,311.06c.92-.53,1.69-1.15,2.3-1.87,1.12-1.34,1.68-2.93,1.68-4.78,0-1.51-.38-2.9-1.13-4.17-.75-1.28-1.85-2.31-3.3-3.09-1.45-.78-3.23-1.18-5.35-1.18h-13.15v32.43h13.33c2.28,0,4.22-.42,5.84-1.27,1.61-.85,2.85-1.97,3.71-3.37.86-1.4,1.29-2.96,1.29-4.68,0-2.18-.66-4.05-1.98-5.61-.85-.99-1.94-1.79-3.24-2.42ZM1366.54,301.09c1.26,0,2.28.32,3.07.97.78.64,1.18,1.63,1.18,2.95s-.39,2.26-1.15,2.91c-.77.65-1.81.97-3.14.97h-6.09v-7.8h6.14ZM1370.76,321.9c-.85.92-2.01,1.38-3.48,1.38h-6.87v-9.32h6.78c1.02,0,1.89.22,2.63.65.74.43,1.29.99,1.66,1.68s.55,1.47.55,2.33c0,1.26-.42,2.35-1.27,3.28Z"/>
    <path d="M1398.56,307.04c-1.66-.95-3.54-1.43-5.63-1.43-2.21,0-4.21.51-6,1.52-1.78,1.02-3.19,2.4-4.22,4.15-1.03,1.75-1.55,3.74-1.55,5.95s.52,4.24,1.57,6c1.05,1.75,2.48,3.14,4.31,4.15,1.83,1.02,3.91,1.52,6.25,1.52,1.81,0,3.49-.32,5.03-.97s2.88-1.61,4.01-2.91l-3.6-3.6c-.68.8-1.48,1.38-2.4,1.75-.92.37-1.95.55-3.09.55-1.26,0-2.37-.26-3.32-.78-.95-.52-1.68-1.28-2.19-2.28-.2-.39-.35-.83-.47-1.28l16.27-.04c.12-.49.2-.95.23-1.36s.05-.82.05-1.22c0-2.15-.46-4.07-1.38-5.77-.92-1.69-2.21-3.01-3.88-3.97ZM1389.74,311.47c.89-.52,1.94-.78,3.14-.78,1.14,0,2.09.23,2.86.69.77.46,1.37,1.14,1.8,2.03.21.43.36.91.48,1.44l-10.75.03c.11-.41.25-.81.42-1.17.48-.97,1.16-1.71,2.05-2.24Z"/>
    <path d="M1410.64,302.52c1.02,0,1.84-.33,2.47-.99.63-.66.95-1.48.95-2.47s-.32-1.77-.95-2.45c-.63-.68-1.45-1.02-2.47-1.02s-1.8.34-2.45,1.02c-.65.68-.97,1.49-.97,2.45s.32,1.81.97,2.47c.65.66,1.46.99,2.45.99Z"/>
    <rect x="1407.55" y="306.12" width="6.14" height="22.28"/>
    <path d="M1419.55,330.02c0,.89-.27,1.57-.81,2.03-.54.46-1.18.69-1.91.69-.58,0-1.08-.1-1.48-.3-.4-.2-.78-.53-1.15-.99l-3.83,3.83c.86.95,1.83,1.69,2.91,2.21,1.08.52,2.41.78,4.01.78s2.94-.34,4.2-1.02c1.26-.68,2.26-1.63,3-2.86.74-1.23,1.11-2.72,1.11-4.47v-23.81h-6.04v23.9Z"/>
    <path d="M1422.64,295.6c-.98,0-1.81.34-2.47,1.02-.66.68-.99,1.49-.99,2.45s.33,1.81.99,2.47c.66.66,1.48.99,2.47.99s1.8-.33,2.44-.99c.65-.66.97-1.48.97-2.47s-.32-1.77-.97-2.45c-.65-.68-1.46-1.02-2.44-1.02Z"/>
    <rect x="1430.85" y="306.12" width="6.14" height="22.28"/>
    <path d="M1433.94,295.6c-.98,0-1.8.34-2.45,1.02-.65.68-.97,1.49-.97,2.45s.32,1.81.97,2.47c.65.66,1.46.99,2.45.99s1.84-.33,2.47-.99c.63-.66.95-1.48.95-2.47s-.32-1.77-.95-2.45c-.63-.68-1.45-1.02-2.47-1.02Z"/>
    <path d="M1459.24,306.88c-1.28-.81-2.74-1.22-4.41-1.22s-3.21.37-4.54,1.11c-.73.4-1.36.89-1.91,1.46v-2.11h-6.04v22.28h6.04v-12.78c0-.86.19-1.64.58-2.33.38-.69.92-1.22,1.59-1.59.68-.37,1.45-.55,2.31-.55,1.29,0,2.35.42,3.18,1.25.83.83,1.25,1.91,1.25,3.23v12.78h6.09v-14.16c0-1.48-.37-2.87-1.11-4.17-.74-1.31-1.75-2.37-3.02-3.18Z"/>
    <path d="M1483.67,308c-.57-.55-1.22-1.03-1.98-1.4-1.29-.63-2.75-.95-4.38-.95-2,0-3.8.48-5.4,1.45-1.6.97-2.85,2.28-3.76,3.94-.91,1.66-1.36,3.54-1.36,5.63s.45,3.98,1.36,5.68c.91,1.69,2.16,3.02,3.76,3.99,1.6.97,3.4,1.45,5.4,1.45,1.63,0,3.08-.32,4.36-.97.75-.38,1.4-.85,1.96-1.4v1.95c0,1.63-.55,2.93-1.66,3.9-1.11.97-2.58,1.45-4.43,1.45-1.51,0-2.79-.27-3.85-.81-1.06-.54-2.02-1.31-2.88-2.33l-3.88,3.83c1.11,1.54,2.56,2.73,4.36,3.57,1.8.85,3.9,1.27,6.3,1.27s4.46-.45,6.27-1.36,3.24-2.19,4.27-3.85c1.03-1.66,1.55-3.58,1.55-5.77v-21.18h-6v1.88ZM1483.28,319.61c-.45.85-1.08,1.5-1.89,1.96-.82.46-1.79.69-2.93.69-1.05,0-1.99-.24-2.84-.72-.85-.48-1.5-1.14-1.96-1.98-.46-.85-.69-1.81-.69-2.88s.24-1.99.71-2.84c.48-.84,1.12-1.51,1.94-1.98.81-.48,1.78-.72,2.88-.72s2.03.24,2.86.72c.83.48,1.47,1.14,1.91,1.98.45.85.67,1.81.67,2.88s-.22,2.04-.67,2.88Z"/>
    <polygon points="1509.23 295.97 1504.62 295.97 1504.62 328.4 1510.89 328.4 1510.89 315.11 1525.56 315.11 1525.56 309.58 1510.89 309.58 1510.89 301.5 1526.35 301.5 1526.35 295.97 1510.89 295.97 1509.23 295.97"/>
    <rect x="1530.59" y="306.12" width="6.14" height="22.28"/>
    <path d="M1533.68,295.6c-.98,0-1.8.34-2.45,1.02-.65.68-.97,1.49-.97,2.45s.32,1.81.97,2.47c.65.66,1.46.99,2.45.99s1.84-.33,2.47-.99c.63-.66.95-1.48.95-2.47s-.32-1.77-.95-2.45c-.63-.68-1.45-1.02-2.47-1.02Z"/>
    <rect x="1542.08" y="295.05" width="6.04" height="33.36"/>
    <path d="M1584.29,306.69c-1.32-.69-2.81-1.04-4.48-1.04s-3.17.36-4.52,1.08c-1.08.58-1.99,1.34-2.75,2.28-.69-.97-1.55-1.75-2.6-2.33-1.26-.69-2.66-1.04-4.2-1.04-1.63,0-3.09.35-4.38,1.04-.7.37-1.31.83-1.85,1.37v-1.95h-6.04v22.28h6.04v-13.1c0-.89.19-1.64.58-2.26.38-.61.89-1.08,1.52-1.41.63-.32,1.35-.48,2.15-.48,1.2,0,2.2.36,3,1.08.8.72,1.2,1.73,1.2,3.02v13.15h6.09v-13.1c0-.89.19-1.64.58-2.26.38-.61.89-1.08,1.52-1.41.63-.32,1.36-.48,2.19-.48,1.17,0,2.15.36,2.95,1.08.8.72,1.2,1.73,1.2,3.02v13.15h6.14v-14.07c0-1.81-.39-3.37-1.18-4.66-.78-1.29-1.84-2.28-3.16-2.98Z"/>
    <path d="M1613.77,295.97l-13.1,32.43h6.64l2.31-6.04h13.3l2.29,6.04h6.69l-12.96-32.43h-5.17ZM1611.63,317.1l4.67-12.24,4.63,12.24h-9.3Z"/>
    <path d="M1643,312.05c.88-.51,1.87-.76,2.98-.76.98,0,1.88.17,2.7.51.81.34,1.5.85,2.05,1.52l3.97-3.97c-1.11-1.23-2.4-2.16-3.88-2.79-1.48-.63-3.09-.95-4.84-.95-2.28,0-4.32.51-6.14,1.52-1.82,1.02-3.25,2.41-4.29,4.18-1.05,1.77-1.57,3.76-1.57,5.97s.52,4.11,1.57,5.88c1.05,1.77,2.48,3.17,4.29,4.2,1.81,1.03,3.84,1.55,6.09,1.55,1.78,0,3.42-.33,4.91-.99,1.49-.66,2.77-1.61,3.85-2.84l-3.88-3.92c-.62.68-1.32,1.19-2.12,1.55-.8.35-1.71.53-2.72.53-1.11,0-2.1-.26-2.98-.78-.88-.52-1.56-1.23-2.05-2.12-.49-.89-.74-1.92-.74-3.09s.25-2.2.74-3.09c.49-.89,1.18-1.59,2.05-2.1Z"/>
    <path d="M1673.84,308.24c-.62-.64-1.33-1.19-2.17-1.61-1.26-.65-2.68-.97-4.24-.97-2.06,0-3.9.51-5.51,1.52-1.61,1.02-2.88,2.4-3.81,4.15-.92,1.75-1.38,3.74-1.38,5.95s.46,4.15,1.38,5.91c.92,1.75,2.19,3.14,3.81,4.15,1.61,1.02,3.44,1.52,5.47,1.52,1.6,0,3.04-.32,4.31-.97.83-.42,1.54-.96,2.14-1.59v2.1h6.09v-22.28h-6.09v2.12ZM1672.64,321.57c-1.05,1.14-2.42,1.71-4.11,1.71-1.08,0-2.05-.26-2.91-.78-.86-.52-1.53-1.23-2.01-2.12s-.71-1.94-.71-3.14.24-2.2.71-3.09c.48-.89,1.14-1.6,1.98-2.12.85-.52,1.82-.78,2.93-.78s2.12.25,2.95.76,1.49,1.22,1.98,2.14c.49.92.74,1.97.74,3.14,0,1.72-.52,3.15-1.57,4.29Z"/>
    <path d="M1700.87,308.05c-.58-.54-1.23-1.02-1.98-1.4-1.29-.66-2.74-.99-4.34-.99-2.06,0-3.9.51-5.51,1.52-1.61,1.02-2.9,2.4-3.85,4.15-.95,1.75-1.43,3.74-1.43,5.95s.48,4.15,1.43,5.91c.95,1.75,2.24,3.14,3.85,4.15,1.61,1.02,3.45,1.52,5.51,1.52,1.63,0,3.09-.33,4.38-.99.75-.39,1.41-.87,1.98-1.43v1.96h6.09v-33.36h-6.14v13.01ZM1700.57,320.37c-.48.89-1.15,1.6-2.01,2.12-.86.52-1.85.78-2.95.78s-2.05-.25-2.91-.76c-.86-.51-1.53-1.22-2.01-2.12s-.71-1.96-.71-3.16.24-2.21.71-3.11c.48-.91,1.14-1.61,1.98-2.12.85-.51,1.84-.76,2.98-.76s2.08.26,2.93.78c.85.52,1.51,1.23,1.98,2.12.48.89.71,1.94.71,3.14s-.24,2.2-.71,3.09Z"/>
    <path d="M1728.18,307.04c-1.66-.95-3.54-1.43-5.63-1.43-2.21,0-4.21.51-6,1.52-1.78,1.02-3.19,2.4-4.22,4.15-1.03,1.75-1.55,3.74-1.55,5.95s.52,4.24,1.57,6c1.05,1.75,2.48,3.14,4.31,4.15,1.83,1.02,3.91,1.52,6.25,1.52,1.81,0,3.49-.32,5.03-.97,1.54-.65,2.88-1.61,4.01-2.91l-3.6-3.6c-.68.8-1.48,1.38-2.4,1.75-.92.37-1.95.55-3.09.55-1.26,0-2.37-.26-3.32-.78-.95-.52-1.68-1.28-2.19-2.28-.2-.39-.35-.83-.47-1.28l16.27-.04c.12-.49.2-.95.23-1.36s.05-.82.05-1.22c0-2.15-.46-4.07-1.38-5.77-.92-1.69-2.21-3.01-3.88-3.97ZM1719.37,311.47c.89-.52,1.94-.78,3.14-.78,1.14,0,2.09.23,2.86.69.77.46,1.37,1.14,1.8,2.03.21.43.36.91.48,1.44l-10.75.03c.11-.41.25-.81.42-1.17.48-.97,1.16-1.71,2.05-2.24Z"/>
    <path d="M1768.04,306.69c-1.32-.69-2.81-1.04-4.48-1.04s-3.17.36-4.52,1.08c-1.08.58-1.99,1.34-2.75,2.28-.69-.97-1.55-1.75-2.6-2.33-1.26-.69-2.66-1.04-4.2-1.04-1.63,0-3.09.35-4.38,1.04-.7.37-1.31.83-1.85,1.37v-1.95h-6.04v22.28h6.04v-13.1c0-.89.19-1.64.58-2.26.38-.61.89-1.08,1.52-1.41.63-.32,1.35-.48,2.15-.48,1.2,0,2.2.36,3,1.08.8.72,1.2,1.73,1.2,3.02v13.15h6.09v-13.1c0-.89.19-1.64.58-2.26.38-.61.89-1.08,1.52-1.41.63-.32,1.36-.48,2.19-.48,1.17,0,2.15.36,2.95,1.08.8.72,1.2,1.73,1.2,3.02v13.15h6.14v-14.07c0-1.81-.39-3.37-1.18-4.66-.78-1.29-1.84-2.28-3.16-2.98Z"/>
    <polygon points="1791.85 306.12 1786.57 320.25 1781.51 306.12 1774.87 306.12 1783.36 326.48 1778.01 337.77 1784.47 337.77 1788.53 328.59 1798.49 306.12 1791.85 306.12"/>
    <path d="M1372.91,214.15c-4.58,4.26-9.57,7.94-14.97,11.06l7.15,10.49c11.06-7.18,20.81-16.81,29.26-28.88l-9.44-6.48c-3.43,4.96-7.44,9.57-12.01,13.82Z"/>
    <path d="M1356.71,222.73h-45.28v19.45h5.43c-2.61,4.51-6.55,8.64-11.82,12.39l6.77,7.82c3.05-2.29,5.88-4.99,8.48-8.1l2.67,9.53h6.86c3.75,0,6.45-.92,8.1-2.76,1.65-1.84,2.48-4.58,2.48-8.2v-10.68h16.3v-19.45ZM1329.16,253.33h-8.1c1.78-2.29,3.27-4.51,4.48-6.67l-8.39-4.48h12.01v11.15ZM1345.27,234.26h-22.31v-3.53h22.31v3.53Z"/>
    <path d="M1360.62,210.62h-20.4c-.64-1.4-1.14-2.45-1.53-3.15h18.02v-29.26h-45.28v29.26h15.16l1.72,3.15h-21.35v9.15h53.67v-9.15ZM1322.2,186.31h23.73v2.77h-23.73v-2.77ZM1322.2,199.47v-2.86h23.73v2.86h-23.73Z"/>
    <path d="M1396.36,233.12l-9.91-6.29c-8.26,11-17.83,19.51-28.69,25.55-2.29-3.24-4.96-6.48-8.01-9.72l-8.48,4.86c3.24,4.13,6.39,8.74,9.44,13.82l5.15-3.43,5.34,7.24c6.86-3.56,13.3-8.12,19.3-13.68,6.01-5.56,11.3-11.68,15.87-18.35Z"/>
    <path d="M1392.07,182.88l-9.44-6.86c-3.11,4.58-6.69,8.67-10.72,12.3-4.04,3.62-8.69,7.02-13.96,10.2l7.05,10.39c10.68-6.74,19.7-15.41,27.07-26.02Z"/>
    <polygon points="1454.89 188.89 1480.91 188.89 1480.91 235.5 1491.97 235.5 1491.97 178.88 1444.12 178.88 1444.12 235.5 1454.89 235.5 1454.89 188.89"/>
    <path d="M1486.54,252.85h-6.1c-.7,0-1.19-.14-1.48-.43-.29-.29-.43-.78-.43-1.48v-20.78h-7.63c1.33-5.34,2-11.76,2-19.25v-16.2h-10.49v16.68c0,8.01-.89,14.55-2.67,19.64-1.78,5.09-4.54,9.36-8.29,12.82-3.75,3.46-8.99,6.94-15.73,10.44l5.53,10.39c7.05-3.81,12.77-7.88,17.16-12.2,4.39-4.32,7.72-9.18,10.01-14.58v14.58c0,3.94.81,6.7,2.43,8.29,1.62,1.59,4.43,2.38,8.44,2.38h6.48c3.75,0,6.37-.76,7.86-2.29,1.49-1.52,2.24-4.29,2.24-8.29v-8.48l-9.34-3.15v11.92Z"/>
    <path d="M1443.74,233.21l-7.63-12.3c-.76-1.21-1.59-1.81-2.48-1.81-.57,0-1.27.32-2.1.95l-2.29,1.72-.57-.95c2.41-3.43,4.62-7.18,6.62-11.25,2-4.07,3.42-8.01,4.24-11.82v-8.48h-13.25l5.34-2.48c-2.35-4.45-4.86-8.36-7.53-11.72l-8.86,4.77c2.48,3.11,4.61,6.26,6.39,9.44h-14.11v10.01h20.97c-1.65,5.34-4.4,10.77-8.25,16.3-3.85,5.53-8.88,10.55-15.11,15.06l4.29,10.96c3.3-2.73,6.26-5.59,8.86-8.58v31.36h10.39v-36.03c0-.51.06-.76.19-.76s.29.16.48.48l7.05,12.11,7.34-6.96Z"/>
    <path d="M1593.01,218.44v-8.2h-20.3v-11.06h22.4v-10.87h-22.4v-11.63h-11.25v11.63h-21.26v10.87h21.26v11.06h-20.68v10.87h13.06l-8.77,4.86c3.68,7.31,8.04,13.6,13.06,18.87-6.99,3.88-15.7,7.05-26.12,9.53l4.86,10.77c12.01-3.24,21.99-7.4,29.93-12.49,6.8,5.08,14.93,9.25,24.4,12.49l5.05-10.87c-7.69-2.35-14.3-5.37-19.83-9.06,7.63-7.05,13.15-15.98,16.59-26.79ZM1567.66,238.17c-4.58-4.45-8.74-10.14-12.49-17.06h24.69c-2.54,6.55-6.61,12.23-12.2,17.06Z"/>
    <path d="M1537.53,216.25c-3.5,1.21-6.32,2.1-8.48,2.67v-16.58h8.1v-10.68h-8.1v-15.44h-10.68v15.44h-11.06v10.68h11.06v19.35c-4.51,1.02-8.58,1.84-12.2,2.48l1.62,11.06c3.56-.7,7.09-1.46,10.58-2.29v19.45h-10.49l3.15,11.44h7.34c4.07,0,6.86-.78,8.39-2.34,1.52-1.56,2.29-4.34,2.29-8.34v-23.16c3.88-1.27,7.08-2.38,9.63-3.34l-1.14-10.39Z"/>
    <path d="M1661.31,228.54c2.32,3.75,5.62,7.55,9.91,11.39,4.29,3.85,10.06,8.37,17.3,13.58l7.53-9.72c-9.34-6.23-17.02-12.18-23.02-17.87-6.01-5.69-10.34-11.8-13.01-18.35h32.89v-11.25h-14.11l6.2-6.48c-4.57-4.58-9.98-8.8-16.2-12.68l-7.44,7.63c5.21,3.56,10.07,7.4,14.58,11.53h-19.83v-19.64h-11.82v19.64h-35.08v11.25h31.27c-2.61,6.67-6.78,12.89-12.54,18.63-5.75,5.75-13.04,11.62-21.88,17.59l7.53,9.72c6.99-5.02,12.52-9.47,16.59-13.35,4.07-3.88,7.13-7.69,9.2-11.44,2.06-3.75,3.38-7.88,3.96-12.39h.95v48.04h11.82v-48.04h.95c.51,4.38,1.92,8.45,4.24,12.2Z"/>
    <path d="M1763.26,242.84c9.15,6.29,17.35,12.81,24.59,19.54l8.2-8.67c-7.44-6.16-15.73-12.42-24.88-18.78l-7.91,7.91Z"/>
    <path d="M1754.15,261.19c2-1.94,3-5.1,3-9.49v-18.78c10.61-1.02,18.3-1.84,23.07-2.48l3.81,4.86,1.91,2.48,8.86-6.96c-6.86-8.83-13.69-16.24-20.49-22.21l-8.96,6.48c2.22,1.97,4.54,4.16,6.96,6.58l-25.36,2.38-6.48.57c14.36-6.93,28.18-15.89,41.47-26.88l-9.06-7.44c-3.56,3.37-7.66,6.7-12.3,10.01-7.44.83-14.93,1.43-22.5,1.81,5.59-2.99,11.41-6.93,17.44-11.82,13.41-1.08,24.91-2.7,34.51-4.86l-4.1-9.25c-9.09,1.97-20.03,3.38-32.84,4.24-12.81.86-26.29,1.32-40.46,1.38l2,10.1c6.48,0,13.76-.16,21.83-.48-3.43,2.54-6.9,4.83-10.39,6.86-3.5,2.03-6.64,3.53-9.44,4.48l2.29,9.34c7.44-.19,16.08-.64,25.93-1.33-5.78,3.5-11.5,6.67-17.16,9.53-5.66,2.86-10.58,5.05-14.78,6.58l1.91,9.06c8.39-.38,18.56-1.08,30.5-2.1v19.64h-11.44l3.15,10.58h7.44c4.45,0,7.67-.97,9.68-2.91Z"/>
    <path d="M1727.13,253.85c4.32-3.21,8.16-6.59,11.53-10.15l-8.48-6.67c-6.48,6.16-14.43,11.38-23.83,15.63l7.05,9.72c4.83-2.48,9.4-5.32,13.73-8.53Z"/>
  </g>
  <g id="_北京电影学院" data-name="北京电影学院">
    <g>
      <path d="M1217.77,219.99c-.82,0-1.3-.01-1.78,0-2.05.06-3.86-1.3-4.31-3.3-.35-1.52-.59-3.08-1.01-4.58-.67-2.44-.27-4.77,1.05-6.78,2.42-3.68,5.06-7.22,7.69-10.76.35-.48,1.45-.98,1.77-.78.81.5,1.54,1.31,1.96,2.17.32.65.12,1.56.16,2.36.07,1.56,1.27,2.49,2.72,2.02,1.67-.54,3.32-1.16,4.98-1.73,1.75-.6,3.49-1.2,5.25-1.76,1.47-.47,2.97-.87,4.78-1.4-.48-.65-.74-1.4-1.22-1.58-1.4-.51-2.86-.89-4.33-1.13-2.51-.4-5.1-.46-7.56-1.06-1.26-.31-2.57-1.27-3.4-2.3-.95-1.19.69-1.67,1.32-2.12,2.3-1.65,4.76-3.07,7.13-4.63,1.73-1.14,1.77-1.79.13-2.96-1.33-.95-2.73-1.8-4.16-2.6-1.61-.9-2.87-4.14-2.21-5.95.29-.8.59-1.59,1.06-2.85,1.36.28,2.85.59,4.34.9.6.12,1.19.35,1.79.35,3.93,0,7.23,1.38,9.83,4.37,1.88,2.17,3.84,4.28,5.67,6.49,1.46,1.76,1.63,3.7.54,5.8-.79,1.52-1.42,3.13-2.01,4.75-.09.25.5,1.06.6,1.03,1.82-.52,3.79-.84,5.37-1.8,1.53-.94,3.02-1.73,4.6-.95,2.18,1.07,4.79,1.93,5.09,4.98.12,1.24-1.37,2.68-3.04,3.41-1.91.83-3.71,1.93-5.57,2.88-1.3.67-2.58,1.4-3.94,1.91-2.55.96-3.14,2.04-2.32,4.75.23.76.4,1.55.76,2.24.21.41.71.94,1.08.94,3.18-.02,4.46,2.41,5.51,4.65.33.7-.86,2.65-1.85,3.32-2.18,1.49-4.68,2.52-7.03,3.78-1.17.63-2.3,1.35-4,2.36,1.6,1.04,2.76,1.87,3.99,2.58,3.38,1.94,3.11,5.61.13,7.63-1.64,1.11-2.44,2.7-2.74,4.69-.33,2.18-1.2,4.29-1.48,6.48-.41,3.08-.67,6.2-.59,9.3.02.73,1.68,2.03,2.57,2.02,3.28-.04,6.59-.31,9.8-.93,1.34-.25,2.78-1.3,2.75-3.2-.04-2.76-.16-5.52.01-8.27.12-1.9.54-3.81,1.07-5.65.43-1.5,2.34-1.84,3.61-.82,3.06,2.47,5.08,5.72,6.69,9.22.98,2.13,2.07,4.28,2.56,6.55.49,2.29.45,4.72.36,7.09-.04,1.17-2.84,2.76-4.39,2.76-4.54,0-9.08-.11-13.62-.03-1.75.03-3.48.54-5.24.73-1.58.17-3.17.23-4.75.27-1.53.04-3.11-.24-4.59,0-4.09.69-7.74-3.43-7.14-7.32.41-2.63.55-5.3,1.04-7.9.36-1.93,1.14-3.77,1.65-5.67.2-.76.18-1.57.28-2.36.22-1.93.48-3.86.66-5.8.04-.41-.2-.85-.31-1.27-.45.21-1.11.31-1.32.66-1.39,2.34-2.5,4.86-4.04,7.08-2.12,3.06-4.03,6.28-7.5,8.27-2.73,1.56-4.14,4.53-5.97,7.04-1.77,2.43-3.2,5.19-6.14,6.61-1.52.74-2.79.54-3.63-1-.2-.37-.35-.77-.56-1.14-.51-.93-1.63-2.03-1.42-2.74.41-1.37,1.39-2.69,2.45-3.71,2.93-2.83,6.16-5.38,9.02-8.28,2.35-2.37,4.5-4.98,6.46-7.68,1.66-2.28,2.96-4.83,4.35-7.3.19-.35.17-1.18-.05-1.31-.38-.23-1.08-.28-1.49-.08-2.22,1.09-4.39,2.27-6.58,3.43-3.01,1.59-8.29-.99-8.34-4.35-.02-1.5.95-3.21,1.93-4.47,1.29-1.66,3.05-2.97,4.58-4.45.19-.18.23-.51.48-1.11ZM1242.96,202.67c2.86,0,4.09-1.1,5.35-3.8.53-1.15.13-1.58-.92-1.41-2.2.35-4.38.82-6.56,1.31-1.23.28-2.55.47-3.61,1.09-3.46,2-6.9,4.05-10.17,6.34-1.44,1.01-2.65,2.51-3.61,4.02-.9,1.41-.19,2.41,1.48,2.22,1.27-.14,2.5-.7,3.74-1.11,4.22-1.37,7.92-3.52,11.01-6.79.99-1.05,2.62-1.5,3.29-1.87ZM1247.47,212.27c-3.56-.18-6.14,1.09-8.7,2.31-3.54,1.68-6.95,3.66-10.55,5.2-1.03.44-2.67.07-3.78-.45-1.35-.63-2.44-1.82-3.84-2.91-.49.75-.99,1.5-1.53,2.32,2.72,1.01,2.75,1.17,1.32,3.53-.5.82-.99,1.67-1.35,2.56-.55,1.38-.03,2.23,1.4,2.11,1.03-.08,2.05-.49,3.02-.9,2.71-1.12,5.43-2.26,8.09-3.51,1.35-.64,2.57-1.56,3.88-2.3,3.56-1.99,7.15-3.92,10.68-5.96.51-.29.73-1.06,1.34-2.01Z"/>
      <path d="M916.29,200.87c.36-2.77.84-5.52,1.05-8.3.27-3.53.43-7.08.4-10.61-.02-1.64.88-2.47,1.92-3.3,1.01-.81,1.88-.32,2.76.45,1.88,1.63,3.91,3.08,5.74,4.76,1.29,1.18,1.21,2.75.14,4.21-1.98,2.72-2.93,5.79-3.2,9.12-.06.76-.5,1.49-.59,2.26-.15,1.31-.35,2.66-.19,3.95.16,1.27,1.6,1.47,2.97.95,1.87-.71,3.83-1.28,5.8-1.64,3.78-.69,7.59-1.23,11.4-1.75,1.33-.18,2.76-.39,4.02-.09,2.51.6,5.25.6,7.01,3.23,1.55,2.32.8,4.8-.9,6.37-2.42,2.23-4.99,4.3-7.41,6.53-2.56,2.36-5.03,4.84-7.53,7.27-1.2,1.16-1.53,4.3-.45,6.18.89,1.55.65,2.6-.56,3.86-2.04,2.14-4.7,3.12-7.27,4.28-2.41,1.09-5.06,1.98-5.86,4.79-.46,1.62-.33,3.46-.18,5.17.03.32,1.46.83,2.13.7,1.01-.19,1.96-.83,2.89-1.36,2.95-1.7,6.23-2.36,9.34-1.28,2.11.74,3.95,2.54,5.59,4.19.58.58.4,2.12.26,3.18-.36,2.73-1.86,3.99-4.65,3.96-3.49-.04-6.78.74-10.11,1.75-4.17,1.26-8.56,1.67-12.89,1.16-1.96-.23-3.7-1.79-4.18-3.73-.58-2.31-.7-4.8-.63-7.2.06-2.19-1.07-3.41-3.15-2.49-4.55,2.03-8,.26-11.19-2.83-2.24-2.17-4.73-4.14-6.67-6.55-2.5-3.1-4.59-6.52-6.76-9.86-.31-.48-.26-1.37-.07-1.97.84-2.74,1.78-5.46,2.7-8.17.71-2.11,1.32-4.26,2.2-6.29.98-2.26,2.08-4.49,3.4-6.56.98-1.54,4.07-.87,5.13.64,1.52,2.15.73,4.51,1.03,6.76.22,1.66,1.19,2.37,2.71,1.62,2.8-1.37,5.52-2.9,8.32-4.24,1.28-.61,2.7-.9,4.02-1.43,1.24-.5,1.91-1.4,1.82-2.85-.1-1.59-.02-3.18-.02-4.77-.1-.02-.2-.04-.3-.05ZM925.88,215.42c.11-.23.22-.46.33-.69,1.12.6,2.85.95,3.23,1.86.54,1.3.61,3.28-.03,4.48-1.28,2.37-3.2,4.38-4.82,6.57-.22.3-.43.96-.29,1.09.3.29.85.53,1.24.46,3.2-.58,6.17-1.6,8.44-4.17,1.58-1.78,3.21-3.57,5.07-5.03,3.87-3.03,6.84-6.73,9.27-10.95.7-1.21.38-2.02-.78-2.2-1.6-.24-3.28-.27-4.87-.05-2.49.35-4.94,1-7.41,1.51-.3.06-.61.07-.9.15-2.14.58-4.25,1.51-6.42,1.65-1.93.13-2.7,1.24-3.46,2.52-.33.56-.42,1.47-.2,2.06.14.38,1.04.49,1.6.72ZM914.66,215.9c-.41.12-.74.14-.99.3-3.31,2.03-6.67,4-9.86,6.2-.81.56-1.48,1.91-1.49,2.91-.01,1.45.51,2.95,1.04,4.33.6,1.57,1.45,3.05,2.23,4.55.71,1.36,3.09,2.83,3.94,2.45.83-.37,1.64-.76,2.44-1.19,1.43-.77,2.2-2.82,1.26-3.48-.82-.57-1.84-.85-2.77-1.26-1.32-.58-2.8-.95-3.91-1.79-2.64-1.99-2.26-5.18.57-6.81,2.65-1.53,5.24-3.18,7.83-4.8.25-.16.52-.61.46-.84-.06-.25-.5-.4-.74-.57Z"/>
      <path d="M724.59,194.93c1.82-2.22,3.38-4.48,5.3-6.37,2.96-2.9,4.34-6.73,6.53-10.09.63-.97,1.3-1.91,2-2.83,1.09-1.44,2.78-1.69,4.41-1.07,1.96.75,4.06,1.14,6.05,1.82,1.1.37,2.46.75,3.1,1.58,1.4,1.82,1.82,4.02,1.39,6.37-.49,2.67-.94,5.35-1.2,8.05-.15,1.51.71,1.82,2.08,1.04,3.22-1.83,6.62-2.99,10.39-2.46.57.08,1.22.32,1.61.71,1.55,1.56,3.02,3.2,4.5,4.82,1.47,1.6,1.86,3.03.61,4.54-3.52,4.23-5.43,9.4-8.39,13.95-1.14,1.75-2.65,2.61-4.66,3.12-2.62.66-5.14,1.7-7.69,2.59-1.13.39-2.29.74-3.33,1.3-.48.26-.98.96-1.03,1.5-.39,4.93-.76,9.86-.99,14.8-.15,3.19,1.62,4.02,4.64,2.78,1.92-.78,4.14-1.37,6.16-1.2,1.49.13,2.97,1.49,4.25,2.56,1.31,1.08,2.5,2.37,3.49,3.75,2.08,2.87,1.07,5.72-1.15,8.53-1.95,2.48-4.52,3.7-7.91,2.56-1.15-.39-2.61.11-3.92.24-.42.04-.81.28-1.23.33-3.06.39-6.15.65-9.18,1.19-1.11.2-2.14,1.02-3.13,1.65-2.65,1.69-5.32,3.27-8.61,3.14-.56-.02-1.22-.2-1.65-.53-3.2-2.42-5.03-5.88-6.91-9.29-.42-.76-1.15-2.02-.88-2.37.99-1.25,2.3-2.29,3.59-3.27,1.21-.91,2.57-1.64,3.86-2.46,2.23-1.41,2.74-3.67,3.16-6.07.43-2.46,1.12-4.87,1.72-7.29.36-1.47.98-2.91,1.09-4.39.07-.91-.45-1.97-.98-2.78-.63-.95-1.66-1.64-2.33-2.57-.37-.51-.66-1.39-.47-1.93.37-1.06,1-2.06,1.69-2.96,1.42-1.85,2.12-3.88,2.18-6.23.04-1.38.52-2.74.68-4.12.16-1.39.14-2.8.27-4.19.2-2.11.57-4.22.68-6.34.08-1.58-.13-3.17-.21-4.76-1.25.73-2.66,1.27-3.72,2.21-1.87,1.66-3.51,2-5.86.4Z"/>
      <path d="M832.08,201.6c-.49,0-1.05-.16-1.47.02-4.23,1.82-8.41,3.77-12.66,5.53-2.1.87-4.36,1.36-6.5,2.16-3.02,1.13-5.95,2.5-9,3.57-1.65.58-3.43.86-5.17,1.03-2.32.23-4.66.23-6.99.31-1.73.06-2.98-1.11-3.34-2.41-.26-.94.49-2.54,1.3-3.33,2.31-2.25,3.8-4.96,5.32-7.71.33-.6,1.58-.91,2.43-.97,1.13-.08,1.07.9,1.03,1.73-.02.61-.04,1.23.02,1.84.16,1.75,1.21,2.38,2.93,2.07,2.02-.37,4.09-.5,6.12-.84,1.29-.22,2.57-.59,3.82-1.01,2.55-.86,5.06-1.84,7.61-2.69,2.35-.77,4.74-1.41,7.09-2.14,1.66-.52,3.29-1.1,4.93-1.65.29-.1.59-.27.88-.25,2.53.23,4.67-.77,6.87-1.86,2.47-1.22,5.17-1.97,7.61-3.23,4.46-2.3,8.72-4.98,13.21-7.2,2.66-1.31,5.33-2.63,8.6-2.52,2.17.07,4.29-.33,6.26.87,1.7,1.03,2.06,3.21.9,4.83-1.43,2.01-3.48,2.71-5.81,2.8-2.92.11-5.95-.28-8.74.36-4.17.95-8.42,2-11.93,4.75-1.14.9-2.45,1.58-3.64,2.42-.4.28-.69.73-1.04,1.1.08.16.17.32.25.49.5-.12,1.06-.13,1.48-.38,3.04-1.87,8.77.72,9.39,3.95.31,1.6-.07,2.73-1.21,3.76-1.43,1.31-3.01,2.51-4.16,4.04-.56.75-.7,2.33-.29,3.17,1.1,2.27.95,4.19-.67,6.05-2.88,3.31-4.91,7.11-6.28,11.24-.33,1-.16,2.18-.16,3.27-.03,4.58-.24,9.16,0,13.73.17,3.45,1.03,6.77,3.23,9.68.59.78.85,2.62.34,3.28-1.7,2.26-3.54,4.73-6.94,4.27-1.07-.14-2.3-.49-3.09-1.17-3.48-2.96-6.8-6.11-10.23-9.13-.77-.68-1.74-1.12-2.61-1.69-1.6-1.05-3.12-.38-3.22,1.53-.09,1.65.14,3.32-.05,4.96-.1.86-.58,1.91-1.24,2.41-1.83,1.39-3.84,2.61-6.33,2.16-.72-.13-1.52-.34-2.09-.76-1.81-1.34-3.49-2.86-5.31-4.21-2.28-1.7-3.75-4.04-4.11-6.68-.25-1.85.4-3.98,1.14-5.78,2.08-5.09,5.48-9.32,9.4-13.14.55-.53,1.34-1.14,2.03-1.15,1.87-.03,3.53-1.37,5.61-.39,2.24,1.06,3.77,2.58,3.9,5.09.06,1.22.08,2.46-.07,3.67-.74,6.14,3.69,8.06,8.6,8.11,2.45.02,2.47-.15,2.45-2.67-.05-4.96-.01-9.93-.04-14.89-.01-2.18-1.11-3.42-3.23-3.23-3.98.37-6.39-1.49-8.03-4.9-1.1-2.27-2.43-4.43-3.62-6.66-.94-1.77-.23-4.41,1.54-5.64,3.98-2.77,7.98-5.51,11.98-8.25.46-.31.97-.55,1.45-.82-.16-.31-.32-.62-.47-.93ZM832.69,215.36c1.49-.67,3.68-1.6,5.82-2.63,2.8-1.36,4.4-3.96,6.23-6.29.37-.47.69-1.36.48-1.8-.26-.54-1.09-1.13-1.67-1.12-.91.02-1.78.61-2.71.81-4.91,1.05-8,4.36-10.47,8.4-1.09,1.77-.59,2.56,2.32,2.64Z"/>
      <path d="M993.27,216.6c-1.57.55-3.16,1.02-4.7,1.65-3.71,1.52-7.48,2.96-11.06,4.76-1.66.84-3.24.9-4.92.85-.77-.02-2.01-.24-2.18-.69-.3-.8-.32-2.17.18-2.74,2.67-3.07,5.46-6.06,8.37-8.9,1.14-1.11,2.68-1.85,4.12-2.59.4-.21,1.29.05,1.64.41.22.22.02,1.16-.29,1.54-1.04,1.28-2.21,2.46-3.33,3.67.12.27.24.54.36.82,1.75-.2,3.57-.16,5.22-.66,3.1-.94,6.12-2.15,9.15-3.32,1.86-.72,3.65-1.58,5.5-2.33.66-.27,1.42-.3,2.06-.61.42-.2.89-.64,1-1.06.07-.27-.39-.85-.75-1.03-2.86-1.46-5.77-2.82-8.63-4.28-2.98-1.51-3.67-4.57-1.96-8.01.36-.72.45-1.59.6-2.4.25-1.31.54-2.62.66-3.94.22-2.43.31-4.86.51-7.29.06-.67.22-1.85.48-1.89.96-.15,2.07-.16,2.95.21,1.25.52,2.31,1.5,3.53,2.14,1.88.98,3.25-.44,4.64-1.29,1.34-.82,2.43-2.04,3.78-2.84.64-.38,1.85-.53,2.41-.18,2.56,1.6,4.69.32,6.76-.86,2.04-1.16,3.9-2.64,5.87-3.93.38-.25,1.06-.51,1.34-.34,1.4.85,2.94,1.63,3.99,2.83,1.41,1.61.36,3.35-.63,4.79-1.89,2.73-4.2,5.2-5.85,8.06-2.35,4.06-4.26,8.36-6.36,12.56-.11.22-.32.41-.35.63-.09.67-.11,1.35-.16,2.02.66-.07,1.41.03,1.96-.25,3.19-1.65,6.38-2.65,9.69-.43.59.4.93,1.18,1.39,1.79-.57.34-1.1.84-1.72,1.01-3.9,1.03-7.89,1.79-11.72,3.02-2.13.68-4.05,2.06-6.01,3.22-.35.21-.41.89-.61,1.36.47-.05.96-.06,1.41-.17.52-.12,1-.37,1.52-.5.98-.25,2.06-.3,2.95-.73,2.05-.99,6.26,1.09,6.72,2.44.28.85-.06,2.26-.66,2.97-1.52,1.82-3.31,3.42-5.05,5.04-1.65,1.53-2.93,3.12-3.26,5.53-.19,1.36-1.39,2.54-1.94,3.89-.7,1.71-1.6,3.48-1.73,5.27-.35,5.02-1.23,10.01-.27,15.11.54,2.85.21,5.86.19,8.8-.01,1.85-2.89,4.9-4.57,4.8-.58-.04-1.33-.53-1.64-1.03-.62-1.01-.94-2.19-1.47-3.26-1.46-2.94-3.78-5.06-6.61-6.64-.25-.14-1.02.3-1.32.66-1.66,2-3.1,4.22-4.96,6-.65.62-2.61.69-3.46.18-4.09-2.48-6.32-7.71-4.92-12.36.87-2.89,2.71-5.49,4.13-8.22.19-.37.55-.67.69-1.05,1.07-3.08,5.78-4.9,9.06-2.88,1.44.88,1.94,3.69,1.1,5.47-1.5,3.21-1.16,5.72,2.11,6.58,1.38.37,2.64,1.2,4.02,1.48.53.11,1.61-.6,1.81-1.15.38-1.06.28-2.28.41-3.43.14-1.27.33-2.54.44-3.81.19-2.18.42-4.36.45-6.54.02-1.21-.95-1.07-1.75-.75-.78.31-1.51.72-2.28,1.07-3.67,1.67-7.97-.7-8.59-4.7-.32-2.07-1.07-4.14-.98-6.19.08-1.9,1.01-3.76,1.56-5.63.12-.42.25-.85.37-1.27l-.44-.41ZM1011.49,182.13c1.78,2.44,3.4,4.65,5.18,7.07,1.99-2.4,3.45-4.87,4.35-7.65.12-.36-.09-1.11-.37-1.27-.41-.22-1.05-.15-1.56-.05-1.1.22-2.18.53-3.26.8-1.53.39-3.06.77-4.34,1.09ZM1002.78,225.12c.38-.14.56-.18.71-.27,2.87-1.79,5.88-3.45,7.43-6.69.16-.32.09-.75.13-1.13-.34,0-.73-.12-1,0-1.16.54-2.3,1.12-3.42,1.74-1.57.87-3.16,1.7-4.62,2.74-.44.32-.73,1.32-.58,1.87.18.67.9,1.19,1.35,1.73ZM1003.74,189.74c-.17.13-.41.23-.53.4-.69,1.03.67,4.52,1.9,4.7.36.05,1.19-.67,1.16-.75-.6-1.37-1.3-2.7-2-4.03-.07-.13-.29-.18-.53-.32ZM1002.42,212.94c-1.68.53-3.37,1.06-5.12,1.61,1.4,2,4.01,1.35,5.12-1.61Z"/>
      <path d="M722.74,219.55c0,1.96,0,3.92,0,5.88,0,1.9.61,2.39,2.46,2.07,2.2-.38,4.07,1.04,3.35,2.63-.52,1.14-1.31,2.18-2.06,3.21-2.74,3.77-5.59,7.44-6.77,12.11-.36,1.42-1.57,2.61-1.97,4.02-1,3.55-2.84,6.46-5.59,8.92-.87.78-1.35,2-1.99,3.03-2.14,3.44-6.08,4.54-9.76,2.74-2.22-1.08-4.56-1.95-6.67-3.21-2.99-1.78-3.92-5.21-2.37-8.89.78-1.85.48-4.14.67-6.24,0-.06-.04-.12-.05-.18-.41-3.48-.85-6.97-1.22-10.45-.06-.58.05-1.27.34-1.76.34-.58.96-1.01,1.46-1.5.33.5.79.95.97,1.5.67,1.98,1.15,4.03,1.89,5.98.46,1.19,1.15,2.34,1.94,3.35,1.09,1.4,2.19.8,2.92-.41,1.64-2.74,3.23-5.5,3.17-8.88-.04-1.83-1.59-3.68-3.42-3.71-2.7-.05-5.39-.06-8.09-.08-3.33-.02-5.98-2.72-6.26-5.86-.44-4.94,2.23-7.65,5.45-10.21,3.09-2.46,3.2-2.32.69-5.55-.92-1.18-2.1-2.25-2.66-3.58-.48-1.15-.49-2.63-.3-3.9.27-1.79,6.14-4.41,7.66-3.45,1.95,1.22,3.71,2.74,5.66,3.97,1.08.68,2.33,1.23,3.58,1.47,1.36.26,2.81.09,4.22.11,4.63.05,8.41,2.07,10.95,5.76,1.19,1.73,1.43,4.18,1.81,6.35.27,1.55.05,3.18.05,4.77-.02,0-.04,0-.07,0Z"/>
      <path d="M1197.68,198.59c-.95,0-1.72-.07-2.47.01-5.59.58-7.96-5.68-6.89-9.42.38-1.33,1.25-1.36,2.27-.76,2.12,1.23,4.25.91,6.28-.1,2.72-1.37,4.86-3.43,6.75-5.83,1.58-2.01,3.42-3.82,5.22-5.64,1.74-1.77,2.96-1.88,5.25-.78.92.44,1.88.8,2.81,1.24,4.23,1.98,4.11,5.04,1.46,7.99-.41.45-.9.84-1.4,1.19-4.45,3.14-6.94,7.49-8.65,12.62-.84,2.53-.51,4.93-.7,7.38-.1,1.32.56,2.7.85,4.06.67,3.13,1.24,6.28,2,9.39.57,2.32-.29,4.28-1.61,5.9-1.38,1.7-2.71,3.78-5.16,4.09-.88.11-2.14-.15-2.71-.74-1.38-1.43-2.46-3.15-3.64-4.77-.6-.82-1.08-1.75-1.76-2.5-.35-.4-1.18-.86-1.48-.7-.49.25-.96.97-1.02,1.54-.17,1.7-.1,3.43-.21,5.14-.18,3.05-.45,6.1-.62,9.15-.18,3.32.39,6.49,1.96,9.49,1.24,2.35,1.89,4.73.92,7.51-.67,1.92-1.17,3.85-2.28,5.6-1.93,3.06-4.37,3.39-6.78.67-1.74-1.97-3.29-4.09-5.02-6.07-1.02-1.18-.82-2.32-.27-3.55.19-.44.53-.87.56-1.32.37-5.16.82-10.31,1.01-15.48.19-5.33.04-10.67.2-16,.1-3.29.38-6.6.84-9.86.29-2.06,1.35-3.96,3.19-5.07.7-.42,2.18-.5,2.73-.04,1.35,1.14,2.61,2.54,3.43,4.09.71,1.33.69,3.02,1.15,4.5.13.4,1.1.97,1.27.85.69-.47,1.53-1.09,1.73-1.81.3-1.09.12-2.31.12-3.47,0-1.96-.05-3.92.02-5.87.03-.76.34-1.5.62-2.63Z"/>
      <path d="M1108.92,248.49c.21-5.51,1.89-9.47,4.88-12.85.68-.76,1.78-1.34,2.79-1.58,2.35-.55,4.76-1.22,7.13-1.16,3.66.1,5.58-1.76,6.92-4.76.81-1.8,1.73-3.56,2.5-5.38.2-.47.02-1.09.02-1.65-.56.12-1.23.08-1.66.38-1.74,1.21-3.33,2.65-5.11,3.78-2.99,1.89-6.2,2.75-9.47.66-.82-.52-1.32-1.54-1.97-2.34,1.07-.8,2.03-1.9,3.23-2.33,1.73-.62,3.7-.59,5.45-1.16,1.29-.42,2.43-1.35,3.6-2.1,2.14-1.36,4.24-2.77,6.39-4.11,1.7-1.07,3.52-.77,5.36.78,1.2,1.01,1.55,3.09.82,4.74-1.23,2.79-2.41,5.6-3.68,8.37-.29.64-.86,1.15-1.26,1.74-.21.32-.33.71-.48,1.07.36.16.75.49,1.09.45,3.52-.41,6.18,1.35,8.75,3.36,1.28,1,2.69,1.87,3.87,2.97,1.3,1.21,1.3,2.72.22,4.11-1.94,2.47-4.32,4.04-7.64,3.84-1.16-.07-2.34-.02-3.49.1-2.3.23-3.13,1.23-3.02,3.49.02.43.08.86.08,1.28.04,4.01.08,8.03.09,12.04,0,2.2-1.05,3.27-3.23,3.63-4.1.68-7.63-.76-11.27-2.44-3.33-1.53-4.98-4.25-6.62-7.16-.36-.63-.76-1.29-1.3-1.74-2.21-1.84-3.74-3.91-2.99-6.05ZM1124.68,246.36c-2.46-.06-3.14.61-3.14,3.04,0,2.02,1.21,3.49,2.59,4.58,1.94,1.53,3.46.64,3.55-1.78.02-.42.04-.86.17-1.26.98-2.89-.14-4.51-3.18-4.59Z"/>
      <path d="M1142.33,216.41c1.12-.63,2.18-1.38,3.36-1.85,2.11-.85,4.38-1.36,6.42-2.33,1.63-.77,3.07-1.97,4.51-3.09.24-.18.2-1.25-.03-1.39-.91-.57-1.91-1.21-2.94-1.34-3.69-.44-7.39-.76-11.1-.95-1.21-.06-2.45.43-3.68.68-.36.07-.71.18-1.07.23-2.44.34-4.91.55-7.32,1.04-1.86.39-3.65,1.15-5.47,1.72-2.21.7-4.48,1.24-6.62,2.11-4.26,1.74-8.38,3.72-11.96,6.75-2.25,1.91-4.8,3.47-7.23,5.17-.23.16-.64.37-.82.28-2.48-1.27-2.07.44-2.31,1.97-.47,2.97-1.17,5.92-1.95,8.83-.85,3.16-3.13,4.44-6.1,3.35-1.9-.7-3.82-1.56-5.44-2.74-3.34-2.45-4.3-7.51-.98-11.71,2.77-3.51,5.9-6.73,8.22-10.59.24-.4.68-.67,1.17-1.13.54.57,1.05,1.08,1.53,1.61,2.48,2.78,2.61,2.69,5.89.89,2.89-1.58,5.88-3.02,8.95-4.22,1.76-.69,3.77-.77,5.66-1.15.32-.06.61-.26,1.34-.58-1.63-.67-3.04-.97-4.12-1.74-1.95-1.37-3.7-3.01-5.53-4.54-.16-4-.7-8.03-.34-11.98.22-2.45,2.81-3.86,4.8-5.28.91-.65,2.89.77,3.53,2.44.86,2.22,1.54,4.52,2.61,6.63,1.39,2.75,3.11,5.33,4.61,8.02.38.68.7,1.53.64,2.28-.09,1.36.31,2.08,1.71,1.82,1.84-.34,3.66-.81,5.49-1.22,1.05-.24,2.1-.52,3.16-.72,6.87-1.32,13.83-.86,20.76-1.07,3.03-.09,5.74.57,8.42,1.77,1.61.72,3.41,1.17,4.79,2.2,3.58,2.67,3.67,4.03.06,6.45-2.12,1.42-4.58,2.17-7.35,2.26-3.22.1-6.4,1.12-9.62,1.6-1.78.26-3.61.23-5.41.32-.08-.26-.15-.52-.23-.77Z"/>
      <path d="M1041.66,204.64c.98-.09,2.12.12,2.91-.32,2.75-1.53,5.14-.37,7.43.88,1.81.98,2.27,3.97,1.62,5.86-1.47,4.31-4.16,7.79-7.06,11.17-.3.35-.25.99-.37,1.5.55,0,1.13.12,1.64-.01,1.81-.47,3.57-1.22,5.4-1.52,2.59-.42,5.73,2.04,5.73,4.66,0,3.07-.5,6.13-.82,9.19-.31,3.01-.86,6-.97,9.01-.14,3.6-.5,7.1-1.87,10.48-.57,1.43-.92,2.97-1.17,4.49-.57,3.43-1.18,4.16-4.57,3.77-2.72-.31-5.36-1.41-8.09-1.67-3.01-.29-5.47-1.63-7.82-3.21-2.21-1.48-4.28-3.2-5.03-6.02-.29-1.09-.04-1.53,1.01-1.55.61-.01,1.28-.05,1.81.19,3.82,1.74,7.86,1.99,11.95,1.8,3.16-.15,6.53-3.41,7.1-6.56.45-2.47,1.31-4.88,1.71-7.35.53-3.22.9-6.47,1.1-9.72.1-1.65-1.94-2.82-3.53-2.19-2.35.92-4.61,2.1-7,2.85-1.35.42-2.9.3-4.34.18-.24-.02-.74-1.55-.48-2.01,1.26-2.21,2.8-4.25,4.12-6.43,1.84-3.04,3.71-6.07,5.3-9.24,1.14-2.28.21-4.55-1.76-5.15-.39-.12-.87-.18-1.25-.06-2.43.74-4.82,1.61-7.26,2.27-1.15.31-2.42.33-3.62.3-.82-.02-1.16-2.28-.43-3.34,1.65-2.37,3.47-4.63,5.06-7.05,1.13-1.71,2.08-3.55,2.95-5.41,1.21-2.6,2.56-5.2,3.33-7.94.8-2.88,1.59-5.85,1.18-8.96-.11-.86.06-1.85.41-2.65.51-1.19,1.18-1.51,2.73-.91,3.16,1.22,5.86,3.05,8.23,5.29,1.6,1.51,2.96,3.42,3.95,5.39,1.07,2.11-1.65,5.7-4.24,6.21-2.51.5-4.8,1.38-6.56,3.5-2.38,2.86-5.01,5.52-7.53,8.28-.4.44-.75.92-1.12,1.38.08.21.16.42.23.64Z"/>
      <path d="M1027.57,234.86c-.61,2.3,1.3,4.34,2.36,6.6,1.12,2.39,1.23,4.67-.16,6.26-2.2,2.52-4.67,3.25-7.37,2.21-1.01-.39-2.12-.53-3.09-.99-3.21-1.51-4.27-4.48-5.04-7.63-.1-.41-.16-.86-.36-1.22-1.44-2.59-.46-4.54,1.17-6.43,1.62-1.89,4.24-2.16,6.52-1.21.44.18,1.17-.09,1.66-.36.52-.28.86-.87,1.37-1.2.56-.36,1.65-.94,1.76-.8.58.68,1.02,1.54,1.29,2.4.17.55-.03,1.21-.1,2.35Z"/>
      <path d="M858.58,253.35c-2.44,0-4.05-1.99-6-3.25-1.92-1.25-3.7-2.73-5.52-4.13-1.49-1.15-1.55-2.11-.22-3.5.38-.39.78-.82,1.26-1.06,2.35-1.16,3.77-3.11,4.95-5.36.97-1.85,3.45-1.7,4.66-.04,1.77,2.4,3.79,4.61,5.69,6.92,1.66,2.02,1.79,4.33.92,6.66-.8,2.13-3.56,3.88-5.74,3.76Z"/>
      <path d="M845.28,185.98c-.24,3.22-2.25,4.65-5.15,3.6-3.27-1.19-6.63-1.81-10.15-1.78-1.32.01-2.75-.48-3.93-1.11-.89-.47-.36-1.12.43-1.58,1.57-.91,3.04-2,4.59-2.95,1.13-.69.88-1.27.2-2.2-1.15-1.57-2.93-2.83-2.71-5.16.11-1.2.49-1.83,1.84-1.51,3.62.85,7.17,1.83,10.28,4.01,1.72,1.2,2.87,2.71,3.36,4.77.32,1.33.82,2.62,1.23,3.93Z"/>
      <path d="M1152.16,185.13c-.58.86-.97,1.99-1.77,2.53-5.01,3.41-9.85,7.09-15.43,9.57-.38.17-.83.33-1.21.28-.42-.06-.8-.37-1.2-.57.22-.34.37-.75.66-1,1.6-1.41,3.43-2.61,4.8-4.2,1.27-1.48,2.11-3.35,3.01-5.11.17-.34-.2-1.01-.43-1.48-.57-1.19-.37-1.98,1.08-1.91,2.44.12,4.67-.33,6.8-1.64,1.25-.77,3.36,1.39,3.68,3.52Z"/>
      <path d="M1120.78,187.8c1.01.3,2.01.67,3.05.89.54.11,1.21.1,1.7-.12,1.57-.72,3.05-1.66,4.64-2.34.68-.29,1.58-.29,2.31-.13.93.21,1.25.83.6,1.78-1.43,2.09-2.85,4.18-4.15,6.35-1.7,2.83-3.49,3.32-5.88,1.07-1.85-1.74-3.34-3.87-4.9-5.89-.12-.16.36-1.09.74-1.26.51-.23,1.2-.06,1.81-.06.03-.1.06-.2.09-.29Z"/>
    </g>
  </g>
  <path d="M438.02,309.01l-1.12-6.08,32.72-4.78c10.64-1.68,14.96-33.49,18.12-56.73,3.57-26.23,5.77-39.98,13.19-41.15,1.87-.3,3.7.17,5.31,1.33,5.73,4.15,8.15,16.87,11.64,37.28,3.16,18.5,7.08,41.52,15.08,47.32,1.52,1.1,3.08,1.48,4.9,1.19l68.71-11.2,1.22,6.07-68.73,11.21c-3.49.55-6.71-.24-9.61-2.34-10.13-7.35-13.96-29.76-17.65-51.44-2.43-14.22-5.18-30.35-9.06-33.16-.3-.22-.45-.21-.62-.18-.06.02-1.98.78-4.17,10.49-1.54,6.84-2.79,15.97-4.1,25.64-3.97,29.2-8.07,59.39-23.08,61.76l-32.76,4.79Z"/>
  <path d="M438.06,309.01l-1.19-6.08c29.19-4.6,43.16-6.64,52.41-7.98,4.8-.7,8.26-1.2,12.03-1.8,15.93-2.51,22.76-18.58,27.76-30.31,3.24-7.61,5.58-13.1,9.99-13.8,7.33-1.15,11.75,8.01,16.43,17.71,3.57,7.4,8,16.61,11.99,15.97l39.09-6.53,1.24,6.07-39.12,6.54c-8.67,1.36-13.79-9.27-18.75-19.55-2.79-5.8-7.02-14.56-9.7-14.13-1.33.53-3.73,6.18-5.48,10.31-5.22,12.26-13.1,30.79-32.26,33.81-3.8.6-7.28,1.11-12.1,1.81-9.23,1.34-23.18,3.38-52.34,7.97Z"/>
  <path d="M438.03,309.01l-1.12-6.08,35.77-5.25c11.48-1.81,14.79-7.08,18-12.18,2.69-4.28,5.48-8.71,12.4-9.8,8.59-1.35,13.19,4.09,16.54,8.07,3.19,3.78,5.02,5.73,8.5,5.18,6.04-.95,11.21-13.99,14.98-23.51,3.96-10,6.58-16.6,11.25-17.34,5.37-.84,7.26,6.38,9.89,16.37,1.27,4.84,2.59,9.84,4.2,13.5,1.56,3.54,2.69,4.21,2.99,4.15l35.12-5.92,1.25,6.06-35.15,5.93c-8.15,1.29-11.31-10.74-14.38-22.37-.94-3.58-2.29-8.69-3.39-10.96-1.77,2.22-4.29,8.6-6.05,13.02-4.76,12.03-10.16,25.66-19.54,27.14-7.15,1.13-11.14-3.6-14.35-7.4-3.48-4.12-5.85-6.62-10.7-5.84-4.27.67-5.88,3.24-8.33,7.13-3.54,5.62-7.94,12.62-22.11,14.85l-35.81,5.26Z"/>
  <path d="M442.44,351.04l-8.05-5.64v-192l6.24-4.46,164.24,24.03,4.76,6.34v129.29l-3.97,6.35-1.26.28-161.95,35.8ZM440.53,342.21l3.22,2.25,158.06-34.94,1.67-2.67v-125.48l-2.01-2.68-159.28-23.31-1.65,1.18v185.64Z"/>
</svg>