<?xml version="1.0" encoding="UTF-8"?>
<svg id="_图层_1" data-name="图层 1" xmlns="http://www.w3.org/2000/svg" width="1383.56" height="500" viewBox="0 0 1383.56 500">
  <defs>
    <style>
      .cls-1 {
        fill: #fff;
      }
    </style>
  </defs>
  <g>
    <path class="cls-1" d="M249.38,256.37c-1.65.66-4.64,7.7-6.83,12.83-2.26,5.31-4.92,11.56-8.44,17.62,1.73,3.5,3.67,6.26,5.86,7.98,5.1-5.71,9.51-16.83,12.97-25.58.93-2.36,1.81-4.56,2.65-6.59-2.24-3.75-4.48-6.53-6.21-6.26Z"/>
    <path class="cls-1" d="M271.85,269.7c-1.17-4.46-2.85-10.81-4.22-13.65-1.02,1.28-2.23,3.66-3.47,6.39,1.42,2.66,2.8,5.52,4.2,8.42,2.62,5.43,5.61,11.63,8.64,15.66-2.01-4.92-3.59-10.91-5.15-16.82Z"/>
    <path class="cls-1" d="M261.46,273.96c-.36-.74-.73-1.52-1.12-2.31-.08.21-.16.42-.24.62-3.31,8.35-6.86,17.32-11.38,23.94l23.5-3.65c-4.07-4.74-7.44-11.73-10.75-18.59Z"/>
    <path class="cls-1" d="M161.46,309.95c13.25-2.09,18.63-41.7,22.57-70.63,4.44-32.67,7.19-49.78,16.43-51.23,2.33-.37,4.61.21,6.61,1.66,7.13,5.17,10.15,21.01,14.49,46.42,2.32,13.62,4.98,29.2,8.82,41.16,1.92-3.88,3.58-7.77,5.09-11.33,4.03-9.47,6.94-16.32,12.44-17.18,4.53-.71,8.17,1.74,11.39,5.87,2.25-4.06,4.6-6.56,7.65-7.04,6.68-1.05,9.04,7.94,12.32,20.38,1.59,6.02,3.23,12.25,5.23,16.81,1.94,4.41,3.35,5.24,3.73,5.16l47.54-7.31v-120.67l-5.92-7.9-204.5-29.93-7.77,5.55v187.63l43.87-7.42Z"/>
    <path class="cls-1" d="M227.6,296.28c1.71,1.54,3.34,2.35,5.42,2.31-1.28-1.35-2.46-2.92-3.57-4.68-.6.8-1.21,1.59-1.85,2.36Z"/>
    <path class="cls-1" d="M204.59,289.56c-5.31.84-7.33,4.04-10.37,8.88-1.42,2.26-2.95,4.69-4.96,7.04,4.34-.63,7.88-1.16,11.65-1.75,6.53-1.03,11.83-3.9,16.23-7.8-3.93-4.59-6.88-7.27-12.55-6.37Z"/>
    <path class="cls-1" d="M247.92,304.12c-2.27.36-4.45.25-6.53-.3-1.74,1.13-3.61,1.91-5.62,2.23-5.89.93-10.06-1.34-13.36-4.35-5.31,4.74-11.84,8.3-20.03,9.59-4.73.75-9.06,1.38-15.06,2.25-11.06,1.61-35.58,6.23-69.74,11.67v43.57l10.03,7.02,201.65-44.58,1.57-.35,4.94-7.91v-32.51l-87.85,13.64Z"/>
    <path class="cls-1" d="M222.32,290.42c1.12-1.41,2.16-2.88,3.15-4.39-5.36-12.95-8.46-31.11-11.49-48.87-3.02-17.71-6.45-37.78-11.28-41.29-.37-.27-.56-.27-.78-.23-.07.03-2.46.98-5.19,13.06-1.92,8.52-3.47,19.88-5.1,31.92-3.4,24.97-6.87,50.52-14.77,65.03,5.52-3.07,8.19-7.31,10.8-11.46,3.35-5.33,6.82-10.85,15.44-12.2,9.57-1.5,15.15,3.75,19.21,8.42Z"/>
  </g>
  <g>
    <path class="cls-1" d="M458.25,166.96c3.86-2.51,7.12-5.02,9.77-7.52l-6.05-6.93c-5.11,4.92-10.3,8.73-15.56,11.43v-22.05h-9.07v56.79c0,3.59.84,6.18,2.51,7.78,1.67,1.6,4.33,2.4,7.97,2.4h11.43c3.05,0,5.21-.64,6.49-1.92,1.28-1.28,1.92-3.44,1.92-6.49v-14.23l-8.41-2.58v16.52h-9.29c-1.38,0-2.31-.21-2.8-.63-.49-.42-.74-1.29-.74-2.62v-23.38c4.03-1.87,7.98-4.06,11.84-6.56Z"/>
    <path class="cls-1" d="M419.2,159.14h-18.73v8.63h18.73v16.37c-5.06,2.9-11.7,5.53-19.91,7.89l2.65,9c5.8-1.82,11.55-4.2,17.26-7.15v15.86h9.07v-67.85h-9.07v17.26Z"/>
    <path class="cls-1" d="M529.68,185.03l-6.56,4.94c5.41,5.07,10.87,11.11,16.37,18.14l7.01-5.9c-5.11-5.95-10.72-11.68-16.82-17.18Z"/>
    <path class="cls-1" d="M545.76,148.23h-28.76c-.84-1.92-2.06-4.4-3.69-7.45l-9.07,2.58c.49.79,1.45,2.41,2.88,4.87h-29.21v8.11h67.85v-8.11Z"/>
    <path class="cls-1" d="M537.65,159.96h-51.63v22.86h21.76v18.95h-10.03l2.07,7.82h7.08c3.34,0,5.83-.77,7.45-2.32,1.62-1.55,2.43-3.97,2.43-7.26v-17.19h20.87v-22.86ZM528.58,175.44h-33.56v-8.11h33.56v8.11Z"/>
    <path class="cls-1" d="M493.25,184.66c-1.92,3.39-4.2,6.47-6.86,9.22-2.65,2.75-5.8,5.31-9.44,7.67l5.9,6.71c3.64-2.46,7.05-5.46,10.25-9,3.2-3.54,5.83-7.13,7.89-10.77l-7.74-3.84Z"/>
    <path class="cls-1" d="M613.76,200.15h-17.18c-1.38,0-2.34-.27-2.88-.81-.54-.54-.81-1.5-.81-2.88v-6.49h25.96v-40.56h-25.96v-7.52h-8.85v7.52h-25.52v45.95h8.7v-5.38h16.82v7.38c0,3.88.89,6.7,2.65,8.44,1.77,1.75,4.72,2.62,8.85,2.62h17.04c3.49,0,6.01-.77,7.56-2.32s2.32-4.07,2.32-7.56v-3.84l-8.7-2.36v7.82ZM592.89,157.37h17.11v8.41h-17.11v-8.41ZM592.89,173.3h17.11v8.85h-17.11v-8.85ZM584.04,182.16h-16.82v-8.85h16.82v8.85ZM584.04,165.78h-16.82v-8.41h16.82v8.41Z"/>
    <path class="cls-1" d="M671.29,177.51h-35.03v15.05h4.2c-2.02,3.49-5.06,6.69-9.15,9.59l5.24,6.05c2.36-1.77,4.55-3.86,6.56-6.27l2.06,7.38h5.31c2.9,0,4.99-.71,6.27-2.14,1.28-1.43,1.92-3.54,1.92-6.34v-8.26h12.61v-15.05ZM649.98,201.18h-6.27c1.38-1.77,2.53-3.49,3.47-5.16l-6.49-3.47h9.29v8.63ZM662.44,186.43h-17.26v-2.73h17.26v2.73Z"/>
    <path class="cls-1" d="M672.1,200.45c-1.77-2.51-3.84-5.02-6.2-7.52l-6.56,3.76c2.51,3.2,4.94,6.76,7.3,10.69l3.98-2.65,4.13,5.61c5.31-2.75,10.29-6.28,14.94-10.58,4.65-4.3,8.74-9.03,12.28-14.2l-7.67-4.87c-6.39,8.51-13.79,15.1-22.2,19.77Z"/>
    <path class="cls-1" d="M698.65,146.68l-7.3-5.31c-2.41,3.54-5.18,6.71-8.3,9.51-3.12,2.8-6.72,5.43-10.81,7.89l5.46,8.04c8.26-5.21,15.24-11.92,20.95-20.14Z"/>
    <path class="cls-1" d="M674.32,168.14h-15.78c-.49-1.08-.88-1.89-1.18-2.43h13.94v-22.64h-35.03v22.64h11.73l1.33,2.43h-16.52v7.08h41.52v-7.08ZM644.59,149.33h18.37v2.14h-18.37v-2.14ZM644.59,159.51v-2.21h18.37v2.21h-18.37Z"/>
    <path class="cls-1" d="M683.83,170.87c-3.54,3.29-7.4,6.15-11.58,8.56l5.53,8.11c8.56-5.56,16.1-13,22.64-22.35l-7.3-5.02c-2.66,3.84-5.75,7.4-9.29,10.69Z"/>
    <path class="cls-1" d="M719.23,160.18h49.78v8.85h8.63v-16.67h-10.77c1.87-2.36,3.66-5.02,5.38-7.97l-8.48-2.73c-1.77,3.74-3.93,7.3-6.49,10.69h-13.57l6.12-2.65c-1.62-3.64-3.37-6.86-5.24-9.66l-8.04,3.47c1.92,2.85,3.56,5.8,4.94,8.85h-14.82l3.54-1.7c-2.41-3.88-4.47-6.76-6.2-8.63l-7.6,3.98c1.57,1.67,3.17,3.79,4.79,6.34h-10.55v16.67h8.56v-8.85Z"/>
    <path class="cls-1" d="M749.47,181.93c7.23-3.15,12.56-6.69,16-10.62v-6.79h-42.7v7.38h30.46c-3.69,2.16-7.87,3.96-12.54,5.38v5.53h-30.09v8.11h30.09v10.25h-14.53l2.21,8.19h13.13c2.8,0,4.83-.64,6.08-1.92,1.25-1.28,1.88-3.27,1.88-5.97v-10.55h28.25v-8.11h-28.25v-.89Z"/>
    <path class="cls-1" d="M818.87,170.58h31.12v-4.79h5.24v-16.82h-16.23c-.98-2.56-2.24-5.24-3.76-8.04l-7.82,2.65c.84,1.43,1.67,3.22,2.51,5.38h-16.3v16.82h5.24v4.79ZM821.68,156.78h25.37v5.97h-25.37v-5.97Z"/>
    <path class="cls-1" d="M809.51,194.44c1.57-2.09,2.36-5.44,2.36-10.07,0-3.1-.38-5.9-1.14-8.41-.76-2.51-1.93-5.21-3.5-8.11.98-2.31,1.95-5.15,2.91-8.52.96-3.37,1.71-6.63,2.25-9.77v-6.12h-23.09v66.31h7.97v-58.86h7.08c-1.18,5.66-2.9,11.38-5.16,17.19,3.44,6.05,5.16,11.24,5.16,15.56,0,1.52-.29,2.62-.88,3.28-.59.66-1.5,1-2.73,1h-2.58l1.55,9.66h3.61c2.56,0,4.62-1.04,6.2-3.13Z"/>
    <path class="cls-1" d="M849.33,200.82h-3.84c-.49,0-.82-.09-1-.26-.17-.17-.26-.5-.26-1v-16.23h11.28v-7.82h-42.26v7.82h9.74c-.15,3.44-.73,6.28-1.73,8.52-1.01,2.24-2.72,4.18-5.13,5.83-2.41,1.65-5.8,3.18-10.18,4.61l4.2,7.89c5.46-1.87,9.7-4.08,12.72-6.64,3.02-2.56,5.14-5.44,6.34-8.67,1.2-3.22,1.86-7.07,1.95-11.54h4.5v18.29c0,2.75.55,4.66,1.66,5.72,1.11,1.06,3.01,1.59,5.72,1.59h6.05c2.8,0,4.72-.52,5.75-1.55,1.03-1.03,1.55-2.95,1.55-5.75v-8.92l-7.08-2.51v10.62Z"/>
    <path class="cls-1" d="M938.13,170.87c-3.54,3.29-7.4,6.15-11.58,8.56l5.53,8.11c8.56-5.56,16.1-13,22.64-22.35l-7.3-5.02c-2.66,3.84-5.75,7.4-9.29,10.69Z"/>
    <path class="cls-1" d="M928.62,168.14h-15.78c-.49-1.08-.88-1.89-1.18-2.43h13.94v-22.64h-35.03v22.64h11.73l1.33,2.43h-16.52v7.08h41.52v-7.08ZM898.9,149.33h18.37v2.14h-18.37v-2.14ZM898.9,159.51v-2.21h18.37v2.21h-18.37Z"/>
    <path class="cls-1" d="M952.96,146.68l-7.3-5.31c-2.41,3.54-5.18,6.71-8.3,9.51-3.12,2.8-6.72,5.43-10.81,7.89l5.46,8.04c8.26-5.21,15.24-11.92,20.95-20.14Z"/>
    <path class="cls-1" d="M925.6,177.51h-35.03v15.05h4.2c-2.02,3.49-5.06,6.69-9.15,9.59l5.24,6.05c2.36-1.77,4.55-3.86,6.56-6.27l2.06,7.38h5.31c2.9,0,4.99-.71,6.27-2.14,1.28-1.43,1.92-3.54,1.92-6.34v-8.26h12.61v-15.05ZM904.28,201.18h-6.27c1.38-1.77,2.53-3.49,3.47-5.16l-6.49-3.47h9.29v8.63ZM916.75,186.43h-17.26v-2.73h17.26v2.73Z"/>
    <path class="cls-1" d="M926.41,200.45c-1.77-2.51-3.84-5.02-6.2-7.52l-6.56,3.76c2.51,3.2,4.94,6.76,7.3,10.69l3.98-2.65,4.13,5.61c5.31-2.75,10.29-6.28,14.94-10.58,4.65-4.3,8.74-9.03,12.28-14.2l-7.67-4.87c-6.39,8.51-13.79,15.1-22.2,19.77Z"/>
    <path class="cls-1" d="M992.93,185.62l-5.9-9.51c-.59-.93-1.23-1.4-1.92-1.4-.44,0-.98.25-1.62.74l-1.77,1.33-.44-.74c1.87-2.65,3.58-5.56,5.13-8.7,1.55-3.15,2.64-6.2,3.28-9.15v-6.56h-10.25l4.13-1.92c-1.82-3.44-3.76-6.47-5.83-9.07l-6.86,3.69c1.92,2.41,3.56,4.84,4.94,7.3h-10.92v7.74h16.23c-1.28,4.13-3.41,8.33-6.38,12.61-2.98,4.28-6.87,8.16-11.69,11.65l3.32,8.48c2.56-2.11,4.84-4.33,6.86-6.64v24.27h8.04v-27.88c0-.39.05-.59.15-.59s.22.12.37.37l5.46,9.37,5.68-5.38Z"/>
    <polygon class="cls-1" points="1001.56 151.33 1021.7 151.33 1021.7 187.39 1030.25 187.39 1030.25 143.58 993.23 143.58 993.23 187.39 1001.56 187.39 1001.56 151.33"/>
    <path class="cls-1" d="M1026.05,200.82h-4.72c-.54,0-.92-.11-1.14-.33s-.33-.6-.33-1.14v-16.08h-5.9c1.03-4.13,1.55-9.1,1.55-14.9v-12.54h-8.11v12.91c0,6.2-.69,11.26-2.06,15.19-1.38,3.93-3.52,7.24-6.42,9.92-2.9,2.68-6.96,5.37-12.17,8.08l4.28,8.04c5.46-2.95,9.88-6.1,13.28-9.44,3.39-3.34,5.97-7.1,7.74-11.28v11.28c0,3.05.63,5.19,1.88,6.42,1.25,1.23,3.43,1.84,6.53,1.84h5.02c2.9,0,4.93-.59,6.08-1.77,1.15-1.18,1.73-3.32,1.73-6.42v-6.56l-7.23-2.43v9.22Z"/>
    <path class="cls-1" d="M1065.51,172.49c-2.7.93-4.89,1.62-6.56,2.07v-12.83h6.27v-8.26h-6.27v-11.95h-8.26v11.95h-8.56v8.26h8.56v14.97c-3.49.79-6.64,1.43-9.44,1.92l1.25,8.56c2.75-.54,5.48-1.13,8.19-1.77v15.05h-8.11l2.43,8.85h5.68c3.15,0,5.31-.6,6.49-1.81,1.18-1.21,1.77-3.36,1.77-6.45v-17.92c3-.98,5.48-1.84,7.45-2.58l-.89-8.04Z"/>
    <path class="cls-1" d="M1108.43,174.19v-6.34h-15.71v-8.56h17.33v-8.41h-17.33v-9h-8.7v9h-16.45v8.41h16.45v8.56h-16v8.41h10.1l-6.79,3.76c2.85,5.65,6.22,10.52,10.1,14.6-5.41,3-12.15,5.46-20.21,7.38l3.76,8.33c9.29-2.51,17.01-5.73,23.16-9.66,5.26,3.93,11.55,7.15,18.88,9.66l3.91-8.41c-5.95-1.82-11.06-4.15-15.34-7.01,5.9-5.46,10.18-12.37,12.83-20.73ZM1088.81,189.46c-3.54-3.44-6.76-7.84-9.66-13.2h19.1c-1.97,5.06-5.11,9.47-9.44,13.2Z"/>
    <path class="cls-1" d="M1160.28,165.78h25.45v-8.7h-10.92l4.79-5.02c-3.54-3.54-7.72-6.81-12.54-9.81l-5.75,5.9c4.03,2.75,7.79,5.73,11.28,8.92h-15.34v-15.19h-9.15v15.19h-27.14v8.7h24.19c-2.02,5.16-5.25,9.97-9.7,14.42-4.45,4.45-10.09,8.99-16.93,13.61l5.83,7.52c5.41-3.88,9.69-7.33,12.83-10.33,3.15-3,5.52-5.95,7.12-8.85,1.6-2.9,2.62-6.1,3.06-9.59h.74v37.17h9.15v-37.17h.74c.39,3.39,1.49,6.54,3.28,9.44,1.79,2.9,4.35,5.84,7.67,8.81,3.32,2.98,7.78,6.48,13.39,10.51l5.83-7.52c-7.23-4.82-13.16-9.43-17.81-13.83-4.65-4.4-8-9.13-10.07-14.2Z"/>
    <path class="cls-1" d="M1246.28,186.95l-6.12,6.12c7.08,4.87,13.42,9.91,19.03,15.12l6.34-6.71c-5.75-4.77-12.17-9.61-19.25-14.53Z"/>
    <path class="cls-1" d="M1256.24,187.24l1.48,1.92,6.86-5.38c-5.31-6.83-10.6-12.56-15.86-17.19l-6.93,5.02c1.72,1.52,3.51,3.22,5.38,5.09l-19.62,1.84-5.02.44c11.11-5.36,21.81-12.29,32.08-20.8l-7.01-5.75c-2.75,2.61-5.93,5.19-9.51,7.74-5.75.64-11.56,1.11-17.41,1.4,4.33-2.31,8.83-5.36,13.5-9.15,10.37-.84,19.27-2.09,26.7-3.76l-3.17-7.15c-7.03,1.52-15.5,2.62-25.41,3.28-9.91.66-20.34,1.02-31.31,1.07l1.55,7.82c5.02,0,10.64-.12,16.89-.37-2.65,1.97-5.34,3.74-8.04,5.31-2.7,1.57-5.14,2.73-7.3,3.47l1.77,7.23c5.75-.15,12.44-.49,20.06-1.03-4.47,2.7-8.9,5.16-13.28,7.38-4.38,2.21-8.19,3.91-11.43,5.09l1.48,7.01c6.49-.3,14.36-.84,23.6-1.62v15.19h-8.85l2.43,8.19h5.75c3.44,0,5.94-.75,7.49-2.25,1.55-1.5,2.32-3.95,2.32-7.34v-14.53c8.21-.79,14.16-1.43,17.85-1.92l2.95,3.76Z"/>
    <path class="cls-1" d="M1221.13,193.73l-6.56-5.16c-5.02,4.77-11.16,8.8-18.44,12.1l5.46,7.52c3.74-1.92,7.28-4.12,10.62-6.6,3.34-2.48,6.32-5.1,8.92-7.86Z"/>
  </g>
  <g>
    <path class="cls-1" d="M438.05,256.57c0-3.04-.55-5.85-1.65-8.43-1.1-2.58-2.65-4.82-4.65-6.72-2-1.9-4.33-3.37-6.99-4.41-2.66-1.04-5.57-1.56-8.73-1.56h-16.74v42.31h16.86c3.12,0,6.01-.52,8.67-1.56,2.66-1.04,4.98-2.5,6.96-4.38,1.98-1.88,3.52-4.12,4.62-6.72,1.1-2.6,1.65-5.44,1.65-8.52ZM427.4,263.72c-1.1,2-2.63,3.54-4.59,4.62-1.96,1.08-4.26,1.62-6.9,1.62h-7.8v-26.71h7.8c2.6,0,4.88.54,6.84,1.62,1.96,1.08,3.5,2.61,4.62,4.59,1.12,1.98,1.68,4.33,1.68,7.05s-.55,5.2-1.65,7.2Z"/>
    <path class="cls-1" d="M464.64,268.58c-.88,1-1.91,1.75-3.09,2.25-1.18.5-2.51.75-3.99.75-1.56,0-2.94-.35-4.14-1.05-1.2-.7-2.12-1.67-2.76-2.91-.23-.45-.4-.94-.55-1.45l21.02-.05c.16-.72.27-1.36.33-1.92.06-.56.09-1.12.09-1.68,0-2.8-.62-5.29-1.86-7.47-1.24-2.18-2.95-3.9-5.13-5.16-2.18-1.26-4.67-1.89-7.47-1.89s-5.55.67-7.89,2.01c-2.34,1.34-4.2,3.15-5.58,5.43-1.38,2.28-2.07,4.86-2.07,7.74s.7,5.59,2.1,7.89c1.4,2.3,3.31,4.1,5.73,5.4,2.42,1.3,5.19,1.95,8.31,1.95,2.4,0,4.61-.42,6.63-1.26,2.02-.84,3.73-2.1,5.13-3.78l-4.8-4.8ZM453.15,255.85c1.1-.68,2.41-1.02,3.93-1.02,1.4,0,2.59.3,3.57.9.98.6,1.73,1.46,2.25,2.58.23.5.41,1.07.55,1.69l-13.35.04c.13-.47.29-.93.49-1.34.6-1.22,1.45-2.17,2.55-2.85Z"/>
    <path class="cls-1" d="M504.94,270.98c1.22-2.28,1.83-4.84,1.83-7.68s-.62-5.57-1.86-7.83c-1.24-2.26-2.92-4.06-5.04-5.4-2.12-1.34-4.54-2.01-7.26-2.01-2.04,0-3.89.42-5.55,1.26-.86.43-1.62.95-2.31,1.55v-2.21h-8.58v41.35h8.46v-14.45c.72.62,1.52,1.16,2.43,1.6,1.66.8,3.51,1.2,5.55,1.2,2.72,0,5.15-.66,7.29-1.98,2.14-1.32,3.82-3.12,5.04-5.4ZM497.17,267.02c-.6,1.12-1.42,1.99-2.46,2.61-1.04.62-2.26.93-3.66.93-1.32,0-2.51-.31-3.57-.93-1.06-.62-1.87-1.48-2.43-2.58-.56-1.1-.84-2.37-.84-3.81s.29-2.71.87-3.81c.58-1.1,1.4-1.97,2.46-2.61,1.06-.64,2.25-.96,3.57-.96s2.56.32,3.6.96c1.04.64,1.86,1.51,2.46,2.61.6,1.1.9,2.37.9,3.81s-.3,2.66-.9,3.78Z"/>
    <path class="cls-1" d="M523.75,278.36c2,0,3.82-.4,5.46-1.2,1.06-.52,1.97-1.18,2.76-1.96v2.56h8.4v-29.11h-8.4v2.63c-.79-.81-1.7-1.5-2.76-2.03-1.6-.8-3.4-1.2-5.4-1.2-2.68,0-5.08.66-7.2,1.98-2.12,1.32-3.78,3.13-4.98,5.43-1.2,2.3-1.8,4.91-1.8,7.83s.6,5.4,1.8,7.68c1.2,2.28,2.85,4.08,4.95,5.4,2.1,1.32,4.49,1.98,7.17,1.98ZM519.43,259.39c.6-1.12,1.42-1.99,2.46-2.61,1.04-.62,2.22-.93,3.54-.93,1.4,0,2.62.31,3.66.93,1.04.62,1.85,1.48,2.43,2.58.58,1.1.87,2.39.87,3.87,0,2.16-.65,3.92-1.95,5.28-1.3,1.36-2.97,2.04-5.01,2.04-1.32,0-2.51-.31-3.57-.93-1.06-.62-1.88-1.49-2.46-2.61-.58-1.12-.87-2.38-.87-3.78s.3-2.72.9-3.84Z"/>
    <path class="cls-1" d="M555.68,261.8c0-2.04.48-3.56,1.44-4.56.96-1,2.24-1.5,3.84-1.5.76,0,1.45.11,2.07.33.62.22,1.15.59,1.59,1.11l5.16-6.3c-.84-.96-1.81-1.67-2.91-2.13-1.1-.46-2.35-.69-3.75-.69-3.2,0-5.68.99-7.44,2.97v-2.37h-8.58v29.11h8.58v-15.96Z"/>
    <polygon class="cls-1" points="586.23 236.65 577.64 236.65 577.64 248.65 570.92 248.65 570.92 256.03 577.64 256.03 577.64 277.76 586.23 277.76 586.23 256.03 592.89 256.03 592.89 248.65 586.23 248.65 586.23 236.65"/>
    <path class="cls-1" d="M637.54,249.43c-1.72-.92-3.68-1.38-5.88-1.38s-4.2.48-6,1.44c-1.31.7-2.43,1.61-3.37,2.73-.87-1.17-1.93-2.12-3.21-2.82-1.62-.9-3.45-1.35-5.49-1.35s-4.04.46-5.76,1.38c-.8.43-1.52.95-2.16,1.53v-2.31h-8.58v29.11h8.58v-17.04c0-1.08.22-1.99.66-2.73.44-.74,1.04-1.31,1.8-1.71.76-.4,1.64-.6,2.64-.6,1.44,0,2.64.44,3.6,1.32.96.88,1.44,2.12,1.44,3.72v17.04h8.58v-17.04c0-1.08.22-1.99.66-2.73.44-.74,1.05-1.31,1.83-1.71.78-.4,1.67-.6,2.67-.6,1.44,0,2.65.44,3.63,1.32.98.88,1.47,2.12,1.47,3.72v17.04h8.52v-18.18c0-2.4-.51-4.46-1.53-6.18-1.02-1.72-2.39-3.04-4.11-3.96Z"/>
    <path class="cls-1" d="M670.09,277.16c2.02-.84,3.73-2.1,5.13-3.78l-4.8-4.8c-.88,1-1.91,1.75-3.09,2.25-1.18.5-2.51.75-3.99.75-1.56,0-2.94-.35-4.14-1.05-1.2-.7-2.12-1.67-2.76-2.91-.23-.45-.4-.94-.55-1.45l21.02-.05c.16-.72.27-1.36.33-1.92.06-.56.09-1.12.09-1.68,0-2.8-.62-5.29-1.86-7.47-1.24-2.18-2.95-3.9-5.13-5.16-2.18-1.26-4.67-1.89-7.47-1.89s-5.55.67-7.89,2.01c-2.34,1.34-4.2,3.15-5.58,5.43-1.38,2.28-2.07,4.86-2.07,7.74s.7,5.59,2.1,7.89c1.4,2.3,3.31,4.1,5.73,5.4,2.42,1.3,5.19,1.95,8.31,1.95,2.4,0,4.61-.42,6.63-1.26ZM658.93,255.85c1.1-.68,2.41-1.02,3.93-1.02,1.4,0,2.59.3,3.57.9.98.6,1.73,1.46,2.25,2.58.23.5.41,1.07.55,1.69l-13.35.04c.13-.47.29-.93.49-1.34.6-1.22,1.45-2.17,2.55-2.85Z"/>
    <path class="cls-1" d="M704.48,249.64c-1.66-1.06-3.57-1.59-5.73-1.59s-4.18.48-5.94,1.44c-.85.46-1.61,1.02-2.28,1.66v-2.5h-8.58v29.11h8.58v-16.62c0-1.08.22-2.03.66-2.85.44-.82,1.07-1.46,1.89-1.92.82-.46,1.77-.69,2.85-.69,1.56,0,2.84.51,3.84,1.53,1,1.02,1.5,2.35,1.5,3.99v16.56h8.58v-18.48c0-2-.48-3.84-1.44-5.52-.96-1.68-2.27-3.05-3.93-4.11Z"/>
    <polygon class="cls-1" points="728.76 277.76 728.76 256.03 735.42 256.03 735.42 248.65 728.76 248.65 728.76 236.65 720.17 236.65 720.17 248.65 713.45 248.65 713.45 256.03 720.17 256.03 720.17 277.76 728.76 277.76"/>
    <path class="cls-1" d="M778.63,270.92c1.36-2.32,2.04-4.92,2.04-7.8s-.69-5.4-2.07-7.68c-1.38-2.28-3.26-4.09-5.64-5.43-2.38-1.34-5.05-2.01-8.01-2.01s-5.68.68-8.04,2.04c-2.36,1.36-4.24,3.17-5.64,5.43-1.4,2.26-2.1,4.81-2.1,7.65s.7,5.53,2.1,7.83c1.4,2.3,3.29,4.12,5.67,5.46,2.38,1.34,5.05,2.01,8.01,2.01s5.69-.67,8.07-2.01c2.38-1.34,4.25-3.17,5.61-5.49ZM771.13,267.02c-.6,1.12-1.43,1.99-2.49,2.61-1.06.62-2.29.93-3.69.93s-2.58-.31-3.66-.93c-1.08-.62-1.91-1.49-2.49-2.61-.58-1.12-.87-2.4-.87-3.84s.29-2.65.87-3.75c.58-1.1,1.41-1.96,2.49-2.58,1.08-.62,2.3-.93,3.66-.93s2.62.3,3.66.9c1.04.6,1.87,1.46,2.49,2.58.62,1.12.93,2.38.93,3.78s-.3,2.72-.9,3.84Z"/>
    <path class="cls-1" d="M789.25,277.76h8.52v-21.73h8.52v-7.38h-8.52v-3c0-1.36.38-2.42,1.14-3.18.76-.76,1.8-1.14,3.12-1.14.72,0,1.34.12,1.86.36.52.24.98.56,1.38.96l5.4-5.34c-1.12-1.16-2.39-2.07-3.81-2.73-1.42-.66-3.09-.99-5.01-.99-2.6,0-4.84.55-6.72,1.65-1.88,1.1-3.33,2.56-4.35,4.38-1.02,1.82-1.53,3.91-1.53,6.27v2.76h-6.6v7.38h6.6v21.73Z"/>
    <polygon class="cls-1" points="832.28 260.84 851.24 260.84 851.24 253.15 832.28 253.15 832.28 243.19 852.26 243.19 852.26 235.45 832.28 235.45 830.06 235.45 823.46 235.45 823.46 277.76 832.28 277.76 832.28 260.84"/>
    <rect class="cls-1" x="857.66" y="248.65" width="8.52" height="29.11"/>
    <path class="cls-1" d="M861.92,234.79c-1.36,0-2.49.46-3.39,1.38-.9.92-1.35,2.06-1.35,3.42s.45,2.44,1.35,3.36c.9.92,2.03,1.38,3.39,1.38s2.54-.46,3.42-1.38c.88-.92,1.32-2.04,1.32-3.36s-.44-2.5-1.32-3.42c-.88-.92-2.02-1.38-3.42-1.38Z"/>
    <rect class="cls-1" x="872.91" y="234.25" width="8.58" height="43.51"/>
    <path class="cls-1" d="M906.87,260.72v17.04h8.58v-17.04c0-1.08.22-1.99.66-2.73.44-.74,1.05-1.31,1.83-1.71.78-.4,1.67-.6,2.67-.6,1.44,0,2.65.44,3.63,1.32.98.88,1.47,2.12,1.47,3.72v17.04h8.52v-18.18c0-2.4-.51-4.46-1.53-6.18-1.02-1.72-2.39-3.04-4.11-3.96-1.72-.92-3.68-1.38-5.88-1.38s-4.2.48-6,1.44c-1.31.7-2.43,1.61-3.37,2.73-.87-1.17-1.93-2.12-3.21-2.82-1.62-.9-3.45-1.35-5.49-1.35s-4.04.46-5.76,1.38c-.8.43-1.52.95-2.16,1.53v-2.31h-8.58v29.11h8.58v-17.04c0-1.08.22-1.99.66-2.73.44-.74,1.04-1.31,1.8-1.71.76-.4,1.64-.6,2.64-.6,1.44,0,2.64.44,3.6,1.32.96.88,1.44,2.12,1.44,3.72Z"/>
    <path class="cls-1" d="M964.28,249.25c-.42-.72-.63-1.6-.63-2.64s.42-2,1.26-2.76c.84-.76,1.9-1.14,3.18-1.14s2.31.31,3.21.93c.9.62,1.77,1.49,2.61,2.61l5.76-5.46c-.64-1.04-1.51-2.01-2.61-2.91-1.1-.9-2.41-1.64-3.93-2.22-1.52-.58-3.22-.87-5.1-.87-2.52,0-4.72.53-6.6,1.59-1.88,1.06-3.35,2.49-4.41,4.29-1.06,1.8-1.59,3.76-1.59,5.88,0,1.84.35,3.5,1.05,4.98.39.83.93,1.7,1.57,2.6-2.14,1.17-3.79,2.6-4.96,4.3-1.4,2.04-2.1,4.38-2.1,7.02,0,2.44.59,4.64,1.77,6.6,1.18,1.96,2.84,3.51,4.98,4.65,2.14,1.14,4.67,1.71,7.59,1.71,1.84,0,3.56-.26,5.16-.78,1.6-.52,3.03-1.19,4.29-2.01.57-.37,1.09-.75,1.56-1.14l2.98,3.27h10.08l-23.29-26.05c-.8-.92-1.41-1.74-1.83-2.46ZM969.47,269.6c-1.08.64-2.4.96-3.96.96-1.28,0-2.39-.23-3.33-.69-.94-.46-1.67-1.12-2.19-1.98-.52-.86-.78-1.83-.78-2.91,0-1.44.32-2.66.96-3.66.53-.83,1.32-1.5,2.32-2.03l8.39,9.21c-.42.42-.89.79-1.41,1.1Z"/>
    <polygon class="cls-1" points="1002.41 243.25 1015.74 243.25 1015.74 277.76 1024.56 277.76 1024.56 243.25 1037.94 243.25 1037.94 235.45 1002.41 235.45 1002.41 243.25"/>
    <polygon class="cls-1" points="1060.49 264.57 1049.7 235.45 1040.28 235.45 1056.73 277.76 1063.99 277.76 1080.73 235.45 1071.37 235.45 1060.49 264.57"/>
    <polygon class="cls-1" points="1130.06 243.25 1130.06 235.45 1094.53 235.45 1094.53 243.25 1107.86 243.25 1107.86 277.76 1116.68 277.76 1116.68 243.25 1130.06 243.25"/>
    <path class="cls-1" d="M1151.22,249.88c-2.18-1.26-4.67-1.89-7.47-1.89s-5.55.67-7.89,2.01c-2.34,1.34-4.2,3.15-5.58,5.43-1.38,2.28-2.07,4.86-2.07,7.74s.7,5.59,2.1,7.89c1.4,2.3,3.31,4.1,5.73,5.4,2.42,1.3,5.19,1.95,8.31,1.95,2.4,0,4.61-.42,6.63-1.26,2.02-.84,3.73-2.1,5.13-3.78l-4.8-4.8c-.88,1-1.91,1.75-3.09,2.25-1.18.5-2.51.75-3.99.75-1.56,0-2.94-.35-4.14-1.05-1.2-.7-2.12-1.67-2.76-2.91-.23-.45-.4-.94-.55-1.45l21.02-.05c.16-.72.27-1.36.33-1.92.06-.56.09-1.12.09-1.68,0-2.8-.62-5.29-1.86-7.47-1.24-2.18-2.95-3.9-5.13-5.16ZM1139.81,255.85c1.1-.68,2.41-1.02,3.93-1.02,1.4,0,2.59.3,3.57.9.98.6,1.73,1.46,2.25,2.58.23.5.41,1.07.55,1.69l-13.35.04c.13-.47.29-.93.49-1.34.6-1.22,1.45-2.17,2.55-2.85Z"/>
    <path class="cls-1" d="M1180.14,269.9c-.98.44-2.09.66-3.33.66-1.36,0-2.59-.31-3.69-.93-1.1-.62-1.96-1.49-2.58-2.61-.62-1.12-.93-2.4-.93-3.84s.31-2.71.93-3.81c.62-1.1,1.47-1.95,2.55-2.55,1.08-.6,2.32-.9,3.72-.9,1.2,0,2.29.2,3.27.6.98.4,1.83,1,2.55,1.8l5.46-5.52c-1.44-1.56-3.11-2.75-5.01-3.57-1.9-.82-3.99-1.23-6.27-1.23-3.04,0-5.76.67-8.16,2.01-2.4,1.34-4.3,3.15-5.7,5.43-1.4,2.28-2.1,4.88-2.1,7.8s.7,5.42,2.1,7.74c1.4,2.32,3.29,4.14,5.67,5.46,2.38,1.32,5.07,1.98,8.07,1.98,2.36,0,4.5-.42,6.42-1.26,1.92-.84,3.62-2.06,5.1-3.66l-5.46-5.52c-.76.84-1.63,1.48-2.61,1.92Z"/>
    <path class="cls-1" d="M1214.95,249.49c-1.7-.96-3.67-1.44-5.91-1.44s-4.16.48-5.88,1.44c-.78.44-1.48.96-2.1,1.56v-16.8h-8.58v43.51h8.58v-16.62c0-1.08.22-2.03.66-2.85.44-.82,1.07-1.46,1.89-1.92.82-.46,1.77-.69,2.85-.69,1.56,0,2.84.51,3.84,1.53,1,1.02,1.5,2.35,1.5,3.99v16.56h8.58v-18.48c0-2.24-.48-4.19-1.44-5.85-.96-1.66-2.29-2.97-3.99-3.93Z"/>
    <path class="cls-1" d="M1232.08,267.86c-1.52,0-2.77.51-3.75,1.53-.98,1.02-1.47,2.27-1.47,3.75s.49,2.73,1.47,3.75c.98,1.02,2.23,1.53,3.75,1.53s2.71-.51,3.69-1.53c.98-1.02,1.47-2.27,1.47-3.75s-.49-2.73-1.47-3.75c-.98-1.02-2.21-1.53-3.69-1.53Z"/>
    <path class="cls-1" d="M1265.03,269.45c-1.04-1.06-2.28-1.59-3.72-1.59-1.52,0-2.78.53-3.78,1.59-1,1.06-1.5,2.35-1.5,3.87,0,1.36.46,2.5,1.38,3.42.66.66,1.36,1.07,2.1,1.26l-3.66,6.96,4.26,2.28,4.74-8.7c.68-1.28,1.14-2.33,1.38-3.15.24-.82.36-1.51.36-2.07,0-1.52-.52-2.81-1.56-3.87Z"/>
    <path class="cls-1" d="M424.53,327.17c1.11-.61,2.05-1.35,2.81-2.21,1.58-1.78,2.37-3.93,2.37-6.45,0-2-.5-3.83-1.5-5.49-1-1.66-2.45-3-4.35-4.02-1.9-1.02-4.21-1.53-6.93-1.53h-17.64v42.31h17.7c2.96,0,5.5-.55,7.62-1.65,2.12-1.1,3.74-2.56,4.86-4.38,1.12-1.82,1.68-3.87,1.68-6.15,0-2.96-.91-5.47-2.73-7.53-1.04-1.18-2.35-2.14-3.89-2.89ZM415.55,314.49c1.6,0,2.89.41,3.87,1.23.98.82,1.47,2.03,1.47,3.63s-.49,2.87-1.47,3.69c-.98.82-2.27,1.23-3.87,1.23h-7.5v-9.78h7.5ZM420.8,341.1c-1.06,1.14-2.53,1.71-4.41,1.71h-8.34v-11.64h8.28c1.28,0,2.38.25,3.3.75.92.5,1.61,1.19,2.07,2.07.46.88.69,1.88.69,3,0,1.6-.53,2.97-1.59,4.11Z"/>
    <path class="cls-1" d="M457.65,321.9c-2.18-1.26-4.67-1.89-7.47-1.89s-5.55.67-7.89,2.01c-2.34,1.34-4.2,3.15-5.58,5.43-1.38,2.28-2.07,4.86-2.07,7.74s.7,5.59,2.1,7.89c1.4,2.3,3.31,4.1,5.73,5.4,2.42,1.3,5.19,1.95,8.31,1.95,2.4,0,4.61-.42,6.63-1.26,2.02-.84,3.73-2.1,5.13-3.78l-4.8-4.8c-.88,1-1.91,1.75-3.09,2.25-1.18.5-2.51.75-3.99.75-1.56,0-2.94-.35-4.14-1.05-1.2-.7-2.12-1.67-2.76-2.91-.23-.45-.4-.94-.55-1.45l21.02-.05c.16-.72.27-1.36.33-1.92.06-.56.09-1.12.09-1.68,0-2.8-.62-5.29-1.86-7.47-1.24-2.18-2.95-3.9-5.13-5.16ZM446.24,327.87c1.1-.68,2.41-1.02,3.93-1.02,1.4,0,2.59.3,3.57.9.98.6,1.73,1.46,2.25,2.58.23.5.41,1.07.55,1.69l-13.35.04c.13-.47.29-.93.49-1.34.6-1.22,1.45-2.17,2.55-2.85Z"/>
    <path class="cls-1" d="M473.52,316.35c1.4,0,2.54-.46,3.42-1.38.88-.92,1.32-2.04,1.32-3.36s-.44-2.5-1.32-3.42c-.88-.92-2.02-1.38-3.42-1.38s-2.49.46-3.39,1.38c-.9.92-1.35,2.06-1.35,3.42s.45,2.44,1.35,3.36c.9.92,2.03,1.38,3.39,1.38Z"/>
    <rect class="cls-1" x="469.26" y="320.67" width="8.52" height="29.11"/>
    <path class="cls-1" d="M489.54,306.81c-1.36,0-2.48.46-3.36,1.38-.88.92-1.32,2.06-1.32,3.42s.44,2.44,1.32,3.36c.88.92,2,1.38,3.36,1.38s2.48-.46,3.36-1.38c.88-.92,1.32-2.04,1.32-3.36s-.44-2.5-1.32-3.42c-.88-.92-2-1.38-3.36-1.38Z"/>
    <path class="cls-1" d="M485.16,351.64c0,1.12-.32,1.96-.96,2.52-.64.56-1.42.84-2.34.84-.68,0-1.26-.12-1.74-.36-.48-.24-.94-.64-1.38-1.2l-5.34,5.4c1.08,1.24,2.34,2.21,3.78,2.91,1.44.7,3.22,1.05,5.34,1.05s4.02-.47,5.7-1.41c1.68-.94,3.02-2.24,4.02-3.9,1-1.66,1.5-3.65,1.5-5.97v-30.85h-8.58v30.97Z"/>
    <path class="cls-1" d="M504.67,306.81c-1.36,0-2.49.46-3.39,1.38-.9.92-1.35,2.06-1.35,3.42s.45,2.44,1.35,3.36c.9.92,2.03,1.38,3.39,1.38s2.54-.46,3.42-1.38c.88-.92,1.32-2.04,1.32-3.36s-.44-2.5-1.32-3.42c-.88-.92-2.02-1.38-3.42-1.38Z"/>
    <rect class="cls-1" x="500.41" y="320.67" width="8.52" height="29.11"/>
    <path class="cls-1" d="M538.19,321.66c-1.66-1.06-3.57-1.59-5.73-1.59s-4.18.48-5.94,1.44c-.85.46-1.61,1.02-2.28,1.66v-2.5h-8.58v29.11h8.58v-16.62c0-1.08.22-2.03.66-2.85.44-.82,1.07-1.46,1.89-1.92.82-.46,1.77-.69,2.85-.69,1.56,0,2.84.51,3.84,1.53,1,1.02,1.5,2.35,1.5,3.99v16.56h8.58v-18.48c0-2-.48-3.84-1.44-5.52-.96-1.68-2.27-3.05-3.93-4.11Z"/>
    <path class="cls-1" d="M569.42,322.82c-.68-.6-1.46-1.13-2.34-1.56-1.64-.8-3.48-1.2-5.52-1.2-2.68,0-5.06.64-7.14,1.92-2.08,1.28-3.71,3-4.89,5.16-1.18,2.16-1.77,4.6-1.77,7.32s.6,5.17,1.8,7.35c1.2,2.18,2.83,3.91,4.89,5.19,2.06,1.28,4.41,1.92,7.05,1.92,2.04,0,3.88-.4,5.52-1.2.88-.43,1.66-.95,2.34-1.56v2.16c0,2.12-.69,3.77-2.07,4.95-1.38,1.18-3.23,1.77-5.55,1.77-1.92,0-3.55-.34-4.89-1.02-1.34-.68-2.53-1.66-3.57-2.94l-5.34,5.34c1.4,2,3.29,3.56,5.67,4.68,2.38,1.12,5.15,1.68,8.31,1.68s5.88-.62,8.28-1.86c2.4-1.24,4.29-2.95,5.67-5.13,1.38-2.18,2.07-4.73,2.07-7.65v-27.49h-8.52v2.16ZM566.69,340.41c-1.02.6-2.19.9-3.51.9s-2.54-.3-3.54-.9c-1-.6-1.78-1.42-2.34-2.46-.56-1.04-.84-2.2-.84-3.48s.27-2.43.81-3.45c.54-1.02,1.33-1.83,2.37-2.43,1.04-.6,2.22-.9,3.54-.9s2.54.3,3.54.9c1,.6,1.77,1.41,2.31,2.43.54,1.02.81,2.19.81,3.51s-.27,2.43-.81,3.45c-.54,1.02-1.32,1.83-2.34,2.43Z"/>
    <polygon class="cls-1" points="603.51 307.47 596.91 307.47 596.91 349.78 605.73 349.78 605.73 332.85 624.69 332.85 624.69 325.17 605.73 325.17 605.73 315.21 625.71 315.21 625.71 307.47 605.73 307.47 603.51 307.47"/>
    <rect class="cls-1" x="631.11" y="320.67" width="8.52" height="29.11"/>
    <path class="cls-1" d="M635.38,306.81c-1.36,0-2.49.46-3.39,1.38-.9.92-1.35,2.06-1.35,3.42s.45,2.44,1.35,3.36c.9.92,2.03,1.38,3.39,1.38s2.54-.46,3.42-1.38c.88-.92,1.32-2.04,1.32-3.36s-.44-2.5-1.32-3.42c-.88-.92-2.02-1.38-3.42-1.38Z"/>
    <rect class="cls-1" x="646.36" y="306.27" width="8.58" height="43.51"/>
    <path class="cls-1" d="M702.05,321.45c-1.72-.92-3.68-1.38-5.88-1.38s-4.2.48-6,1.44c-1.31.7-2.43,1.61-3.37,2.73-.87-1.17-1.93-2.12-3.21-2.82-1.62-.9-3.45-1.35-5.49-1.35s-4.04.46-5.76,1.38c-.8.43-1.52.95-2.16,1.53v-2.31h-8.58v29.11h8.58v-17.04c0-1.08.22-1.99.66-2.73.44-.74,1.04-1.31,1.8-1.71.76-.4,1.64-.6,2.64-.6,1.44,0,2.64.44,3.6,1.32.96.88,1.44,2.12,1.44,3.72v17.04h8.58v-17.04c0-1.08.22-1.99.66-2.73.44-.74,1.05-1.31,1.83-1.71.78-.4,1.67-.6,2.67-.6,1.44,0,2.65.44,3.63,1.32.98.88,1.47,2.12,1.47,3.72v17.04h8.52v-18.18c0-2.4-.51-4.46-1.53-6.18-1.02-1.72-2.39-3.04-4.11-3.96Z"/>
    <path class="cls-1" d="M739.92,307.47l-16.92,42.31h9.18l2.9-7.74h16.99l2.85,7.74h9.3l-16.74-42.31h-7.56ZM737.81,334.77l5.85-15.59,5.74,15.59h-11.59Z"/>
    <path class="cls-1" d="M785.98,341.91c-.98.44-2.09.66-3.33.66-1.36,0-2.59-.31-3.69-.93-1.1-.62-1.96-1.49-2.58-2.61-.62-1.12-.93-2.4-.93-3.84s.31-2.71.93-3.81c.62-1.1,1.47-1.95,2.55-2.55,1.08-.6,2.32-.9,3.72-.9,1.2,0,2.29.2,3.27.6.98.4,1.83,1,2.55,1.8l5.46-5.52c-1.44-1.56-3.11-2.75-5.01-3.57-1.9-.82-3.99-1.23-6.27-1.23-3.04,0-5.76.67-8.16,2.01-2.4,1.34-4.3,3.15-5.7,5.43-1.4,2.28-2.1,4.88-2.1,7.8s.7,5.42,2.1,7.74c1.4,2.32,3.29,4.14,5.67,5.46,2.38,1.32,5.07,1.98,8.07,1.98,2.36,0,4.5-.42,6.42-1.26,1.92-.84,3.62-2.06,5.1-3.66l-5.46-5.52c-.76.84-1.63,1.48-2.61,1.92Z"/>
    <path class="cls-1" d="M818.66,323.3c-.79-.81-1.7-1.5-2.76-2.03-1.6-.8-3.4-1.2-5.4-1.2-2.68,0-5.08.66-7.2,1.98-2.12,1.32-3.78,3.13-4.98,5.43-1.2,2.3-1.8,4.91-1.8,7.83s.6,5.4,1.8,7.68c1.2,2.28,2.85,4.08,4.95,5.4,2.1,1.32,4.49,1.98,7.17,1.98,2,0,3.82-.4,5.46-1.2,1.06-.52,1.97-1.18,2.76-1.96v2.56h8.4v-29.11h-8.4v2.63ZM812.11,342.57c-1.32,0-2.51-.31-3.57-.93-1.06-.62-1.88-1.49-2.46-2.61-.58-1.12-.87-2.38-.87-3.78s.3-2.72.9-3.84c.6-1.12,1.42-1.99,2.46-2.61,1.04-.62,2.22-.93,3.54-.93,1.4,0,2.62.31,3.66.93,1.04.62,1.85,1.48,2.43,2.58.58,1.1.87,2.39.87,3.87,0,2.16-.65,3.92-1.95,5.28-1.3,1.36-2.97,2.04-5.01,2.04Z"/>
    <path class="cls-1" d="M854,322.9c-.71-.62-1.51-1.16-2.4-1.6-1.64-.82-3.48-1.23-5.52-1.23-2.72,0-5.14.67-7.26,2.01-2.12,1.34-3.8,3.14-5.04,5.4-1.24,2.26-1.86,4.87-1.86,7.83s.62,5.4,1.86,7.68c1.24,2.28,2.92,4.08,5.04,5.4,2.12,1.32,4.54,1.98,7.26,1.98,2.04,0,3.89-.42,5.55-1.26.94-.47,1.76-1.06,2.49-1.73v2.39h8.4v-43.51h-8.52v16.64ZM851.24,341.67c-1.04.6-2.26.9-3.66.9s-2.56-.32-3.6-.96c-1.04-.64-1.86-1.51-2.46-2.61-.6-1.1-.9-2.35-.9-3.75s.3-2.71.9-3.81c.6-1.1,1.42-1.97,2.46-2.61,1.04-.64,2.24-.96,3.6-.96s2.56.32,3.6.96c1.04.64,1.86,1.5,2.46,2.58.6,1.08.9,2.36.9,3.84s-.29,2.72-.87,3.84c-.58,1.12-1.39,1.98-2.43,2.58Z"/>
    <path class="cls-1" d="M890.28,321.9c-2.18-1.26-4.67-1.89-7.47-1.89s-5.55.67-7.89,2.01c-2.34,1.34-4.2,3.15-5.58,5.43-1.38,2.28-2.07,4.86-2.07,7.74s.7,5.59,2.1,7.89c1.4,2.3,3.31,4.1,5.73,5.4,2.42,1.3,5.19,1.95,8.31,1.95,2.4,0,4.61-.42,6.63-1.26,2.02-.84,3.73-2.1,5.13-3.78l-4.8-4.8c-.88,1-1.91,1.75-3.09,2.25-1.18.5-2.51.75-3.99.75-1.56,0-2.94-.35-4.14-1.05-1.2-.7-2.12-1.67-2.76-2.91-.23-.45-.4-.94-.55-1.45l21.02-.05c.16-.72.27-1.36.33-1.92.06-.56.09-1.12.09-1.68,0-2.8-.62-5.29-1.86-7.47-1.24-2.18-2.95-3.9-5.13-5.16ZM878.88,327.87c1.1-.68,2.41-1.02,3.93-1.02,1.4,0,2.59.3,3.57.9.98.6,1.73,1.46,2.25,2.58.23.5.41,1.07.55,1.69l-13.35.04c.13-.47.29-.93.49-1.34.6-1.22,1.45-2.17,2.55-2.85Z"/>
    <path class="cls-1" d="M942.34,321.45c-1.72-.92-3.68-1.38-5.88-1.38s-4.2.48-6,1.44c-1.31.7-2.43,1.61-3.37,2.73-.87-1.17-1.93-2.12-3.21-2.82-1.62-.9-3.45-1.35-5.49-1.35s-4.04.46-5.76,1.38c-.8.43-1.52.95-2.16,1.53v-2.31h-8.58v29.11h8.58v-17.04c0-1.08.22-1.99.66-2.73.44-.74,1.04-1.31,1.8-1.71.76-.4,1.64-.6,2.64-.6,1.44,0,2.64.44,3.6,1.32.96.88,1.44,2.12,1.44,3.72v17.04h8.58v-17.04c0-1.08.22-1.99.66-2.73.44-.74,1.05-1.31,1.83-1.71.78-.4,1.67-.6,2.67-.6,1.44,0,2.65.44,3.63,1.32.98.88,1.47,2.12,1.47,3.72v17.04h8.52v-18.18c0-2.4-.51-4.46-1.53-6.18-1.02-1.72-2.39-3.04-4.11-3.96Z"/>
    <polygon class="cls-1" points="966.52 338.76 960.29 320.67 951.1 320.67 962.17 347.53 955.36 362.02 964.31 362.02 969.47 349.96 982.19 320.67 972.95 320.67 966.52 338.76"/>
  </g>
</svg>