<?xml version="1.0" encoding="UTF-8"?>
<svg id="_图层_1" data-name="图层 1" xmlns="http://www.w3.org/2000/svg" width="2658.14" height="500" viewBox="0 0 2658.14 500">
  <defs>
    <style>
      .cls-1 {
        fill: #de3022;
      }

      .cls-2 {
        fill: #267fe5;
      }

      .cls-3 {
        fill: #e32a30;
      }

      .cls-4 {
        fill: #75db59;
      }
    </style>
  </defs>
  <path class="cls-2" d="M1492.33,323.48l-1.39-7.58,40.74-5.95c13.25-2.09,18.63-41.7,22.57-70.63,4.44-32.67,7.19-49.78,16.43-51.23,2.33-.37,4.61.21,6.61,1.66,7.13,5.17,10.15,21.01,14.49,46.42,3.93,23.03,8.82,51.7,18.77,58.92,1.89,1.37,3.83,1.84,6.1,1.48l85.56-13.95,1.52,7.56-85.58,13.95c-4.34.69-8.36-.3-11.96-2.91-12.62-9.15-17.38-37.06-21.98-64.05-3.02-17.71-6.45-37.78-11.28-41.29-.37-.27-.56-.27-.78-.23-.07.03-2.46.98-5.19,13.06-1.92,8.52-3.47,19.88-5.1,31.92-4.94,36.36-10.05,73.95-28.74,76.89l-40.78,5.96Z"/>
  <path class="cls-4" d="M1492.37,323.48l-1.48-7.56c36.35-5.73,53.74-8.26,65.26-9.94,5.97-.87,10.29-1.5,14.97-2.24,19.83-3.12,28.34-23.13,34.56-37.75,4.03-9.47,6.94-16.32,12.44-17.18,9.12-1.44,14.63,9.97,20.46,22.06,4.44,9.21,9.96,20.68,14.93,19.89l48.67-8.14,1.55,7.55-48.7,8.14c-10.79,1.69-17.17-11.54-23.34-24.34-3.48-7.22-8.74-18.13-12.08-17.59-1.65.66-4.64,7.7-6.83,12.83-6.5,15.27-16.31,38.34-40.17,42.1-4.73.75-9.06,1.38-15.06,2.25-11.5,1.67-28.87,4.21-65.17,9.93Z"/>
  <path class="cls-1" d="M1492.33,323.48l-1.4-7.58,44.54-6.54c14.29-2.25,18.42-8.82,22.41-15.16,3.35-5.33,6.82-10.85,15.44-12.2,10.7-1.68,16.42,5.09,20.6,10.04,3.97,4.7,6.25,7.13,10.59,6.44,7.53-1.19,13.95-17.42,18.65-29.27,4.93-12.45,8.19-20.67,14.01-21.59,6.68-1.05,9.04,7.94,12.32,20.38,1.59,6.02,3.23,12.25,5.23,16.81,1.94,4.41,3.35,5.24,3.73,5.16l43.73-7.37,1.56,7.55-43.77,7.38c-10.14,1.61-14.09-13.37-17.9-27.85-1.17-4.46-2.85-10.82-4.22-13.65-2.2,2.76-5.35,10.7-7.53,16.22-5.93,14.97-12.66,31.95-24.33,33.79-8.9,1.41-13.87-4.48-17.86-9.21-4.33-5.13-7.29-8.24-13.32-7.28-5.31.84-7.33,4.04-10.37,8.88-4.4,7-9.88,15.71-27.52,18.49l-44.58,6.54Z"/>
  <path d="M1497.83,375.82l-10.03-7.02v-239.06l7.77-5.55,204.5,29.93,5.92,7.9v160.97l-4.94,7.91-1.57.35-201.65,44.58ZM1495.45,364.81l4.01,2.81,196.8-43.5,2.08-3.32v-156.23l-2.5-3.33-198.33-29.02-2.06,1.47v231.14Z"/>
  <g>
    <path d="M1815.98,310.47h-17.79c-.56-1.22-1-2.13-1.33-2.74h15.71v-25.53h-39.5v25.53h13.22l1.5,2.74h-18.63v7.98h46.81v-7.98ZM1782.47,289.26h20.7v2.41h-20.7v-2.41ZM1782.47,300.74v-2.49h20.7v2.49h-20.7Z"/>
    <path d="M1813.49,346.89c-2-2.83-4.32-5.66-6.98-8.48l-7.4,4.24c2.83,3.6,5.57,7.62,8.23,12.06l4.49-2.99,4.66,6.32c5.99-3.11,11.6-7.08,16.84-11.93,5.24-4.85,9.85-10.19,13.84-16.01l-8.65-5.49c-7.21,9.59-15.55,17.02-25.03,22.29Z"/>
    <path d="M1812.57,321.03h-39.5v16.96h4.74c-2.27,3.94-5.71,7.54-10.31,10.81l5.9,6.82c2.66-2,5.13-4.35,7.4-7.07l2.33,8.31h5.99c3.27,0,5.63-.8,7.07-2.41,1.44-1.61,2.16-3.99,2.16-7.15v-9.31h14.22v-16.96ZM1788.54,347.72h-7.07c1.55-2,2.85-3.94,3.91-5.82l-7.32-3.91h10.48v9.73ZM1802.59,331.09h-19.46v-3.08h19.46v3.08Z"/>
    <path d="M1843.42,286.27l-8.23-5.99c-2.72,3.99-5.83,7.57-9.35,10.73-3.52,3.16-7.58,6.13-12.18,8.9l6.15,9.06c9.31-5.87,17.18-13.44,23.61-22.7Z"/>
    <path d="M1826.71,313.54c-3.99,3.71-8.34,6.93-13.06,9.65l6.24,9.15c9.65-6.26,18.15-14.66,25.53-25.2l-8.23-5.65c-2.99,4.32-6.49,8.34-10.48,12.06Z"/>
    <path d="M1925.82,347.3h-5.32c-.61,0-1.04-.12-1.29-.37-.25-.25-.37-.68-.37-1.29v-18.13h-6.65c1.16-4.66,1.75-10.26,1.75-16.8v-14.14h-9.15v14.55c0,6.98-.78,12.69-2.33,17.13-1.55,4.44-3.96,8.16-7.23,11.18-3.27,3.02-7.84,6.06-13.72,9.11l4.82,9.06c6.15-3.33,11.14-6.87,14.97-10.64,3.82-3.77,6.74-8.01,8.73-12.72v12.72c0,3.44.71,5.85,2.12,7.23,1.41,1.38,3.87,2.08,7.36,2.08h5.65c3.27,0,5.56-.67,6.86-2,1.3-1.33,1.95-3.74,1.95-7.23v-7.4l-8.15-2.74v10.39Z"/>
    <polygon points="1898.22 291.51 1920.92 291.51 1920.92 332.17 1930.56 332.17 1930.56 282.78 1888.82 282.78 1888.82 332.17 1898.22 332.17 1898.22 291.51"/>
    <path d="M1888.49,330.17l-6.65-10.73c-.67-1.05-1.39-1.58-2.16-1.58-.5,0-1.11.28-1.83.83l-2,1.5-.5-.83c2.11-2.99,4.03-6.26,5.78-9.81s2.98-6.98,3.7-10.31v-7.4h-11.56l4.66-2.16c-2.05-3.88-4.24-7.29-6.57-10.23l-7.73,4.16c2.16,2.72,4.02,5.46,5.57,8.23h-12.31v8.73h18.29c-1.44,4.66-3.84,9.4-7.19,14.22-3.35,4.82-7.75,9.2-13.18,13.14l3.74,9.56c2.88-2.38,5.46-4.88,7.73-7.48v27.36h9.06v-31.43c0-.44.05-.66.17-.66s.25.14.42.42l6.15,10.56,6.4-6.07Z"/>
    <path d="M1970.31,315.37c-3.05,1.05-5.52,1.83-7.4,2.33v-14.47h7.07v-9.31h-7.07v-13.47h-9.31v13.47h-9.65v9.31h9.65v16.88c-3.94.89-7.48,1.61-10.64,2.16l1.41,9.64c3.1-.61,6.18-1.27,9.23-1.99v16.96h-9.15l2.74,9.98h6.4c3.55,0,5.99-.68,7.32-2.04,1.33-1.36,2-3.78,2-7.28v-20.21c3.38-1.11,6.18-2.08,8.4-2.91l-1-9.06Z"/>
    <path d="M2018.7,317.29v-7.15h-17.71v-9.64h19.54v-9.48h-19.54v-10.14h-9.81v10.14h-18.54v9.48h18.54v9.64h-18.04v9.48h11.39l-7.65,4.24c3.21,6.37,7.01,11.86,11.39,16.46-6.1,3.38-13.69,6.15-22.78,8.32l4.24,9.4c10.48-2.83,19.18-6.46,26.11-10.89,5.93,4.43,13.03,8.07,21.29,10.89l4.41-9.48c-6.71-2.05-12.47-4.68-17.29-7.9,6.65-6.15,11.47-13.94,14.47-23.37ZM1996.59,334.5c-3.99-3.88-7.62-8.84-10.89-14.88h21.54c-2.22,5.71-5.77,10.67-10.64,14.88Z"/>
    <path d="M2077.16,307.81h28.69v-9.81h-12.31l5.4-5.65c-3.99-3.99-8.7-7.68-14.14-11.06l-6.49,6.65c4.54,3.11,8.79,6.46,12.72,10.06h-17.3v-17.13h-10.31v17.13h-30.6v9.81h27.27c-2.27,5.82-5.92,11.24-10.93,16.26-5.02,5.02-11.38,10.13-19.08,15.34l6.57,8.48c6.1-4.38,10.92-8.26,14.47-11.64,3.55-3.38,6.22-6.71,8.02-9.98,1.8-3.27,2.95-6.87,3.45-10.81h.83v41.91h10.31v-41.91h.83c.44,3.82,1.68,7.37,3.7,10.64,2.02,3.27,4.91,6.58,8.65,9.94,3.74,3.36,8.77,7.3,15.09,11.85l6.57-8.48c-8.15-5.43-14.84-10.63-20.08-15.59-5.24-4.96-9.02-10.3-11.35-16.01Z"/>
    <path d="M2145.76,339.32l-7.4-5.82c-5.65,5.38-12.58,9.92-20.79,13.64l6.15,8.48c4.21-2.16,8.2-4.64,11.97-7.44,3.77-2.8,7.12-5.75,10.06-8.86Z"/>
    <path d="M2185.34,332l1.66,2.16,7.73-6.07c-5.99-7.71-11.95-14.16-17.88-19.37l-7.82,5.65c1.94,1.72,3.96,3.63,6.07,5.74l-22.12,2.08-5.65.5c12.53-6.04,24.58-13.86,36.17-23.45l-7.9-6.49c-3.11,2.94-6.68,5.85-10.73,8.73-6.49.72-13.03,1.25-19.62,1.58,4.88-2.61,9.95-6.04,15.22-10.31,11.7-.94,21.73-2.36,30.1-4.24l-3.58-8.06c-7.93,1.72-17.48,2.95-28.65,3.7-11.17.75-22.94,1.15-35.3,1.21l1.75,8.81c5.65,0,12-.14,19.04-.42-2.99,2.22-6.02,4.21-9.06,5.99-3.05,1.77-5.79,3.08-8.23,3.91l2,8.15c6.49-.17,14.02-.55,22.62-1.16-5.04,3.05-10.03,5.82-14.97,8.32-4.93,2.49-9.23,4.41-12.89,5.74l1.66,7.9c7.32-.33,16.19-.94,26.61-1.83v17.13h-9.98l2.74,9.23h6.49c3.88,0,6.69-.85,8.44-2.54,1.75-1.69,2.62-4.45,2.62-8.27v-16.38c9.26-.89,15.97-1.61,20.12-2.16l3.33,4.24Z"/>
    <path d="M2174.11,331.67l-6.9,6.9c7.98,5.49,15.13,11.17,21.45,17.05l7.15-7.57c-6.49-5.38-13.72-10.84-21.7-16.38Z"/>
  </g>
  <g>
    <path d="M1804.69,161.56c0-2.76-.5-5.31-1.5-7.65-1-2.34-2.41-4.38-4.22-6.1-1.82-1.72-3.93-3.06-6.34-4-2.41-.94-5.06-1.42-7.92-1.42h-15.19v38.4h15.3c2.83,0,5.45-.47,7.87-1.42,2.41-.94,4.52-2.27,6.32-3.98,1.8-1.71,3.19-3.74,4.19-6.1,1-2.36,1.5-4.94,1.5-7.73ZM1795.02,168.04c-1,1.82-2.39,3.21-4.17,4.19-1.78.98-3.87,1.47-6.26,1.47h-7.08v-24.24h7.08c2.36,0,4.43.49,6.21,1.47,1.78.98,3.18,2.37,4.19,4.17,1.02,1.8,1.52,3.93,1.52,6.4s-.5,4.72-1.5,6.54Z"/>
    <path d="M1833.17,176.81l-4.36-4.36c-.8.91-1.73,1.59-2.8,2.04-1.07.45-2.28.68-3.62.68-1.42,0-2.67-.32-3.76-.95-1.09-.64-1.93-1.52-2.51-2.64-.21-.4-.37-.85-.5-1.32l19.07-.05c.14-.65.24-1.23.3-1.74.05-.51.08-1.02.08-1.52,0-2.54-.56-4.8-1.69-6.78-1.13-1.98-2.68-3.54-4.66-4.68-1.98-1.14-4.24-1.71-6.78-1.71s-5.04.61-7.16,1.82c-2.12,1.22-3.81,2.86-5.06,4.93-1.25,2.07-1.88,4.41-1.88,7.02s.64,5.07,1.91,7.16c1.27,2.09,3,3.72,5.2,4.9,2.2,1.18,4.71,1.77,7.54,1.77,2.18,0,4.18-.38,6.02-1.14,1.83-.76,3.39-1.91,4.66-3.43ZM1816.07,163.5c.54-1.11,1.32-1.97,2.31-2.59,1-.62,2.19-.93,3.57-.93,1.27,0,2.35.27,3.24.82.89.54,1.57,1.33,2.04,2.34.21.46.37.97.5,1.53l-12.11.03c.12-.43.26-.84.45-1.22Z"/>
    <path d="M1846.95,178.79c.65.57,1.38,1.06,2.21,1.45,1.51.73,3.19,1.09,5.04,1.09,2.47,0,4.67-.6,6.62-1.8,1.94-1.2,3.47-2.83,4.57-4.9,1.11-2.07,1.66-4.39,1.66-6.97s-.56-5.05-1.69-7.11c-1.13-2.05-2.65-3.68-4.57-4.9-1.93-1.22-4.12-1.82-6.59-1.82-1.85,0-3.53.38-5.04,1.14-.78.39-1.47.86-2.1,1.41v-2.01h-7.79v37.52h7.68v-13.11ZM1847.36,164.15c.53-1,1.27-1.79,2.23-2.37.96-.58,2.04-.87,3.24-.87s2.32.29,3.27.87c.94.58,1.69,1.37,2.23,2.37.54,1,.82,2.15.82,3.46s-.27,2.41-.82,3.43c-.54,1.02-1.29,1.81-2.23,2.37-.94.56-2.05.84-3.32.84-1.2,0-2.28-.28-3.24-.84-.96-.56-1.7-1.34-2.21-2.34-.51-1-.76-2.15-.76-3.46s.26-2.46.79-3.46Z"/>
    <path d="M1889.92,178.46v2.33h7.62v-26.41h-7.62v2.38c-.72-.74-1.54-1.36-2.51-1.84-1.45-.73-3.09-1.09-4.9-1.09-2.43,0-4.61.6-6.54,1.8-1.93,1.2-3.43,2.84-4.52,4.93-1.09,2.09-1.63,4.46-1.63,7.11s.55,4.9,1.63,6.97c1.09,2.07,2.59,3.7,4.49,4.9,1.91,1.2,4.08,1.8,6.51,1.8,1.82,0,3.47-.36,4.96-1.09.97-.47,1.79-1.07,2.51-1.78ZM1880.74,173.41c-.96-.56-1.71-1.35-2.23-2.37-.53-1.02-.79-2.16-.79-3.43s.27-2.47.82-3.49c.54-1.02,1.29-1.81,2.23-2.37.94-.56,2.02-.84,3.21-.84,1.27,0,2.38.28,3.32.84.94.56,1.68,1.34,2.21,2.34.53,1,.79,2.17.79,3.51,0,1.96-.59,3.56-1.77,4.79-1.18,1.23-2.7,1.85-4.55,1.85-1.2,0-2.28-.28-3.24-.84Z"/>
    <path d="M1921.59,154.46c-1-.42-2.13-.63-3.4-.63-2.91,0-5.16.9-6.75,2.7v-2.15h-7.79v26.41h7.79v-14.49c0-1.85.44-3.23,1.31-4.14.87-.91,2.03-1.36,3.49-1.36.69,0,1.32.1,1.88.3.56.2,1.04.54,1.44,1.01l4.68-5.72c-.76-.87-1.64-1.52-2.64-1.93Z"/>
    <polygon points="1939.15 180.79 1939.15 161.07 1945.19 161.07 1945.19 154.37 1939.15 154.37 1939.15 143.48 1931.36 143.48 1931.36 154.37 1925.26 154.37 1925.26 161.07 1931.36 161.07 1931.36 180.79 1939.15 180.79"/>
    <path d="M1985.71,155.08c-1.56-.83-3.34-1.25-5.34-1.25s-3.81.44-5.45,1.31c-1.19.63-2.2,1.46-3.05,2.48-.79-1.06-1.75-1.92-2.91-2.56-1.47-.82-3.13-1.23-4.98-1.23s-3.67.42-5.23,1.25c-.73.39-1.38.86-1.96,1.39v-2.1h-7.79v26.41h7.79v-15.47c0-.98.2-1.81.6-2.48.4-.67.94-1.19,1.63-1.55.69-.36,1.49-.55,2.4-.55,1.31,0,2.4.4,3.27,1.2.87.8,1.31,1.92,1.31,3.38v15.47h7.79v-15.47c0-.98.2-1.81.6-2.48.4-.67.95-1.19,1.66-1.55.71-.36,1.52-.55,2.42-.55,1.31,0,2.4.4,3.29,1.2.89.8,1.33,1.92,1.33,3.38v15.47h7.73v-16.5c0-2.18-.46-4.05-1.39-5.61s-2.17-2.76-3.73-3.6Z"/>
    <path d="M2015.26,180.24c1.83-.76,3.39-1.91,4.66-3.43l-4.36-4.36c-.8.91-1.73,1.59-2.8,2.04-1.07.45-2.28.68-3.62.68-1.42,0-2.67-.32-3.76-.95-1.09-.64-1.93-1.52-2.51-2.64-.21-.4-.37-.85-.5-1.32l19.07-.05c.14-.65.24-1.23.3-1.74.06-.51.08-1.02.08-1.52,0-2.54-.56-4.8-1.69-6.78-1.13-1.98-2.68-3.54-4.66-4.68-1.98-1.14-4.24-1.71-6.78-1.71s-5.04.61-7.16,1.82c-2.12,1.22-3.81,2.86-5.06,4.93-1.25,2.07-1.88,4.41-1.88,7.02s.64,5.07,1.91,7.16c1.27,2.09,3,3.72,5.2,4.9,2.2,1.18,4.71,1.77,7.54,1.77,2.18,0,4.18-.38,6.02-1.14ZM2002.81,163.5c.55-1.11,1.32-1.97,2.32-2.59,1-.62,2.19-.93,3.57-.93,1.27,0,2.35.27,3.24.82.89.54,1.57,1.33,2.04,2.34.21.46.37.97.5,1.53l-12.11.03c.12-.43.26-.84.45-1.22Z"/>
    <path d="M2036.12,161.37c.74-.42,1.61-.63,2.59-.63,1.42,0,2.58.46,3.49,1.39.91.93,1.36,2.13,1.36,3.62v15.03h7.79v-16.77c0-1.82-.44-3.49-1.31-5.01s-2.06-2.77-3.57-3.73c-1.51-.96-3.24-1.44-5.2-1.44s-3.79.44-5.39,1.31c-.77.42-1.46.93-2.07,1.51v-2.27h-7.79v26.41h7.79v-15.09c0-.98.2-1.84.6-2.59.4-.74.97-1.33,1.72-1.74Z"/>
    <polygon points="2068.49 143.48 2060.7 143.48 2060.7 154.37 2054.6 154.37 2054.6 161.07 2060.7 161.07 2060.7 180.79 2068.49 180.79 2068.49 161.07 2074.54 161.07 2074.54 154.37 2068.49 154.37 2068.49 143.48"/>
    <path d="M2108.6,155.6c-2.16-1.22-4.58-1.82-7.27-1.82s-5.16.62-7.3,1.85c-2.14,1.23-3.85,2.88-5.12,4.93-1.27,2.05-1.91,4.37-1.91,6.94s.63,5.02,1.91,7.11c1.27,2.09,2.99,3.74,5.15,4.96,2.16,1.22,4.58,1.82,7.27,1.82s5.17-.61,7.33-1.82c2.16-1.22,3.86-2.88,5.09-4.98,1.23-2.11,1.85-4.47,1.85-7.08s-.63-4.9-1.88-6.97c-1.25-2.07-2.96-3.71-5.12-4.93ZM2106.94,171.04c-.54,1.02-1.3,1.81-2.26,2.37-.96.56-2.08.84-3.35.84s-2.34-.28-3.32-.84c-.98-.56-1.73-1.35-2.26-2.37-.53-1.02-.79-2.18-.79-3.49s.26-2.4.79-3.4c.53-1,1.28-1.78,2.26-2.34.98-.56,2.09-.84,3.32-.84s2.38.27,3.32.82c.94.54,1.7,1.33,2.26,2.34.56,1.02.84,2.16.84,3.43s-.27,2.47-.82,3.49Z"/>
    <path d="M2123.39,180.79h7.73v-19.72h7.73v-6.7h-7.73v-2.72c0-1.23.34-2.2,1.03-2.89.69-.69,1.63-1.04,2.83-1.04.65,0,1.22.11,1.69.33.47.22.89.51,1.25.87l4.9-4.85c-1.02-1.05-2.17-1.88-3.46-2.48-1.29-.6-2.8-.9-4.55-.9-2.36,0-4.39.5-6.1,1.5-1.71,1-3.02,2.32-3.95,3.98-.93,1.65-1.39,3.55-1.39,5.69v2.51h-5.99v6.7h5.99v19.72Z"/>
    <polygon points="1775.5 207.75 1769.51 207.75 1769.51 246.14 1777.51 246.14 1777.51 230.78 1794.72 230.78 1794.72 223.81 1777.51 223.81 1777.51 214.77 1795.65 214.77 1795.65 207.75 1777.51 207.75 1775.5 207.75"/>
    <rect x="1800.55" y="219.73" width="7.73" height="26.41"/>
    <path d="M1804.41,207.15c-1.23,0-2.26.42-3.08,1.25-.82.84-1.23,1.87-1.23,3.1s.41,2.22,1.23,3.05c.82.84,1.84,1.25,3.08,1.25s2.31-.42,3.1-1.25c.8-.83,1.2-1.85,1.2-3.05s-.4-2.27-1.2-3.1c-.8-.83-1.83-1.25-3.1-1.25Z"/>
    <rect x="1814.38" y="206.66" width="7.79" height="39.48"/>
    <path d="M1864.92,220.44c-1.56-.84-3.34-1.25-5.34-1.25s-3.81.44-5.45,1.31c-1.19.63-2.2,1.46-3.05,2.48-.79-1.06-1.75-1.92-2.91-2.56-1.47-.82-3.13-1.22-4.98-1.22s-3.67.42-5.23,1.25c-.73.39-1.38.86-1.96,1.39v-2.1h-7.79v26.41h7.79v-15.47c0-.98.2-1.81.6-2.48.4-.67.94-1.19,1.63-1.55.69-.36,1.49-.54,2.4-.54,1.31,0,2.4.4,3.27,1.2.87.8,1.31,1.92,1.31,3.38v15.47h7.79v-15.47c0-.98.2-1.81.6-2.48.4-.67.95-1.19,1.66-1.55.71-.36,1.52-.54,2.42-.54,1.31,0,2.4.4,3.29,1.2.89.8,1.33,1.92,1.33,3.38v15.47h7.73v-16.5c0-2.18-.46-4.05-1.39-5.61-.93-1.56-2.17-2.76-3.73-3.59Z"/>
    <path d="M1897.3,220.27c-.38-.65-.57-1.45-.57-2.4s.38-1.82,1.14-2.5c.76-.69,1.72-1.04,2.89-1.04s2.1.28,2.91.84c.82.56,1.61,1.35,2.37,2.37l5.23-4.96c-.58-.94-1.37-1.83-2.37-2.64-1-.82-2.19-1.49-3.57-2.01-1.38-.53-2.92-.79-4.63-.79-2.29,0-4.28.48-5.99,1.44-1.71.96-3.04,2.26-4,3.89-.96,1.63-1.44,3.41-1.44,5.34,0,1.67.32,3.18.95,4.52.36.76.84,1.55,1.42,2.36-1.94,1.06-3.44,2.36-4.5,3.9-1.27,1.85-1.91,3.98-1.91,6.37,0,2.21.54,4.21,1.61,5.99,1.07,1.78,2.58,3.19,4.52,4.22,1.94,1.04,4.24,1.55,6.89,1.55,1.67,0,3.23-.24,4.68-.71s2.75-1.08,3.89-1.82c.52-.34.99-.68,1.41-1.03l2.7,2.97h9.15l-21.13-23.64c-.73-.83-1.28-1.58-1.66-2.23ZM1902.01,238.73c-.98.58-2.18.87-3.59.87-1.16,0-2.17-.21-3.02-.63-.85-.42-1.52-1.02-1.99-1.8-.47-.78-.71-1.66-.71-2.64,0-1.31.29-2.41.87-3.32.48-.76,1.19-1.36,2.11-1.84l7.61,8.36c-.38.38-.81.72-1.28,1Z"/>
    <polygon points="1964.15 207.75 1931.91 207.75 1931.91 214.83 1944 214.83 1944 246.14 1952 246.14 1952 214.83 1964.15 214.83 1964.15 207.75"/>
    <path d="M1983.34,220.84c-1.98-1.14-4.24-1.72-6.78-1.72s-5.04.61-7.16,1.82c-2.12,1.22-3.81,2.86-5.06,4.93-1.25,2.07-1.88,4.41-1.88,7.02s.64,5.07,1.91,7.16c1.27,2.09,3,3.72,5.2,4.9,2.2,1.18,4.71,1.77,7.54,1.77,2.18,0,4.18-.38,6.02-1.14,1.83-.76,3.39-1.91,4.66-3.43l-4.36-4.36c-.8.91-1.73,1.59-2.8,2.04-1.07.45-2.28.68-3.62.68-1.42,0-2.67-.32-3.76-.95-1.09-.63-1.93-1.52-2.51-2.64-.21-.4-.37-.85-.5-1.32l19.07-.05c.14-.65.24-1.23.3-1.74.05-.51.08-1.02.08-1.52,0-2.54-.56-4.8-1.69-6.78-1.13-1.98-2.68-3.54-4.66-4.68ZM1970.23,230.07c.12-.43.26-.84.45-1.22.54-1.11,1.32-1.97,2.31-2.59,1-.62,2.19-.93,3.57-.93,1.27,0,2.35.27,3.24.82.89.55,1.57,1.33,2.04,2.34.21.46.37.97.5,1.54l-12.11.03Z"/>
    <rect x="1993.88" y="206.66" width="7.79" height="39.48"/>
    <path d="M2026.8,220.84c-1.98-1.14-4.24-1.72-6.78-1.72s-5.04.61-7.16,1.82c-2.12,1.22-3.81,2.86-5.06,4.93-1.25,2.07-1.88,4.41-1.88,7.02s.63,5.07,1.91,7.16c1.27,2.09,3,3.72,5.2,4.9,2.2,1.18,4.71,1.77,7.54,1.77,2.18,0,4.18-.38,6.02-1.14,1.83-.76,3.39-1.91,4.66-3.43l-4.36-4.36c-.8.91-1.73,1.59-2.8,2.04-1.07.45-2.28.68-3.62.68-1.42,0-2.67-.32-3.76-.95-1.09-.63-1.92-1.52-2.5-2.64-.21-.4-.37-.85-.5-1.32l19.07-.05c.14-.65.24-1.23.3-1.74.05-.51.08-1.02.08-1.52,0-2.54-.56-4.8-1.69-6.78-1.13-1.98-2.68-3.54-4.66-4.68ZM2013.69,230.07c.12-.43.26-.84.45-1.22.54-1.11,1.32-1.97,2.31-2.59,1-.62,2.19-.93,3.57-.93,1.27,0,2.35.27,3.24.82.89.55,1.57,1.33,2.04,2.34.21.46.37.97.5,1.54l-12.11.03Z"/>
    <polygon points="2048.82 236.24 2042.79 219.73 2034.34 219.73 2045.78 246.14 2051.72 246.14 2063.05 219.73 2054.82 219.73 2048.82 236.24"/>
    <path d="M2070.07,207.15c-1.23,0-2.26.42-3.08,1.25-.82.84-1.23,1.87-1.23,3.1s.41,2.22,1.23,3.05c.82.84,1.84,1.25,3.08,1.25s2.31-.42,3.11-1.25c.8-.83,1.2-1.85,1.2-3.05s-.4-2.27-1.2-3.1c-.8-.83-1.83-1.25-3.11-1.25Z"/>
    <rect x="2066.2" y="219.73" width="7.73" height="26.41"/>
    <path d="M2087.72,225.94c.51-.29,1.27-.44,2.29-.44s2.09.21,3.11.63c1.01.42,1.92,1.12,2.72,2.1l4.52-4.57c-1.16-1.52-2.67-2.68-4.52-3.46-1.85-.78-3.87-1.17-6.04-1.17s-3.99.35-5.53,1.06c-1.54.71-2.74,1.69-3.59,2.94-.85,1.25-1.28,2.73-1.28,4.44,0,1.6.32,2.9.95,3.89.63,1,1.45,1.8,2.45,2.4,1,.6,2.04,1.06,3.13,1.39,1.09.33,2.13.63,3.13.9,1,.27,1.81.59,2.45.95.63.36.95.89.95,1.58,0,.58-.28,1.03-.84,1.33-.56.31-1.39.46-2.48.46-1.38,0-2.67-.25-3.87-.76-1.2-.51-2.25-1.27-3.16-2.29l-4.52,4.57c.91,1.02,1.98,1.89,3.21,2.61,1.23.73,2.59,1.29,4.06,1.69,1.47.4,2.99.6,4.55.6,3.23,0,5.79-.75,7.68-2.26,1.89-1.51,2.83-3.57,2.83-6.18,0-1.63-.31-2.96-.93-3.98-.62-1.02-1.43-1.84-2.42-2.48-1-.63-2.04-1.12-3.13-1.47-1.09-.35-2.13-.64-3.13-.9-1-.25-1.81-.56-2.42-.93-.62-.36-.93-.82-.93-1.36,0-.58.25-1.02.76-1.31Z"/>
    <rect x="2104.6" y="219.73" width="7.73" height="26.41"/>
    <path d="M2108.46,207.15c-1.23,0-2.26.42-3.08,1.25-.82.84-1.23,1.87-1.23,3.1s.41,2.22,1.23,3.05c.82.84,1.84,1.25,3.08,1.25s2.31-.42,3.11-1.25c.8-.83,1.2-1.85,1.2-3.05s-.4-2.27-1.2-3.1c-.8-.83-1.83-1.25-3.11-1.25Z"/>
    <path d="M2138.23,220.95c-2.16-1.22-4.58-1.82-7.27-1.82s-5.16.62-7.3,1.85c-2.14,1.23-3.85,2.88-5.12,4.93-1.27,2.05-1.91,4.37-1.91,6.94s.64,5.02,1.91,7.11c1.27,2.09,2.99,3.74,5.15,4.96,2.16,1.22,4.58,1.83,7.27,1.83s5.16-.61,7.32-1.83c2.16-1.22,3.86-2.88,5.09-4.98,1.23-2.11,1.85-4.47,1.85-7.08s-.63-4.9-1.88-6.97c-1.25-2.07-2.96-3.71-5.12-4.93ZM2136.57,236.39c-.55,1.02-1.3,1.81-2.26,2.37-.96.56-2.08.84-3.35.84s-2.34-.28-3.32-.84c-.98-.56-1.73-1.35-2.26-2.37-.53-1.02-.79-2.18-.79-3.49s.26-2.4.79-3.4c.53-1,1.28-1.78,2.26-2.34.98-.56,2.09-.84,3.32-.84s2.38.27,3.32.82c.94.54,1.7,1.33,2.26,2.34.56,1.02.84,2.16.84,3.43s-.27,2.47-.82,3.49Z"/>
    <path d="M2170.03,220.63c-1.51-.96-3.24-1.44-5.2-1.44s-3.79.44-5.39,1.31c-.77.42-1.46.93-2.07,1.51v-2.27h-7.79v26.41h7.79v-15.09c0-.98.2-1.84.6-2.59.4-.74.97-1.33,1.72-1.74.74-.42,1.61-.63,2.59-.63,1.42,0,2.58.46,3.49,1.39.91.93,1.36,2.13,1.36,3.62v15.03h7.79v-16.77c0-1.82-.44-3.49-1.31-5.01s-2.06-2.77-3.57-3.73Z"/>
    <polygon points="2221.25 207.75 2189.01 207.75 2189.01 214.83 2201.1 214.83 2201.1 246.14 2209.11 246.14 2209.11 214.83 2221.25 214.83 2221.25 207.75"/>
    <path d="M2240.45,220.84c-1.98-1.14-4.24-1.72-6.78-1.72s-5.04.61-7.16,1.82c-2.12,1.22-3.81,2.86-5.06,4.93-1.25,2.07-1.88,4.41-1.88,7.02s.64,5.07,1.91,7.16c1.27,2.09,3,3.72,5.2,4.9,2.2,1.18,4.71,1.77,7.54,1.77,2.18,0,4.18-.38,6.02-1.14,1.83-.76,3.38-1.91,4.66-3.43l-4.36-4.36c-.8.91-1.73,1.59-2.8,2.04-1.07.45-2.28.68-3.62.68-1.42,0-2.67-.32-3.76-.95-1.09-.63-1.93-1.52-2.51-2.64-.21-.4-.37-.85-.5-1.32l19.07-.05c.15-.65.25-1.23.3-1.74.05-.51.08-1.02.08-1.52,0-2.54-.56-4.8-1.69-6.78-1.13-1.98-2.68-3.54-4.66-4.68ZM2227.34,230.07c.12-.43.26-.84.45-1.22.54-1.11,1.32-1.97,2.31-2.59,1-.62,2.19-.93,3.57-.93,1.27,0,2.35.27,3.24.82.89.55,1.57,1.33,2.04,2.34.21.46.37.97.5,1.54l-12.11.03Z"/>
    <path d="M2266.7,239.01c-.89.4-1.9.6-3.02.6-1.23,0-2.35-.28-3.35-.84-1-.56-1.78-1.35-2.34-2.37-.56-1.02-.84-2.18-.84-3.49s.28-2.46.84-3.46c.56-1,1.33-1.77,2.32-2.31.98-.55,2.11-.82,3.38-.82,1.09,0,2.08.18,2.97.55.89.36,1.66.91,2.31,1.63l4.96-5.01c-1.31-1.42-2.82-2.5-4.55-3.24-1.72-.74-3.62-1.12-5.69-1.12-2.76,0-5.23.61-7.41,1.82-2.18,1.22-3.9,2.86-5.17,4.93-1.27,2.07-1.91,4.43-1.91,7.08s.64,4.92,1.91,7.02c1.27,2.11,2.99,3.76,5.15,4.96,2.16,1.2,4.6,1.8,7.32,1.8,2.14,0,4.09-.38,5.83-1.14,1.74-.76,3.29-1.87,4.63-3.32l-4.96-5.01c-.69.76-1.48,1.34-2.37,1.74Z"/>
    <path d="M2298.28,220.49c-1.54-.87-3.33-1.31-5.36-1.31s-3.78.44-5.34,1.31c-.71.4-1.34.87-1.91,1.41v-15.24h-7.79v39.48h7.79v-15.09c0-.98.2-1.84.6-2.59.4-.74.97-1.33,1.71-1.74.74-.42,1.61-.63,2.59-.63,1.42,0,2.58.46,3.49,1.39.91.93,1.36,2.13,1.36,3.62v15.03h7.79v-16.77c0-2.03-.44-3.8-1.31-5.31-.87-1.51-2.08-2.7-3.62-3.57Z"/>
    <path d="M2329.22,220.63c-1.51-.96-3.24-1.44-5.2-1.44s-3.79.44-5.39,1.31c-.77.42-1.46.93-2.07,1.51v-2.27h-7.79v26.41h7.79v-15.09c0-.98.2-1.84.6-2.59.4-.74.97-1.33,1.71-1.74.74-.42,1.61-.63,2.59-.63,1.42,0,2.58.46,3.49,1.39.91.93,1.36,2.13,1.36,3.62v15.03h7.79v-16.77c0-1.82-.44-3.49-1.31-5.01-.87-1.52-2.06-2.77-3.57-3.73Z"/>
    <path d="M2359.44,220.95c-2.16-1.22-4.58-1.82-7.27-1.82s-5.16.62-7.3,1.85c-2.14,1.23-3.85,2.88-5.12,4.93-1.27,2.05-1.91,4.37-1.91,6.94s.64,5.02,1.91,7.11c1.27,2.09,2.99,3.74,5.15,4.96,2.16,1.22,4.58,1.83,7.27,1.83s5.16-.61,7.32-1.83c2.16-1.22,3.86-2.88,5.09-4.98,1.23-2.11,1.85-4.47,1.85-7.08s-.63-4.9-1.88-6.97c-1.25-2.07-2.96-3.71-5.12-4.93ZM2357.78,236.39c-.54,1.02-1.3,1.81-2.26,2.37-.96.56-2.08.84-3.35.84s-2.34-.28-3.32-.84c-.98-.56-1.73-1.35-2.26-2.37-.53-1.02-.79-2.18-.79-3.49s.26-2.4.79-3.4c.53-1,1.28-1.78,2.26-2.34.98-.56,2.09-.84,3.32-.84s2.38.27,3.32.82c.94.54,1.7,1.33,2.26,2.34.56,1.02.84,2.16.84,3.43s-.27,2.47-.82,3.49Z"/>
    <rect x="2370.8" y="206.66" width="7.79" height="39.48"/>
    <path d="M2404.43,220.95c-2.16-1.22-4.58-1.82-7.27-1.82s-5.16.62-7.3,1.85c-2.14,1.23-3.85,2.88-5.12,4.93-1.27,2.05-1.91,4.37-1.91,6.94s.64,5.02,1.91,7.11c1.27,2.09,2.99,3.74,5.15,4.96,2.16,1.22,4.58,1.83,7.27,1.83s5.16-.61,7.32-1.83c2.16-1.22,3.86-2.88,5.09-4.98,1.23-2.11,1.85-4.47,1.85-7.08s-.63-4.9-1.88-6.97c-1.25-2.07-2.96-3.71-5.12-4.93ZM2402.76,236.39c-.54,1.02-1.3,1.81-2.26,2.37-.96.56-2.08.84-3.35.84s-2.34-.28-3.32-.84c-.98-.56-1.73-1.35-2.26-2.37-.53-1.02-.79-2.18-.79-3.49s.26-2.4.79-3.4c.53-1,1.28-1.78,2.26-2.34.98-.56,2.09-.84,3.32-.84s2.38.27,3.32.82c.94.54,1.7,1.33,2.26,2.34.56,1.02.84,2.16.84,3.43s-.27,2.47-.82,3.49Z"/>
    <path d="M2433.7,221.68c-.62-.55-1.32-1.02-2.12-1.41-1.49-.73-3.16-1.09-5.01-1.09-2.43,0-4.59.58-6.48,1.74-1.89,1.16-3.37,2.72-4.44,4.68-1.07,1.96-1.61,4.18-1.61,6.64s.54,4.69,1.63,6.67c1.09,1.98,2.57,3.55,4.44,4.71,1.87,1.16,4,1.74,6.4,1.74,1.85,0,3.52-.36,5.01-1.09.8-.39,1.5-.87,2.12-1.41v1.96c0,1.92-.63,3.42-1.88,4.49-1.25,1.07-2.93,1.61-5.04,1.61-1.74,0-3.22-.31-4.44-.93-1.22-.62-2.3-1.51-3.24-2.67l-4.85,4.85c1.27,1.82,2.99,3.23,5.15,4.25,2.16,1.02,4.67,1.52,7.54,1.52s5.34-.56,7.52-1.69c2.18-1.13,3.89-2.68,5.15-4.66,1.25-1.98,1.88-4.29,1.88-6.94v-24.94h-7.73v1.96ZM2433.34,235.44c-.49.93-1.2,1.66-2.12,2.21-.93.55-1.99.82-3.19.82s-2.31-.27-3.21-.82c-.91-.54-1.62-1.29-2.12-2.23-.51-.94-.76-2-.76-3.16s.25-2.21.73-3.13c.49-.93,1.21-1.66,2.15-2.21.94-.54,2.01-.82,3.21-.82s2.31.27,3.21.82c.91.55,1.61,1.28,2.1,2.21.49.93.73,1.99.73,3.19s-.24,2.21-.73,3.13Z"/>
    <polygon points="2464.52 219.73 2458.69 236.14 2453.03 219.73 2444.7 219.73 2454.74 244.1 2448.57 257.25 2456.68 257.25 2461.36 246.3 2472.91 219.73 2464.52 219.73"/>
  </g>
  <g id="BFA_Logo_Fix" data-name="BFA Logo Fix">
    <g id="Logo">
      <path d="M312.31,145.94h-91.35l-65.55,207.14h87.26l61.69-42.94c1.95-1.19,3.27-3.34,3.27-5.81s-1.42-4.79-3.51-5.95l-95.96-67.09s-.06-.04-.09-.06l-.15-.1v-.02c-1.44-1.07-2.4-2.77-2.4-4.72,0-2.86,2.04-5.24,4.75-5.76.27-.06.56-.11.84-.11.03,0,.05,0,.08,0h0s66.14,0,66.14,0c0,0,4.11.09,6.18-1.66,2.53-2.14,2.97-4.33,2.97-4.33l20.35-64.6h.03c.78-2.3,2.9-3.95,5.44-3.99M185.47,334.72l-1.86,5.85c-.3.97-1.35,1.76-2.31,1.76h-9.59c-.97,0-1.51-.79-1.2-1.76l1.86-5.85c.31-.97,1.34-1.76,2.31-1.76h9.58c.98,0,1.52.78,1.21,1.76M192.55,312.42l-1.86,5.85c-.31.96-1.35,1.76-2.31,1.76h-9.59c-.97,0-1.5-.8-1.2-1.76l1.86-5.85c.3-.97,1.34-1.76,2.31-1.76h9.58c.98,0,1.51.79,1.2,1.76M199.64,290.12l-1.86,5.84c-.31.97-1.35,1.75-2.32,1.75h-9.58c-.97,0-1.51-.78-1.2-1.75l1.85-5.84c.3-.97,1.34-1.76,2.32-1.76h9.59c.97,0,1.51.78,1.2,1.76M206.72,267.82l-1.86,5.85c-.3.97-1.35,1.75-2.31,1.75h-9.59c-.97,0-1.51-.79-1.2-1.75l1.86-5.85c.31-.96,1.34-1.75,2.31-1.75h9.59c.97,0,1.51.78,1.2,1.75M212.6,243.76c.97,0,1.51.78,1.2,1.76l-1.86,5.84c-.31.97-1.35,1.76-2.32,1.76h-9.59c-.97,0-1.5-.79-1.19-1.76l1.85-5.84c.31-.97,1.34-1.76,2.31-1.76h9.59ZM227.97,200.91l-1.86,5.85c-.3.97-1.34,1.75-2.32,1.75h-9.59c-.97,0-1.5-.78-1.2-1.75l1.86-5.85c.31-.97,1.34-1.75,2.31-1.75h9.59c.97,0,1.51.78,1.2,1.75M235.06,178.61l-1.86,5.84c-.3.97-1.35,1.76-2.32,1.76h-9.58c-.97,0-1.51-.79-1.2-1.76l1.86-5.84c.31-.97,1.34-1.77,2.31-1.77h9.59c.97,0,1.51.8,1.21,1.77M242.14,156.31l-1.85,5.84c-.3.97-1.35,1.75-2.32,1.75h-9.59c-.98,0-1.51-.78-1.2-1.75l1.86-5.84c.3-.97,1.34-1.76,2.31-1.76h9.58c.97,0,1.51.79,1.2,1.76"/>
      <path class="cls-3" d="M403.88,145.94h-91.42c2.61.02,4.79,1.76,5.53,4.13h.03l20.54,64.49s1.48,3.6,3.28,4.67c2.55,1.54,6.03,1.29,6.03,1.29h66.23s.02,0,.02,0c.01,0,.02,0,.03,0,3.24,0,5.87,2.63,5.87,5.87,0,1.96-.98,3.69-2.46,4.76h-.02c-.11.09-.23.16-.34.23l-53.79,37.53s-2.76,1.64-3.84,4.7c-1.27,3.63-.3,6.04-.3,6.04l23.45,73.42h87.13l-65.95-207.14ZM384.22,162.15l-1.85-5.85c-.31-.97.23-1.76,1.19-1.76h9.59c.98,0,2,.79,2.32,1.76l1.85,5.85c.3.97-.22,1.75-1.2,1.75h-9.59c-.97,0-2.01-.78-2.32-1.75M391.3,184.45l-1.85-5.84c-.3-.97.24-1.77,1.21-1.77h9.58c.97,0,2.01.79,2.32,1.77l1.85,5.84c.31.97-.24,1.77-1.2,1.77h-9.58c-.97,0-2.01-.79-2.32-1.77M410.27,208.51h-9.58c-.97,0-2.01-.79-2.32-1.76l-1.85-5.84c-.31-.98.24-1.76,1.2-1.76h9.59c.97,0,2,.78,2.3,1.76l1.85,5.84c.32.97-.22,1.76-1.2,1.76M412.53,251.36l-1.86-5.84c-.3-.98.24-1.76,1.2-1.76h9.59c.97,0,2,.78,2.31,1.76l1.85,5.84c.31.97-.22,1.76-1.2,1.76h-9.58c-.97,0-2.01-.79-2.31-1.76M419.6,273.66l-1.86-5.85c-.3-.97.24-1.75,1.21-1.75h9.58c.97,0,2.01.78,2.31,1.75l1.85,5.85c.31.96-.22,1.76-1.2,1.76h-9.59c-.97,0-2.02-.79-2.31-1.76M426.67,295.96l-1.85-5.84c-.3-.97.23-1.76,1.2-1.76h9.59c.98,0,2.01.79,2.32,1.76l1.85,5.84c.31.97-.23,1.75-1.2,1.75h-9.59c-.97,0-2.01-.78-2.31-1.75M433.74,318.27l-1.86-5.85c-.3-.96.24-1.76,1.22-1.76h9.58c.98,0,2.01.8,2.32,1.76l1.86,5.85c.3.96-.23,1.76-1.2,1.76h-9.59c-.97,0-2-.79-2.32-1.76M452.72,342.32h-9.59c-.97,0-2.01-.79-2.32-1.76l-1.85-5.84c-.31-.97.23-1.76,1.21-1.76h9.59c.96,0,2,.79,2.3,1.76l1.86,5.84c.31.97-.23,1.76-1.19,1.76"/>
    </g>
    <g id="BFA">
      <path class="cls-3" d="M532.52,303.33c.63.21,1.15.69,1.54,1.46.4.76.6,2.11.6,4.04,0,3.59-.24,5.78-.72,6.55-.48.78-1.59,1.16-3.34,1.16-.43,0-1.02.01-1.78.04v-13.57c1.83,0,3.06.11,3.69.31M511.34,353.73h20.28c7.05,0,11.72-.36,14-1.08,2.28-.72,3.93-2.08,4.97-4.08,1.04-2,1.57-5.06,1.57-9.19v-5.66c0-3.99-.72-6.95-2.16-8.88-1.44-1.93-4.19-3.31-8.23-4.14,3.62-.75,6.05-1.83,7.28-3.25,1.23-1.42,1.85-3.92,1.85-7.51,0-5.3-.87-9.15-2.62-11.54-1.75-2.39-4.05-3.97-6.89-4.76-2.84-.78-7.03-1.16-12.55-1.16h-17.49v61.24ZM533.73,327.06c.62.56.93,2.15.93,4.77v5.73c0,2.51-.35,4.08-1.04,4.71-.69.63-2.29.98-4.8,1.07v-17.24c2.64.08,4.28.4,4.9.96"/>
      <polygon points="559.32 292.5 588.61 292.5 588.61 304.8 576.82 304.8 576.82 316.33 587.85 316.33 587.85 328 576.82 328 576.82 341.44 589.75 341.44 589.75 353.74 559.32 353.74 559.32 292.5"/>
      <rect x="595.65" y="292.5" width="17.49" height="61.24"/>
      <path d="M642.51,292.5v40.92c0,6.13-.07,10.08-.21,11.85-.14,1.76-.78,3.34-1.91,4.74-1.14,1.4-2.67,2.37-4.6,2.91-1.93.54-4.83.81-8.72.81h-8.78v-10.65c1.06.09,1.83.13,2.31.13,1.26,0,2.25-.28,2.98-.83.73-.56,1.15-1.24,1.26-2.05.11-.8.17-2.37.17-4.7v-43.13h17.49Z"/>
      <rect x="650.2" y="292.5" width="17.49" height="61.24"/>
      <polygon points="714.69 292.5 714.69 353.74 699.48 353.74 690.35 325.88 690.35 353.74 675.64 353.74 675.64 292.5 690.1 292.5 699.99 320.06 699.99 292.5 714.69 292.5"/>
      <path d="M762.91,314.94h-17.49v-5.56c0-3.48-.18-5.67-.51-6.55-.34-.89-1.13-1.33-2.39-1.33-1.09,0-1.83.38-2.22,1.13-.39.75-.59,2.69-.59,5.83v29.44c0,2.75.19,4.56.58,5.41.39.86,1.16,1.29,2.33,1.29,1.28,0,2.15-.49,2.61-1.49.46-.99.69-2.91.69-5.76v-7.33h-3.55v-9.26h20.54v32.97h-11l-1.61-4.38c-1.2,1.89-2.7,3.31-4.52,4.24-1.82.94-3.96,1.4-6.44,1.4-2.94,0-5.7-.65-8.27-1.94-2.56-1.29-4.52-2.9-5.85-4.81-1.33-1.92-2.17-3.93-2.5-6.05-.33-2.11-.5-5.28-.5-9.5v-18.21c0-5.87.35-10.12,1.04-12.78.69-2.65,2.68-5.09,5.97-7.3,3.29-2.2,7.54-3.31,12.76-3.31s9.39.96,12.77,2.87c3.38,1.92,5.59,4.19,6.62,6.82,1.03,2.64,1.54,6.46,1.54,11.48v2.66Z"/>
      <polygon class="cls-3" points="802.43 292.5 832.09 292.5 832.09 304.8 819.92 304.8 819.92 316.33 830.7 316.33 830.7 328 819.92 328 819.92 353.74 802.43 353.74 802.43 292.5"/>
      <rect x="837.25" y="292.5" width="17.49" height="61.24"/>
      <polygon points="880.18 292.5 880.18 341.44 890.83 341.44 890.83 353.74 862.69 353.74 862.69 292.5 880.18 292.5"/>
      <path d="M950.02,292.5v61.24h-15.34l-.06-41.34-6.02,41.34h-10.77l-6.41-40.45-.06,40.45h-15.34v-61.24h22.66c.67,3.63,1.36,7.96,2.06,12.96l2.48,15.64,4.02-28.6h22.79Z"/>
      <path class="cls-3" d="M1004.81,331.8c.52-5.36,1.61-13.94,3.29-25.73.97,10.24,1.86,18.82,2.65,25.73h-5.94ZM994.76,292.5l-8.97,61.24h18.16l.96-11.03h6.38l.96,11.03h17.85l-10.05-61.24h-25.29Z"/>
      <path d="M1074.99,319h-17.49v-10.6c0-3.08-.19-5-.57-5.76-.38-.76-1.22-1.13-2.51-1.13-1.47,0-2.4.46-2.79,1.39-.39.94-.59,2.95-.59,6.06v28.49c0,2.97.2,4.9.59,5.81.4.9,1.29,1.35,2.67,1.35s2.19-.45,2.6-1.36c.41-.91.62-3.07.62-6.46v-7.77h17.49v2.43c0,6.37-.49,10.89-1.48,13.56-.99,2.67-3.17,5.01-6.54,7.01-3.38,2-7.53,2.99-12.48,2.99s-9.37-.84-12.71-2.52c-3.34-1.68-5.54-4.03-6.63-7.02-1.08-3-1.63-7.5-1.63-13.51v-17.93c0-4.41.17-7.73.5-9.94.33-2.21,1.33-4.34,2.98-6.4,1.65-2.06,3.94-3.67,6.88-4.83,2.93-1.16,6.3-1.75,10.1-1.75,5.17,0,9.43.9,12.79,2.72,3.36,1.8,5.57,4.06,6.62,6.75,1.06,2.69,1.59,6.9,1.59,12.62v5.8Z"/>
      <path d="M1097.13,331.8c.52-5.36,1.61-13.94,3.29-25.73.97,10.24,1.86,18.82,2.65,25.73h-5.94ZM1087.07,292.5l-8.97,61.24h18.16l.96-11.03h6.38l.96,11.03h17.85l-10.05-61.24h-25.29Z"/>
      <path d="M1147.79,303.57c.7.36,1.15.93,1.34,1.71.19.78.29,2.55.29,5.33v23.82c0,4.08-.29,6.59-.88,7.52-.59.93-2.16,1.39-4.7,1.39v-40.32c1.93,0,3.25.18,3.94.55M1126.36,353.73h22.1c4.19,0,7.32-.2,9.4-.6,2.08-.41,3.83-1.14,5.25-2.19,1.41-1.05,2.4-2.51,2.97-4.37.57-1.86.85-5.53.85-11.03v-21.44c0-5.8-.19-9.69-.58-11.67-.39-1.99-1.36-3.78-2.91-5.39-1.56-1.6-3.83-2.77-6.81-3.48-2.98-.7-8.71-1.06-17.16-1.06h-13.11v61.24Z"/>
      <polygon points="1174.39 292.5 1203.68 292.5 1203.68 304.8 1191.88 304.8 1191.88 316.33 1202.92 316.33 1202.92 328 1191.88 328 1191.88 341.44 1204.82 341.44 1204.82 353.74 1174.39 353.74 1174.39 292.5"/>
      <path d="M1264.72,292.5v61.24h-15.34l-.06-41.34-6.02,41.34h-10.77l-6.41-40.45-.06,40.45h-15.34v-61.24h22.66c.67,3.63,1.36,7.96,2.06,12.96l2.48,15.64,4.03-28.6h22.79Z"/>
      <path d="M1310.03,292.5l-12.81,39.09v22.15h-16.23v-22.15l-12.3-39.09h16.07c2.42,12.04,3.84,20.11,4.26,24.23,1.04-6.56,2.68-14.63,4.93-24.23h16.07Z"/>
    </g>
    <g>
      <path d="M614.73,253.63h-13.85c-4.83,0-5.58-1.08-5.58-8.57v-39.22c13.23-6.88,27.23-14.84,39-22.85l-11.58-14.44c-7.38,6.37-17.24,13.89-27.42,20.4v-40.27h-16.73v96.13c0,18.93,4.5,24.57,19.86,24.57h17.93c15.05,0,19.1-9.88,20.63-35.61-4.43-1-11.43-4.2-15.34-7.25-.94,21.57-1.77,27.1-6.93,27.1Z"/>
      <path d="M544.95,178.14h-31.7v16h31.7v32.36c-13.65,4.86-27.27,9.57-36.43,12.28l7.14,16.51c8.71-3.59,19.02-7.91,29.29-12.36v27.57h16.7v-121.91h-16.7v29.55Z"/>
      <path d="M730.28,240.39c8.06,8.78,18.2,21.11,22.63,28.76l14.15-9.42c-4.99-7.59-15.65-19.21-23.6-27.5l-13.19,8.15Z"/>
      <path d="M753.04,225.98v-42.09h-88.85v42.09h36.05v28.89c0,1.69-.64,2.15-2.97,2.18-2.26.03-10.65.06-17.45-.21,2.13,4.33,4.36,10.8,5.07,15.49,10.85.03,18.9-.07,24.74-2.34,6.05-2.34,7.64-6.52,7.64-14.64v-29.39h35.76ZM680.15,197.68h55.85v14.5h-55.85v-14.5Z"/>
      <path d="M669.27,232.62c-4.75,8.3-14.35,19.27-22.65,26.16,3.33,2.49,8.77,7.02,11.7,10.19,9.01-7.96,19.36-19.93,26.61-30.64l-15.66-5.72Z"/>
      <path d="M710.91,145.11l-15.78,5.06c1.85,3.43,3.95,7.55,5.72,11.39h-51.92v15.76h118.27v-15.76h-47.25c-2.26-4.86-6.03-11.48-9.05-16.45Z"/>
      <path d="M893.94,165.73h-42.58v-18.56h-17.22v18.56h-42.55v79.2h16.58v-7.75h25.98v7.15c0,20.52,5.25,26.08,23.72,26.08h25.55c16.33,0,21.35-7.77,23.59-28.85-3.87-.9-9.07-2.95-13.07-5.16v-70.67ZM877.53,181.39v12.96h-26.16v-12.96h26.16ZM877.53,209.09v12.43h-26.16v-12.43h26.16ZM834.15,181.39v12.96h-25.98v-12.96h25.98ZM808.17,221.53v-12.43h25.98v12.43h-25.98ZM881.77,254.21h-22.03c-7.41,0-8.37-1.25-8.37-9.71v-7.31h39.53c-1.09,13.6-2.65,17.02-9.13,17.02Z"/>
      <path d="M993.47,195.79h-27.87c-.84-2.06-1.94-4.2-3.08-6.06h26.38v-38.62h-64.52v38.62h32.97l-10.66,2.15c.61,1.18,1.24,2.53,1.81,3.91h-30.09v12.25h75.06v-12.25ZM939.51,160.82h33.52v4.97h-33.52v-4.97ZM939.51,174.99h33.52v5h-33.52v-5Z"/>
      <path d="M1000.98,187.45c12.79-7.95,26.15-19.69,35.39-32.61l-15.18-6.09c-6.93,10.62-20.22,21.36-31.55,27.58,4.02,2.96,8.77,7.71,11.34,11.12Z"/>
      <path d="M990.03,214.27c3.99,2.99,8.63,7.74,11.07,11.28,13.66-8.39,28.28-20.78,38.14-34.35l-14.66-6.09c-7.58,11.24-22.28,22.6-34.55,29.16Z"/>
      <path d="M930.35,240.7c-2.79,6.62-7.35,13.78-12.08,18.75,3.05,2.02,8.41,6.15,10.85,8.45,5.09-5.73,10.94-15.11,14.49-23.25l-13.26-3.96Z"/>
      <path d="M987.31,258.28c-2.54-5.42-6.6-12.35-10.08-17.77l-11.23,4.87c4.17,6.89,8.85,16.18,10.79,21.96l11.96-5.71c-.35-.9-.78-1.9-1.26-2.95,3.88,3.29,8.29,8.38,10.69,12.19,17.53-9.85,33.44-24.67,43.51-42.87l-14.87-5.46c-8.15,15.08-23.73,28.2-39.51,35.74Z"/>
      <path d="M986.89,240.2v-27.77h-60.39v27.77h21.64v17.2c0,1.2-.37,1.63-1.8,1.63-1.29.03-5.58.03-9.54-.1,1.84,3.6,3.76,8.82,4.45,12.84,7.23,0,12.82-.1,17.1-2.05,4.46-2.05,5.44-5.34,5.44-11.93v-17.59h23.1ZM941.31,222.9h30.02v6.93h-30.02v-6.93Z"/>
      <path d="M1122.56,219.67c11.43-5.54,22.33-12.92,30.5-20.32l-10.21-8.05-3.33.79h-60.51v13.88h42.32c-4.81,2.97-10.12,5.72-15.19,7.73v8.43h-51.04v14.75h51.04v16.8c0,1.8-.74,2.36-3.42,2.42-2.7.16-12.7.16-21.21-.21,2.47,4.15,5.49,10.94,6.52,15.45,11.4,0,19.88-.21,26.17-2.57,6.32-2.23,8.36-6.44,8.36-14.7v-17.19h52.17v-14.75h-52.17v-2.45Z"/>
      <path d="M1071.82,181.8h85.61v15.3h15.79v-29.42h-19.49c3.71-4.73,7.64-10.11,11.22-15.34l-16.61-5.03c-2.67,6.18-7.22,14.16-11.53,20.37h-17.59l8.05-3.11c-1.74-5.49-6.24-13.54-10.53-19.42l-14.21,5.3c3.36,5.22,6.84,11.99,8.71,17.22h-22.72l5.23-2.46c-2.17-5.14-7.53-12.29-12.25-17.55l-13.6,6.06c3.33,4.15,6.95,9.44,9.38,13.95h-20.52v29.42h15.06v-15.3Z"/>
      <path d="M1245.59,200.53h55.23v-11.99h10.57v-26.48h-27.78c-1.64-4.94-4.67-11.81-7.7-17.06l-15.17,4.31c1.99,3.8,3.99,8.51,5.47,12.74h-31.16v26.48h10.54v11.99ZM1296.05,175.84v10.91h-46.26v-10.91h46.26Z"/>
      <path d="M1233.03,220.06c0-7.88-1.66-17.36-9.79-27.97,3.86-10.33,8.19-23.79,11.63-35.08l-10.46-5.94-2.26.58h-29.68v119.85h14.02v-105.55h10.74c-2.13,8.72-4.94,19.62-7.6,27.81,7.67,9.39,9.31,18.11,9.31,24.52,0,3.86-.7,6.84-2.3,8.06-.99.7-2.29.99-3.64,1.02-1.63.16-3.51.03-5.79-.13,2.16,3.91,3.42,9.92,3.45,13.78,3.15.06,6.31.06,8.73-.31,2.96-.48,5.51-1.35,7.64-2.94,4.25-3.21,6-9.03,6-17.7Z"/>
      <path d="M1300.79,240.69c-.27,13.74-.83,15.88-2.91,15.88h-4.81c-1.92,0-2.18-.53-2.18-4.38v-27.37h21.15v-14.3h-76.64v14.3h16.06c-1.66,16.8-6.33,27.68-27.77,34.2,3.3,3.07,7.46,9.02,9.03,12.95,25.81-9,32.08-24.56,34.14-47.15h8.9v27.47c0,13.34,2.57,17.77,14.5,17.77h9.28c9.5,0,13.2-5.05,14.44-23.55-3.94-1-10.21-3.33-13.18-5.83Z"/>
    </g>
  </g>
  <rect x="1398.28" y="130" width="4.75" height="240"/>
</svg>