<?xml version="1.0" encoding="UTF-8"?>
<svg id="_图层_1" data-name="图层 1" xmlns="http://www.w3.org/2000/svg" width="1127.53" height="204.37" viewBox="0 0 1127.53 204.37">
  <defs>
    <style>
      .cls-1 {
        fill: #fff;
      }
    </style>
  </defs>
  <g id="BFA_Logo_Fix" data-name="BFA Logo Fix">
    <g id="Logo">
      <path class="cls-1" d="M152.7.91H63.8L0,202.5h84.92l60.03-41.79c1.9-1.16,3.19-3.25,3.19-5.66s-1.38-4.66-3.42-5.79L51.34,83.97s-.06-.03-.08-.06l-.15-.1v-.02c-1.4-1.04-2.33-2.7-2.33-4.59,0-2.78,1.99-5.1,4.63-5.6.26-.06.54-.11.82-.11.03,0,.05,0,.08,0h0s64.37,0,64.37,0c0,0,4,.09,6.02-1.61,2.46-2.08,2.89-4.21,2.89-4.21l19.8-62.87h.03c.76-2.24,2.83-3.84,5.3-3.89M29.25,184.64l-1.81,5.69c-.3.94-1.31,1.71-2.25,1.71h-9.33c-.94,0-1.46-.77-1.16-1.71l1.81-5.69c.3-.95,1.31-1.71,2.25-1.71h9.33c.95,0,1.48.76,1.18,1.71M36.15,162.93l-1.81,5.69c-.3.94-1.31,1.71-2.25,1.71h-9.33c-.95,0-1.46-.78-1.16-1.71l1.81-5.69c.3-.94,1.3-1.71,2.25-1.71h9.33c.95,0,1.47.77,1.17,1.71M43.04,141.23l-1.81,5.68c-.3.95-1.31,1.71-2.25,1.71h-9.33c-.95,0-1.47-.76-1.17-1.71l1.8-5.68c.3-.95,1.31-1.71,2.25-1.71h9.33c.94,0,1.46.76,1.16,1.71M49.94,119.52l-1.81,5.69c-.3.94-1.31,1.71-2.25,1.71h-9.33c-.95,0-1.47-.76-1.17-1.71l1.81-5.69c.3-.94,1.3-1.7,2.25-1.7h9.33c.94,0,1.47.76,1.17,1.7M55.66,96.11c.94,0,1.46.76,1.17,1.71l-1.81,5.68c-.3.94-1.31,1.71-2.26,1.71h-9.33c-.94,0-1.46-.77-1.16-1.71l1.8-5.68c.3-.95,1.3-1.71,2.25-1.71h9.33ZM70.62,54.41l-1.81,5.69c-.3.94-1.31,1.71-2.25,1.71h-9.33c-.94,0-1.46-.76-1.16-1.71l1.81-5.69c.3-.95,1.3-1.71,2.25-1.71h9.33c.94,0,1.47.76,1.17,1.71M77.52,32.71l-1.81,5.68c-.3.94-1.32,1.71-2.26,1.71h-9.33c-.95,0-1.47-.77-1.17-1.71l1.81-5.68c.3-.95,1.3-1.72,2.25-1.72h9.33c.95,0,1.47.78,1.18,1.72M84.4,11l-1.8,5.69c-.3.94-1.31,1.71-2.25,1.71h-9.33c-.95,0-1.47-.76-1.16-1.71l1.81-5.69c.3-.94,1.3-1.71,2.25-1.71h9.33c.94,0,1.47.77,1.16,1.71"/>
      <path class="cls-1" d="M241.81.91h-88.97c2.54.02,4.66,1.71,5.38,4.02h.03l19.99,62.77s1.44,3.5,3.19,4.55c2.48,1.5,5.87,1.25,5.87,1.25h64.45s.02,0,.02,0c.01,0,.02,0,.03,0,3.15,0,5.71,2.56,5.71,5.71,0,1.91-.96,3.59-2.39,4.63h-.02c-.11.09-.22.16-.34.23l-52.35,36.53s-2.69,1.6-3.73,4.57c-1.24,3.53-.29,5.88-.29,5.88l22.82,71.46h84.8L241.81.91ZM222.68,16.69l-1.8-5.69c-.3-.94.22-1.71,1.16-1.71h9.33c.95,0,1.95.77,2.26,1.71l1.8,5.69c.3.94-.22,1.7-1.16,1.7h-9.33c-.94,0-1.96-.76-2.25-1.7M229.57,38.39l-1.8-5.68c-.3-.95.23-1.72,1.18-1.72h9.33c.95,0,1.96.77,2.25,1.72l1.8,5.68c.3.95-.23,1.72-1.17,1.72h-9.33c-.94,0-1.96-.77-2.26-1.72M248.04,61.81h-9.33c-.95,0-1.96-.77-2.26-1.71l-1.8-5.68c-.3-.95.23-1.71,1.17-1.71h9.33c.94,0,1.94.76,2.24,1.71l1.8,5.68c.31.94-.22,1.71-1.16,1.71M250.23,103.5l-1.81-5.68c-.29-.95.24-1.71,1.17-1.71h9.33c.94,0,1.95.76,2.25,1.71l1.8,5.68c.3.94-.22,1.72-1.17,1.72h-9.33c-.95,0-1.96-.77-2.25-1.72M257.11,125.22l-1.81-5.69c-.3-.94.23-1.71,1.18-1.71h9.32c.95,0,1.95.76,2.25,1.71l1.8,5.69c.3.94-.22,1.71-1.17,1.71h-9.33c-.94,0-1.96-.77-2.25-1.71M263.99,146.92l-1.8-5.68c-.3-.95.22-1.71,1.16-1.71h9.33c.95,0,1.96.76,2.25,1.71l1.8,5.68c.3.95-.22,1.71-1.17,1.71h-9.33c-.94,0-1.96-.76-2.25-1.71M270.88,168.63l-1.81-5.7c-.29-.94.23-1.71,1.18-1.71h9.32c.95,0,1.96.78,2.25,1.71l1.81,5.7c.29.94-.22,1.71-1.16,1.71h-9.34c-.95,0-1.95-.77-2.25-1.71M289.35,192.04h-9.33c-.94,0-1.96-.76-2.26-1.71l-1.8-5.69c-.3-.94.23-1.71,1.18-1.71h9.34c.94,0,1.94.77,2.24,1.71l1.81,5.69c.3.95-.23,1.71-1.16,1.71"/>
    </g>
    <g id="BFA">
      <path class="cls-1" d="M367.01,154.09c.62.2,1.12.68,1.5,1.42.39.74.58,2.05.58,3.93,0,3.5-.24,5.63-.7,6.38-.47.75-1.55,1.13-3.25,1.13-.42,0-.99.01-1.73.04v-13.2c1.78,0,2.98.1,3.6.3M346.39,203.14h19.74c6.86,0,11.4-.35,13.62-1.05,2.22-.7,3.83-2.02,4.84-3.97,1.01-1.94,1.52-4.92,1.52-8.95v-5.51c0-3.89-.7-6.76-2.11-8.64-1.4-1.88-4.07-3.22-8.01-4.03,3.52-.73,5.89-1.78,7.08-3.16,1.2-1.38,1.8-3.81,1.8-7.31,0-5.16-.85-8.91-2.55-11.23-1.71-2.33-3.94-3.87-6.71-4.63-2.77-.75-6.84-1.13-12.22-1.13h-17.02v59.6ZM368.19,177.18c.6.55.91,2.09.91,4.64v5.58c0,2.44-.34,3.97-1.01,4.58-.67.61-2.23.95-4.67,1.04v-16.78c2.57.08,4.17.39,4.77.94"/>
      <polygon class="cls-1" points="393.09 143.55 421.59 143.55 421.59 155.51 410.12 155.51 410.12 166.74 420.85 166.74 420.85 178.09 410.12 178.09 410.12 191.17 422.7 191.17 422.7 203.14 393.09 203.14 393.09 143.55"/>
      <rect class="cls-1" x="428.44" y="143.55" width="17.03" height="59.6"/>
      <path class="cls-1" d="M474.06,143.55v39.82c0,5.97-.07,9.81-.21,11.53-.14,1.71-.76,3.25-1.86,4.62-1.11,1.36-2.6,2.31-4.48,2.84-1.88.53-4.7.79-8.48.79h-8.54v-10.37c1.04.08,1.78.12,2.25.12,1.22,0,2.19-.27,2.9-.81.71-.54,1.12-1.21,1.23-1.99.11-.78.17-2.31.17-4.58v-41.97h17.03Z"/>
      <rect class="cls-1" x="481.54" y="143.55" width="17.03" height="59.6"/>
      <polygon class="cls-1" points="544.3 143.55 544.3 203.14 529.49 203.14 520.61 176.04 520.61 203.14 506.3 203.14 506.3 143.55 520.37 143.55 529.99 170.37 529.99 143.55 544.3 143.55"/>
      <path class="cls-1" d="M591.23,165.38h-17.03v-5.41c0-3.39-.17-5.52-.49-6.38-.33-.86-1.1-1.3-2.33-1.3-1.06,0-1.78.37-2.16,1.1-.38.73-.57,2.62-.57,5.67v28.65c0,2.68.19,4.44.57,5.27.38.84,1.13,1.25,2.27,1.25,1.24,0,2.09-.48,2.54-1.45.45-.96.67-2.83.67-5.61v-7.13h-3.45v-9.01h19.99v32.08h-10.7l-1.57-4.26c-1.16,1.84-2.63,3.22-4.4,4.13-1.77.91-3.86,1.37-6.27,1.37-2.86,0-5.55-.63-8.05-1.88-2.49-1.26-4.4-2.82-5.69-4.69-1.3-1.87-2.11-3.83-2.43-5.88-.33-2.05-.49-5.14-.49-9.25v-17.73c0-5.71.34-9.85,1.01-12.43.67-2.58,2.61-4.95,5.81-7.1,3.2-2.14,7.34-3.22,12.42-3.22s9.14.93,12.43,2.79c3.29,1.87,5.44,4.08,6.44,6.64,1,2.57,1.5,6.29,1.5,11.17v2.59Z"/>
      <polygon class="cls-1" points="629.68 143.55 658.55 143.55 658.55 155.51 646.71 155.51 646.71 166.74 657.2 166.74 657.2 178.09 646.71 178.09 646.71 203.14 629.68 203.14 629.68 143.55"/>
      <rect class="cls-1" x="663.57" y="143.55" width="17.03" height="59.6"/>
      <polygon class="cls-1" points="705.36 143.55 705.36 191.17 715.72 191.17 715.72 203.14 688.33 203.14 688.33 143.55 705.36 143.55"/>
      <path class="cls-1" d="M773.32,143.55v59.6h-14.93l-.06-40.23-5.86,40.23h-10.49l-6.23-39.37-.06,39.37h-14.93v-59.6h22.05c.65,3.54,1.32,7.74,2,12.61l2.41,15.22,3.92-27.83h22.18Z"/>
      <path class="cls-1" d="M826.65,181.8c.5-5.22,1.57-13.57,3.2-25.04.94,9.97,1.81,18.31,2.58,25.04h-5.78ZM816.86,143.55l-8.73,59.6h17.68l.94-10.74h6.21l.93,10.74h17.37l-9.78-59.6h-24.62Z"/>
      <path class="cls-1" d="M894.95,169.33h-17.03v-10.32c0-3-.18-4.87-.56-5.61-.37-.74-1.18-1.1-2.44-1.1-1.43,0-2.33.45-2.72,1.35-.38.91-.57,2.88-.57,5.9v27.73c0,2.89.19,4.77.57,5.65.39.88,1.25,1.31,2.59,1.31s2.13-.44,2.53-1.32c.4-.89.6-2.99.6-6.29v-7.56h17.03v2.37c0,6.2-.48,10.6-1.44,13.2-.96,2.6-3.08,4.88-6.37,6.82-3.29,1.94-7.33,2.91-12.14,2.91s-9.12-.82-12.37-2.45c-3.25-1.63-5.39-3.92-6.45-6.84-1.05-2.92-1.58-7.3-1.58-13.15v-17.45c0-4.29.16-7.52.49-9.67.32-2.15,1.29-4.22,2.9-6.23,1.61-2,3.84-3.57,6.69-4.7,2.85-1.13,6.13-1.71,9.83-1.71,5.03,0,9.18.88,12.45,2.65,3.27,1.76,5.42,3.95,6.44,6.57,1.03,2.62,1.54,6.71,1.54,12.28v5.65Z"/>
      <path class="cls-1" d="M916.49,181.8c.5-5.22,1.57-13.57,3.2-25.04.94,9.97,1.81,18.31,2.58,25.04h-5.78ZM906.7,143.55l-8.73,59.6h17.68l.94-10.74h6.21l.93,10.74h17.37l-9.78-59.6h-24.62Z"/>
      <path class="cls-1" d="M965.8,154.32c.68.35,1.12.9,1.31,1.66.19.75.28,2.48.28,5.19v23.18c0,3.97-.28,6.41-.85,7.32-.57.9-2.1,1.35-4.58,1.35v-39.24c1.88,0,3.16.18,3.84.53M944.94,203.14h21.5c4.08,0,7.12-.19,9.15-.58,2.02-.39,3.73-1.11,5.11-2.13,1.37-1.03,2.34-2.45,2.89-4.25.55-1.81.83-5.38.83-10.74v-20.87c0-5.64-.19-9.43-.57-11.36-.38-1.93-1.32-3.68-2.83-5.25-1.51-1.56-3.72-2.69-6.62-3.38-2.9-.69-8.47-1.04-16.7-1.04h-12.76v59.6Z"/>
      <polygon class="cls-1" points="991.68 143.55 1020.19 143.55 1020.19 155.51 1008.71 155.51 1008.71 166.74 1019.45 166.74 1019.45 178.09 1008.71 178.09 1008.71 191.17 1021.3 191.17 1021.3 203.14 991.68 203.14 991.68 143.55"/>
      <path class="cls-1" d="M1079.6,143.55v59.6h-14.93l-.06-40.23-5.86,40.23h-10.49l-6.23-39.37-.06,39.37h-14.93v-59.6h22.06c.65,3.54,1.32,7.74,2,12.61l2.41,15.22,3.92-27.83h22.18Z"/>
      <path class="cls-1" d="M1123.69,143.55l-12.46,38.04v21.56h-15.79v-21.56l-11.97-38.04h15.64c2.35,11.71,3.73,19.57,4.14,23.58,1.01-6.38,2.61-14.24,4.8-23.58h15.64Z"/>
    </g>
    <g id="_北京电影学院" data-name="北京电影学院">
      <path class="cls-1" d="M386.32,76.73l2.91,14.14c-13.09,5.81-27.26,11.78-38.62,16.46l-6.95-16.06c10.54-3.12,27.11-8.94,42.66-14.53ZM386.84,32.25v15.57h-38.59v-15.57h38.59ZM395.36,3.48v118.65h-16.25V3.48h16.25ZM428.11,3.58v93.79c0,7.29.72,8.34,5.43,8.34h13.48c5.02,0,5.83-5.37,6.74-26.37,3.81,2.97,10.62,6.08,14.93,7.05-1.49,25.04-5.43,34.65-20.08,34.65h-17.45c-14.95,0-19.33-5.49-19.33-23.91V3.58h16.28ZM466.07,36.97c-13.48,9.16-29.95,18.28-44.68,25.67-1.1-3.55-4.11-8.98-6.29-12.3,14.09-7.29,29.37-18.52,39.7-27.43l11.27,14.05Z"/>
      <path class="cls-1" d="M515.33,90.84c-7.05,10.42-17.13,22.07-25.9,29.82-2.85-3.08-8.14-7.5-11.38-9.92,8.08-6.7,17.42-17.38,22.04-25.46l15.24,5.56ZM595.41,16.11v15.34h-115.1v-15.34h115.1ZM581.62,37.85v40.96h-86.47v-40.96h86.47ZM546.81,74.53v32.88c0,7.9-1.55,11.97-7.44,14.24-5.69,2.2-13.52,2.3-24.08,2.27-.69-4.56-2.87-10.86-4.94-15.08,6.62.26,14.79.23,16.98.2,2.27-.03,2.89-.48,2.89-2.12v-32.4h16.58ZM510.69,65.37h54.35v-14.11h-54.35v14.11ZM540.62.1c3.31,5.45,7.57,12.96,9.58,17.73l-16.29,5.72c-1.6-4.83-5.5-12.71-8.63-18.52l15.35-4.92ZM572.3,84.9c7.74,8.06,18.12,19.37,22.97,26.76l-13.77,9.17c-4.32-7.44-14.18-19.45-22.03-27.99l12.83-7.94Z"/>
      <path class="cls-1" d="M635.28,20.18v77.08h-16.13V20.18h16.13ZM711.56,48.02v14.35h-85.04v-14.35h85.04ZM718.75,20.18v69.54h-89.67v-15.24h73.7v-39.06h-73.7v-15.24h89.67ZM677.31,2.12v94.71c0,8.24.94,9.45,8.14,9.45h21.44c6.69,0,7.99-3.73,9.07-19.02,3.91,2.74,10.75,5.62,15.5,6.72-2.19,20.51-7.07,28.07-22.96,28.07h-24.86c-17.98,0-23.09-5.41-23.09-25.38V2.12h16.76Z"/>
      <path class="cls-1" d="M767.08,96.99c-3.45,7.92-9.15,17.04-14.1,22.62-2.38-2.25-7.59-6.26-10.56-8.23,4.61-4.84,9.04-11.81,11.76-18.25l12.9,3.85ZM815.61,49.43v11.92h-73.05v-11.92h73.05ZM811.16,5.94v37.59h-62.79V5.94h62.79ZM809.2,65.62v27.02h-58.78v-27.02h58.78ZM786.72,87.02v22.73c0,6.41-.95,9.61-5.3,11.61-4.17,1.9-9.6,2-16.64,2-.67-3.91-2.53-8.99-4.33-12.5,3.85.13,8.03.13,9.28.1,1.39,0,1.75-.42,1.75-1.59v-22.36h15.24ZM763.1,20.23h32.62v-4.84h-32.62v4.84ZM763.1,34.05h32.62v-4.87h-32.62v4.87ZM764.85,82.55h29.22v-6.74h-29.22v6.74ZM784.92,42.63c2.01,3.09,4.07,7.37,4.77,10.49l-15.56,3.26c-.56-2.89-2.35-7.47-4.06-10.75l14.85-3ZM799.81,92.95c4.13,6.45,9.12,15.08,11.21,20.55l-11.64,5.56c-1.89-5.62-6.44-14.66-10.5-21.37l10.93-4.73ZM862.54,80.78c-9.8,17.71-25.28,32.13-42.34,41.72-2.4-3.82-6.89-8.98-10.75-12.17,15.41-7.33,30.66-20.14,38.62-34.87l14.47,5.31ZM857.36,9.57c-8.99,12.58-21.99,24.01-34.44,31.74-2.5-3.32-7.12-7.94-11.04-10.82,11.02-6.05,23.96-16.51,30.7-26.85l14.77,5.92ZM860.16,44.96c-9.6,13.21-23.83,25.26-37.12,33.43-2.38-3.45-6.89-8.07-10.78-10.98,11.95-6.39,26.25-17.44,33.63-28.38l14.27,5.92Z"/>
      <path class="cls-1" d="M992.01,75.05v14.35h-116.42v-14.35h116.42ZM990.54,22.06v28.63h-15.37v-14.89h-83.31v14.89h-14.66v-28.63h113.33ZM901.29,2.59c4.59,5.11,9.81,12.08,11.92,17.08l-14.05,6.62c-1.86-4.9-6.75-12.35-11.11-17.8l13.24-5.9ZM958.86,45.82v13.51h-60.01v-13.51h60.01ZM941.24,66.85v39.28c0,8.03-1.98,12.13-8.13,14.3-6.12,2.3-14.38,2.51-25.47,2.51-1-4.39-3.94-10.99-6.34-15.03,8.29.36,18.02.36,20.65.2,2.6-.06,3.32-.61,3.32-2.35v-38.91h15.98ZM935.58.15c4.17,5.72,8.55,13.55,10.24,18.9l-14.74,5.69c-1.39-5.24-5.46-13.41-9.33-19.43l13.83-5.16ZM957.75,45.82l3.24-.77,9.93,7.84c-9.82,8.9-23.7,17.77-37.58,23.26-1.87-2.74-5.78-7.02-8.08-9.3,11.01-4.37,23.19-12.31,28.53-18.19v-2.84h3.95ZM982.5,7.14c-5.73,8.36-12.36,17.13-17.46,22.78l-12.3-4.59c4.8-6.26,10.5-15.91,13.59-23.08l16.17,4.89Z"/>
      <path class="cls-1" d="M1039.24,6.48v13.92h-16.32v102.72h-13.64V6.48h29.96ZM1038.17,6.48l2.2-.56,10.18,5.78c-3.35,10.99-7.57,24.08-11.32,34.14,7.91,10.33,9.53,19.55,9.53,27.22,0,8.43-1.71,14.1-5.84,17.22-2.07,1.55-4.55,2.4-7.43,2.86-2.35.36-5.43.36-8.5.3-.03-3.75-1.26-9.6-3.36-13.41,2.22.16,4.05.29,5.64.13,1.31-.03,2.57-.32,3.54-1,1.56-1.18,2.24-4.08,2.24-7.84,0-6.24-1.6-14.72-9.06-23.86,3.72-11.49,7.76-28.45,9.68-36.63v-4.36h2.5ZM1082.19,70.57c-1.44,25.86-5.99,43.33-33.73,53-1.53-3.82-5.57-9.62-8.79-12.6,23.74-7.22,26.35-19.95,27.56-40.4h14.96ZM1125.01,16.6v25.77h-14.93v-12.36h-45.02v12.36h-14.35v-25.77h74.3ZM1125.65,63.76v13.92h-74.59v-13.92h74.59ZM1114.73,40.63v13.41h-53.75v-13.41h53.75ZM1090.48,0c3.18,5.49,6.37,12.85,7.86,17.7l-15.5,4.97c-1.11-4.97-4.14-12.77-7.12-18.46l14.76-4.2ZM1105.07,70.19v34.12c0,3.75.24,4.27,2.12,4.27h4.68c2.02,0,2.57-2.08,2.83-15.46,2.9,2.43,8.99,4.71,12.83,5.68-1.2,18-4.81,22.92-14.05,22.92h-9.03c-11.6,0-14.11-4.32-14.11-17.3v-34.22h14.73Z"/>
    </g>
  </g>
</svg>