<?xml version="1.0" encoding="UTF-8"?>
<svg id="_图层_1" data-name="图层 1" xmlns="http://www.w3.org/2000/svg" width="657.84" height="331.35" viewBox="0 0 657.84 331.35">
  <defs>
    <style>
      .cls-1 {
        fill: #e32a30;
      }
    </style>
  </defs>
  <g id="BFA_Logo_Fix" data-name="BFA Logo Fix">
    <g id="Logo">
      <path d="M463.6.27h-112.44l-80.69,254.96h107.4l75.93-52.86c2.4-1.46,4.03-4.11,4.03-7.16s-1.75-5.89-4.32-7.32l-118.11-82.58s-.07-.04-.11-.07l-.19-.12v-.03c-1.77-1.32-2.95-3.41-2.95-5.81,0-3.52,2.52-6.44,5.85-7.09.33-.07.68-.14,1.04-.14.03,0,.06,0,.1,0h0s81.41,0,81.41,0c0,0,5.06.11,7.61-2.04,3.12-2.63,3.65-5.33,3.65-5.33l25.04-79.51h.03c.96-2.84,3.58-4.86,6.7-4.92M307.47,232.64l-2.29,7.2c-.37,1.19-1.66,2.16-2.85,2.16h-11.8c-1.19,0-1.85-.97-1.47-2.16l2.29-7.2c.38-1.2,1.65-2.16,2.84-2.16h11.79c1.2,0,1.87.96,1.49,2.16M316.19,205.19l-2.29,7.2c-.38,1.18-1.66,2.16-2.85,2.16h-11.8c-1.2,0-1.85-.98-1.47-2.16l2.29-7.2c.37-1.19,1.65-2.17,2.85-2.17h11.79c1.2,0,1.86.97,1.48,2.17M324.9,177.74l-2.29,7.19c-.38,1.2-1.66,2.16-2.85,2.16h-11.79c-1.2,0-1.86-.96-1.48-2.16l2.28-7.19c.37-1.2,1.65-2.16,2.85-2.16h11.8c1.19,0,1.85.96,1.47,2.16M333.63,150.29l-2.29,7.2c-.37,1.19-1.66,2.16-2.85,2.16h-11.8c-1.2,0-1.86-.97-1.48-2.16l2.29-7.2c.38-1.19,1.65-2.15,2.85-2.15h11.8c1.19,0,1.86.96,1.48,2.15M340.86,120.68c1.19,0,1.85.96,1.48,2.16l-2.29,7.19c-.38,1.19-1.66,2.17-2.86,2.17h-11.8c-1.19,0-1.85-.97-1.47-2.17l2.28-7.19c.38-1.2,1.65-2.16,2.84-2.16h11.8ZM359.78,67.93l-2.29,7.2c-.37,1.19-1.65,2.16-2.85,2.16h-11.8c-1.19,0-1.85-.96-1.47-2.16l2.29-7.2c.38-1.2,1.65-2.16,2.84-2.16h11.8c1.19,0,1.86.96,1.48,2.16M368.51,40.49l-2.29,7.19c-.37,1.19-1.67,2.17-2.86,2.17h-11.79c-1.2,0-1.86-.97-1.48-2.17l2.29-7.19c.38-1.2,1.65-2.18,2.84-2.18h11.8c1.2,0,1.86.98,1.49,2.18M377.22,13.04l-2.28,7.19c-.37,1.19-1.66,2.16-2.85,2.16h-11.8c-1.2,0-1.86-.96-1.47-2.16l2.29-7.19c.37-1.19,1.65-2.17,2.85-2.17h11.79c1.19,0,1.86.98,1.47,2.17"/>
      <path class="cls-1" d="M576.3.28h-112.53c3.21.03,5.89,2.17,6.8,5.08h.03l25.28,79.38s1.82,4.43,4.03,5.75c3.14,1.89,7.42,1.58,7.42,1.58h81.51s.02,0,.02,0c.01,0,.03,0,.04,0,3.98,0,7.23,3.24,7.23,7.23,0,2.42-1.21,4.54-3.03,5.86l-.02.02c-.13.09-.28.18-.42.27l-66.2,46.2s-3.4,2.02-4.72,5.78c-1.57,4.46-.37,7.44-.37,7.44l28.86,90.37h107.25L576.3.28ZM552.11,20.23l-2.28-7.2c-.38-1.19.28-2.17,1.47-2.17h11.8c1.2,0,2.47.98,2.86,2.17l2.28,7.2c.37,1.19-.27,2.15-1.47,2.15h-11.8c-1.19,0-2.48-.96-2.85-2.15M560.81,47.67l-2.28-7.18c-.37-1.2.29-2.17,1.49-2.17h11.79c1.2,0,2.48.97,2.85,2.17l2.28,7.18c.38,1.2-.29,2.17-1.48,2.17h-11.79c-1.19,0-2.48-.98-2.86-2.17M584.17,77.29h-11.79c-1.2,0-2.48-.97-2.86-2.16l-2.27-7.19c-.38-1.2.29-2.16,1.48-2.16h11.8c1.19,0,2.46.96,2.84,2.16l2.28,7.19c.39,1.19-.27,2.16-1.47,2.16M586.94,130.03l-2.29-7.18c-.37-1.2.3-2.17,1.48-2.17h11.8c1.19,0,2.47.96,2.85,2.17l2.28,7.18c.38,1.19-.28,2.17-1.47,2.17h-11.79c-1.2,0-2.48-.98-2.85-2.17M595.65,157.48l-2.29-7.2c-.37-1.19.29-2.16,1.49-2.16h11.79c1.2,0,2.47.96,2.85,2.16l2.28,7.2c.38,1.19-.27,2.16-1.48,2.16h-11.8c-1.19,0-2.48-.97-2.85-2.16M604.35,184.93l-2.28-7.19c-.37-1.2.28-2.17,1.47-2.17h11.8c1.2,0,2.47.97,2.85,2.17l2.28,7.19c.39,1.2-.28,2.16-1.48,2.16h-11.8c-1.19,0-2.47-.96-2.85-2.16M613.06,212.39l-2.29-7.2c-.37-1.19.3-2.17,1.5-2.17h11.79c1.2,0,2.47.98,2.85,2.17l2.29,7.2c.37,1.19-.28,2.16-1.47,2.16h-11.81c-1.2,0-2.47-.97-2.85-2.16M636.42,241.99h-11.8c-1.19,0-2.47-.97-2.86-2.16l-2.28-7.19c-.38-1.19.29-2.16,1.49-2.16h11.81c1.18,0,2.46.97,2.83,2.16l2.28,7.19c.39,1.2-.29,2.16-1.47,2.16"/>
    </g>
    <g id="BFA">
      <path class="cls-1" d="M17.45,288.79c.52.17.95.57,1.27,1.2.33.62.49,1.74.49,3.33,0,2.96-.2,4.76-.59,5.4-.4.64-1.31.96-2.75.96-.35,0-.84,0-1.46.03v-11.17c1.51,0,2.52.09,3.04.25M0,330.31h16.71c5.81,0,9.65-.3,11.53-.89,1.88-.59,3.24-1.71,4.1-3.36.86-1.65,1.29-4.17,1.29-7.57v-4.66c0-3.29-.59-5.72-1.78-7.31-1.19-1.59-3.45-2.72-6.78-3.41,2.98-.62,4.98-1.51,5.99-2.68,1.02-1.17,1.53-3.23,1.53-6.18,0-4.37-.72-7.54-2.16-9.5-1.44-1.97-3.33-3.27-5.68-3.92-2.34-.64-5.79-.96-10.34-.96H0v50.44ZM18.45,308.34c.51.46.77,1.77.77,3.93v4.72c0,2.07-.29,3.36-.85,3.88-.57.52-1.89.81-3.95.88v-14.2c2.18.07,3.53.33,4.04.79"/>
      <polygon points="39.52 279.87 63.65 279.87 63.65 290 53.93 290 53.93 299.5 63.02 299.5 63.02 309.11 53.93 309.11 53.93 320.18 64.59 320.18 64.59 330.31 39.52 330.31 39.52 279.87"/>
      <rect x="69.44" y="279.87" width="14.41" height="50.44"/>
      <path d="M108.04,279.87v33.7c0,5.05-.06,8.3-.17,9.76-.12,1.45-.64,2.75-1.57,3.91-.94,1.15-2.2,1.95-3.79,2.4-1.59.44-3.98.67-7.18.67h-7.23v-8.77c.88.07,1.51.1,1.9.1,1.04,0,1.85-.23,2.45-.69.6-.46.95-1.02,1.04-1.69.09-.66.14-1.95.14-3.87v-35.52h14.41Z"/>
      <rect x="114.38" y="279.87" width="14.41" height="50.44"/>
      <polygon points="167.49 279.87 167.49 330.31 154.96 330.31 147.44 307.37 147.44 330.31 135.33 330.31 135.33 279.87 147.24 279.87 155.38 302.57 155.38 279.87 167.49 279.87"/>
      <path d="M207.21,298.35h-14.41v-4.58c0-2.87-.14-4.67-.42-5.4-.28-.73-.93-1.1-1.97-1.1-.9,0-1.51.31-1.83.93-.32.61-.48,2.22-.48,4.8v24.25c0,2.27.16,3.75.48,4.46.32.71.96,1.06,1.92,1.06,1.05,0,1.77-.41,2.15-1.23.38-.82.57-2.39.57-4.74v-6.04h-2.92v-7.62h16.92v27.15h-9.06l-1.33-3.61c-.99,1.56-2.23,2.72-3.73,3.49-1.5.77-3.27,1.16-5.3,1.16-2.42,0-4.7-.54-6.82-1.59-2.11-1.07-3.72-2.39-4.82-3.97-1.1-1.58-1.78-3.24-2.06-4.98-.28-1.74-.41-4.35-.41-7.82v-15c0-4.83.28-8.33.85-10.52.57-2.19,2.21-4.19,4.92-6.01,2.71-1.81,6.21-2.73,10.51-2.73s7.73.79,10.52,2.36c2.79,1.58,4.61,3.45,5.45,5.62.85,2.17,1.27,5.32,1.27,9.46v2.19Z"/>
      <polygon class="cls-1" points="239.75 279.87 264.19 279.87 264.19 290 254.16 290 254.16 299.5 263.04 299.5 263.04 309.11 254.16 309.11 254.16 330.31 239.75 330.31 239.75 279.87"/>
      <rect x="268.44" y="279.87" width="14.41" height="50.44"/>
      <polygon points="303.8 279.87 303.8 320.18 312.57 320.18 312.57 330.31 289.39 330.31 289.39 279.87 303.8 279.87"/>
      <path d="M361.32,279.87v50.44h-12.63l-.05-34.05-4.96,34.05h-8.87l-5.28-33.32-.05,33.32h-12.64v-50.44h18.66c.55,2.99,1.12,6.55,1.69,10.67l2.04,12.88,3.31-23.55h18.77Z"/>
      <path class="cls-1" d="M406.45,312.24c.42-4.42,1.33-11.48,2.71-21.19.8,8.43,1.53,15.5,2.18,21.19h-4.9ZM398.17,279.87l-7.39,50.44h14.96l.79-9.09h5.26l.79,9.09h14.7l-8.28-50.44h-20.83Z"/>
      <path d="M464.25,301.7h-14.41v-8.73c0-2.54-.16-4.12-.47-4.74-.31-.62-1-.93-2.07-.93-1.21,0-1.97.38-2.3,1.15-.32.77-.48,2.43-.48,4.99v23.47c0,2.44.16,4.04.48,4.78.33.74,1.06,1.11,2.2,1.11s1.81-.37,2.14-1.12c.34-.75.51-2.53.51-5.32v-6.4h14.41v2c0,5.25-.4,8.97-1.22,11.17-.81,2.2-2.61,4.13-5.39,5.77-2.78,1.64-6.21,2.47-10.28,2.47s-7.72-.69-10.46-2.08c-2.75-1.38-4.56-3.32-5.46-5.79-.89-2.47-1.34-6.18-1.34-11.13v-14.76c0-3.63.14-6.37.41-8.18.27-1.82,1.09-3.57,2.46-5.27,1.36-1.69,3.25-3.02,5.66-3.98,2.41-.96,5.19-1.44,8.32-1.44,4.26,0,7.77.75,10.54,2.24,2.77,1.49,4.59,3.34,5.45,5.56.87,2.22,1.31,5.68,1.31,10.39v4.78Z"/>
      <path d="M482.48,312.24c.42-4.42,1.33-11.48,2.71-21.19.8,8.43,1.53,15.5,2.19,21.19h-4.9ZM474.2,279.87l-7.39,50.44h14.96l.79-9.09h5.26l.79,9.09h14.7l-8.28-50.44h-20.83Z"/>
      <path d="M524.22,288.99c.58.3.95.77,1.11,1.41.16.64.24,2.1.24,4.39v19.62c0,3.36-.24,5.43-.72,6.2-.48.77-1.78,1.15-3.87,1.15v-33.21c1.59,0,2.67.15,3.25.45M506.56,330.31h18.2c3.45,0,6.03-.16,7.74-.49,1.71-.33,3.15-.94,4.32-1.8,1.16-.87,1.98-2.07,2.45-3.6.47-1.53.7-4.56.7-9.09v-17.66c0-4.78-.16-7.98-.48-9.61-.32-1.64-1.12-3.11-2.4-4.44-1.28-1.32-3.15-2.28-5.61-2.86-2.46-.58-7.17-.88-14.14-.88h-10.8v50.44Z"/>
      <polygon points="546.12 279.87 570.25 279.87 570.25 290 560.53 290 560.53 299.5 569.62 299.5 569.62 309.11 560.53 309.11 560.53 320.18 571.19 320.18 571.19 330.31 546.12 330.31 546.12 279.87"/>
      <path d="M620.52,279.87v50.44h-12.63l-.05-34.05-4.96,34.05h-8.87l-5.28-33.32-.05,33.32h-12.64v-50.44h18.67c.55,2.99,1.12,6.55,1.69,10.67l2.04,12.88,3.32-23.55h18.77Z"/>
      <path d="M657.84,279.87l-10.55,32.19v18.24h-13.37v-18.24l-10.13-32.19h13.24c1.99,9.91,3.16,16.56,3.51,19.96.86-5.4,2.21-12.05,4.06-19.96h13.24Z"/>
    </g>
    <polygon points="332.41 .28 317.05 46.76 242.62 46.76 242.62 99.33 299.92 99.33 282.2 150.72 242.62 150.72 242.62 255.23 176.65 255.23 176.65 .28 332.41 .28"/>
    <path d="M161.87,31.51L128.79,0H0v255.51h128.71l33.16-29.71v-70.39l-26.53-27.11,26.53-26.19V31.51ZM97.8,203.94h-40.17v-51.34h40.17v51.34ZM97.8,100.98h-40.17v-51.34h40.17v51.34Z"/>
  </g>
</svg>