<?xml version="1.0" encoding="UTF-8"?>
<svg id="_图层_1" data-name="图层 1" xmlns="http://www.w3.org/2000/svg" width="795.24" height="132.62" viewBox="0 0 795.24 132.62">
  <g id="_北京电影学院" data-name="北京电影学院">
    <path d="M721.68,70.13c-1.11,0-1.76-.02-2.42,0-2.78.09-5.23-1.76-5.85-4.47-.47-2.07-.81-4.17-1.37-6.21-.91-3.31-.37-6.47,1.42-9.19,3.28-4.99,6.86-9.79,10.43-14.59.48-.64,1.97-1.33,2.41-1.06,1.09.68,2.09,1.78,2.66,2.94.44.89.16,2.12.21,3.2.1,2.12,1.73,3.37,3.69,2.74,2.27-.73,4.5-1.57,6.76-2.34,2.37-.81,4.74-1.63,7.12-2.39,2-.63,4.03-1.18,6.48-1.89-.65-.88-1.01-1.9-1.65-2.14-1.9-.69-3.88-1.21-5.88-1.53-3.41-.55-6.92-.63-10.25-1.44-1.71-.42-3.48-1.72-4.61-3.12-1.29-1.61.94-2.26,1.79-2.87,3.12-2.24,6.46-4.16,9.67-6.28,2.34-1.54,2.4-2.42.18-4.02-1.8-1.29-3.71-2.44-5.64-3.53-2.18-1.22-3.89-5.62-3-8.07.39-1.08.8-2.15,1.44-3.87,1.85.38,3.87.8,5.88,1.22.81.17,1.62.47,2.43.47,5.34,0,9.81,1.87,13.33,5.93,2.55,2.94,5.2,5.8,7.68,8.8,1.98,2.39,2.21,5.02.73,7.86-1.07,2.06-1.92,4.25-2.72,6.44-.12.34.67,1.44.82,1.39,2.47-.7,5.15-1.14,7.28-2.45,2.08-1.27,4.09-2.35,6.24-1.29,2.95,1.45,6.49,2.61,6.9,6.75.17,1.68-1.86,3.64-4.12,4.62-2.59,1.13-5.03,2.61-7.55,3.91-1.76.9-3.49,1.9-5.34,2.59-3.46,1.3-4.26,2.77-3.15,6.45.31,1.03.55,2.1,1.03,3.04.28.55.97,1.28,1.47,1.27,4.32-.03,6.05,3.27,7.47,6.31.45.95-1.17,3.6-2.5,4.51-2.96,2.02-6.35,3.42-9.53,5.12-1.59.85-3.11,1.83-5.43,3.21,2.17,1.41,3.74,2.53,5.41,3.49,4.59,2.63,4.21,7.61.18,10.34-2.23,1.51-3.31,3.66-3.72,6.37-.45,2.96-1.62,5.82-2.01,8.79-.55,4.17-.91,8.41-.8,12.61.03.99,2.27,2.76,3.48,2.74,4.44-.05,8.93-.43,13.29-1.26,1.82-.35,3.77-1.76,3.73-4.35-.06-3.74-.22-7.49.01-11.22.16-2.58.74-5.17,1.46-7.66.58-2.03,3.17-2.5,4.89-1.11,4.16,3.35,6.89,7.75,9.08,12.51,1.33,2.89,2.8,5.81,3.47,8.88.67,3.1.62,6.41.49,9.61-.06,1.59-3.85,3.74-5.96,3.74-6.16,0-12.31-.15-18.47-.04-2.37.05-4.73.73-7.1.99-2.14.23-4.3.32-6.45.37-2.08.05-4.21-.33-6.23,0-5.54.93-10.5-4.65-9.68-9.93.55-3.56.74-7.18,1.41-10.72.49-2.61,1.55-5.11,2.24-7.69.28-1.03.25-2.13.37-3.2.3-2.62.65-5.24.89-7.87.05-.56-.27-1.15-.42-1.73-.61.29-1.5.42-1.79.9-1.88,3.17-3.39,6.59-5.48,9.61-2.87,4.15-5.47,8.52-10.17,11.21-3.71,2.12-5.62,6.14-8.09,9.54-2.4,3.3-4.34,7.04-8.32,8.97-2.07,1-3.78.73-4.92-1.36-.27-.5-.48-1.05-.75-1.55-.69-1.26-2.21-2.75-1.93-3.71.55-1.85,1.88-3.65,3.32-5.03,3.98-3.84,8.35-7.29,12.24-11.22,3.19-3.22,6.1-6.76,8.77-10.42,2.25-3.09,4.01-6.55,5.9-9.89.26-.47.22-1.6-.07-1.78-.52-.32-1.47-.38-2.02-.11-3.01,1.47-5.95,3.08-8.92,4.65-4.08,2.15-11.24-1.35-11.31-5.89-.03-2.03,1.28-4.36,2.61-6.07,1.75-2.26,4.13-4.03,6.21-6.04.25-.24.31-.69.65-1.5ZM755.85,46.64c3.88,0,5.54-1.49,7.25-5.15.73-1.55.18-2.14-1.25-1.91-2.98.48-5.95,1.11-8.9,1.78-1.66.37-3.46.64-4.89,1.47-4.69,2.71-9.35,5.49-13.79,8.6-1.96,1.37-3.59,3.41-4.9,5.45-1.22,1.91-.26,3.27,2.01,3.02,1.72-.2,3.39-.95,5.07-1.5,5.72-1.86,10.74-4.78,14.93-9.21,1.34-1.42,3.55-2.03,4.47-2.53ZM761.96,59.66c-4.82-.24-8.33,1.48-11.79,3.13-4.8,2.28-9.42,4.97-14.31,7.05-1.4.6-3.61.1-5.12-.61-1.83-.86-3.31-2.46-5.2-3.94-.67,1.01-1.34,2.04-2.07,3.14,3.68,1.37,3.73,1.58,1.79,4.78-.68,1.12-1.34,2.26-1.83,3.47-.75,1.87-.04,3.02,1.9,2.86,1.39-.11,2.78-.67,4.1-1.22,3.68-1.52,7.36-3.06,10.97-4.75,1.84-.86,3.49-2.12,5.26-3.11,4.83-2.7,9.7-5.32,14.49-8.08.69-.4.99-1.44,1.82-2.72Z"/>
    <path d="M312.82,44.21c.49-3.75,1.14-7.49,1.43-11.26.36-4.79.59-9.6.54-14.39-.02-2.22,1.2-3.34,2.6-4.47,1.37-1.1,2.55-.43,3.74.61,2.55,2.21,5.3,4.18,7.78,6.45,1.75,1.6,1.64,3.73.19,5.71-2.69,3.68-3.98,7.85-4.35,12.37-.08,1.04-.68,2.03-.8,3.07-.21,1.78-.48,3.61-.25,5.36.22,1.72,2.17,1.99,4.03,1.29,2.54-.96,5.2-1.74,7.87-2.22,5.13-.94,10.29-1.67,15.46-2.37,1.8-.24,3.74-.53,5.45-.12,3.4.82,7.12.81,9.5,4.38,2.11,3.15,1.09,6.51-1.21,8.63-3.28,3.03-6.77,5.83-10.05,8.86-3.48,3.21-6.82,6.56-10.21,9.86-1.62,1.58-2.08,5.83-.61,8.39,1.21,2.1.88,3.52-.76,5.23-2.77,2.9-6.38,4.23-9.86,5.81-3.27,1.48-6.86,2.69-7.94,6.5-.63,2.2-.45,4.69-.25,7.01.04.43,1.97,1.13,2.89.95,1.37-.26,2.66-1.13,3.91-1.85,4-2.31,8.45-3.21,12.67-1.74,2.86,1,5.35,3.45,7.58,5.68.79.79.55,2.87.36,4.31-.49,3.7-2.53,5.42-6.3,5.37-4.73-.05-9.19,1-13.71,2.37-5.66,1.71-11.61,2.26-17.49,1.57-2.66-.31-5.02-2.43-5.67-5.05-.78-3.14-.95-6.51-.86-9.76.08-2.97-1.45-4.63-4.27-3.37-6.18,2.75-10.85.36-15.17-3.83-3.04-2.94-6.41-5.62-9.04-8.88-3.38-4.2-6.23-8.84-9.17-13.38-.42-.65-.35-1.85-.1-2.68,1.14-3.72,2.41-7.4,3.66-11.09.97-2.86,1.79-5.78,2.99-8.54,1.33-3.06,2.83-6.09,4.61-8.9,1.33-2.09,5.52-1.18,6.96.86,2.06,2.92.99,6.12,1.4,9.17.3,2.25,1.61,3.21,3.68,2.2,3.79-1.86,7.48-3.93,11.29-5.75,1.73-.83,3.67-1.21,5.46-1.94,1.68-.68,2.59-1.9,2.47-3.87-.13-2.15-.03-4.32-.03-6.47-.13-.02-.27-.05-.4-.07ZM325.83,63.94c.15-.31.3-.62.44-.93,1.53.81,3.86,1.29,4.38,2.52.74,1.76.83,4.45-.05,6.07-1.74,3.21-4.34,5.94-6.54,8.91-.3.4-.58,1.3-.39,1.47.41.39,1.16.72,1.69.62,4.34-.79,8.37-2.17,11.45-5.65,2.14-2.42,4.35-4.85,6.88-6.82,5.25-4.1,9.27-9.13,12.57-14.85.95-1.64.52-2.75-1.05-2.98-2.16-.32-4.44-.37-6.61-.07-3.38.48-6.7,1.35-10.05,2.05-.4.08-.83.1-1.22.2-2.9.78-5.77,2.05-8.7,2.24-2.62.17-3.66,1.68-4.69,3.42-.45.76-.57,1.99-.27,2.8.19.52,1.41.67,2.16.98ZM310.61,64.6c-.55.16-1,.19-1.34.4-4.49,2.76-9.04,5.42-13.37,8.41-1.1.76-2.01,2.6-2.02,3.94-.02,1.96.69,3.99,1.41,5.87.82,2.13,1.96,4.14,3.02,6.17.96,1.84,4.2,3.83,5.35,3.32,1.12-.5,2.23-1.03,3.31-1.61,1.94-1.05,2.98-3.82,1.71-4.71-1.11-.78-2.5-1.15-3.76-1.71-1.79-.79-3.79-1.28-5.31-2.43-3.58-2.7-3.06-7.03.77-9.24,3.6-2.08,7.1-4.31,10.62-6.52.34-.21.7-.82.62-1.13-.09-.34-.68-.55-1-.77Z"/>
    <path d="M52.84,36.16c2.47-3,4.58-6.08,7.19-8.65,4.01-3.93,5.89-9.13,8.85-13.68.85-1.31,1.77-2.59,2.71-3.84,1.48-1.96,3.78-2.29,5.99-1.45,2.66,1.01,5.5,1.55,8.21,2.47,1.49.51,3.33,1.01,4.2,2.14,1.89,2.46,2.47,5.45,1.88,8.64-.67,3.62-1.28,7.26-1.63,10.92-.2,2.05.97,2.46,2.82,1.41,4.36-2.48,8.98-4.05,14.1-3.33.77.11,1.66.44,2.19.97,2.1,2.11,4.09,4.34,6.11,6.54,1.99,2.18,2.52,4.12.82,6.16-4.78,5.74-7.36,12.75-11.38,18.92-1.55,2.37-3.6,3.55-6.33,4.23-3.55.89-6.97,2.3-10.44,3.52-1.53.53-3.1,1-4.51,1.77-.66.35-1.33,1.3-1.39,2.03-.53,6.68-1.03,13.37-1.34,20.07-.2,4.32,2.19,5.45,6.29,3.77,2.6-1.06,5.62-1.86,8.35-1.62,2.02.18,4.03,2.03,5.77,3.47,1.77,1.47,3.39,3.22,4.74,5.08,2.82,3.89,1.45,7.76-1.56,11.56-2.65,3.36-6.13,5.02-10.73,3.48-1.56-.52-3.53.15-5.31.33-.57.06-1.1.38-1.67.45-4.15.53-8.34.88-12.46,1.62-1.51.27-2.9,1.38-4.25,2.24-3.59,2.29-7.22,4.44-11.68,4.26-.76-.03-1.65-.27-2.24-.72-4.34-3.28-6.82-7.98-9.37-12.6-.57-1.03-1.57-2.74-1.19-3.22,1.34-1.7,3.12-3.11,4.87-4.43,1.65-1.24,3.49-2.23,5.23-3.33,3.03-1.92,3.72-4.98,4.29-8.23.58-3.33,1.52-6.6,2.34-9.89.49-1.99,1.33-3.94,1.48-5.95.09-1.23-.61-2.68-1.33-3.77-.85-1.29-2.25-2.22-3.16-3.49-.5-.7-.9-1.89-.64-2.62.5-1.43,1.35-2.8,2.29-4.02,1.92-2.52,2.88-5.26,2.96-8.44.05-1.87.7-3.72.92-5.59.22-1.88.19-3.79.37-5.68.27-2.87.77-5.72.92-8.59.11-2.14-.17-4.3-.28-6.46-1.7.98-3.61,1.73-5.05,3-2.54,2.25-4.76,2.71-7.95.55Z"/>
    <path d="M198.61,45.2c-.67,0-1.43-.21-1.99.03-5.74,2.47-11.4,5.11-17.17,7.5-2.85,1.18-5.92,1.84-8.81,2.93-4.1,1.54-8.07,3.4-12.2,4.84-2.23.78-4.65,1.17-7.01,1.4-3.14.31-6.32.31-9.48.42-2.35.08-4.05-1.51-4.53-3.27-.35-1.28.67-3.44,1.76-4.51,3.13-3.05,5.15-6.72,7.22-10.46.45-.82,2.14-1.23,3.29-1.32,1.53-.11,1.45,1.22,1.4,2.34-.03.83-.05,1.67.03,2.49.22,2.37,1.64,3.23,3.98,2.8,2.75-.5,5.55-.67,8.3-1.14,1.75-.3,3.49-.8,5.18-1.37,3.46-1.16,6.86-2.5,10.32-3.64,3.18-1.05,6.42-1.91,9.62-2.91,2.24-.7,4.46-1.49,6.69-2.24.39-.13.81-.37,1.19-.33,3.43.32,6.33-1.05,9.31-2.52,3.35-1.65,7.01-2.67,10.33-4.38,6.04-3.12,11.82-6.76,17.92-9.76,3.6-1.77,7.22-3.56,11.66-3.42,2.94.1,5.82-.44,8.48,1.18,2.3,1.4,2.79,4.36,1.23,6.56-1.94,2.73-4.72,3.68-7.88,3.8-3.96.15-8.07-.38-11.86.49-5.65,1.29-11.41,2.71-16.18,6.45-1.55,1.22-3.32,2.15-4.93,3.28-.55.38-.94.99-1.41,1.49.11.22.23.44.34.66.67-.16,1.44-.17,2.01-.51,4.12-2.53,11.9.97,12.74,5.35.42,2.17-.09,3.7-1.63,5.1-1.94,1.77-4.09,3.41-5.64,5.48-.76,1.01-.95,3.15-.4,4.3,1.49,3.08,1.29,5.69-.91,8.21-3.9,4.49-6.65,9.64-8.51,15.24-.45,1.36-.21,2.95-.22,4.44-.05,6.21-.32,12.43-.01,18.62.23,4.67,1.4,9.19,4.38,13.13.8,1.06,1.15,3.55.47,4.45-2.31,3.06-4.8,6.41-9.41,5.79-1.45-.2-3.11-.67-4.19-1.59-4.71-4.02-9.22-8.28-13.87-12.38-1.04-.92-2.36-1.51-3.54-2.29-2.18-1.43-4.23-.51-4.37,2.08-.12,2.24.19,4.51-.06,6.72-.13,1.16-.78,2.59-1.68,3.27-2.49,1.89-5.21,3.54-8.59,2.93-.98-.18-2.06-.46-2.84-1.04-2.46-1.82-4.74-3.88-7.2-5.71-3.1-2.3-5.09-5.48-5.58-9.06-.34-2.51.54-5.4,1.54-7.84,2.83-6.9,7.43-12.65,12.75-17.81.75-.73,1.82-1.55,2.75-1.56,2.53-.04,4.79-1.86,7.6-.53,3.04,1.44,5.12,3.5,5.29,6.91.08,1.65.1,3.34-.09,4.98-1.01,8.32,5,10.93,11.66,11,3.32.03,3.35-.2,3.32-3.62-.06-6.73-.02-13.46-.05-20.2-.02-2.95-1.5-4.64-4.37-4.37-5.4.5-8.66-2.03-10.9-6.64-1.49-3.08-3.3-6.01-4.91-9.03-1.28-2.4-.31-5.98,2.09-7.64,5.4-3.75,10.83-7.47,16.25-11.19.62-.42,1.31-.74,1.97-1.11-.21-.42-.43-.84-.64-1.25ZM199.44,63.86c2.03-.91,5-2.16,7.89-3.57,3.79-1.84,5.96-5.37,8.45-8.53.5-.64.93-1.85.65-2.45-.35-.73-1.48-1.53-2.26-1.52-1.23.03-2.42.83-3.67,1.09-6.66,1.42-10.85,5.91-14.2,11.39-1.47,2.41-.8,3.47,3.14,3.57Z"/>
    <path d="M417.22,65.54c-2.13.74-4.29,1.39-6.37,2.24-5.04,2.07-10.15,4.01-15,6.46-2.25,1.13-4.4,1.21-6.67,1.15-1.04-.03-2.73-.32-2.95-.93-.41-1.09-.43-2.94.25-3.72,3.62-4.17,7.4-8.22,11.36-12.07,1.55-1.51,3.63-2.51,5.59-3.51.55-.28,1.75.07,2.23.55.3.29.02,1.57-.39,2.08-1.41,1.74-3,3.33-4.51,4.98.16.37.33.74.49,1.11,2.37-.27,4.84-.21,7.08-.89,4.21-1.27,8.3-2.92,12.41-4.5,2.52-.97,4.95-2.14,7.45-3.16.9-.36,1.93-.41,2.8-.82.58-.27,1.2-.87,1.36-1.44.1-.36-.53-1.15-1.02-1.4-3.88-1.98-7.82-3.83-11.71-5.8-4.04-2.05-4.98-6.2-2.66-10.86.49-.98.61-2.16.82-3.26.34-1.78.73-3.55.9-5.35.3-3.29.42-6.6.69-9.89.07-.91.3-2.51.65-2.57,1.3-.21,2.81-.21,4,.29,1.7.71,3.13,2.04,4.79,2.9,2.55,1.33,4.41-.59,6.3-1.74,1.82-1.11,3.3-2.77,5.13-3.85.87-.51,2.5-.72,3.27-.24,3.47,2.17,6.37.43,9.17-1.17,2.77-1.58,5.29-3.59,7.96-5.34.51-.33,1.44-.69,1.82-.46,1.9,1.15,3.99,2.21,5.41,3.84,1.91,2.18.48,4.55-.86,6.49-2.56,3.7-5.7,7.06-7.94,10.93-3.18,5.5-5.78,11.34-8.63,17.04-.15.29-.44.55-.48.85-.12.91-.15,1.83-.22,2.74.89-.1,1.92.04,2.66-.34,4.32-2.24,8.66-3.6,13.15-.59.81.54,1.26,1.6,1.88,2.42-.77.47-1.49,1.14-2.33,1.36-5.3,1.39-10.7,2.43-15.9,4.1-2.89.93-5.5,2.79-8.15,4.37-.47.28-.56,1.21-.83,1.84.64-.07,1.3-.08,1.92-.22.7-.16,1.36-.5,2.06-.68,1.33-.34,2.79-.4,4-.99,2.77-1.35,8.49,1.47,9.11,3.3.38,1.15-.08,3.06-.89,4.03-2.06,2.47-4.48,4.64-6.86,6.84-2.24,2.07-3.98,4.24-4.42,7.5-.25,1.84-1.88,3.45-2.63,5.27-.95,2.32-2.17,4.72-2.34,7.14-.47,6.8-1.67,13.57-.36,20.49.73,3.86.28,7.95.26,11.94-.02,2.51-3.92,6.65-6.2,6.51-.79-.05-1.8-.72-2.22-1.4-.84-1.36-1.28-2.97-2-4.42-1.98-3.99-5.13-6.87-8.96-9-.34-.19-1.39.4-1.79.89-2.26,2.71-4.2,5.73-6.73,8.14-.89.85-3.54.94-4.69.24-5.55-3.37-8.57-10.45-6.68-16.76,1.18-3.92,3.68-7.45,5.6-11.15.26-.5.75-.91.93-1.43,1.45-4.18,7.84-6.64,12.29-3.91,1.95,1.2,2.63,5,1.5,7.42-2.03,4.35-1.57,7.75,2.86,8.93,1.87.5,3.58,1.62,5.46,2,.72.15,2.19-.81,2.46-1.57.51-1.44.38-3.09.55-4.66.19-1.73.45-3.44.6-5.17.25-2.95.57-5.91.61-8.87.02-1.65-1.29-1.45-2.37-1.02-1.06.42-2.05.98-3.09,1.45-4.98,2.27-10.81-.95-11.65-6.37-.44-2.81-1.45-5.62-1.33-8.39.11-2.57,1.37-5.09,2.12-7.64.17-.57.34-1.15.5-1.72l-.6-.56ZM441.93,18.79c2.42,3.3,4.61,6.3,7.02,9.59,2.7-3.26,4.67-6.61,5.91-10.37.16-.49-.12-1.51-.51-1.72-.56-.3-1.42-.21-2.12-.07-1.49.29-2.95.72-4.43,1.09-2.07.52-4.15,1.05-5.88,1.48ZM430.11,77.1c.51-.19.76-.24.97-.37,3.9-2.43,7.97-4.67,10.08-9.07.21-.44.13-1.02.18-1.53-.46,0-.99-.16-1.36.01-1.57.73-3.12,1.52-4.64,2.37-2.12,1.18-4.29,2.31-6.26,3.71-.6.43-1,1.79-.79,2.54.25.91,1.22,1.61,1.83,2.35ZM431.42,29.11c-.24.18-.55.31-.71.55-.94,1.4.91,6.13,2.58,6.37.49.07,1.62-.91,1.57-1.02-.82-1.86-1.76-3.67-2.71-5.47-.09-.18-.4-.25-.72-.43ZM429.63,60.57c-2.28.72-4.57,1.43-6.94,2.18,1.9,2.71,5.44,1.83,6.94-2.18Z"/>
    <path d="M50.32,69.54c0,2.66,0,5.32,0,7.98.01,2.57.82,3.24,3.33,2.81,2.98-.52,5.52,1.42,4.54,3.57-.7,1.55-1.77,2.96-2.79,4.35-3.72,5.11-7.58,10.09-9.18,16.42-.49,1.92-2.13,3.54-2.67,5.45-1.36,4.81-3.85,8.77-7.58,12.09-1.18,1.05-1.83,2.71-2.7,4.11-2.91,4.66-8.24,6.15-13.24,3.72-3.01-1.46-6.18-2.65-9.04-4.35-4.06-2.41-5.31-7.07-3.21-12.06,1.05-2.51.65-5.62.9-8.46,0-.08-.06-.16-.07-.24-.56-4.73-1.16-9.45-1.65-14.18-.08-.78.07-1.72.46-2.38.46-.79,1.3-1.37,1.98-2.04.45.67,1.07,1.29,1.32,2.03.9,2.69,1.55,5.47,2.56,8.11.62,1.62,1.57,3.17,2.64,4.55,1.48,1.89,2.97,1.09,3.96-.56,2.23-3.71,4.39-7.46,4.3-12.05-.05-2.49-2.16-4.99-4.64-5.04-3.66-.06-7.32-.08-10.97-.11-4.52-.03-8.11-3.69-8.49-7.95-.6-6.7,3.02-10.38,7.39-13.85,4.19-3.33,4.34-3.15.94-7.52-1.24-1.6-2.84-3.05-3.61-4.86-.66-1.56-.66-3.56-.4-5.29.36-2.42,8.32-5.98,10.4-4.68,2.65,1.66,5.04,3.72,7.68,5.39,1.46.92,3.16,1.67,4.85,1.99,1.85.35,3.81.13,5.72.15,6.29.07,11.4,2.8,14.84,7.81,1.61,2.34,1.94,5.67,2.46,8.61.37,2.1.07,4.31.07,6.47-.03,0-.06,0-.09,0Z"/>
    <path d="M694.43,41.12c-1.28,0-2.33-.09-3.35.01-7.59.79-10.79-7.71-9.34-12.77.52-1.81,1.69-1.84,3.08-1.04,2.88,1.67,5.77,1.24,8.52-.14,3.69-1.85,6.59-4.65,9.15-7.91,2.14-2.73,4.64-5.18,7.09-7.65,2.36-2.39,4.02-2.56,7.12-1.06,1.25.6,2.55,1.09,3.81,1.68,5.74,2.69,5.58,6.83,1.98,10.83-.55.61-1.22,1.14-1.89,1.61-6.03,4.26-9.41,10.16-11.73,17.11-1.14,3.44-.69,6.69-.95,10-.14,1.79.76,3.66,1.15,5.5.9,4.25,1.68,8.52,2.71,12.74.77,3.15-.39,5.81-2.18,8.01-1.88,2.3-3.67,5.12-7,5.55-1.19.15-2.91-.2-3.68-1-1.87-1.94-3.34-4.27-4.94-6.47-.81-1.12-1.47-2.37-2.39-3.39-.48-.54-1.6-1.16-2.01-.95-.66.35-1.3,1.32-1.38,2.08-.24,2.31-.14,4.65-.28,6.97-.24,4.14-.62,8.27-.84,12.41-.24,4.51.53,8.81,2.66,12.87,1.68,3.19,2.56,6.41,1.25,10.19-.9,2.61-1.58,5.22-3.09,7.6-2.62,4.15-5.93,4.59-9.19.9-2.35-2.67-4.47-5.55-6.81-8.23-1.39-1.59-1.11-3.14-.37-4.81.26-.6.72-1.18.76-1.79.51-6.99,1.11-13.98,1.36-20.99.26-7.22.05-14.47.27-21.69.14-4.47.51-8.95,1.14-13.37.4-2.79,1.83-5.37,4.32-6.88.95-.57,2.96-.67,3.7-.05,1.83,1.54,3.54,3.45,4.66,5.55.96,1.8.93,4.1,1.56,6.11.17.55,1.49,1.31,1.72,1.16.93-.64,2.07-1.47,2.34-2.46.41-1.47.16-3.13.17-4.7,0-2.66-.07-5.31.02-7.96.04-1.03.47-2.04.84-3.57Z"/>
    <path d="M574.06,108.8c.28-7.47,2.57-12.85,6.62-17.43.92-1.04,2.42-1.82,3.79-2.15,3.18-.75,6.46-1.66,9.67-1.57,4.96.13,7.56-2.39,9.39-6.45,1.1-2.44,2.34-4.82,3.39-7.29.27-.63.03-1.48.02-2.23-.76.16-1.67.11-2.25.52-2.36,1.64-4.51,3.6-6.94,5.13-4.06,2.56-8.41,3.74-12.84.9-1.11-.71-1.79-2.09-2.67-3.17,1.45-1.08,2.76-2.57,4.39-3.16,2.35-.84,5.01-.8,7.39-1.58,1.75-.57,3.29-1.83,4.89-2.84,2.9-1.84,5.75-3.75,8.66-5.57,2.31-1.44,4.78-1.05,7.27,1.05,1.63,1.37,2.1,4.18,1.11,6.43-1.67,3.78-3.28,7.59-4.99,11.35-.4.87-1.17,1.55-1.7,2.37-.29.44-.44.96-.66,1.45.49.22,1.02.67,1.48.62,4.78-.56,8.37,1.83,11.86,4.56,1.74,1.36,3.64,2.53,5.25,4.03,1.76,1.65,1.77,3.69.29,5.57-2.63,3.35-5.86,5.48-10.36,5.21-1.57-.1-3.17-.03-4.74.13-3.12.31-4.24,1.67-4.09,4.73.03.58.1,1.16.11,1.74.05,5.44.11,10.89.12,16.34,0,2.99-1.43,4.43-4.38,4.92-5.56.92-10.35-1.03-15.29-3.31-4.52-2.08-6.75-5.77-8.98-9.71-.48-.85-1.03-1.75-1.76-2.36-3-2.5-5.07-5.3-4.05-8.2ZM595.44,105.9c-3.34-.08-4.26.83-4.26,4.12,0,2.74,1.65,4.74,3.52,6.21,2.63,2.07,4.69.87,4.82-2.41.02-.57.05-1.17.24-1.7,1.33-3.92-.18-6.12-4.31-6.22Z"/>
    <path d="M619.37,65.29c1.52-.85,2.96-1.87,4.56-2.51,2.87-1.15,5.93-1.85,8.71-3.16,2.21-1.05,4.17-2.67,6.12-4.19.32-.25.27-1.69-.04-1.89-1.23-.78-2.6-1.64-3.99-1.81-5-.6-10.03-1.03-15.06-1.28-1.64-.08-3.33.59-4.99.92-.49.1-.96.24-1.45.31-3.31.46-6.66.74-9.93,1.42-2.53.52-4.95,1.55-7.42,2.34-3,.95-6.08,1.68-8.98,2.87-5.78,2.36-11.37,5.04-16.22,9.15-3.06,2.59-6.51,4.71-9.81,7.01-.32.22-.87.5-1.11.38-3.37-1.73-2.8.6-3.13,2.68-.64,4.03-1.59,8.03-2.65,11.97-1.15,4.29-4.24,6.02-8.27,4.55-2.58-.94-5.19-2.11-7.38-3.72-4.53-3.32-5.83-10.19-1.33-15.88,3.76-4.76,8-9.12,11.14-14.36.32-.54.93-.91,1.59-1.54.74.78,1.43,1.46,2.07,2.18,3.36,3.77,3.53,3.65,7.99,1.2,3.92-2.15,7.98-4.1,12.14-5.72,2.39-.94,5.11-1.04,7.67-1.56.43-.09.83-.35,1.82-.79-2.21-.9-4.12-1.32-5.59-2.36-2.64-1.86-5.01-4.09-7.5-6.16-.22-5.42-.95-10.89-.46-16.25.3-3.32,3.82-5.23,6.51-7.16,1.24-.89,3.91,1.04,4.79,3.31,1.16,3,2.09,6.13,3.54,8.99,1.88,3.73,4.22,7.22,6.25,10.87.51.92.94,2.08.87,3.09-.13,1.85.42,2.82,2.32,2.47,2.5-.46,4.97-1.09,7.44-1.65,1.43-.32,2.85-.7,4.29-.98,9.32-1.8,18.75-1.17,28.15-1.46,4.11-.12,7.79.77,11.42,2.4,2.18.98,4.63,1.59,6.49,2.98,4.85,3.62,4.97,5.46.08,8.75-2.87,1.93-6.21,2.95-9.97,3.07-4.37.14-8.68,1.52-13.04,2.17-2.42.36-4.89.31-7.34.44-.11-.35-.21-.7-.32-1.05Z"/>
    <path d="M482.85,49.31c1.33-.12,2.88.16,3.94-.43,3.73-2.08,6.97-.5,10.07,1.19,2.45,1.33,3.07,5.38,2.19,7.95-2,5.84-5.64,10.56-9.57,15.14-.41.47-.34,1.35-.5,2.03.74,0,1.53.17,2.23-.02,2.46-.64,4.84-1.66,7.33-2.06,3.51-.57,7.77,2.76,7.77,6.32-.01,4.16-.67,8.32-1.11,12.47-.43,4.08-1.17,8.14-1.32,12.22-.18,4.89-.68,9.63-2.53,14.22-.78,1.93-1.25,4.03-1.59,6.09-.77,4.66-1.6,5.65-6.2,5.12-3.69-.42-7.27-1.91-10.97-2.27-4.08-.39-7.42-2.21-10.61-4.35-3-2.01-5.81-4.34-6.82-8.17-.4-1.48-.05-2.08,1.37-2.1.82-.02,1.74-.06,2.45.26,5.18,2.35,10.65,2.7,16.21,2.44,4.29-.2,8.86-4.62,9.63-8.89.6-3.36,1.77-6.61,2.32-9.97.71-4.36,1.22-8.77,1.49-13.18.14-2.24-2.63-3.82-4.79-2.97-3.18,1.25-6.25,2.84-9.49,3.86-1.83.57-3.94.41-5.89.24-.32-.03-1-2.1-.65-2.73,1.7-2.99,3.8-5.76,5.58-8.72,2.49-4.12,5.03-8.23,7.18-12.53,1.55-3.09.28-6.16-2.38-6.99-.53-.16-1.18-.24-1.69-.09-3.29,1-6.53,2.18-9.85,3.07-1.57.42-3.28.45-4.91.4-1.11-.03-1.58-3.1-.58-4.53,2.24-3.22,4.7-6.28,6.86-9.56,1.53-2.32,2.82-4.82,3.99-7.34,1.65-3.53,3.48-7.05,4.51-10.77,1.09-3.91,2.16-7.94,1.59-12.15-.16-1.16.09-2.51.55-3.6.69-1.61,1.6-2.05,3.7-1.23,4.28,1.65,7.94,4.13,11.16,7.18,2.16,2.05,4.01,4.64,5.35,7.31,1.45,2.87-2.24,7.73-5.74,8.42-3.4.67-6.51,1.87-8.89,4.74-3.23,3.88-6.8,7.49-10.21,11.23-.54.59-1.01,1.24-1.51,1.87.11.29.21.57.32.86Z"/>
    <path d="M463.74,90.3c-.82,3.12,1.76,5.89,3.2,8.95,1.52,3.25,1.67,6.33-.22,8.5-2.98,3.42-6.34,4.4-10,3-1.37-.52-2.87-.72-4.19-1.34-4.35-2.04-5.8-6.08-6.84-10.35-.14-.56-.22-1.16-.49-1.65-1.95-3.51-.62-6.15,1.58-8.72,2.2-2.56,5.75-2.92,8.84-1.64.59.25,1.59-.13,2.25-.49.7-.38,1.17-1.18,1.86-1.62.76-.49,2.23-1.27,2.39-1.08.79.93,1.38,2.09,1.75,3.26.23.74-.05,1.64-.14,3.19Z"/>
    <path d="M234.55,115.38c-3.31,0-5.49-2.69-8.13-4.41-2.61-1.69-5.01-3.71-7.48-5.61-2.02-1.56-2.11-2.86-.3-4.74.51-.54,1.06-1.11,1.7-1.43,3.19-1.57,5.12-4.22,6.72-7.27,1.32-2.51,4.67-2.31,6.33-.06,2.39,3.26,5.14,6.26,7.71,9.39,2.25,2.74,2.43,5.87,1.24,9.03-1.08,2.89-4.83,5.26-7.78,5.1Z"/>
    <path d="M216.52,24.01c-.33,4.37-3.06,6.31-6.98,4.88-4.44-1.62-8.99-2.45-13.76-2.42-1.79.01-3.73-.65-5.33-1.51-1.21-.64-.49-1.52.59-2.15,2.13-1.24,4.12-2.71,6.22-4,1.53-.94,1.2-1.72.27-2.98-1.56-2.12-3.97-3.84-3.67-7,.15-1.63.66-2.48,2.5-2.05,4.91,1.15,9.73,2.49,13.95,5.44,2.33,1.63,3.89,3.68,4.56,6.47.43,1.8,1.11,3.55,1.67,5.32Z"/>
    <path d="M632.7,22.86c-.78,1.17-1.32,2.7-2.39,3.44-6.79,4.62-13.36,9.62-20.93,12.98-.51.23-1.12.45-1.64.38-.57-.08-1.09-.5-1.62-.77.29-.46.5-1.01.89-1.36,2.17-1.91,4.66-3.53,6.51-5.7,1.72-2.01,2.86-4.54,4.08-6.93.23-.46-.28-1.37-.58-2.01-.77-1.61-.51-2.69,1.47-2.59,3.32.17,6.34-.45,9.23-2.23,1.7-1.04,4.56,1.88,4.99,4.78Z"/>
    <path d="M590.14,26.48c1.38.41,2.73.91,4.13,1.2.73.15,1.64.14,2.3-.16,2.13-.98,4.13-2.25,6.29-3.17.92-.39,2.14-.4,3.14-.17,1.27.28,1.7,1.12.82,2.41-1.93,2.83-3.86,5.68-5.63,8.61-2.31,3.84-4.73,4.51-7.98,1.46-2.51-2.36-4.53-5.25-6.65-7.99-.17-.22.49-1.48,1-1.71.69-.31,1.63-.08,2.45-.08.04-.13.08-.26.12-.4Z"/>
  </g>
</svg>