<?xml version="1.0" encoding="UTF-8"?>
<svg id="_图层_1" data-name="图层 1" xmlns="http://www.w3.org/2000/svg" width="1973.77" height="500" viewBox="0 0 1973.77 500">
  <g>
    <path d="M390.89,229.35l3.85,13.04c8.4-2.63,16.74-6.09,25-10.36v22.97h13.14v-98.29h-13.14v25h-27.14v12.5h27.14v23.72c-7.34,4.2-16.95,8.01-28.85,11.43Z"/>
    <path d="M489.93,241.53v-20.62l-12.18-3.74v23.93h-13.46c-2,0-3.35-.3-4.06-.91-.71-.6-1.07-1.87-1.07-3.79v-33.87c5.84-2.71,11.56-5.88,17.15-9.51,5.59-3.63,10.31-7.26,14.16-10.9l-8.76-10.04c-7.41,7.12-14.92,12.64-22.54,16.56v-31.95h-13.14v82.27c0,5.2,1.21,8.96,3.63,11.27,2.42,2.31,6.27,3.47,11.54,3.47h16.56c4.42,0,7.55-.93,9.4-2.78,1.85-1.85,2.78-4.98,2.78-9.4Z"/>
    <path d="M606.81,244.09c-7.41-8.62-15.53-16.92-24.36-24.89l-9.51,7.16c7.83,7.34,15.74,16.1,23.72,26.28l10.15-8.55Z"/>
    <path d="M529.46,239.82c4.63-5.13,8.44-10.33,11.43-15.6l-11.22-5.56c-2.78,4.91-6.09,9.37-9.94,13.35-3.85,3.99-8.41,7.69-13.68,11.11l8.55,9.72c5.27-3.56,10.22-7.91,14.85-13.03Z"/>
    <path d="M593.99,182.87h-74.79v33.12h31.52v27.46h-14.53l2.99,11.33h10.26c4.84,0,8.44-1.12,10.79-3.37,2.35-2.24,3.53-5.75,3.53-10.52v-24.89h30.24v-33.12ZM580.85,205.31h-48.61v-11.75h48.61v11.75Z"/>
    <path d="M605.74,165.88h-41.67c-1.21-2.78-2.99-6.37-5.34-10.79l-13.14,3.74c.71,1.14,2.1,3.49,4.17,7.05h-42.31v11.75h98.29v-11.75Z"/>
    <path d="M706.92,241.1h-24.89c-1.99,0-3.38-.39-4.17-1.18-.78-.78-1.18-2.17-1.18-4.17v-9.4h37.61v-58.76h-37.61v-10.9h-12.82v10.9h-36.97v66.56h12.61v-7.8h24.36v10.68c0,5.63,1.28,9.7,3.85,12.23,2.56,2.53,6.84,3.79,12.82,3.79h24.68c5.06,0,8.71-1.12,10.95-3.37,2.24-2.24,3.37-5.89,3.37-10.95v-5.56l-12.61-3.42v11.33ZM676.69,179.13h24.79v12.18h-24.79v-12.18ZM676.69,202.21h24.79v12.82h-24.79v-12.82ZM663.87,215.03h-24.36v-12.82h24.36v12.82ZM663.87,191.31h-24.36v-12.18h24.36v12.18Z"/>
    <path d="M811.09,198.68c-5.13,4.77-10.72,8.9-16.77,12.39l8.01,11.75c12.39-8.05,23.33-18.84,32.8-32.37l-10.58-7.27c-3.85,5.56-8.33,10.72-13.46,15.49Z"/>
    <path d="M832.57,163.64l-10.58-7.69c-3.49,5.13-7.5,9.72-12.02,13.78-4.52,4.06-9.74,7.87-15.65,11.43l7.91,11.65c11.97-7.55,22.08-17.27,30.34-29.17Z"/>
    <path d="M797.31,194.73h-22.86c-.71-1.57-1.28-2.74-1.71-3.53h20.19v-32.8h-50.75v32.8h16.99l1.92,3.53h-23.93v10.26h60.15v-10.26ZM754.25,167.49h26.6v3.1h-26.6v-3.1ZM754.25,182.23v-3.21h26.6v3.21h-26.6Z"/>
    <path d="M752.12,243.66l2.99,10.68h7.69c4.2,0,7.23-1.03,9.08-3.1,1.85-2.07,2.78-5.13,2.78-9.19v-11.97h18.27v-21.8h-50.75v21.8h6.09c-2.92,5.06-7.34,9.69-13.25,13.89l7.59,8.76c3.42-2.56,6.59-5.59,9.51-9.08ZM755.11,217.27h25v3.95h-25v-3.95ZM762.05,230.09v12.5h-9.08c1.99-2.56,3.67-5.06,5.02-7.48l-9.4-5.02h13.46Z"/>
    <path d="M837.38,219.95l-11.11-7.05c-9.26,12.32-19.98,21.87-32.16,28.63-2.56-3.63-5.56-7.26-8.97-10.9l-9.51,5.45c3.63,4.63,7.16,9.79,10.58,15.49l5.77-3.85,5.98,8.12c7.69-3.99,14.9-9.1,21.64-15.33,6.73-6.23,12.66-13.09,17.79-20.57Z"/>
    <path d="M865.05,183.19h72.12v12.82h12.5v-24.15h-15.6c2.71-3.42,5.31-7.26,7.8-11.54l-12.29-3.95c-2.56,5.41-5.7,10.58-9.4,15.49h-19.66l8.87-3.85c-2.35-5.27-4.88-9.94-7.59-14l-11.65,5.02c2.78,4.13,5.16,8.41,7.16,12.82h-21.47l5.13-2.46c-3.49-5.63-6.48-9.79-8.97-12.5l-11,5.77c2.28,2.42,4.59,5.49,6.95,9.19h-15.28v24.15h12.39v-12.82Z"/>
    <path d="M896.14,242.59h-21.05l3.21,11.86h19.02c4.06,0,7-.93,8.81-2.78,1.82-1.85,2.72-4.74,2.72-8.65v-15.28h40.92v-11.75h-40.92v-1.28c10.47-4.56,18.2-9.69,23.18-15.39v-9.83h-61.86v10.68h44.12c-5.34,3.13-11.4,5.73-18.16,7.8v8.01h-43.59v11.75h43.59v14.85Z"/>
    <path d="M1012.06,198.26h45.09v-6.94h7.59v-24.36h-23.5c-1.43-3.7-3.24-7.59-5.45-11.65l-11.32,3.85c1.21,2.07,2.42,4.67,3.63,7.8h-23.61v24.36h7.59v6.94ZM1016.12,178.28h36.75v8.65h-36.75v-8.65Z"/>
    <path d="M1015.53,229.08c-1.46,3.24-3.94,6.05-7.42,8.44-3.49,2.39-8.41,4.61-14.74,6.68l6.09,11.43c7.91-2.71,14.05-5.91,18.43-9.62,4.38-3.7,7.44-7.89,9.19-12.55,1.74-4.66,2.69-10.24,2.83-16.72h6.52v26.5c0,3.99.8,6.75,2.4,8.28,1.6,1.53,4.36,2.3,8.28,2.3h8.76c4.06,0,6.84-.75,8.33-2.24,1.5-1.5,2.24-4.27,2.24-8.33v-12.93l-10.26-3.63v15.38h-5.56c-.71,0-1.19-.12-1.44-.37-.25-.25-.37-.73-.37-1.44v-23.51h16.35v-11.33h-61.22v11.33h14.1c-.21,4.99-1.05,9.1-2.51,12.34Z"/>
    <path d="M980.76,169.73h10.26c-1.71,8.19-4.2,16.49-7.48,24.89,4.99,8.76,7.48,16.28,7.48,22.54,0,2.21-.43,3.79-1.28,4.75-.85.96-2.17,1.44-3.95,1.44h-3.74l2.24,14h5.24c3.7,0,6.69-1.51,8.97-4.54,2.28-3.03,3.42-7.89,3.42-14.58,0-4.49-.55-8.55-1.66-12.18-1.1-3.63-2.8-7.55-5.07-11.75,1.42-3.35,2.83-7.46,4.22-12.34,1.39-4.88,2.47-9.6,3.26-14.16v-8.87h-33.44v96.05h11.54v-85.26Z"/>
    <path d="M1176.38,194.73h-22.86c-.71-1.57-1.28-2.74-1.71-3.53h20.19v-32.8h-50.75v32.8h16.99l1.92,3.53h-23.93v10.26h60.15v-10.26ZM1133.32,167.49h26.6v3.1h-26.6v-3.1ZM1133.32,182.23v-3.21h26.6v3.21h-26.6Z"/>
    <path d="M1216.45,219.95l-11.11-7.05c-9.26,12.32-19.98,21.87-32.16,28.63-2.56-3.63-5.56-7.26-8.97-10.9l-9.51,5.45c3.63,4.63,7.16,9.79,10.58,15.49l5.77-3.85,5.98,8.12c7.69-3.99,14.9-9.1,21.63-15.33,6.73-6.23,12.66-13.09,17.79-20.57Z"/>
    <path d="M1211.64,163.64l-10.58-7.69c-3.49,5.13-7.5,9.72-12.02,13.78-4.52,4.06-9.74,7.87-15.65,11.43l7.91,11.65c11.97-7.55,22.08-17.27,30.34-29.17Z"/>
    <path d="M1172,208.3h-50.75v21.8h6.09c-2.92,5.06-7.34,9.69-13.25,13.89l7.59,8.76c3.42-2.56,6.59-5.59,9.51-9.08l2.99,10.68h7.69c4.2,0,7.23-1.03,9.08-3.1,1.85-2.07,2.78-5.13,2.78-9.19v-11.97h18.27v-21.8ZM1141.12,242.59h-9.08c1.99-2.56,3.67-5.06,5.02-7.48l-9.4-5.02h13.46v12.5ZM1159.18,221.23h-25v-3.95h25v3.95Z"/>
    <path d="M1190.16,198.68c-5.13,4.77-10.72,8.9-16.77,12.39l8.01,11.75c12.39-8.05,23.33-18.84,32.8-32.37l-10.58-7.27c-3.85,5.56-8.33,10.72-13.46,15.49Z"/>
    <path d="M1243.69,254.99h11.65v-40.39c0-.57.07-.85.21-.85s.32.18.53.53l7.91,13.57,8.23-7.8-8.55-13.78c-.86-1.35-1.78-2.03-2.78-2.03-.64,0-1.43.36-2.35,1.07l-2.56,1.92-.64-1.07c2.71-3.85,5.18-8.05,7.43-12.61,2.24-4.56,3.83-8.98,4.75-13.25v-9.51h-14.85l5.98-2.78c-2.64-4.99-5.45-9.37-8.44-13.14l-9.94,5.34c2.78,3.49,5.16,7.02,7.16,10.58h-15.81v11.22h23.5c-1.85,5.98-4.93,12.07-9.24,18.27-4.31,6.2-9.96,11.82-16.93,16.88l4.81,12.29c3.7-3.06,7.01-6.27,9.94-9.62v35.15Z"/>
    <path d="M1320.19,242.06h-6.84c-.78,0-1.34-.16-1.66-.48s-.48-.87-.48-1.66v-23.29h-8.55c1.5-5.98,2.24-13.18,2.24-21.58v-18.16h-11.75v18.7c0,8.97-1,16.31-2.99,22.01-2,5.7-5.09,10.49-9.29,14.37-4.2,3.88-10.08,7.78-17.63,11.7l6.2,11.65c7.91-4.27,14.32-8.83,19.23-13.68,4.91-4.84,8.65-10.29,11.22-16.35v16.35c0,4.42.91,7.51,2.72,9.29,1.82,1.78,4.97,2.67,9.46,2.67h7.27c4.2,0,7.14-.85,8.81-2.56,1.67-1.71,2.51-4.81,2.51-9.29v-9.51l-10.47-3.53v13.35Z"/>
    <polygon points="1284.72 170.37 1313.88 170.37 1313.88 222.62 1326.28 222.62 1326.28 159.15 1272.64 159.15 1272.64 222.62 1284.72 222.62 1284.72 170.37"/>
    <path d="M1445.83,243.66c-8.62-2.63-16.03-6.02-22.22-10.15,8.55-7.91,14.74-17.91,18.59-30.02v-9.19h-22.76v-12.39h25.11v-12.18h-25.11v-13.03h-12.61v13.03h-23.83v12.18h23.83v12.39h-23.18v12.18h14.64l-9.83,5.45c4.13,8.19,9.01,15.24,14.64,21.15-7.84,4.35-17.59,7.91-29.27,10.68l5.45,12.07c13.46-3.63,24.64-8.3,33.55-14,7.62,5.7,16.74,10.36,27.35,14l5.66-12.18ZM1413.78,225.61c-5.13-4.98-9.79-11.36-14-19.12h27.67c-2.85,7.34-7.41,13.71-13.68,19.12Z"/>
    <path d="M1380.02,201.03c-3.92,1.35-7.09,2.35-9.51,2.99v-18.59h9.08v-11.97h-9.08v-17.31h-11.97v17.31h-12.39v11.97h12.39v21.69c-5.06,1.14-9.62,2.07-13.68,2.78l1.82,12.39c3.99-.78,7.94-1.64,11.86-2.56v21.79h-11.75l3.53,12.82h8.23c4.56,0,7.69-.87,9.4-2.62,1.71-1.75,2.56-4.86,2.56-9.35v-25.96c4.34-1.42,7.94-2.67,10.79-3.74l-1.28-11.65Z"/>
    <path d="M1519.98,191.31h36.86v-12.61h-15.81l6.95-7.26c-5.13-5.13-11.18-9.86-18.16-14.21l-8.33,8.55c5.84,3.99,11.29,8.3,16.35,12.93h-22.22v-22.01h-13.25v22.01h-39.32v12.61h35.04c-2.92,7.48-7.6,14.44-14.05,20.89-6.45,6.45-14.62,13.02-24.52,19.71l8.44,10.9c7.83-5.63,14.03-10.61,18.59-14.96,4.56-4.34,7.99-8.62,10.31-12.82,2.31-4.2,3.79-8.83,4.43-13.89h1.07v53.85h13.25v-53.85h1.07c.57,4.92,2.15,9.47,4.75,13.68,2.6,4.2,6.3,8.46,11.11,12.77,4.81,4.31,11.27,9.39,19.39,15.22l8.44-10.9c-10.47-6.98-19.07-13.66-25.8-20.03-6.73-6.37-11.59-13.23-14.58-20.57Z"/>
    <path d="M1608.34,173.26c-3.85,2.85-7.73,5.41-11.65,7.69-3.92,2.28-7.44,3.95-10.58,5.02l2.56,10.47c8.33-.21,18.02-.71,29.06-1.5-6.48,3.92-12.89,7.48-19.23,10.68-6.34,3.21-11.86,5.66-16.56,7.37l2.14,10.15c9.4-.43,20.8-1.21,34.19-2.35v22.01h-12.82l3.53,11.86h8.33c4.99,0,8.6-1.09,10.84-3.26,2.24-2.17,3.37-5.72,3.37-10.63v-21.05c11.89-1.14,20.51-2.07,25.86-2.78l4.27,5.45,2.14,2.78,9.94-7.8c-7.69-9.9-15.35-18.2-22.97-24.89l-10.04,7.27c2.49,2.21,5.09,4.67,7.8,7.37l-28.42,2.67-7.27.64c16.1-7.76,31.59-17.81,46.48-30.13l-10.15-8.33c-3.99,3.78-8.58,7.52-13.78,11.22-8.33.93-16.74,1.6-25.21,2.03,6.27-3.35,12.78-7.76,19.55-13.25,15.03-1.21,27.92-3.03,38.68-5.45l-4.59-10.36c-10.19,2.21-22.46,3.79-36.81,4.75-14.35.96-29.47,1.48-45.35,1.55l2.24,11.33c7.27,0,15.42-.18,24.47-.53Z"/>
    <path d="M1597.87,243.18c4.84-3.6,9.15-7.39,12.93-11.38l-9.51-7.48c-7.26,6.91-16.17,12.75-26.71,17.52l7.91,10.9c5.41-2.78,10.54-5.97,15.38-9.56Z"/>
    <path d="M1638.36,230.84c10.26,7.05,19.45,14.35,27.56,21.9l9.19-9.72c-8.33-6.91-17.63-13.92-27.88-21.05l-8.87,8.87Z"/>
    <path d="M430.72,289.76c-2.27-2.15-4.9-3.82-7.92-4.99-3.01-1.18-6.31-1.77-9.89-1.77h-18.96v47.9h19.09c3.53,0,6.81-.59,9.82-1.77,3.01-1.18,5.64-2.83,7.88-4.96,2.24-2.13,3.99-4.67,5.23-7.61,1.25-2.94,1.87-6.16,1.87-9.65s-.62-6.62-1.87-9.55c-1.25-2.92-3-5.46-5.27-7.61ZM425.8,315c-1.25,2.27-2.98,4.01-5.2,5.23-2.22,1.22-4.82,1.83-7.81,1.83h-8.83v-30.24h8.83c2.94,0,5.53.61,7.75,1.83,2.22,1.22,3.96,2.96,5.23,5.2,1.27,2.24,1.9,4.9,1.9,7.98s-.62,5.89-1.87,8.15Z"/>
    <path d="M468.53,299.34c-2.47-1.43-5.29-2.14-8.46-2.14s-6.29.76-8.94,2.28c-2.65,1.52-4.76,3.57-6.32,6.15-1.56,2.58-2.34,5.5-2.34,8.77s.79,6.33,2.38,8.93c1.58,2.61,3.75,4.64,6.49,6.12,2.74,1.47,5.88,2.21,9.41,2.21,2.72,0,5.22-.48,7.51-1.43,2.29-.95,4.22-2.38,5.81-4.28l-5.44-5.44c-1,1.13-2.16,1.98-3.5,2.55-1.34.57-2.84.85-4.52.85-1.77,0-3.33-.4-4.69-1.19-1.36-.79-2.4-1.89-3.13-3.3-.26-.5-.46-1.06-.62-1.64l23.79-.06c.18-.82.31-1.54.37-2.17.07-.63.1-1.27.1-1.9,0-3.17-.7-5.99-2.11-8.46-1.4-2.47-3.34-4.42-5.81-5.84ZM452.18,310.84c.15-.53.33-1.05.56-1.52.68-1.38,1.64-2.46,2.89-3.23,1.25-.77,2.73-1.16,4.45-1.16,1.58,0,2.93.34,4.04,1.02,1.11.68,1.96,1.65,2.55,2.92.26.57.47,1.22.62,1.92l-15.11.04Z"/>
    <path d="M509.2,299.54c-2.4-1.52-5.14-2.28-8.22-2.28-2.31,0-4.41.48-6.29,1.43-.97.49-1.84,1.08-2.62,1.76v-2.5h-9.72v46.82h9.58v-16.35c.81.71,1.72,1.32,2.75,1.81,1.88.91,3.98,1.36,6.29,1.36,3.08,0,5.83-.75,8.26-2.24,2.42-1.5,4.33-3.53,5.71-6.12,1.38-2.58,2.07-5.48,2.07-8.7s-.7-6.31-2.11-8.87c-1.4-2.56-3.31-4.6-5.71-6.12ZM506.14,318.74c-.68,1.27-1.61,2.25-2.79,2.96-1.18.7-2.56,1.05-4.15,1.05-1.49,0-2.84-.35-4.04-1.05-1.2-.7-2.12-1.67-2.75-2.92-.64-1.25-.95-2.68-.95-4.31s.33-3.07.99-4.31c.66-1.25,1.58-2.23,2.79-2.96,1.2-.72,2.55-1.09,4.04-1.09s2.9.36,4.08,1.09c1.18.73,2.11,1.71,2.79,2.96.68,1.25,1.02,2.68,1.02,4.31s-.34,3.01-1.02,4.28Z"/>
    <polygon points="537.67 284.36 527.95 284.36 527.95 297.95 520.34 297.95 520.34 306.3 527.95 306.3 527.95 330.9 537.67 330.9 537.67 306.3 545.21 306.3 545.21 297.95 537.67 297.95 537.67 284.36"/>
    <path d="M556.96,319.69c-1.72,0-3.14.58-4.25,1.73-1.11,1.16-1.66,2.57-1.66,4.25s.55,3.09,1.66,4.25c1.11,1.16,2.52,1.73,4.25,1.73s3.07-.58,4.18-1.73c1.11-1.16,1.66-2.57,1.66-4.25s-.56-3.09-1.66-4.25c-1.11-1.16-2.5-1.73-4.18-1.73Z"/>
    <path d="M609.93,299.47c-2.7-1.52-5.72-2.28-9.07-2.28s-6.43.77-9.1,2.31c-2.67,1.54-4.8,3.59-6.39,6.15-1.59,2.56-2.38,5.45-2.38,8.66s.79,6.26,2.38,8.87c1.58,2.61,3.73,4.67,6.42,6.18,2.69,1.52,5.72,2.28,9.07,2.28s6.44-.76,9.14-2.28c2.69-1.52,4.81-3.59,6.35-6.22,1.54-2.63,2.31-5.57,2.31-8.83s-.78-6.12-2.34-8.7c-1.56-2.58-3.69-4.63-6.39-6.15ZM607.86,318.74c-.68,1.27-1.62,2.25-2.82,2.96-1.2.7-2.59,1.05-4.18,1.05s-2.92-.35-4.14-1.05c-1.22-.7-2.16-1.69-2.82-2.96-.66-1.27-.99-2.72-.99-4.35s.33-3,.99-4.25c.66-1.25,1.6-2.22,2.82-2.92,1.22-.7,2.6-1.05,4.14-1.05s2.97.34,4.15,1.02c1.18.68,2.12,1.65,2.82,2.92.7,1.27,1.05,2.7,1.05,4.28s-.34,3.08-1.02,4.35Z"/>
    <path d="M639.99,290.95c.86-.86,2.04-1.29,3.53-1.29.82,0,1.52.14,2.11.41.59.27,1.11.63,1.56,1.09l6.12-6.05c-1.27-1.31-2.71-2.34-4.31-3.09-1.61-.75-3.5-1.12-5.67-1.12-2.94,0-5.48.62-7.61,1.87-2.13,1.25-3.77,2.9-4.93,4.96-1.16,2.06-1.73,4.43-1.73,7.1v3.13h-7.47v8.36h7.47v24.6h9.65v-24.6h9.65v-8.36h-9.65v-3.4c0-1.54.43-2.74,1.29-3.6Z"/>
    <polygon points="676.62 283 669.14 283 669.14 330.9 679.13 330.9 679.13 311.74 700.6 311.74 700.6 303.04 679.13 303.04 679.13 291.76 701.76 291.76 701.76 283 679.13 283 676.62 283"/>
    <rect x="708.55" y="297.95" width="9.65" height="32.95"/>
    <path d="M713.37,282.25c-1.54,0-2.82.52-3.84,1.56-1.02,1.04-1.53,2.33-1.53,3.87s.51,2.76,1.53,3.8c1.02,1.04,2.3,1.56,3.84,1.56s2.88-.52,3.87-1.56c1-1.04,1.49-2.31,1.49-3.8s-.5-2.83-1.49-3.87c-1-1.04-2.29-1.56-3.87-1.56Z"/>
    <rect x="726.49" y="281.64" width="9.72" height="49.26"/>
    <path d="M790.22,298.83c-1.95-1.04-4.17-1.56-6.66-1.56s-4.76.54-6.79,1.63c-1.48.79-2.75,1.83-3.81,3.1-.98-1.32-2.19-2.4-3.63-3.2-1.83-1.02-3.91-1.53-6.22-1.53s-4.58.52-6.52,1.56c-.91.49-1.72,1.07-2.45,1.74v-2.62h-9.72v32.95h9.72v-19.3c0-1.22.25-2.25.75-3.09.5-.84,1.18-1.48,2.04-1.94.86-.45,1.86-.68,2.99-.68,1.63,0,2.99.5,4.08,1.5,1.09,1,1.63,2.4,1.63,4.21v19.3h9.72v-19.3c0-1.22.25-2.25.75-3.09.5-.84,1.19-1.48,2.07-1.94.88-.45,1.89-.68,3.02-.68,1.63,0,3,.5,4.11,1.5,1.11,1,1.67,2.4,1.67,4.21v19.3h9.65v-20.59c0-2.72-.58-5.05-1.73-7-1.15-1.95-2.71-3.44-4.65-4.49Z"/>
    <path d="M831.97,298.63c-.47-.82-.71-1.81-.71-2.99s.48-2.26,1.43-3.12,2.15-1.29,3.6-1.29,2.62.35,3.64,1.05c1.02.7,2,1.69,2.96,2.96l6.52-6.18c-.73-1.18-1.71-2.28-2.96-3.29-1.25-1.02-2.73-1.86-4.45-2.51-1.72-.66-3.65-.99-5.78-.99-2.86,0-5.35.6-7.47,1.8-2.13,1.2-3.79,2.82-4.99,4.86-1.2,2.04-1.8,4.26-1.8,6.66,0,2.08.4,3.96,1.19,5.64.45.94,1.05,1.93,1.77,2.94-2.42,1.33-4.29,2.95-5.61,4.87-1.59,2.31-2.38,4.96-2.38,7.95,0,2.76.67,5.25,2,7.47,1.34,2.22,3.22,3.97,5.64,5.27s5.29,1.94,8.6,1.94c2.08,0,4.03-.29,5.84-.88,1.81-.59,3.43-1.35,4.86-2.28.65-.42,1.23-.85,1.76-1.29l3.37,3.7h11.41l-26.36-29.49c-.91-1.04-1.6-1.97-2.07-2.79ZM837.85,321.66c-1.22.73-2.72,1.09-4.49,1.09-1.45,0-2.71-.26-3.77-.78-1.07-.52-1.89-1.27-2.48-2.24-.59-.97-.88-2.07-.88-3.29,0-1.63.36-3.01,1.09-4.14.6-.94,1.49-1.7,2.63-2.3l9.5,10.43c-.47.48-1,.89-1.59,1.24Z"/>
    <polygon points="873.12 291.83 888.2 291.83 888.2 330.9 898.19 330.9 898.19 291.83 913.34 291.83 913.34 283 873.12 283 873.12 291.83"/>
    <polygon points="939.54 315.97 927.34 283 916.67 283 935.29 330.9 943.51 330.9 962.46 283 951.87 283 939.54 315.97"/>
    <polygon points="1019.67 283 979.45 283 979.45 291.83 994.53 291.83 994.53 330.9 1004.52 330.9 1004.52 291.83 1019.67 291.83 1019.67 283"/>
    <path d="M1044.3,299.34c-2.47-1.43-5.29-2.14-8.46-2.14s-6.29.76-8.94,2.28c-2.65,1.52-4.76,3.57-6.32,6.15-1.56,2.58-2.34,5.5-2.34,8.77s.79,6.33,2.38,8.93c1.59,2.61,3.75,4.64,6.49,6.12,2.74,1.47,5.88,2.21,9.41,2.21,2.72,0,5.22-.48,7.51-1.43,2.29-.95,4.22-2.38,5.81-4.28l-5.44-5.44c-1,1.13-2.16,1.98-3.5,2.55s-2.84.85-4.52.85c-1.77,0-3.33-.4-4.69-1.19-1.36-.79-2.4-1.89-3.13-3.3-.26-.5-.46-1.06-.62-1.64l23.79-.06c.18-.82.31-1.54.37-2.17.07-.63.1-1.27.1-1.9,0-3.17-.7-5.99-2.11-8.46-1.4-2.47-3.34-4.42-5.81-5.84ZM1027.95,310.84c.15-.53.33-1.05.56-1.52.68-1.38,1.64-2.46,2.89-3.23,1.25-.77,2.73-1.16,4.45-1.16,1.58,0,2.93.34,4.04,1.02,1.11.68,1.96,1.65,2.55,2.92.26.57.47,1.22.62,1.92l-15.11.04Z"/>
    <path d="M1077.73,322c-1.11.5-2.37.75-3.77.75-1.54,0-2.93-.35-4.18-1.05-1.25-.7-2.22-1.69-2.92-2.96-.7-1.27-1.05-2.72-1.05-4.35s.35-3.07,1.05-4.32c.7-1.25,1.67-2.21,2.89-2.89,1.22-.68,2.63-1.02,4.21-1.02,1.36,0,2.59.23,3.7.68,1.11.45,2.07,1.13,2.89,2.04l6.18-6.25c-1.63-1.77-3.52-3.11-5.67-4.04-2.15-.93-4.52-1.39-7.1-1.39-3.44,0-6.52.76-9.24,2.28-2.72,1.52-4.87,3.57-6.46,6.15s-2.38,5.53-2.38,8.83.79,6.14,2.38,8.77,3.73,4.69,6.42,6.18c2.69,1.5,5.74,2.24,9.14,2.24,2.67,0,5.1-.48,7.27-1.43,2.17-.95,4.1-2.33,5.78-4.14l-6.18-6.25c-.86.95-1.85,1.68-2.96,2.17Z"/>
    <path d="M1117.82,298.9c-1.93-1.09-4.16-1.63-6.69-1.63s-4.71.54-6.66,1.63c-.89.49-1.67,1.09-2.38,1.76v-19.02h-9.72v49.26h9.72v-18.82c0-1.22.25-2.3.75-3.23.5-.93,1.21-1.65,2.14-2.17.93-.52,2-.78,3.23-.78,1.77,0,3.22.58,4.35,1.73,1.13,1.16,1.7,2.66,1.7,4.52v18.75h9.72v-20.93c0-2.54-.54-4.74-1.63-6.62-1.09-1.88-2.59-3.36-4.52-4.45Z"/>
    <path d="M1137.9,319.69c-1.72,0-3.14.58-4.25,1.73s-1.66,2.57-1.66,4.25.55,3.09,1.66,4.25,2.53,1.73,4.25,1.73,3.07-.58,4.18-1.73c1.11-1.16,1.67-2.57,1.67-4.25s-.56-3.09-1.67-4.25c-1.11-1.16-2.5-1.73-4.18-1.73Z"/>
    <path d="M1172.35,319.69c-1.72,0-3.15.6-4.28,1.8-1.13,1.2-1.7,2.66-1.7,4.38,0,1.54.52,2.83,1.56,3.87.75.75,1.54,1.21,2.38,1.43l-4.15,7.88,4.82,2.58,5.37-9.85c.77-1.45,1.29-2.64,1.56-3.57.27-.93.41-1.71.41-2.34,0-1.72-.59-3.18-1.77-4.38-1.18-1.2-2.58-1.8-4.21-1.8Z"/>
    <path d="M1229.19,305.31c1.25-.69,2.32-1.53,3.18-2.5,1.79-2.02,2.68-4.45,2.68-7.3,0-2.26-.57-4.34-1.7-6.22-1.13-1.88-2.78-3.4-4.93-4.55s-4.77-1.73-7.85-1.73h-19.98v47.9h20.04c3.35,0,6.23-.62,8.63-1.87,2.4-1.25,4.24-2.9,5.5-4.96,1.27-2.06,1.9-4.38,1.9-6.96,0-3.35-1.03-6.19-3.09-8.53-1.18-1.34-2.66-2.42-4.41-3.27ZM1210.53,290.95h8.49c1.81,0,3.27.47,4.38,1.39,1.11.93,1.66,2.3,1.66,4.11s-.55,3.25-1.66,4.18c-1.11.93-2.57,1.39-4.38,1.39h-8.49v-11.08ZM1224.97,321.08c-1.2,1.29-2.87,1.94-4.99,1.94h-9.44v-13.18h9.38c1.45,0,2.7.28,3.74.85s1.82,1.35,2.34,2.34c.52,1,.78,2.13.78,3.4,0,1.81-.6,3.36-1.8,4.65Z"/>
    <path d="M1267.37,299.34c-2.47-1.43-5.29-2.14-8.46-2.14s-6.29.76-8.94,2.28c-2.65,1.52-4.76,3.57-6.32,6.15-1.56,2.58-2.34,5.5-2.34,8.77s.79,6.33,2.38,8.93c1.59,2.61,3.75,4.64,6.49,6.12,2.74,1.47,5.88,2.21,9.41,2.21,2.72,0,5.22-.48,7.51-1.43,2.29-.95,4.22-2.38,5.81-4.28l-5.44-5.44c-1,1.13-2.16,1.98-3.5,2.55s-2.84.85-4.52.85c-1.77,0-3.33-.4-4.69-1.19-1.36-.79-2.4-1.89-3.13-3.3-.26-.5-.46-1.06-.62-1.64l23.79-.06c.18-.82.31-1.54.37-2.17.07-.63.1-1.27.1-1.9,0-3.17-.7-5.99-2.11-8.46-1.4-2.47-3.34-4.42-5.81-5.84ZM1251.01,310.84c.15-.53.33-1.05.56-1.52.68-1.38,1.64-2.46,2.89-3.23,1.25-.77,2.73-1.16,4.45-1.16,1.58,0,2.93.34,4.04,1.02,1.11.68,1.96,1.65,2.55,2.92.26.57.47,1.22.62,1.92l-15.11.04Z"/>
    <path d="M1286.02,293.05c1.58,0,2.88-.52,3.87-1.56,1-1.04,1.5-2.31,1.5-3.8s-.5-2.83-1.5-3.87c-1-1.04-2.29-1.56-3.87-1.56s-2.82.52-3.84,1.56c-1.02,1.04-1.53,2.33-1.53,3.87s.51,2.76,1.53,3.8c1.02,1.04,2.3,1.56,3.84,1.56Z"/>
    <rect x="1281.19" y="297.95" width="9.65" height="32.95"/>
    <path d="M1304.84,282.25c-1.54,0-2.81.52-3.8,1.56-1,1.04-1.5,2.33-1.5,3.87s.5,2.76,1.5,3.8c1,1.04,2.26,1.56,3.8,1.56s2.81-.52,3.8-1.56c1-1.04,1.5-2.31,1.5-3.8s-.5-2.83-1.5-3.87c-1-1.04-2.27-1.56-3.8-1.56Z"/>
    <path d="M1299.88,333.01c0,1.27-.36,2.22-1.09,2.85-.72.63-1.61.95-2.65.95-.77,0-1.43-.14-1.97-.41-.54-.27-1.06-.73-1.56-1.36l-6.05,6.12c1.22,1.4,2.65,2.5,4.28,3.3,1.63.79,3.65,1.19,6.05,1.19s4.55-.53,6.46-1.6,3.42-2.54,4.55-4.42c1.13-1.88,1.7-4.13,1.7-6.76v-34.92h-9.72v35.06Z"/>
    <rect x="1317.82" y="297.95" width="9.65" height="32.95"/>
    <path d="M1322.64,282.25c-1.54,0-2.82.52-3.84,1.56-1.02,1.04-1.53,2.33-1.53,3.87s.51,2.76,1.53,3.8c1.02,1.04,2.3,1.56,3.84,1.56s2.88-.52,3.87-1.56c1-1.04,1.5-2.31,1.5-3.8s-.5-2.83-1.5-3.87c-1-1.04-2.29-1.56-3.87-1.56Z"/>
    <path d="M1361.27,299.07c-1.88-1.2-4.04-1.8-6.49-1.8s-4.73.54-6.73,1.63c-.96.52-1.82,1.16-2.58,1.88v-2.83h-9.72v32.95h9.72v-18.82c0-1.22.25-2.3.75-3.23.5-.93,1.21-1.65,2.14-2.17.93-.52,2-.78,3.23-.78,1.77,0,3.22.58,4.35,1.73,1.13,1.16,1.7,2.66,1.7,4.52v18.75h9.72v-20.93c0-2.26-.54-4.35-1.63-6.25s-2.57-3.45-4.45-4.65Z"/>
    <path d="M1397.31,300.39c-.78-.68-1.65-1.27-2.65-1.76-1.86-.91-3.94-1.36-6.25-1.36-3.04,0-5.73.73-8.09,2.17-2.36,1.45-4.2,3.4-5.54,5.84s-2,5.21-2,8.29.68,5.85,2.04,8.32c1.36,2.47,3.2,4.43,5.54,5.88,2.33,1.45,4.99,2.17,7.98,2.17,2.31,0,4.39-.45,6.25-1.36,1-.49,1.88-1.08,2.65-1.76v2.44c0,2.4-.78,4.27-2.34,5.61-1.56,1.34-3.66,2-6.29,2-2.17,0-4.02-.39-5.54-1.16-1.52-.77-2.87-1.88-4.04-3.33l-6.05,6.05c1.58,2.26,3.72,4.03,6.42,5.3,2.69,1.27,5.83,1.9,9.41,1.9s6.66-.7,9.38-2.11,4.86-3.34,6.42-5.81c1.56-2.47,2.34-5.36,2.34-8.66v-31.12h-9.65v2.44ZM1396.87,317.55c-.61,1.16-1.5,2.07-2.65,2.75-1.16.68-2.48,1.02-3.98,1.02s-2.88-.34-4.01-1.02c-1.13-.68-2.02-1.61-2.65-2.79-.63-1.18-.95-2.49-.95-3.94s.31-2.75.92-3.91,1.5-2.07,2.68-2.75c1.18-.68,2.51-1.02,4.01-1.02s2.88.34,4.01,1.02c1.13.68,2,1.6,2.62,2.75s.92,2.48.92,3.97-.31,2.75-.92,3.91Z"/>
    <polygon points="1437.27 283 1429.79 283 1429.79 330.9 1439.78 330.9 1439.78 311.74 1461.25 311.74 1461.25 303.04 1439.78 303.04 1439.78 291.76 1462.41 291.76 1462.41 283 1439.78 283 1437.27 283"/>
    <rect x="1469.2" y="297.95" width="9.65" height="32.95"/>
    <path d="M1474.02,282.25c-1.54,0-2.82.52-3.84,1.56-1.02,1.04-1.53,2.33-1.53,3.87s.51,2.76,1.53,3.8c1.02,1.04,2.3,1.56,3.84,1.56s2.88-.52,3.87-1.56c1-1.04,1.5-2.31,1.5-3.8s-.5-2.83-1.5-3.87c-1-1.04-2.29-1.56-3.87-1.56Z"/>
    <rect x="1487.14" y="281.64" width="9.72" height="49.26"/>
    <path d="M1550.87,298.83c-1.95-1.04-4.17-1.56-6.66-1.56s-4.76.54-6.79,1.63c-1.48.79-2.75,1.83-3.81,3.1-.98-1.32-2.19-2.4-3.63-3.2-1.83-1.02-3.91-1.53-6.22-1.53s-4.58.52-6.52,1.56c-.91.49-1.72,1.07-2.45,1.74v-2.62h-9.72v32.95h9.72v-19.3c0-1.22.25-2.25.75-3.09.5-.84,1.18-1.48,2.04-1.94.86-.45,1.86-.68,2.99-.68,1.63,0,2.99.5,4.08,1.5,1.09,1,1.63,2.4,1.63,4.21v19.3h9.72v-19.3c0-1.22.25-2.25.75-3.09.5-.84,1.19-1.48,2.07-1.94.88-.45,1.89-.68,3.02-.68,1.63,0,3,.5,4.11,1.5,1.11,1,1.67,2.4,1.67,4.21v19.3h9.65v-20.59c0-2.72-.58-5.05-1.73-7-1.16-1.95-2.71-3.44-4.65-4.49Z"/>
    <path d="M1595.1,283l-19.16,47.9h10.4l3.29-8.77h19.23l3.23,8.77h10.53l-18.96-47.9h-8.56ZM1592.71,313.91l6.62-17.65,6.5,17.65h-13.12Z"/>
    <path d="M1647.93,322c-1.11.5-2.37.75-3.77.75-1.54,0-2.93-.35-4.18-1.05-1.25-.7-2.22-1.69-2.92-2.96-.7-1.27-1.05-2.72-1.05-4.35s.35-3.07,1.05-4.32c.7-1.25,1.67-2.21,2.89-2.89,1.22-.68,2.63-1.02,4.21-1.02,1.36,0,2.59.23,3.7.68,1.11.45,2.07,1.13,2.89,2.04l6.18-6.25c-1.63-1.77-3.52-3.11-5.67-4.04-2.15-.93-4.52-1.39-7.1-1.39-3.44,0-6.52.76-9.24,2.28-2.72,1.52-4.87,3.57-6.46,6.15s-2.38,5.53-2.38,8.83.79,6.14,2.38,8.77,3.73,4.69,6.42,6.18c2.69,1.5,5.74,2.24,9.14,2.24,2.67,0,5.1-.48,7.27-1.43,2.17-.95,4.1-2.33,5.78-4.14l-6.18-6.25c-.86.95-1.85,1.68-2.96,2.17Z"/>
    <path d="M1685.61,300.92c-.89-.92-1.92-1.69-3.12-2.3-1.81-.91-3.85-1.36-6.12-1.36-3.04,0-5.75.75-8.15,2.24-2.4,1.5-4.28,3.54-5.64,6.15-1.36,2.61-2.04,5.56-2.04,8.87s.68,6.12,2.04,8.7c1.36,2.58,3.23,4.62,5.61,6.12,2.38,1.49,5.08,2.24,8.12,2.24,2.26,0,4.33-.45,6.18-1.36,1.2-.59,2.23-1.34,3.12-2.22v2.9h9.51v-32.95h-9.51v2.97ZM1683.88,320.44c-1.47,1.54-3.36,2.31-5.67,2.31-1.5,0-2.84-.35-4.04-1.05-1.2-.7-2.13-1.69-2.79-2.96-.66-1.27-.99-2.7-.99-4.28s.34-3.08,1.02-4.35c.68-1.27,1.61-2.25,2.79-2.96,1.18-.7,2.51-1.05,4.01-1.05,1.58,0,2.97.35,4.14,1.05s2.09,1.68,2.75,2.92c.66,1.25.99,2.71.99,4.38,0,2.45-.74,4.44-2.21,5.98Z"/>
    <path d="M1726.31,300.47c-.81-.7-1.71-1.31-2.72-1.81-1.86-.93-3.94-1.39-6.25-1.39-3.08,0-5.82.76-8.22,2.28-2.4,1.52-4.3,3.56-5.71,6.12-1.4,2.56-2.11,5.52-2.11,8.87s.7,6.12,2.11,8.7,3.31,4.62,5.71,6.12c2.4,1.49,5.14,2.24,8.22,2.24,2.31,0,4.4-.48,6.29-1.43,1.06-.54,1.99-1.2,2.82-1.95v2.7h9.51v-49.26h-9.65v18.84ZM1725.93,318.8c-.66,1.27-1.57,2.24-2.75,2.92s-2.56,1.02-4.14,1.02-2.9-.36-4.08-1.09c-1.18-.72-2.11-1.71-2.79-2.96-.68-1.25-1.02-2.66-1.02-4.25s.34-3.07,1.02-4.31c.68-1.25,1.61-2.23,2.79-2.96,1.18-.72,2.54-1.09,4.08-1.09s2.9.36,4.08,1.09c1.18.73,2.11,1.7,2.79,2.92.68,1.22,1.02,2.67,1.02,4.35s-.33,3.08-.99,4.35Z"/>
    <path d="M1768.06,299.34c-2.47-1.43-5.29-2.14-8.46-2.14s-6.29.76-8.94,2.28c-2.65,1.52-4.76,3.57-6.32,6.15-1.56,2.58-2.34,5.5-2.34,8.77s.79,6.33,2.38,8.93c1.59,2.61,3.75,4.64,6.49,6.12,2.74,1.47,5.88,2.21,9.41,2.21,2.72,0,5.22-.48,7.51-1.43,2.29-.95,4.22-2.38,5.81-4.28l-5.44-5.44c-1,1.13-2.16,1.98-3.5,2.55s-2.84.85-4.52.85c-1.77,0-3.33-.4-4.69-1.19-1.36-.79-2.4-1.89-3.13-3.3-.26-.5-.46-1.06-.62-1.64l23.79-.06c.18-.82.31-1.54.37-2.17.07-.63.1-1.27.1-1.9,0-3.17-.7-5.99-2.11-8.46-1.4-2.47-3.34-4.42-5.81-5.84ZM1751.7,310.84c.15-.53.33-1.05.56-1.52.68-1.38,1.64-2.46,2.89-3.23,1.25-.77,2.73-1.16,4.45-1.16,1.58,0,2.93.34,4.04,1.02,1.11.68,1.96,1.65,2.55,2.92.26.57.47,1.22.62,1.92l-15.11.04Z"/>
    <path d="M1827.68,298.83c-1.95-1.04-4.17-1.56-6.66-1.56s-4.76.54-6.79,1.63c-1.48.79-2.75,1.83-3.81,3.1-.98-1.32-2.19-2.4-3.63-3.2-1.83-1.02-3.91-1.53-6.22-1.53s-4.58.52-6.52,1.56c-.91.49-1.72,1.07-2.45,1.74v-2.62h-9.72v32.95h9.72v-19.3c0-1.22.25-2.25.75-3.09.5-.84,1.18-1.48,2.04-1.94.86-.45,1.86-.68,2.99-.68,1.63,0,2.99.5,4.08,1.5,1.09,1,1.63,2.4,1.63,4.21v19.3h9.72v-19.3c0-1.22.25-2.25.75-3.09.5-.84,1.19-1.48,2.07-1.94.88-.45,1.89-.68,3.02-.68,1.63,0,3,.5,4.11,1.5,1.11,1,1.67,2.4,1.67,4.21v19.3h9.65v-20.59c0-2.72-.58-5.05-1.73-7-1.16-1.95-2.71-3.44-4.65-4.49Z"/>
    <polygon points="1863.01 297.95 1855.74 318.43 1848.68 297.95 1838.28 297.95 1850.81 328.36 1843.11 344.76 1853.23 344.76 1859.07 331.1 1873.48 297.95 1863.01 297.95"/>
  </g>
  <g>
    <path d="M145.62,308.39l-1.4-8.89,34.41-5.42c9.18-1.46,13.64-34.37,16.3-54.03,3.68-27.14,5.81-40.25,14.19-41.58,8.44-1.34,11.73,9.54,12.82,13.11,2.06,6.8,3.62,15.98,5.28,25.69,3.23,19.02,8.14,47.81,17.82,46.22l68.59-11.2,1.45,8.88-68.6,11.2c-18.52,2.95-23.62-27.09-28.13-53.6-1.77-10.43-4.67-27.48-7.74-31.02-2.78,4.17-5.15,21.67-6.75,33.5-3.94,29.1-8.02,59.2-23.81,61.72l-34.42,5.42Z"/>
    <path d="M145.63,308.39l-1.42-8.89c28.45-4.53,43.09-6.84,52.92-8.39,4.95-.78,8.68-1.37,12.34-1.95,14.6-2.33,21.05-17.54,25.76-28.66,3.36-7.92,5.78-13.64,10.96-14.47,8.19-1.3,12.7,8.09,17.48,18.03,2.57,5.34,7.33,15.32,10.18,14.83l39.77-6.6,1.47,8.88-39.8,6.61c-9.48,1.5-14.93-9.82-19.73-19.82-1.98-4.11-5.56-11.56-7.7-12.87-1.18,1.47-2.98,5.73-4.34,8.93-5.22,12.31-13.1,30.92-32.63,34.03-3.67.58-7.4,1.17-12.36,1.95-9.83,1.55-24.47,3.85-52.91,8.39Z"/>
    <path d="M145.62,308.39l-1.4-8.89,37.38-5.88c10.46-1.67,13.35-6.28,16.41-11.17,2.68-4.29,5.73-9.15,13.19-10.34,9.17-1.45,13.93,4.2,17.4,8.32,3.13,3.71,4.45,4.99,6.96,4.58,4.96-.79,9.99-13.53,13.31-21.95,4.06-10.29,6.74-17.09,12.21-17.96,3.47-.54,6.22,1.71,8.17,6.71,1.08,2.78,2.03,6.41,3.04,10.26,1.23,4.69,3.74,14.27,5.85,16.15l35.47-5.93,1.48,8.88-35.94,6c-9.21,1.46-12.44-10.88-15.57-22.82-.62-2.35-1.42-5.42-2.19-7.77-1.37,2.73-2.96,6.76-4.15,9.78-4.8,12.16-10.23,25.94-20.27,27.54-7.77,1.23-12.1-3.91-15.26-7.67-3.26-3.87-5.14-5.87-9.1-5.23-3.29.52-4.51,2.29-6.98,6.22-3.43,5.47-8.12,12.97-22.63,15.28l-37.39,5.88Z"/>
  </g>
  <path d="M152.04,348.87l-9.04-6.33v-189.03l7.21-5.15,161.58,23.65,5.32,7.09v127.17l-4.44,7.1-160.63,35.51ZM152,337.86l1.96,1.37,153.08-33.84,1.07-1.71v-121.59l-1.29-1.72-154.33-22.58-.49.35v179.72Z"/>
</svg>