<?xml version="1.0" encoding="UTF-8"?>
<svg id="_图层_1" data-name="图层 1" xmlns="http://www.w3.org/2000/svg" width="1200" height="500" viewBox="0 0 1200 500">
  <g>
    <path d="M445.76,310.46h-17.79c-.56-1.22-1-2.13-1.33-2.74h15.71v-25.53h-39.5v25.53h13.22l1.5,2.74h-18.63v7.98h46.81v-7.98ZM412.25,289.26h20.7v2.41h-20.7v-2.41ZM412.25,300.74v-2.49h20.7v2.49h-20.7Z"/>
    <path d="M443.27,346.88c-2-2.83-4.32-5.66-6.98-8.48l-7.4,4.24c2.83,3.6,5.57,7.62,8.23,12.06l4.49-2.99,4.66,6.32c5.99-3.11,11.6-7.08,16.84-11.93,5.24-4.85,9.85-10.19,13.84-16.01l-8.65-5.49c-7.21,9.59-15.55,17.02-25.03,22.29Z"/>
    <path d="M442.35,321.02h-39.5v16.96h4.74c-2.27,3.94-5.71,7.54-10.31,10.81l5.9,6.82c2.66-2,5.13-4.35,7.4-7.07l2.33,8.31h5.99c3.27,0,5.63-.8,7.07-2.41,1.44-1.61,2.16-3.99,2.16-7.15v-9.31h14.22v-16.96ZM418.32,347.72h-7.07c1.55-2,2.85-3.94,3.91-5.82l-7.32-3.91h10.48v9.73ZM432.37,331.09h-19.46v-3.08h19.46v3.08Z"/>
    <path d="M473.2,286.27l-8.23-5.99c-2.72,3.99-5.83,7.57-9.35,10.73-3.52,3.16-7.58,6.13-12.18,8.9l6.15,9.06c9.31-5.87,17.18-13.44,23.61-22.7Z"/>
    <path d="M456.49,313.54c-3.99,3.71-8.34,6.93-13.06,9.65l6.24,9.15c9.65-6.26,18.15-14.66,25.53-25.2l-8.23-5.65c-2.99,4.32-6.49,8.34-10.48,12.06Z"/>
    <path d="M555.6,347.3h-5.32c-.61,0-1.04-.12-1.29-.37-.25-.25-.37-.68-.37-1.29v-18.13h-6.65c1.16-4.66,1.75-10.26,1.75-16.8v-14.14h-9.15v14.55c0,6.98-.78,12.69-2.33,17.13-1.55,4.44-3.96,8.16-7.23,11.18-3.27,3.02-7.84,6.06-13.72,9.11l4.82,9.06c6.15-3.33,11.14-6.87,14.97-10.64,3.82-3.77,6.74-8.01,8.73-12.72v12.72c0,3.44.71,5.85,2.12,7.23,1.41,1.38,3.87,2.08,7.36,2.08h5.65c3.27,0,5.56-.67,6.86-2,1.3-1.33,1.95-3.74,1.95-7.23v-7.4l-8.15-2.74v10.39Z"/>
    <polygon points="528 291.51 550.7 291.51 550.7 332.17 560.34 332.17 560.34 282.78 518.6 282.78 518.6 332.17 528 332.17 528 291.51"/>
    <path d="M518.27,330.17l-6.65-10.73c-.67-1.05-1.39-1.58-2.16-1.58-.5,0-1.11.28-1.83.83l-2,1.5-.5-.83c2.11-2.99,4.03-6.26,5.78-9.81,1.75-3.55,2.98-6.98,3.7-10.31v-7.4h-11.56l4.66-2.16c-2.05-3.88-4.24-7.29-6.57-10.23l-7.73,4.16c2.16,2.72,4.02,5.46,5.57,8.23h-12.31v8.73h18.29c-1.44,4.66-3.84,9.4-7.19,14.22-3.35,4.82-7.75,9.2-13.18,13.14l3.74,9.56c2.88-2.38,5.46-4.88,7.73-7.48v27.36h9.06v-31.43c0-.44.05-.66.17-.66s.25.14.42.42l6.15,10.56,6.4-6.07Z"/>
    <path d="M600.09,315.37c-3.05,1.05-5.52,1.83-7.4,2.33v-14.47h7.07v-9.31h-7.07v-13.47h-9.31v13.47h-9.65v9.31h9.65v16.88c-3.94.89-7.48,1.61-10.64,2.16l1.41,9.64c3.1-.61,6.18-1.27,9.23-1.99v16.96h-9.15l2.74,9.98h6.4c3.55,0,5.99-.68,7.32-2.04,1.33-1.36,2-3.78,2-7.28v-20.21c3.38-1.11,6.18-2.08,8.4-2.91l-1-9.06Z"/>
    <path d="M648.48,317.28v-7.15h-17.71v-9.64h19.54v-9.48h-19.54v-10.14h-9.81v10.14h-18.54v9.48h18.54v9.64h-18.04v9.48h11.39l-7.65,4.24c3.21,6.37,7.01,11.86,11.39,16.46-6.1,3.38-13.69,6.15-22.78,8.32l4.24,9.4c10.48-2.83,19.18-6.46,26.11-10.89,5.93,4.43,13.03,8.07,21.29,10.89l4.41-9.48c-6.71-2.05-12.47-4.68-17.29-7.9,6.65-6.15,11.47-13.94,14.47-23.37ZM626.36,334.49c-3.99-3.88-7.62-8.84-10.89-14.88h21.54c-2.22,5.71-5.77,10.67-10.64,14.88Z"/>
    <path d="M706.94,307.8h28.69v-9.81h-12.31l5.4-5.65c-3.99-3.99-8.7-7.68-14.14-11.06l-6.49,6.65c4.54,3.11,8.79,6.46,12.72,10.06h-17.3v-17.13h-10.31v17.13h-30.6v9.81h27.27c-2.27,5.82-5.92,11.24-10.93,16.26-5.02,5.02-11.38,10.13-19.08,15.34l6.57,8.48c6.1-4.38,10.92-8.26,14.47-11.64,3.55-3.38,6.22-6.71,8.02-9.98,1.8-3.27,2.95-6.87,3.45-10.81h.83v41.91h10.31v-41.91h.83c.44,3.82,1.68,7.37,3.7,10.64,2.02,3.27,4.91,6.58,8.65,9.94,3.74,3.36,8.77,7.3,15.09,11.85l6.57-8.48c-8.15-5.43-14.84-10.63-20.08-15.59-5.24-4.96-9.02-10.3-11.35-16.01Z"/>
    <path d="M775.54,339.32l-7.4-5.82c-5.65,5.38-12.58,9.92-20.79,13.64l6.15,8.48c4.21-2.16,8.2-4.64,11.97-7.44,3.77-2.8,7.12-5.75,10.06-8.86Z"/>
    <path d="M815.12,332l1.66,2.16,7.73-6.07c-5.99-7.71-11.95-14.16-17.88-19.37l-7.82,5.65c1.94,1.72,3.96,3.63,6.07,5.74l-22.12,2.08-5.65.5c12.53-6.04,24.58-13.86,36.17-23.45l-7.9-6.49c-3.11,2.94-6.68,5.85-10.73,8.73-6.49.72-13.03,1.25-19.62,1.58,4.88-2.61,9.95-6.04,15.22-10.31,11.7-.94,21.73-2.36,30.1-4.24l-3.58-8.06c-7.93,1.72-17.48,2.95-28.65,3.7-11.17.75-22.94,1.15-35.3,1.21l1.75,8.81c5.65,0,12-.14,19.04-.42-2.99,2.22-6.02,4.21-9.06,5.99-3.05,1.77-5.79,3.08-8.23,3.91l2,8.15c6.49-.17,14.02-.55,22.62-1.16-5.04,3.05-10.03,5.82-14.97,8.32-4.93,2.49-9.23,4.41-12.89,5.74l1.66,7.9c7.32-.33,16.19-.94,26.61-1.83v17.13h-9.98l2.74,9.23h6.49c3.88,0,6.69-.85,8.44-2.54,1.75-1.69,2.62-4.45,2.62-8.27v-16.38c9.26-.89,15.97-1.61,20.12-2.16l3.33,4.24Z"/>
    <path d="M803.89,331.67l-6.9,6.9c7.98,5.49,15.13,11.17,21.45,17.05l7.15-7.57c-6.49-5.38-13.72-10.84-21.7-16.38Z"/>
  </g>
  <g>
    <path d="M434.47,161.56c0-2.76-.5-5.31-1.5-7.65-1-2.34-2.41-4.38-4.22-6.1-1.82-1.72-3.93-3.06-6.34-4-2.41-.94-5.06-1.42-7.92-1.42h-15.19v38.4h15.3c2.83,0,5.45-.47,7.87-1.42,2.41-.94,4.52-2.27,6.32-3.98,1.8-1.71,3.19-3.74,4.19-6.1,1-2.36,1.5-4.94,1.5-7.73ZM424.8,168.04c-1,1.82-2.39,3.21-4.17,4.19-1.78.98-3.87,1.47-6.26,1.47h-7.08v-24.24h7.08c2.36,0,4.43.49,6.21,1.47,1.78.98,3.18,2.37,4.19,4.17,1.02,1.8,1.52,3.93,1.52,6.4s-.5,4.72-1.5,6.54Z"/>
    <path d="M462.95,176.81l-4.36-4.36c-.8.91-1.73,1.59-2.8,2.04-1.07.45-2.28.68-3.62.68-1.42,0-2.67-.32-3.76-.95-1.09-.64-1.93-1.52-2.51-2.64-.21-.4-.37-.85-.5-1.32l19.07-.05c.14-.65.24-1.23.3-1.74.05-.51.08-1.02.08-1.52,0-2.54-.56-4.8-1.69-6.78-1.13-1.98-2.68-3.54-4.66-4.68-1.98-1.14-4.24-1.71-6.78-1.71s-5.04.61-7.16,1.82c-2.12,1.22-3.81,2.86-5.06,4.93-1.25,2.07-1.88,4.41-1.88,7.02s.64,5.07,1.91,7.16c1.27,2.09,3,3.72,5.2,4.9,2.2,1.18,4.71,1.77,7.54,1.77,2.18,0,4.18-.38,6.02-1.14,1.83-.76,3.39-1.91,4.66-3.43ZM445.85,163.49c.54-1.11,1.32-1.97,2.31-2.59,1-.62,2.19-.93,3.57-.93,1.27,0,2.35.27,3.24.82.89.54,1.57,1.33,2.04,2.34.21.46.37.97.5,1.53l-12.11.03c.12-.43.26-.84.45-1.22Z"/>
    <path d="M476.73,178.79c.65.57,1.38,1.06,2.21,1.45,1.51.73,3.19,1.09,5.04,1.09,2.47,0,4.67-.6,6.62-1.8,1.94-1.2,3.47-2.83,4.57-4.9,1.11-2.07,1.66-4.39,1.66-6.97s-.56-5.05-1.69-7.11c-1.13-2.05-2.65-3.68-4.57-4.9-1.93-1.22-4.12-1.82-6.59-1.82-1.85,0-3.53.38-5.04,1.14-.78.39-1.47.86-2.1,1.41v-2.01h-7.79v37.52h7.68v-13.11ZM477.14,164.15c.53-1,1.27-1.79,2.23-2.37.96-.58,2.04-.87,3.24-.87s2.32.29,3.27.87c.94.58,1.69,1.37,2.23,2.37.54,1,.82,2.15.82,3.46s-.27,2.41-.82,3.43c-.54,1.02-1.29,1.81-2.23,2.37-.94.56-2.05.84-3.32.84-1.2,0-2.28-.28-3.24-.84-.96-.56-1.7-1.34-2.21-2.34-.51-1-.76-2.15-.76-3.46s.26-2.46.79-3.46Z"/>
    <path d="M519.7,178.46v2.33h7.62v-26.41h-7.62v2.38c-.72-.74-1.54-1.36-2.51-1.84-1.45-.73-3.09-1.09-4.9-1.09-2.43,0-4.61.6-6.54,1.8-1.93,1.2-3.43,2.84-4.52,4.93-1.09,2.09-1.63,4.46-1.63,7.11s.55,4.9,1.63,6.97c1.09,2.07,2.59,3.7,4.49,4.9,1.91,1.2,4.08,1.8,6.51,1.8,1.82,0,3.47-.36,4.96-1.09.97-.47,1.79-1.07,2.51-1.78ZM510.52,173.41c-.96-.56-1.71-1.35-2.23-2.37-.53-1.02-.79-2.16-.79-3.43s.27-2.47.82-3.49c.54-1.02,1.29-1.81,2.23-2.37.94-.56,2.02-.84,3.21-.84,1.27,0,2.38.28,3.32.84.94.56,1.68,1.34,2.21,2.34.53,1,.79,2.17.79,3.51,0,1.96-.59,3.56-1.77,4.79-1.18,1.23-2.7,1.85-4.55,1.85-1.2,0-2.28-.28-3.24-.84Z"/>
    <path d="M551.36,154.45c-1-.42-2.13-.63-3.4-.63-2.91,0-5.16.9-6.75,2.7v-2.15h-7.79v26.41h7.79v-14.49c0-1.85.44-3.23,1.31-4.14.87-.91,2.03-1.36,3.49-1.36.69,0,1.32.1,1.88.3.56.2,1.04.54,1.44,1.01l4.68-5.72c-.76-.87-1.64-1.52-2.64-1.93Z"/>
    <polygon points="568.93 180.79 568.93 161.07 574.97 161.07 574.97 154.37 568.93 154.37 568.93 143.48 561.14 143.48 561.14 154.37 555.04 154.37 555.04 161.07 561.14 161.07 561.14 180.79 568.93 180.79"/>
    <path d="M615.49,155.08c-1.56-.83-3.34-1.25-5.34-1.25s-3.81.44-5.45,1.31c-1.19.63-2.2,1.46-3.05,2.48-.79-1.06-1.75-1.92-2.91-2.56-1.47-.82-3.13-1.23-4.98-1.23s-3.67.42-5.23,1.25c-.73.39-1.38.86-1.96,1.39v-2.1h-7.79v26.41h7.79v-15.47c0-.98.2-1.81.6-2.48.4-.67.94-1.19,1.63-1.55.69-.36,1.49-.55,2.4-.55,1.31,0,2.4.4,3.27,1.2.87.8,1.31,1.92,1.31,3.38v15.47h7.79v-15.47c0-.98.2-1.81.6-2.48.4-.67.95-1.19,1.66-1.55.71-.36,1.52-.55,2.42-.55,1.31,0,2.4.4,3.29,1.2.89.8,1.33,1.92,1.33,3.38v15.47h7.73v-16.5c0-2.18-.46-4.05-1.39-5.61s-2.17-2.76-3.73-3.6Z"/>
    <path d="M645.04,180.24c1.83-.76,3.39-1.91,4.66-3.43l-4.36-4.36c-.8.91-1.73,1.59-2.8,2.04-1.07.45-2.28.68-3.62.68-1.42,0-2.67-.32-3.76-.95-1.09-.64-1.93-1.52-2.51-2.64-.21-.4-.37-.85-.5-1.32l19.07-.05c.14-.65.24-1.23.3-1.74.06-.51.08-1.02.08-1.52,0-2.54-.56-4.8-1.69-6.78-1.13-1.98-2.68-3.54-4.66-4.68-1.98-1.14-4.24-1.71-6.78-1.71s-5.04.61-7.16,1.82c-2.12,1.22-3.81,2.86-5.06,4.93-1.25,2.07-1.88,4.41-1.88,7.02s.64,5.07,1.91,7.16c1.27,2.09,3,3.72,5.2,4.9,2.2,1.18,4.71,1.77,7.54,1.77,2.18,0,4.18-.38,6.02-1.14ZM632.59,163.49c.55-1.11,1.32-1.97,2.32-2.59,1-.62,2.19-.93,3.57-.93,1.27,0,2.35.27,3.24.82.89.54,1.57,1.33,2.04,2.34.21.46.37.97.5,1.53l-12.11.03c.12-.43.26-.84.45-1.22Z"/>
    <path d="M665.9,161.37c.74-.42,1.61-.63,2.59-.63,1.42,0,2.58.46,3.49,1.39.91.93,1.36,2.13,1.36,3.62v15.03h7.79v-16.77c0-1.82-.44-3.49-1.31-5.01s-2.06-2.77-3.57-3.73c-1.51-.96-3.24-1.44-5.2-1.44s-3.79.44-5.39,1.31c-.77.42-1.46.93-2.07,1.51v-2.27h-7.79v26.41h7.79v-15.09c0-.98.2-1.84.6-2.59.4-.74.97-1.33,1.72-1.74Z"/>
    <polygon points="698.27 143.48 690.48 143.48 690.48 154.37 684.38 154.37 684.38 161.07 690.48 161.07 690.48 180.79 698.27 180.79 698.27 161.07 704.32 161.07 704.32 154.37 698.27 154.37 698.27 143.48"/>
    <path d="M738.38,155.6c-2.16-1.22-4.58-1.82-7.27-1.82s-5.16.62-7.3,1.85c-2.14,1.23-3.85,2.88-5.12,4.93-1.27,2.05-1.91,4.37-1.91,6.94s.63,5.02,1.91,7.11c1.27,2.09,2.99,3.74,5.15,4.96,2.16,1.22,4.58,1.82,7.27,1.82s5.17-.61,7.33-1.82c2.16-1.22,3.86-2.88,5.09-4.98,1.23-2.11,1.85-4.47,1.85-7.08s-.63-4.9-1.88-6.97c-1.25-2.07-2.96-3.71-5.12-4.93ZM736.72,171.04c-.54,1.02-1.3,1.81-2.26,2.37-.96.56-2.08.84-3.35.84s-2.34-.28-3.32-.84c-.98-.56-1.73-1.35-2.26-2.37-.53-1.02-.79-2.18-.79-3.49s.26-2.4.79-3.4c.53-1,1.28-1.78,2.26-2.34.98-.56,2.09-.84,3.32-.84s2.38.27,3.32.82c.94.54,1.7,1.33,2.26,2.34.56,1.02.84,2.16.84,3.43s-.27,2.47-.82,3.49Z"/>
    <path d="M753.17,180.79h7.73v-19.72h7.73v-6.7h-7.73v-2.72c0-1.23.34-2.2,1.03-2.89.69-.69,1.63-1.04,2.83-1.04.65,0,1.22.11,1.69.33.47.22.89.51,1.25.87l4.9-4.85c-1.02-1.05-2.17-1.88-3.46-2.48-1.29-.6-2.8-.9-4.55-.9-2.36,0-4.39.5-6.1,1.5-1.71,1-3.02,2.32-3.95,3.98-.93,1.65-1.39,3.55-1.39,5.69v2.51h-5.99v6.7h5.99v19.72Z"/>
    <polygon points="405.28 207.74 399.29 207.74 399.29 246.14 407.29 246.14 407.29 230.78 424.5 230.78 424.5 223.81 407.29 223.81 407.29 214.77 425.43 214.77 425.43 207.74 407.29 207.74 405.28 207.74"/>
    <rect x="430.33" y="219.72" width="7.73" height="26.41"/>
    <path d="M434.19,207.14c-1.23,0-2.26.42-3.08,1.25-.82.84-1.23,1.87-1.23,3.1s.41,2.22,1.23,3.05c.82.84,1.84,1.25,3.08,1.25s2.31-.42,3.1-1.25c.8-.83,1.2-1.85,1.2-3.05s-.4-2.27-1.2-3.1c-.8-.83-1.83-1.25-3.1-1.25Z"/>
    <rect x="444.16" y="206.65" width="7.79" height="39.48"/>
    <path d="M494.7,220.43c-1.56-.84-3.34-1.25-5.34-1.25s-3.81.44-5.45,1.31c-1.19.63-2.2,1.46-3.05,2.48-.79-1.06-1.75-1.92-2.91-2.56-1.47-.82-3.13-1.22-4.98-1.22s-3.67.42-5.23,1.25c-.73.39-1.38.86-1.96,1.39v-2.1h-7.79v26.41h7.79v-15.47c0-.98.2-1.81.6-2.48.4-.67.94-1.19,1.63-1.55.69-.36,1.49-.54,2.4-.54,1.31,0,2.4.4,3.27,1.2.87.8,1.31,1.92,1.31,3.38v15.47h7.79v-15.47c0-.98.2-1.81.6-2.48.4-.67.95-1.19,1.66-1.55.71-.36,1.52-.54,2.42-.54,1.31,0,2.4.4,3.29,1.2.89.8,1.33,1.92,1.33,3.38v15.47h7.73v-16.5c0-2.18-.46-4.05-1.39-5.61-.93-1.56-2.17-2.76-3.73-3.59Z"/>
    <path d="M527.08,220.27c-.38-.65-.57-1.45-.57-2.4s.38-1.82,1.14-2.5c.76-.69,1.72-1.04,2.89-1.04s2.1.28,2.91.84c.82.56,1.61,1.35,2.37,2.37l5.23-4.96c-.58-.94-1.37-1.83-2.37-2.64-1-.82-2.19-1.49-3.57-2.01-1.38-.53-2.92-.79-4.63-.79-2.29,0-4.28.48-5.99,1.44-1.71.96-3.04,2.26-4,3.89-.96,1.63-1.44,3.41-1.44,5.34,0,1.67.32,3.18.95,4.52.36.76.84,1.55,1.42,2.36-1.94,1.06-3.44,2.36-4.5,3.9-1.27,1.85-1.91,3.98-1.91,6.37,0,2.21.54,4.21,1.61,5.99,1.07,1.78,2.58,3.19,4.52,4.22,1.94,1.04,4.24,1.55,6.89,1.55,1.67,0,3.23-.24,4.68-.71s2.75-1.08,3.89-1.82c.52-.34.99-.68,1.41-1.03l2.7,2.97h9.15l-21.13-23.64c-.73-.83-1.28-1.58-1.66-2.23ZM531.79,238.73c-.98.58-2.18.87-3.59.87-1.16,0-2.17-.21-3.02-.63-.85-.42-1.52-1.02-1.99-1.8-.47-.78-.71-1.66-.71-2.64,0-1.31.29-2.41.87-3.32.48-.76,1.19-1.36,2.11-1.84l7.61,8.36c-.38.38-.81.72-1.28,1Z"/>
    <polygon points="593.93 207.74 561.68 207.74 561.68 214.82 573.78 214.82 573.78 246.14 581.78 246.14 581.78 214.82 593.93 214.82 593.93 207.74"/>
    <path d="M613.12,220.84c-1.98-1.14-4.24-1.72-6.78-1.72s-5.04.61-7.16,1.82c-2.12,1.22-3.81,2.86-5.06,4.93-1.25,2.07-1.88,4.41-1.88,7.02s.64,5.07,1.91,7.16c1.27,2.09,3,3.72,5.2,4.9,2.2,1.18,4.71,1.77,7.54,1.77,2.18,0,4.18-.38,6.02-1.14,1.83-.76,3.39-1.91,4.66-3.43l-4.36-4.36c-.8.91-1.73,1.59-2.8,2.04-1.07.45-2.28.68-3.62.68-1.42,0-2.67-.32-3.76-.95-1.09-.63-1.93-1.52-2.51-2.64-.21-.4-.37-.85-.5-1.32l19.07-.05c.14-.65.24-1.23.3-1.74.05-.51.08-1.02.08-1.52,0-2.54-.56-4.8-1.69-6.78-1.13-1.98-2.68-3.54-4.66-4.68ZM600.01,230.06c.12-.43.26-.84.45-1.22.54-1.11,1.32-1.97,2.31-2.59,1-.62,2.19-.93,3.57-.93,1.27,0,2.35.27,3.24.82.89.55,1.57,1.33,2.04,2.34.21.46.37.97.5,1.54l-12.11.03Z"/>
    <rect x="623.66" y="206.65" width="7.79" height="39.48"/>
    <path d="M656.58,220.84c-1.98-1.14-4.24-1.72-6.78-1.72s-5.04.61-7.16,1.82c-2.12,1.22-3.81,2.86-5.06,4.93-1.25,2.07-1.88,4.41-1.88,7.02s.63,5.07,1.91,7.16c1.27,2.09,3,3.72,5.2,4.9,2.2,1.18,4.71,1.77,7.54,1.77,2.18,0,4.18-.38,6.02-1.14,1.83-.76,3.39-1.91,4.66-3.43l-4.36-4.36c-.8.91-1.73,1.59-2.8,2.04-1.07.45-2.28.68-3.62.68-1.42,0-2.67-.32-3.76-.95-1.09-.63-1.92-1.52-2.5-2.64-.21-.4-.37-.85-.5-1.32l19.07-.05c.14-.65.24-1.23.3-1.74.05-.51.08-1.02.08-1.52,0-2.54-.56-4.8-1.69-6.78-1.13-1.98-2.68-3.54-4.66-4.68ZM643.47,230.06c.12-.43.26-.84.45-1.22.54-1.11,1.32-1.97,2.31-2.59,1-.62,2.19-.93,3.57-.93,1.27,0,2.35.27,3.24.82.89.55,1.57,1.33,2.04,2.34.21.46.37.97.5,1.54l-12.11.03Z"/>
    <polygon points="678.6 236.24 672.57 219.72 664.12 219.72 675.56 246.14 681.5 246.14 692.82 219.72 684.6 219.72 678.6 236.24"/>
    <path d="M699.85,207.14c-1.23,0-2.26.42-3.08,1.25-.82.84-1.23,1.87-1.23,3.1s.41,2.22,1.23,3.05c.82.84,1.84,1.25,3.08,1.25s2.31-.42,3.11-1.25c.8-.83,1.2-1.85,1.2-3.05s-.4-2.27-1.2-3.1c-.8-.83-1.83-1.25-3.11-1.25Z"/>
    <rect x="695.98" y="219.72" width="7.73" height="26.41"/>
    <path d="M717.49,225.93c.51-.29,1.27-.44,2.29-.44s2.09.21,3.11.63c1.01.42,1.92,1.12,2.72,2.1l4.52-4.57c-1.16-1.52-2.67-2.68-4.52-3.46-1.85-.78-3.87-1.17-6.04-1.17s-3.99.35-5.53,1.06c-1.54.71-2.74,1.69-3.59,2.94-.85,1.25-1.28,2.73-1.28,4.44,0,1.6.32,2.9.95,3.89.63,1,1.45,1.8,2.45,2.4,1,.6,2.04,1.06,3.13,1.39,1.09.33,2.13.63,3.13.9,1,.27,1.81.59,2.45.95.63.36.95.89.95,1.58,0,.58-.28,1.03-.84,1.33-.56.31-1.39.46-2.48.46-1.38,0-2.67-.25-3.87-.76-1.2-.51-2.25-1.27-3.16-2.29l-4.52,4.57c.91,1.02,1.98,1.89,3.21,2.61,1.23.73,2.59,1.29,4.06,1.69,1.47.4,2.99.6,4.55.6,3.23,0,5.79-.75,7.68-2.26,1.89-1.51,2.83-3.57,2.83-6.18,0-1.63-.31-2.96-.93-3.98-.62-1.02-1.43-1.84-2.42-2.48-1-.63-2.04-1.12-3.13-1.47-1.09-.35-2.13-.64-3.13-.9-1-.25-1.81-.56-2.42-.93-.62-.36-.93-.82-.93-1.36,0-.58.25-1.02.76-1.31Z"/>
    <rect x="734.38" y="219.72" width="7.73" height="26.41"/>
    <path d="M738.24,207.14c-1.23,0-2.26.42-3.08,1.25-.82.84-1.23,1.87-1.23,3.1s.41,2.22,1.23,3.05c.82.84,1.84,1.25,3.08,1.25s2.31-.42,3.11-1.25c.8-.83,1.2-1.85,1.2-3.05s-.4-2.27-1.2-3.1c-.8-.83-1.83-1.25-3.11-1.25Z"/>
    <path d="M768.01,220.95c-2.16-1.22-4.58-1.82-7.27-1.82s-5.16.62-7.3,1.85c-2.14,1.23-3.85,2.88-5.12,4.93-1.27,2.05-1.91,4.37-1.91,6.94s.64,5.02,1.91,7.11c1.27,2.09,2.99,3.74,5.15,4.96,2.16,1.22,4.58,1.83,7.27,1.83s5.16-.61,7.32-1.83c2.16-1.22,3.86-2.88,5.09-4.98,1.23-2.11,1.85-4.47,1.85-7.08s-.63-4.9-1.88-6.97c-1.25-2.07-2.96-3.71-5.12-4.93ZM766.35,236.39c-.55,1.02-1.3,1.81-2.26,2.37-.96.56-2.08.84-3.35.84s-2.34-.28-3.32-.84c-.98-.56-1.73-1.35-2.26-2.37-.53-1.02-.79-2.18-.79-3.49s.26-2.4.79-3.4c.53-1,1.28-1.78,2.26-2.34.98-.56,2.09-.84,3.32-.84s2.38.27,3.32.82c.94.54,1.7,1.33,2.26,2.34.56,1.02.84,2.16.84,3.43s-.27,2.47-.82,3.49Z"/>
    <path d="M799.81,220.62c-1.51-.96-3.24-1.44-5.2-1.44s-3.79.44-5.39,1.31c-.77.42-1.46.93-2.07,1.51v-2.27h-7.79v26.41h7.79v-15.09c0-.98.2-1.84.6-2.59.4-.74.97-1.33,1.72-1.74.74-.42,1.61-.63,2.59-.63,1.42,0,2.58.46,3.49,1.39.91.93,1.36,2.13,1.36,3.62v15.03h7.79v-16.77c0-1.82-.44-3.49-1.31-5.01s-2.06-2.77-3.57-3.73Z"/>
    <polygon points="851.03 207.74 818.79 207.74 818.79 214.82 830.88 214.82 830.88 246.14 838.89 246.14 838.89 214.82 851.03 214.82 851.03 207.74"/>
    <path d="M870.23,220.84c-1.98-1.14-4.24-1.72-6.78-1.72s-5.04.61-7.16,1.82c-2.12,1.22-3.81,2.86-5.06,4.93-1.25,2.07-1.88,4.41-1.88,7.02s.64,5.07,1.91,7.16c1.27,2.09,3,3.72,5.2,4.9,2.2,1.18,4.71,1.77,7.54,1.77,2.18,0,4.18-.38,6.02-1.14,1.83-.76,3.38-1.91,4.66-3.43l-4.36-4.36c-.8.91-1.73,1.59-2.8,2.04-1.07.45-2.28.68-3.62.68-1.42,0-2.67-.32-3.76-.95-1.09-.63-1.93-1.52-2.51-2.64-.21-.4-.37-.85-.5-1.32l19.07-.05c.15-.65.25-1.23.3-1.74.05-.51.08-1.02.08-1.52,0-2.54-.56-4.8-1.69-6.78-1.13-1.98-2.68-3.54-4.66-4.68ZM857.12,230.06c.12-.43.26-.84.45-1.22.54-1.11,1.32-1.97,2.31-2.59,1-.62,2.19-.93,3.57-.93,1.27,0,2.35.27,3.24.82.89.55,1.57,1.33,2.04,2.34.21.46.37.97.5,1.54l-12.11.03Z"/>
    <path d="M896.48,239c-.89.4-1.9.6-3.02.6-1.23,0-2.35-.28-3.35-.84-1-.56-1.78-1.35-2.34-2.37-.56-1.02-.84-2.18-.84-3.49s.28-2.46.84-3.46c.56-1,1.33-1.77,2.32-2.31.98-.55,2.11-.82,3.38-.82,1.09,0,2.08.18,2.97.55.89.36,1.66.91,2.31,1.63l4.96-5.01c-1.31-1.42-2.82-2.5-4.55-3.24-1.72-.74-3.62-1.12-5.69-1.12-2.76,0-5.23.61-7.41,1.82-2.18,1.22-3.9,2.86-5.17,4.93-1.27,2.07-1.91,4.43-1.91,7.08s.64,4.92,1.91,7.02c1.27,2.11,2.99,3.76,5.15,4.96,2.16,1.2,4.6,1.8,7.32,1.8,2.14,0,4.09-.38,5.83-1.14,1.74-.76,3.29-1.87,4.63-3.32l-4.96-5.01c-.69.76-1.48,1.34-2.37,1.74Z"/>
    <path d="M928.06,220.49c-1.54-.87-3.33-1.31-5.36-1.31s-3.78.44-5.34,1.31c-.71.4-1.34.87-1.91,1.41v-15.24h-7.79v39.48h7.79v-15.09c0-.98.2-1.84.6-2.59.4-.74.97-1.33,1.71-1.74.74-.42,1.61-.63,2.59-.63,1.42,0,2.58.46,3.49,1.39.91.93,1.36,2.13,1.36,3.62v15.03h7.79v-16.77c0-2.03-.44-3.8-1.31-5.31-.87-1.51-2.08-2.7-3.62-3.57Z"/>
    <path d="M959,220.62c-1.51-.96-3.24-1.44-5.2-1.44s-3.79.44-5.39,1.31c-.77.42-1.46.93-2.07,1.51v-2.27h-7.79v26.41h7.79v-15.09c0-.98.2-1.84.6-2.59.4-.74.97-1.33,1.71-1.74.74-.42,1.61-.63,2.59-.63,1.42,0,2.58.46,3.49,1.39.91.93,1.36,2.13,1.36,3.62v15.03h7.79v-16.77c0-1.82-.44-3.49-1.31-5.01-.87-1.52-2.06-2.77-3.57-3.73Z"/>
    <path d="M989.22,220.95c-2.16-1.22-4.58-1.82-7.27-1.82s-5.16.62-7.3,1.85c-2.14,1.23-3.85,2.88-5.12,4.93-1.27,2.05-1.91,4.37-1.91,6.94s.64,5.02,1.91,7.11c1.27,2.09,2.99,3.74,5.15,4.96,2.16,1.22,4.58,1.83,7.27,1.83s5.16-.61,7.32-1.83c2.16-1.22,3.86-2.88,5.09-4.98,1.23-2.11,1.85-4.47,1.85-7.08s-.63-4.9-1.88-6.97c-1.25-2.07-2.96-3.71-5.12-4.93ZM987.56,236.39c-.54,1.02-1.3,1.81-2.26,2.37-.96.56-2.08.84-3.35.84s-2.34-.28-3.32-.84c-.98-.56-1.73-1.35-2.26-2.37-.53-1.02-.79-2.18-.79-3.49s.26-2.4.79-3.4c.53-1,1.28-1.78,2.26-2.34.98-.56,2.09-.84,3.32-.84s2.38.27,3.32.82c.94.54,1.7,1.33,2.26,2.34.56,1.02.84,2.16.84,3.43s-.27,2.47-.82,3.49Z"/>
    <rect x="1000.58" y="206.65" width="7.79" height="39.48"/>
    <path d="M1034.2,220.95c-2.16-1.22-4.58-1.82-7.27-1.82s-5.16.62-7.3,1.85c-2.14,1.23-3.85,2.88-5.12,4.93-1.27,2.05-1.91,4.37-1.91,6.94s.64,5.02,1.91,7.11c1.27,2.09,2.99,3.74,5.15,4.96,2.16,1.22,4.58,1.83,7.27,1.83s5.16-.61,7.32-1.83c2.16-1.22,3.86-2.88,5.09-4.98,1.23-2.11,1.85-4.47,1.85-7.08s-.63-4.9-1.88-6.97c-1.25-2.07-2.96-3.71-5.12-4.93ZM1032.54,236.39c-.54,1.02-1.3,1.81-2.26,2.37-.96.56-2.08.84-3.35.84s-2.34-.28-3.32-.84c-.98-.56-1.73-1.35-2.26-2.37-.53-1.02-.79-2.18-.79-3.49s.26-2.4.79-3.4c.53-1,1.28-1.78,2.26-2.34.98-.56,2.09-.84,3.32-.84s2.38.27,3.32.82c.94.54,1.7,1.33,2.26,2.34.56,1.02.84,2.16.84,3.43s-.27,2.47-.82,3.49Z"/>
    <path d="M1063.48,221.68c-.62-.55-1.32-1.02-2.12-1.41-1.49-.73-3.16-1.09-5.01-1.09-2.43,0-4.59.58-6.48,1.74-1.89,1.16-3.37,2.72-4.44,4.68-1.07,1.96-1.61,4.18-1.61,6.64s.54,4.69,1.63,6.67c1.09,1.98,2.57,3.55,4.44,4.71,1.87,1.16,4,1.74,6.4,1.74,1.85,0,3.52-.36,5.01-1.09.8-.39,1.5-.87,2.12-1.41v1.96c0,1.92-.63,3.42-1.88,4.49-1.25,1.07-2.93,1.61-5.04,1.61-1.74,0-3.22-.31-4.44-.93-1.22-.62-2.3-1.51-3.24-2.67l-4.85,4.85c1.27,1.82,2.99,3.23,5.15,4.25,2.16,1.02,4.67,1.52,7.54,1.52s5.34-.56,7.52-1.69c2.18-1.13,3.89-2.68,5.15-4.66,1.25-1.98,1.88-4.29,1.88-6.94v-24.94h-7.73v1.96ZM1063.12,235.44c-.49.93-1.2,1.66-2.12,2.21-.93.55-1.99.82-3.19.82s-2.31-.27-3.21-.82c-.91-.54-1.62-1.29-2.12-2.23-.51-.94-.76-2-.76-3.16s.25-2.21.73-3.13c.49-.93,1.21-1.66,2.15-2.21.94-.54,2.01-.82,3.21-.82s2.31.27,3.21.82c.91.55,1.61,1.28,2.1,2.21.49.93.73,1.99.73,3.19s-.24,2.21-.73,3.13Z"/>
    <polygon points="1094.3 219.72 1088.47 236.14 1082.81 219.72 1074.48 219.72 1084.52 244.1 1078.34 257.25 1086.46 257.25 1091.14 246.3 1102.69 219.72 1094.3 219.72"/>
  </g>
  <g>
    <path d="M249.38,256.37c-1.65.66-4.64,7.7-6.83,12.83-2.26,5.31-4.92,11.56-8.44,17.62,1.73,3.5,3.67,6.26,5.86,7.98,5.1-5.71,9.51-16.83,12.97-25.58.93-2.36,1.81-4.56,2.65-6.59-2.24-3.75-4.48-6.53-6.21-6.26Z"/>
    <path d="M271.85,269.7c-1.17-4.46-2.85-10.81-4.22-13.65-1.02,1.28-2.23,3.66-3.47,6.39,1.42,2.66,2.8,5.52,4.2,8.42,2.62,5.43,5.61,11.63,8.64,15.66-2.01-4.92-3.59-10.91-5.15-16.82Z"/>
    <path d="M261.46,273.96c-.36-.74-.73-1.52-1.12-2.31-.08.21-.16.42-.24.62-3.31,8.35-6.86,17.32-11.38,23.94l23.5-3.65c-4.07-4.74-7.44-11.73-10.75-18.59Z"/>
    <path d="M161.46,309.95c13.25-2.09,18.63-41.7,22.57-70.63,4.44-32.67,7.19-49.78,16.43-51.23,2.33-.37,4.61.21,6.61,1.66,7.13,5.17,10.15,21.01,14.49,46.42,2.32,13.62,4.98,29.2,8.82,41.16,1.92-3.88,3.58-7.77,5.09-11.33,4.03-9.47,6.94-16.32,12.44-17.18,4.53-.71,8.17,1.74,11.39,5.87,2.25-4.06,4.6-6.56,7.65-7.04,6.68-1.05,9.04,7.94,12.32,20.38,1.59,6.02,3.23,12.25,5.23,16.81,1.94,4.41,3.35,5.24,3.73,5.16l47.54-7.31v-120.67l-5.92-7.9-204.5-29.93-7.77,5.55v187.63l43.87-7.42Z"/>
    <path d="M227.6,296.28c1.71,1.54,3.34,2.35,5.42,2.31-1.28-1.35-2.46-2.92-3.57-4.68-.6.8-1.21,1.59-1.85,2.36Z"/>
    <path d="M204.59,289.56c-5.31.84-7.33,4.04-10.37,8.88-1.42,2.26-2.95,4.69-4.96,7.04,4.34-.63,7.88-1.16,11.65-1.75,6.53-1.03,11.83-3.9,16.23-7.8-3.93-4.59-6.88-7.27-12.55-6.37Z"/>
    <path d="M247.92,304.12c-2.27.36-4.45.25-6.53-.3-1.74,1.13-3.61,1.91-5.62,2.23-5.89.93-10.06-1.34-13.36-4.35-5.31,4.74-11.84,8.3-20.03,9.59-4.73.75-9.06,1.38-15.06,2.25-11.06,1.61-35.58,6.23-69.74,11.67v43.57l10.03,7.02,201.65-44.58,1.57-.35,4.94-7.91v-32.51l-87.85,13.64Z"/>
    <path d="M222.32,290.42c1.12-1.41,2.16-2.88,3.15-4.39-5.36-12.95-8.46-31.11-11.49-48.87-3.02-17.71-6.45-37.78-11.28-41.29-.37-.27-.56-.27-.78-.23-.07.03-2.46.98-5.19,13.06-1.92,8.52-3.47,19.88-5.1,31.92-3.4,24.97-6.87,50.52-14.77,65.03,5.52-3.07,8.19-7.31,10.8-11.46,3.35-5.33,6.82-10.85,15.44-12.2,9.57-1.5,15.15,3.75,19.21,8.42Z"/>
  </g>
</svg>