<?xml version="1.0" encoding="UTF-8"?>
<svg id="_图层_1" data-name="图层 1" xmlns="http://www.w3.org/2000/svg" width="1300" height="500" viewBox="0 0 1300 500">
  <defs>
    <style>
      .cls-1 {
        fill: #fff;
      }
    </style>
  </defs>
  <g>
    <path class="cls-1" d="M407.22,247.15l3.05,10.9h7.85c4.29,0,7.38-1.05,9.27-3.16,1.89-2.11,2.83-5.23,2.83-9.38v-12.21h18.64v-22.24h-51.78v22.24h6.21c-2.98,5.16-7.49,9.88-13.52,14.17l7.74,8.94c3.49-2.62,6.72-5.71,9.7-9.27ZM410.27,220.22h25.51v4.03h-25.51v-4.03ZM417.35,233.3v12.75h-9.27c2.03-2.62,3.74-5.16,5.12-7.63l-9.59-5.12h13.74Z"/>
    <path class="cls-1" d="M482.87,215.75c-9.45,12.57-20.39,22.31-32.81,29.22-2.62-3.71-5.67-7.41-9.16-11.12l-9.7,5.56c3.71,4.73,7.3,9.99,10.79,15.81l5.89-3.92,6.1,8.29c7.85-4.07,15.21-9.29,22.08-15.64,6.87-6.36,12.92-13.35,18.15-20.99l-11.34-7.2Z"/>
    <path class="cls-1" d="M489.31,165.49l-10.79-7.85c-3.56,5.23-7.65,9.92-12.26,14.06-4.62,4.14-9.94,8.03-15.97,11.67l8.07,11.88c12.21-7.7,22.53-17.62,30.96-29.76Z"/>
    <path class="cls-1" d="M453.33,197.22h-23.33c-.73-1.6-1.31-2.8-1.74-3.6h20.6v-33.47h-51.78v33.47h17.33l1.96,3.6h-24.42v10.47h61.38v-10.47ZM409.4,169.42h27.15v3.16h-27.15v-3.16ZM409.4,184.46v-3.27h27.15v3.27h-27.15Z"/>
    <path class="cls-1" d="M467.39,201.25c-5.23,4.87-10.94,9.09-17.12,12.65l8.18,11.99c12.65-8.21,23.8-19.22,33.47-33.03l-10.79-7.41c-3.92,5.67-8.5,10.94-13.74,15.81Z"/>
    <polygon class="cls-1" points="563.87 172.36 593.64 172.36 593.64 225.67 606.28 225.67 606.28 160.92 551.56 160.92 551.56 225.67 563.87 225.67 563.87 172.36"/>
    <path class="cls-1" d="M599.2,257.29c4.29,0,7.29-.87,8.99-2.62,1.71-1.74,2.56-4.91,2.56-9.48v-9.7l-10.68-3.6v13.63h-6.98c-.8,0-1.36-.16-1.69-.49-.33-.33-.49-.89-.49-1.69v-23.77h-8.72c1.53-6.11,2.29-13.45,2.29-22.02v-18.53h-11.99v19.08c0,9.16-1.02,16.64-3.05,22.46-2.04,5.82-5.2,10.7-9.48,14.66-4.29,3.96-10.29,7.94-17.99,11.94l6.32,11.88c8.07-4.36,14.61-9.01,19.62-13.96,5.01-4.94,8.83-10.5,11.45-16.68v16.68c0,4.51.93,7.67,2.78,9.49,1.85,1.82,5.07,2.73,9.65,2.73h7.41Z"/>
    <path class="cls-1" d="M506.97,220.11l4.91,12.54c3.78-3.12,7.16-6.39,10.14-9.81v35.87h11.88v-41.21c0-.58.07-.87.22-.87s.33.18.55.54l8.07,13.85,8.39-7.96-8.72-14.06c-.87-1.38-1.82-2.07-2.83-2.07-.65,0-1.45.37-2.4,1.09l-2.62,1.96-.65-1.09c2.76-3.92,5.29-8.21,7.58-12.86,2.29-4.65,3.91-9.16,4.85-13.52v-9.7h-15.15l6.1-2.83c-2.69-5.09-5.56-9.56-8.61-13.41l-10.14,5.45c2.83,3.56,5.27,7.16,7.3,10.79h-16.13v11.45h23.98c-1.89,6.11-5.03,12.32-9.43,18.64-4.4,6.32-10.16,12.07-17.28,17.22Z"/>
    <path class="cls-1" d="M625.25,212.7l1.85,12.65c4.07-.8,8.1-1.67,12.1-2.62v22.24h-11.99l3.6,13.08h8.39c4.65,0,7.85-.89,9.59-2.67,1.74-1.78,2.62-4.96,2.62-9.54v-26.49c4.43-1.45,8.1-2.73,11.01-3.82l-1.31-11.88c-4,1.38-7.23,2.4-9.7,3.05v-18.97h9.27v-12.21h-9.27v-17.66h-12.21v17.66h-12.65v12.21h12.65v22.13c-5.16,1.16-9.81,2.11-13.95,2.83Z"/>
    <path class="cls-1" d="M724.57,206.16v-9.38h-23.22v-12.65h25.62v-12.43h-25.62v-13.3h-12.86v13.3h-24.31v12.43h24.31v12.65h-23.66v12.43h14.94l-10.03,5.56c4.21,8.36,9.19,15.55,14.94,21.59-8,4.43-17.95,8.07-29.87,10.9l5.56,12.32c13.74-3.71,25.15-8.47,34.23-14.28,7.78,5.81,17.08,10.57,27.91,14.28l5.78-12.43c-8.79-2.69-16.35-6.14-22.68-10.36,8.72-8.07,15.04-18.28,18.97-30.63ZM695.57,228.72c-5.23-5.09-9.99-11.59-14.28-19.51h28.24c-2.91,7.49-7.56,13.99-13.95,19.51Z"/>
    <path class="cls-1" d="M845.14,235.16c-10.68-7.12-19.46-13.94-26.33-20.44-6.87-6.5-11.83-13.5-14.88-20.99h37.61v-12.86h-16.13l7.09-7.41c-5.23-5.23-11.41-10.07-18.53-14.5l-8.5,8.72c5.96,4.07,11.52,8.47,16.68,13.19h-22.68v-22.46h-13.52v22.46h-40.12v12.86h35.76c-2.98,7.63-7.76,14.74-14.34,21.31-6.58,6.58-14.92,13.28-25.02,20.11l8.61,11.12c7.99-5.74,14.32-10.83,18.97-15.26,4.65-4.43,8.16-8.79,10.52-13.08,2.36-4.29,3.87-9.01,4.52-14.17h1.09v54.95h13.52v-54.95h1.09c.58,5.01,2.2,9.67,4.85,13.95,2.65,4.29,6.43,8.63,11.34,13.03,4.91,4.4,11.5,9.58,19.79,15.54l8.61-11.12Z"/>
    <path class="cls-1" d="M962.23,246.49c-8.5-7.05-17.99-14.21-28.45-21.48l-9.05,9.05c10.47,7.2,19.84,14.65,28.13,22.35l9.38-9.92Z"/>
    <path class="cls-1" d="M894.09,175.31c-3.92,2.91-7.89,5.52-11.88,7.85-4,2.33-7.59,4.03-10.79,5.12l2.62,10.68c8.5-.22,18.39-.73,29.65-1.53-6.61,4-13.16,7.63-19.62,10.9-6.47,3.27-12.1,5.78-16.9,7.52l2.18,10.36c9.59-.44,21.22-1.24,34.89-2.4v22.46h-13.08l3.6,12.1h8.5c5.09,0,8.78-1.11,11.07-3.33,2.29-2.22,3.43-5.83,3.43-10.85v-21.48c12.14-1.16,20.93-2.11,26.38-2.83l4.36,5.56,2.18,2.83,10.14-7.96c-7.85-10.1-15.66-18.57-23.44-25.4l-10.25,7.41c2.54,2.25,5.2,4.76,7.96,7.52l-29,2.73-7.41.65c16.42-7.92,32.23-18.17,47.42-30.74l-10.36-8.5c-4.07,3.85-8.76,7.67-14.06,11.45-8.5.95-17.08,1.64-25.73,2.07,6.39-3.42,13.04-7.92,19.95-13.52,15.33-1.24,28.49-3.09,39.46-5.56l-4.69-10.57c-10.39,2.25-22.91,3.87-37.56,4.85-14.65.98-30.07,1.51-46.28,1.58l2.29,11.56c7.41,0,15.73-.18,24.97-.54Z"/>
    <path class="cls-1" d="M883.41,246.66c4.94-3.67,9.34-7.54,13.19-11.61l-9.7-7.63c-7.41,7.05-16.5,13.01-27.25,17.88l8.07,11.12c5.52-2.83,10.75-6.09,15.7-9.76Z"/>
    <path class="cls-1" d="M431.57,290.18c-2.31-2.19-5-3.89-8.08-5.1-3.07-1.2-6.44-1.8-10.09-1.8h-19.34v48.88h19.48c3.6,0,6.94-.6,10.02-1.8,3.07-1.2,5.75-2.89,8.04-5.06,2.29-2.17,4.07-4.76,5.34-7.76,1.27-3,1.91-6.29,1.91-9.84s-.64-6.76-1.91-9.74c-1.27-2.98-3.06-5.57-5.37-7.77ZM426.54,315.94c-1.27,2.31-3.04,4.09-5.3,5.34-2.27,1.25-4.92,1.87-7.97,1.87h-9.01v-30.85h9.01c3,0,5.64.62,7.9,1.87,2.26,1.25,4.04,3.02,5.34,5.3,1.29,2.29,1.94,5,1.94,8.15s-.64,6.01-1.91,8.32Z"/>
    <path class="cls-1" d="M470.15,299.96c-2.52-1.46-5.4-2.18-8.63-2.18s-6.41.77-9.12,2.32c-2.7,1.55-4.85,3.64-6.45,6.27-1.59,2.63-2.39,5.62-2.39,8.94s.81,6.46,2.43,9.12c1.62,2.66,3.82,4.74,6.62,6.24,2.8,1.5,6,2.25,9.6,2.25,2.77,0,5.33-.49,7.66-1.46,2.33-.97,4.31-2.43,5.93-4.37l-5.55-5.55c-1.02,1.16-2.21,2.02-3.57,2.6-1.36.58-2.9.87-4.61.87-1.8,0-3.4-.4-4.78-1.21-1.39-.81-2.45-1.93-3.19-3.36-.27-.51-.47-1.08-.64-1.67l24.28-.06c.18-.83.31-1.57.38-2.22.07-.65.1-1.29.1-1.94,0-3.23-.72-6.11-2.15-8.63-1.43-2.52-3.41-4.51-5.93-5.96ZM456.98,306.86c1.27-.79,2.78-1.18,4.54-1.18,1.62,0,2.99.35,4.13,1.04,1.13.69,2,1.69,2.6,2.98.27.58.48,1.24.63,1.95l-15.42.04c.16-.54.34-1.07.57-1.55.69-1.41,1.67-2.51,2.95-3.29Z"/>
    <path class="cls-1" d="M511.65,300.17c-2.45-1.55-5.25-2.32-8.39-2.32-2.36,0-4.5.49-6.41,1.46-.99.5-1.88,1.1-2.67,1.79v-2.55h-9.91v47.77h9.78v-16.69c.83.72,1.76,1.35,2.81,1.85,1.92.92,4.06,1.39,6.41,1.39,3.14,0,5.95-.76,8.42-2.29,2.47-1.53,4.41-3.61,5.82-6.24,1.41-2.63,2.11-5.59,2.11-8.88s-.72-6.44-2.15-9.05c-1.43-2.61-3.37-4.69-5.82-6.24ZM508.52,319.75c-.69,1.29-1.64,2.3-2.84,3.02-1.2.72-2.61,1.08-4.23,1.08-1.53,0-2.9-.36-4.12-1.08-1.23-.72-2.16-1.71-2.81-2.98-.65-1.27-.97-2.74-.97-4.4s.33-3.13,1.01-4.4c.67-1.27,1.62-2.28,2.84-3.02,1.22-.74,2.6-1.11,4.12-1.11s2.96.37,4.16,1.11c1.2.74,2.15,1.75,2.84,3.02.69,1.27,1.04,2.74,1.04,4.4s-.35,3.07-1.04,4.37Z"/>
    <polygon class="cls-1" points="540.69 284.67 530.78 284.67 530.78 298.54 523.01 298.54 523.01 307.06 530.78 307.06 530.78 332.16 540.69 332.16 540.69 307.06 548.39 307.06 548.39 298.54 540.69 298.54 540.69 284.67"/>
    <path class="cls-1" d="M560.38,320.72c-1.76,0-3.2.59-4.33,1.77-1.13,1.18-1.7,2.62-1.7,4.33s.57,3.16,1.7,4.33c1.13,1.18,2.58,1.77,4.33,1.77s3.13-.59,4.26-1.77c1.13-1.18,1.7-2.62,1.7-4.33s-.57-3.15-1.7-4.33c-1.13-1.18-2.55-1.77-4.26-1.77Z"/>
    <path class="cls-1" d="M614.43,300.1c-2.75-1.55-5.84-2.32-9.26-2.32s-6.56.79-9.29,2.36c-2.73,1.57-4.9,3.66-6.52,6.27-1.62,2.61-2.43,5.56-2.43,8.84s.81,6.39,2.43,9.05c1.62,2.66,3.8,4.76,6.55,6.31,2.75,1.55,5.83,2.32,9.26,2.32s6.57-.77,9.33-2.32c2.75-1.55,4.91-3.66,6.48-6.34,1.57-2.68,2.36-5.69,2.36-9.01s-.8-6.24-2.39-8.87c-1.59-2.63-3.77-4.73-6.52-6.27ZM612.31,319.75c-.69,1.29-1.65,2.3-2.88,3.02-1.23.72-2.65,1.08-4.26,1.08s-2.98-.36-4.23-1.08c-1.25-.72-2.21-1.72-2.88-3.02-.67-1.29-1.01-2.77-1.01-4.44s.33-3.06,1.01-4.33c.67-1.27,1.63-2.26,2.88-2.98,1.25-.72,2.66-1.07,4.23-1.07s3.03.35,4.23,1.04c1.2.69,2.16,1.69,2.88,2.98.72,1.29,1.07,2.75,1.07,4.37s-.35,3.14-1.04,4.44Z"/>
    <path class="cls-1" d="M645.1,291.39c.88-.88,2.08-1.32,3.61-1.32.83,0,1.55.14,2.15.42.6.28,1.13.65,1.59,1.11l6.24-6.17c-1.29-1.34-2.76-2.39-4.4-3.15-1.64-.76-3.57-1.14-5.79-1.14-3,0-5.59.64-7.77,1.91-2.17,1.27-3.85,2.96-5.03,5.06-1.18,2.1-1.77,4.52-1.77,7.25v3.19h-7.63v8.53h7.63v25.1h9.85v-25.1h9.84v-8.53h-9.84v-3.47c0-1.57.44-2.8,1.32-3.67Z"/>
    <polygon class="cls-1" points="682.47 283.28 674.85 283.28 674.85 332.16 685.04 332.16 685.04 312.61 706.95 312.61 706.95 303.74 685.04 303.74 685.04 292.23 708.13 292.23 708.13 283.28 685.04 283.28 682.47 283.28"/>
    <rect class="cls-1" x="715.06" y="298.54" width="9.85" height="33.63"/>
    <path class="cls-1" d="M719.98,282.52c-1.57,0-2.88.53-3.92,1.59-1.04,1.06-1.56,2.38-1.56,3.95s.52,2.82,1.56,3.88,2.35,1.59,3.92,1.59,2.93-.53,3.95-1.59c1.02-1.06,1.53-2.36,1.53-3.88s-.51-2.89-1.53-3.95c-1.02-1.06-2.33-1.59-3.95-1.59Z"/>
    <rect class="cls-1" x="733.36" y="281.9" width="9.91" height="50.27"/>
    <path class="cls-1" d="M798.39,299.44c-1.99-1.06-4.25-1.59-6.79-1.59s-4.85.55-6.93,1.66c-1.51.81-2.8,1.86-3.89,3.16-1-1.35-2.23-2.44-3.7-3.26-1.87-1.04-3.99-1.56-6.34-1.56s-4.67.53-6.66,1.59c-.93.5-1.75,1.09-2.5,1.77v-2.67h-9.91v33.63h9.91v-19.69c0-1.25.25-2.3.76-3.15.51-.85,1.2-1.51,2.08-1.98.88-.46,1.89-.69,3.05-.69,1.66,0,3.05.51,4.16,1.53s1.66,2.45,1.66,4.3v19.69h9.91v-19.69c0-1.25.25-2.3.76-3.15.51-.85,1.21-1.51,2.11-1.98s1.93-.69,3.09-.69c1.66,0,3.06.51,4.19,1.53,1.13,1.02,1.7,2.45,1.7,4.3v19.69h9.85v-21.01c0-2.77-.59-5.15-1.77-7.14s-2.76-3.51-4.75-4.58Z"/>
    <path class="cls-1" d="M841,299.23c-.49-.83-.73-1.85-.73-3.05s.49-2.31,1.46-3.19,2.19-1.32,3.67-1.32,2.67.36,3.71,1.07c1.04.72,2.04,1.72,3.02,3.02l6.66-6.31c-.74-1.2-1.75-2.32-3.02-3.36-1.27-1.04-2.79-1.9-4.54-2.57-1.76-.67-3.72-1.01-5.89-1.01-2.91,0-5.46.61-7.63,1.84-2.17,1.22-3.87,2.88-5.1,4.96-1.23,2.08-1.84,4.34-1.84,6.79,0,2.13.4,4.04,1.21,5.75.46.96,1.07,1.97,1.81,3-2.47,1.35-4.38,3.01-5.73,4.97-1.62,2.36-2.43,5.06-2.43,8.11,0,2.82.68,5.36,2.04,7.63,1.36,2.27,3.28,4.06,5.75,5.37,2.47,1.32,5.4,1.98,8.77,1.98,2.12,0,4.11-.3,5.96-.9s3.5-1.38,4.96-2.32c.66-.43,1.25-.87,1.8-1.31l3.44,3.77h11.65l-26.9-30.09c-.93-1.06-1.63-2.01-2.12-2.84ZM846.99,322.73c-1.25.74-2.77,1.11-4.58,1.11-1.48,0-2.76-.27-3.85-.8-1.09-.53-1.93-1.29-2.53-2.29-.6-.99-.9-2.11-.9-3.36,0-1.66.37-3.07,1.11-4.23.62-.96,1.52-1.74,2.68-2.35l9.69,10.65c-.48.49-1.03.91-1.63,1.27Z"/>
    <polygon class="cls-1" points="882.98 292.3 898.37 292.3 898.37 332.16 908.56 332.16 908.56 292.3 924.02 292.3 924.02 283.28 882.98 283.28 882.98 292.3"/>
    <polygon class="cls-1" points="950.76 316.93 938.3 283.28 927.42 283.28 946.41 332.16 954.8 332.16 974.15 283.28 963.33 283.28 950.76 316.93"/>
    <polygon class="cls-1" points="1032.52 292.3 1032.52 283.28 991.48 283.28 991.48 292.3 1006.87 292.3 1006.87 332.16 1017.06 332.16 1017.06 292.3 1032.52 292.3"/>
    <path class="cls-1" d="M1057.65,299.96c-2.52-1.46-5.4-2.18-8.63-2.18s-6.41.77-9.12,2.32-4.85,3.64-6.45,6.27-2.39,5.62-2.39,8.94.81,6.46,2.43,9.12c1.62,2.66,3.82,4.74,6.62,6.24,2.8,1.5,6,2.25,9.6,2.25,2.77,0,5.33-.49,7.66-1.46,2.33-.97,4.31-2.43,5.93-4.37l-5.55-5.55c-1.02,1.16-2.21,2.02-3.57,2.6-1.36.58-2.9.87-4.61.87-1.8,0-3.4-.4-4.78-1.21-1.39-.81-2.45-1.93-3.19-3.36-.27-.51-.47-1.08-.64-1.67l24.28-.06c.18-.83.31-1.57.38-2.22.07-.65.1-1.29.1-1.94,0-3.23-.72-6.11-2.15-8.63-1.43-2.52-3.41-4.51-5.93-5.96ZM1044.48,306.86c1.27-.79,2.78-1.18,4.54-1.18,1.62,0,2.99.35,4.12,1.04,1.13.69,2,1.69,2.6,2.98.27.58.48,1.24.63,1.95l-15.42.04c.16-.54.34-1.07.57-1.55.69-1.41,1.67-2.51,2.95-3.29Z"/>
    <path class="cls-1" d="M1091.77,323.08c-1.13.51-2.42.76-3.85.76-1.57,0-2.99-.36-4.26-1.08-1.27-.72-2.26-1.72-2.98-3.02-.72-1.29-1.08-2.77-1.08-4.44s.36-3.13,1.08-4.4c.72-1.27,1.7-2.25,2.95-2.95s2.68-1.04,4.3-1.04c1.39,0,2.65.23,3.78.69,1.13.46,2.11,1.16,2.95,2.08l6.31-6.38c-1.66-1.8-3.59-3.18-5.79-4.12-2.2-.95-4.61-1.42-7.25-1.42-3.51,0-6.66.77-9.43,2.32s-4.97,3.64-6.59,6.27c-1.62,2.63-2.43,5.64-2.43,9.01s.81,6.26,2.43,8.94c1.62,2.68,3.8,4.78,6.55,6.31,2.75,1.53,5.86,2.29,9.33,2.29,2.73,0,5.2-.49,7.42-1.46s4.18-2.38,5.89-4.23l-6.31-6.38c-.88.97-1.88,1.71-3.02,2.22Z"/>
    <path class="cls-1" d="M1132.67,299.51c-1.97-1.11-4.24-1.66-6.83-1.66s-4.81.55-6.79,1.66c-.9.5-1.7,1.11-2.43,1.8v-19.41h-9.91v50.27h9.91v-19.21c0-1.25.25-2.34.76-3.29.51-.95,1.24-1.69,2.18-2.22.95-.53,2.05-.8,3.29-.8,1.8,0,3.28.59,4.44,1.77s1.73,2.72,1.73,4.61v19.14h9.92v-21.35c0-2.59-.55-4.84-1.66-6.76-1.11-1.92-2.65-3.43-4.61-4.54Z"/>
    <path class="cls-1" d="M1157.42,322.49c-1.13-1.18-2.55-1.77-4.26-1.77s-3.2.59-4.33,1.77c-1.13,1.18-1.7,2.62-1.7,4.33s.57,3.16,1.7,4.33c1.13,1.18,2.58,1.77,4.33,1.77s3.13-.59,4.26-1.77c1.13-1.18,1.7-2.62,1.7-4.33s-.57-3.15-1.7-4.33Z"/>
  </g>
  <g>
    <path class="cls-1" d="M256.14,268.78c-1.87,4.68-3.87,9.44-6.23,13.54l12.6-2.06c-2.39-3.36-4.44-7.48-6.37-11.48Z"/>
    <path class="cls-1" d="M247.86,254.71c-1.18,1.47-2.98,5.73-4.34,8.93-1.7,4.01-3.68,8.68-6.25,13.27.87,1.68,1.8,3.08,2.8,4.13,3.36-4.56,6.5-12.5,8.81-18.36.63-1.59,1.22-3.08,1.79-4.49-1.03-1.68-2.02-3-2.81-3.48Z"/>
    <path class="cls-1" d="M179.05,293.59c8.89-2.39,13.26-34.56,15.88-53.92,3.68-27.14,5.81-40.25,14.19-41.58,8.43-1.34,11.73,9.54,12.82,13.11,2.06,6.8,3.62,15.98,5.28,25.69,1.48,8.7,3.31,19.44,5.79,28.38.79-1.77,1.53-3.5,2.23-5.15,3.36-7.92,5.78-13.64,10.96-14.47,3.54-.56,6.4.88,8.89,3.51,1.69-2.51,3.57-4.06,5.99-4.45,3.47-.55,6.22,1.71,8.17,6.71,1.08,2.78,2.03,6.41,3.04,10.26,1.21,4.61,3.66,13.93,5.75,16.03l39.07-6.41v-92.6l-5.32-7.09-161.59-23.65-7.21,5.15v146.2c13.89-2.21,28.12-4.49,36.05-5.74Z"/>
    <path class="cls-1" d="M226.3,277.43c.29-.4.57-.81.85-1.22-4.15-10.45-6.55-24.57-8.8-37.81-1.77-10.43-4.67-27.48-7.74-31.02-2.78,4.17-5.15,21.67-6.75,33.5-2.28,16.86-4.62,34.04-9.24,46.01,1.32-1.5,2.35-3.14,3.4-4.81,2.68-4.29,5.73-9.15,13.19-10.34,7.31-1.16,11.81,2.19,15.1,5.69Z"/>
    <path class="cls-1" d="M279.16,286.8c-.25.04-.49.07-.73.09l-3.13.52c-.49.08-.97.11-1.44.12l-27.37,4.47c-.85.13-1.67.2-2.47.2-.92,0-1.79-.1-2.64-.27-1.36.8-2.82,1.35-4.39,1.6-4.59.73-7.97-.77-10.63-2.89-4.16,3.46-9.21,6.04-15.46,7.04-3.66.58-7.4,1.17-12.35,1.95-3.67.58-8.01,1.26-13.49,2.13-.66.14-1.34.26-2.04.38l-40.01,6.32v33.72l9.04,6.33,160.63-35.51,4.44-7.1v-25.44l-37.95,6.35Z"/>
    <path class="cls-1" d="M212.62,280.62c-3.29.52-4.51,2.29-6.98,6.22-.56.9-1.16,1.86-1.84,2.84,2-.32,3.85-.61,5.67-.9,4.17-.66,7.67-2.38,10.66-4.75-2.39-2.65-4.25-3.93-7.52-3.41Z"/>
    <path class="cls-1" d="M261.4,256.21c-.23.45-.46.95-.7,1.46.88,1.69,1.74,3.46,2.61,5.26-.57-2.17-1.26-4.71-1.91-6.72Z"/>
  </g>
</svg>