<?xml version="1.0" encoding="UTF-8"?>
<svg id="_图层_1" data-name="图层 1" xmlns="http://www.w3.org/2000/svg" width="460" height="440" viewBox="0 0 460 440">
  <defs>
    <style>
      .cls-1 {
        fill: #fff;
      }
    </style>
  </defs>
  <path class="cls-1" d="M246.41,225.3c-1.4.56-3.93,6.51-5.78,10.86-1.91,4.49-4.16,9.78-7.14,14.91,1.47,2.96,3.11,5.3,4.95,6.75,4.31-4.83,8.04-14.24,10.97-21.64.79-1.99,1.53-3.86,2.24-5.58-1.9-3.17-3.79-5.53-5.25-5.29Z"/>
  <path class="cls-1" d="M265.42,236.58c-.99-3.77-2.41-9.15-3.57-11.54-.86,1.08-1.89,3.1-2.93,5.41,1.2,2.25,2.37,4.67,3.55,7.12,2.21,4.59,4.74,9.84,7.31,13.25-1.7-4.16-3.04-9.23-4.36-14.23Z"/>
  <path class="cls-1" d="M256.63,240.19c-.3-.62-.62-1.28-.95-1.96-.07.17-.14.35-.21.52-2.8,7.06-5.81,14.65-9.63,20.25l19.88-3.09c-3.45-4.01-6.3-9.92-9.1-15.73Z"/>
  <path class="cls-1" d="M172.03,270.63c11.21-1.77,15.76-35.28,19.09-59.75,3.76-27.63,6.08-42.11,13.9-43.34,1.97-.31,3.9.18,5.59,1.4,6.04,4.38,8.59,17.77,12.26,39.27,1.96,11.52,4.21,24.7,7.46,34.82,1.62-3.28,3.02-6.57,4.31-9.59,3.41-8.01,5.87-13.8,10.52-14.54,3.83-.6,6.91,1.47,9.64,4.97,1.91-3.43,3.89-5.55,6.48-5.96,5.65-.88,7.65,6.72,10.42,17.24,1.34,5.1,2.73,10.36,4.43,14.22,1.64,3.73,2.84,4.44,3.15,4.37l40.21-6.18v-102.08l-5.01-6.68-172.99-25.32-6.57,4.69v158.72l37.11-6.27Z"/>
  <path class="cls-1" d="M227.99,259.07c1.44,1.3,2.82,1.98,4.59,1.96-1.08-1.15-2.08-2.47-3.02-3.96-.51.68-1.03,1.35-1.57,2Z"/>
  <path class="cls-1" d="M208.52,253.38c-4.49.71-6.2,3.42-8.77,7.51-1.2,1.91-2.5,3.97-4.2,5.96,3.67-.54,6.67-.98,9.86-1.48,5.53-.87,10.01-3.3,13.73-6.6-3.32-3.88-5.82-6.15-10.62-5.39Z"/>
  <path class="cls-1" d="M245.18,265.7c-1.92.3-3.76.21-5.52-.25-1.47.96-3.05,1.62-4.76,1.89-4.98.79-8.51-1.13-11.3-3.68-4.49,4.01-10.02,7.03-16.94,8.12-4,.63-7.67,1.16-12.74,1.9-9.35,1.36-30.1,5.27-58.99,9.88v36.86l8.48,5.94,170.58-37.71,1.33-.29,4.18-6.69v-27.5l-74.31,11.54Z"/>
  <path class="cls-1" d="M223.52,254.11c.94-1.19,1.83-2.44,2.66-3.72-4.53-10.95-7.15-26.31-9.72-41.34-2.56-14.98-5.45-31.96-9.54-34.93-.31-.23-.47-.23-.66-.19-.06.02-2.08.83-4.39,11.05-1.63,7.2-2.93,16.82-4.32,27-2.87,21.12-5.81,42.74-12.49,55.01,4.67-2.6,6.93-6.18,9.14-9.69,2.84-4.51,5.77-9.17,13.06-10.32,8.09-1.27,12.82,3.18,16.25,7.13Z"/>
</svg>