<?xml version="1.0" encoding="UTF-8"?>
<svg id="_图层_1" data-name="图层 1" xmlns="http://www.w3.org/2000/svg" width="460" height="440" viewBox="0 0 460 440">
  <defs>
    <style>
      .cls-1 {
        fill: #fff;
      }
    </style>
  </defs>
  <path class="cls-1" d="M138.63,282.19l-1.18-6.41,34.49-5.04c11.21-1.77,15.77-35.3,19.1-59.79,3.76-27.65,6.09-42.14,13.91-43.37,1.97-.31,3.9.18,5.6,1.4,6.04,4.38,8.59,17.78,12.26,39.29,3.33,19.5,7.46,43.76,15.89,49.87,1.6,1.16,3.24,1.56,5.16,1.25l72.42-11.81,1.28,6.4-72.44,11.81c-3.67.58-7.07-.25-10.12-2.46-10.68-7.74-14.71-31.37-18.61-54.22-2.56-14.99-5.46-31.98-9.55-34.95-.31-.23-.47-.23-.66-.19-.06.02-2.08.83-4.39,11.05-1.63,7.21-2.94,16.83-4.32,27.02-4.18,30.77-8.51,62.6-24.33,65.09l-34.52,5.04Z"/>
  <path class="cls-1" d="M138.66,282.19l-1.25-6.4c30.77-4.85,45.49-6.99,55.24-8.41,5.06-.74,8.71-1.27,12.68-1.89,16.78-2.64,23.99-19.58,29.26-31.95,3.41-8.02,5.88-13.81,10.53-14.55,7.72-1.22,12.39,8.44,17.32,18.67,3.76,7.8,8.43,17.51,12.64,16.83l41.2-6.89,1.31,6.39-41.23,6.89c-9.14,1.43-14.53-9.77-19.76-20.61-2.95-6.11-7.4-15.35-10.23-14.89-1.4.56-3.93,6.52-5.78,10.86-5.5,12.92-13.81,32.45-34,35.63-4,.63-7.67,1.17-12.75,1.9-9.73,1.42-24.44,3.56-55.17,8.4Z"/>
  <path class="cls-1" d="M138.63,282.19l-1.18-6.41,37.7-5.53c12.1-1.91,15.59-7.46,18.97-12.84,2.84-4.51,5.77-9.18,13.07-10.33,9.06-1.42,13.9,4.31,17.43,8.5,3.36,3.98,5.29,6.04,8.96,5.46,6.37-1,11.81-14.74,15.79-24.77,4.17-10.54,6.93-17.5,11.86-18.27,5.66-.89,7.66,6.72,10.43,17.25,1.34,5.1,2.73,10.37,4.43,14.23,1.64,3.74,2.84,4.44,3.16,4.37l37.01-6.24,1.32,6.39-37.05,6.25c-8.59,1.36-11.93-11.32-15.15-23.57-.99-3.78-2.41-9.15-3.57-11.55-1.86,2.34-4.53,9.06-6.38,13.73-5.02,12.68-10.71,27.04-20.59,28.6-7.54,1.19-11.74-3.79-15.12-7.8-3.67-4.34-6.17-6.97-11.28-6.16-4.5.71-6.2,3.42-8.78,7.52-3.73,5.93-8.36,13.3-23.3,15.66l-37.74,5.54Z"/>
  <path class="cls-1" d="M143.29,326.49l-8.49-5.94V118.19l6.58-4.7,173.11,25.33,5.01,6.68v136.26l-4.18,6.69-1.33.29-170.7,37.73ZM141.27,317.18l3.39,2.38,166.59-36.83,1.76-2.81v-132.25l-2.12-2.82-167.88-24.57-1.74,1.24v195.66Z"/>
</svg>