<?xml version="1.0" encoding="UTF-8"?>
<svg id="_图层_1" data-name="图层 1" xmlns="http://www.w3.org/2000/svg" width="460" height="440" viewBox="0 0 460 440">
  <path d="M256.14,238.78c-1.87,4.68-3.87,9.44-6.23,13.54l12.6-2.06c-2.39-3.36-4.44-7.48-6.37-11.48Z"/>
  <path d="M247.86,224.71c-1.18,1.47-2.98,5.73-4.34,8.93-1.7,4.01-3.68,8.68-6.25,13.27.87,1.68,1.8,3.08,2.8,4.13,3.36-4.56,6.5-12.5,8.81-18.36.63-1.59,1.22-3.08,1.79-4.49-1.03-1.68-2.02-3-2.81-3.48Z"/>
  <path d="M179.05,263.59c8.89-2.39,13.26-34.56,15.88-53.92,3.68-27.14,5.81-40.25,14.19-41.58,8.43-1.34,11.73,9.54,12.82,13.11,2.06,6.8,3.62,15.98,5.28,25.69,1.48,8.7,3.31,19.44,5.79,28.38.79-1.77,1.53-3.5,2.23-5.15,3.36-7.92,5.78-13.64,10.96-14.47,3.54-.56,6.4.88,8.89,3.51,1.69-2.51,3.57-4.06,5.99-4.45,3.47-.55,6.22,1.71,8.17,6.71,1.08,2.78,2.03,6.41,3.04,10.26,1.21,4.61,3.66,13.93,5.75,16.03l39.07-6.41v-92.6l-5.32-7.09-161.59-23.65-7.21,5.15v146.2c13.89-2.21,28.12-4.49,36.05-5.74Z"/>
  <path d="M226.3,247.43c.29-.4.57-.81.85-1.22-4.15-10.45-6.55-24.57-8.8-37.81-1.77-10.43-4.67-27.48-7.74-31.02-2.78,4.17-5.15,21.67-6.75,33.5-2.28,16.86-4.62,34.04-9.24,46.01,1.32-1.5,2.35-3.14,3.4-4.81,2.68-4.29,5.73-9.15,13.19-10.34,7.31-1.16,11.81,2.19,15.1,5.69Z"/>
  <path d="M279.16,256.8c-.25.04-.49.07-.73.09l-3.13.52c-.49.08-.97.11-1.44.12l-27.37,4.47c-.85.13-1.67.2-2.47.2-.92,0-1.79-.1-2.64-.27-1.36.8-2.82,1.35-4.39,1.6-4.59.73-7.97-.77-10.63-2.89-4.16,3.46-9.21,6.04-15.46,7.04-3.66.58-7.4,1.17-12.35,1.95-3.67.58-8.01,1.26-13.49,2.13-.66.14-1.34.26-2.04.38l-40.01,6.32v33.72l9.04,6.33,160.63-35.51,4.44-7.1v-25.44l-37.95,6.35Z"/>
  <path d="M212.62,250.62c-3.29.52-4.51,2.29-6.98,6.22-.56.9-1.16,1.86-1.84,2.84,2-.32,3.85-.61,5.67-.9,4.17-.66,7.67-2.38,10.66-4.75-2.39-2.65-4.25-3.93-7.52-3.41Z"/>
  <path d="M261.4,226.21c-.23.45-.46.95-.7,1.46.88,1.69,1.74,3.46,2.61,5.26-.57-2.17-1.26-4.71-1.91-6.72Z"/>
</svg>