<?xml version="1.0" encoding="UTF-8"?>
<svg id="_图层_1" data-name="图层 1" xmlns="http://www.w3.org/2000/svg" width="460" height="440" viewBox="0 0 460 440">
  <defs>
    <style>
      .cls-1 {
        fill: #dd3047;
      }

      .cls-2 {
        fill: #267fe5;
      }

      .cls-3 {
        fill: #75db59;
      }
    </style>
  </defs>
  <g>
    <path class="cls-2" d="M145.62,278.01l-1.4-8.89,34.41-5.42c9.18-1.46,13.64-34.37,16.3-54.03,3.68-27.14,5.81-40.25,14.19-41.58,8.43-1.34,11.73,9.54,12.82,13.11,2.06,6.8,3.62,15.98,5.28,25.69,3.23,19.02,8.15,47.79,17.82,46.22l68.59-11.2,1.45,8.88-68.6,11.2c-.85.13-1.67.2-2.47.2-16.52,0-21.37-28.51-25.66-53.8-1.77-10.43-4.67-27.48-7.74-31.02-2.78,4.17-5.15,21.67-6.75,33.5-3.94,29.1-8.02,59.2-23.81,61.72l-34.42,5.42Z"/>
    <path class="cls-3" d="M145.63,278.01l-1.42-8.89c28.45-4.54,43.09-6.84,52.93-8.39,4.95-.78,8.67-1.37,12.33-1.95,14.6-2.33,21.05-17.54,25.76-28.66,3.36-7.92,5.78-13.64,10.96-14.47,8.18-1.3,12.7,8.08,17.48,18.03,2.51,5.22,7.14,14.85,9.99,14.85.06,0,.13,0,.19-.02l39.77-6.6,1.47,8.88-39.8,6.61c-9.48,1.51-14.93-9.82-19.73-19.82-1.98-4.11-5.56-11.56-7.7-12.87-1.18,1.47-2.98,5.73-4.34,8.93-5.22,12.31-13.1,30.92-32.63,34.03-3.66.58-7.4,1.17-12.35,1.95-9.83,1.55-24.47,3.85-52.91,8.39Z"/>
    <path class="cls-1" d="M145.62,278.01l-1.4-8.89,37.38-5.88c10.46-1.67,13.35-6.28,16.41-11.17,2.68-4.29,5.73-9.15,13.19-10.34,9.17-1.46,13.93,4.19,17.4,8.32,3.13,3.72,4.45,4.99,6.96,4.58,4.96-.79,9.99-13.53,13.31-21.95,4.06-10.29,6.74-17.09,12.21-17.96,3.47-.55,6.22,1.71,8.17,6.71,1.08,2.78,2.03,6.41,3.04,10.26,1.23,4.69,3.74,14.27,5.85,16.15l35.47-5.93,1.48,8.88-35.94,6c-9.19,1.47-12.44-10.88-15.57-22.82-.62-2.35-1.42-5.42-2.19-7.77-1.37,2.73-2.96,6.76-4.15,9.78-4.8,12.16-10.23,25.94-20.27,27.54-7.77,1.23-12.1-3.91-15.26-7.67-3.26-3.87-5.14-5.87-9.1-5.23-3.29.52-4.51,2.29-6.98,6.22-3.43,5.47-8.12,12.97-22.63,15.28l-37.39,5.88Z"/>
  </g>
  <path d="M152.04,318.5l-9.04-6.33V123.13l7.21-5.15,161.59,23.65,5.32,7.09v127.18l-4.44,7.1-160.63,35.51ZM152,307.48l1.96,1.37,153.08-33.84,1.07-1.71v-121.59l-1.29-1.72-154.33-22.58-.49.35v179.72Z"/>
</svg>