<?xml version="1.0" encoding="UTF-8"?>
<svg id="_图层_1" data-name="图层 1" xmlns="http://www.w3.org/2000/svg" width="2658.14" height="500" viewBox="0 0 2658.14 500">
  <defs>
    <style>
      .cls-1 {
        fill: #de3022;
      }

      .cls-2 {
        fill: #267fe5;
      }

      .cls-3 {
        fill: #e32a30;
      }

      .cls-4 {
        fill: #fff;
      }

      .cls-5 {
        fill: #75db59;
      }
    </style>
  </defs>
  <g id="BFA_Logo_Fix" data-name="BFA Logo Fix">
    <g id="Logo">
      <path class="cls-4" d="M312.31,145.93h-91.35l-65.55,207.14h87.26l61.69-42.94c1.95-1.19,3.27-3.34,3.27-5.81s-1.42-4.79-3.51-5.95l-95.96-67.09s-.06-.04-.09-.06l-.15-.1v-.02c-1.44-1.07-2.4-2.77-2.4-4.72,0-2.86,2.04-5.24,4.75-5.76.27-.06.56-.11.84-.11.03,0,.05,0,.08,0h0s66.14,0,66.14,0c0,0,4.11.09,6.18-1.66,2.53-2.14,2.97-4.33,2.97-4.33l20.35-64.6h.03c.78-2.3,2.9-3.95,5.44-3.99M185.47,334.72l-1.86,5.85c-.3.97-1.35,1.76-2.31,1.76h-9.59c-.97,0-1.51-.79-1.2-1.76l1.86-5.85c.31-.97,1.34-1.76,2.31-1.76h9.58c.98,0,1.52.78,1.21,1.76M192.55,312.42l-1.86,5.85c-.31.96-1.35,1.76-2.31,1.76h-9.59c-.97,0-1.5-.8-1.2-1.76l1.86-5.85c.3-.97,1.34-1.76,2.31-1.76h9.58c.98,0,1.51.79,1.2,1.76M199.64,290.12l-1.86,5.84c-.31.97-1.35,1.75-2.32,1.75h-9.58c-.97,0-1.51-.78-1.2-1.75l1.85-5.84c.3-.97,1.34-1.76,2.32-1.76h9.59c.97,0,1.51.78,1.2,1.76M206.72,267.81l-1.86,5.85c-.3.97-1.35,1.75-2.31,1.75h-9.59c-.97,0-1.51-.79-1.2-1.75l1.86-5.85c.31-.96,1.34-1.75,2.31-1.75h9.59c.97,0,1.51.78,1.2,1.75M212.6,243.76c.97,0,1.51.78,1.2,1.76l-1.86,5.84c-.31.97-1.35,1.76-2.32,1.76h-9.59c-.97,0-1.5-.79-1.19-1.76l1.85-5.84c.31-.97,1.34-1.76,2.31-1.76h9.59ZM227.97,200.9l-1.86,5.85c-.3.97-1.34,1.75-2.32,1.75h-9.59c-.97,0-1.5-.78-1.2-1.75l1.86-5.85c.31-.97,1.34-1.75,2.31-1.75h9.59c.97,0,1.51.78,1.2,1.75M235.06,178.61l-1.86,5.84c-.3.97-1.35,1.76-2.32,1.76h-9.58c-.97,0-1.51-.79-1.2-1.76l1.86-5.84c.31-.97,1.34-1.77,2.31-1.77h9.59c.97,0,1.51.8,1.21,1.77M242.14,156.3l-1.85,5.84c-.3.97-1.35,1.75-2.32,1.75h-9.59c-.98,0-1.51-.78-1.2-1.75l1.86-5.84c.3-.97,1.34-1.76,2.31-1.76h9.58c.97,0,1.51.79,1.2,1.76"/>
      <path class="cls-3" d="M403.88,145.94h-91.42c2.61.02,4.79,1.76,5.53,4.13h.03l20.54,64.49s1.48,3.6,3.28,4.67c2.55,1.54,6.03,1.29,6.03,1.29h66.23s.02,0,.02,0c.01,0,.02,0,.03,0,3.24,0,5.87,2.63,5.87,5.87,0,1.96-.98,3.69-2.46,4.76h-.02c-.11.09-.23.16-.34.23l-53.79,37.53s-2.76,1.64-3.84,4.7c-1.27,3.63-.3,6.04-.3,6.04l23.45,73.42h87.13l-65.95-207.14ZM384.22,162.15l-1.85-5.85c-.31-.97.23-1.76,1.19-1.76h9.59c.98,0,2,.79,2.32,1.76l1.85,5.85c.3.97-.22,1.75-1.2,1.75h-9.59c-.97,0-2.01-.78-2.32-1.75M391.3,184.44l-1.85-5.84c-.3-.97.24-1.77,1.21-1.77h9.58c.97,0,2.01.79,2.32,1.77l1.85,5.84c.31.97-.24,1.77-1.2,1.77h-9.58c-.97,0-2.01-.79-2.32-1.77M410.27,208.51h-9.58c-.97,0-2.01-.79-2.32-1.76l-1.85-5.84c-.31-.98.24-1.76,1.2-1.76h9.59c.97,0,2,.78,2.3,1.76l1.85,5.84c.32.97-.22,1.76-1.2,1.76M412.53,251.35l-1.86-5.84c-.3-.98.24-1.76,1.2-1.76h9.59c.97,0,2,.78,2.31,1.76l1.85,5.84c.31.97-.22,1.76-1.2,1.76h-9.58c-.97,0-2.01-.79-2.31-1.76M419.6,273.66l-1.86-5.85c-.3-.97.24-1.75,1.21-1.75h9.58c.97,0,2.01.78,2.31,1.75l1.85,5.85c.31.96-.22,1.76-1.2,1.76h-9.59c-.97,0-2.02-.79-2.31-1.76M426.67,295.96l-1.85-5.84c-.3-.97.23-1.76,1.2-1.76h9.59c.98,0,2.01.79,2.32,1.76l1.85,5.84c.31.97-.23,1.75-1.2,1.75h-9.59c-.97,0-2.01-.78-2.31-1.75M433.74,318.27l-1.86-5.85c-.3-.96.24-1.76,1.22-1.76h9.58c.98,0,2.01.8,2.32,1.76l1.86,5.85c.3.96-.23,1.76-1.2,1.76h-9.59c-.97,0-2-.79-2.32-1.76M452.72,342.32h-9.59c-.97,0-2.01-.79-2.32-1.76l-1.85-5.84c-.31-.97.23-1.76,1.21-1.76h9.59c.96,0,2,.79,2.3,1.76l1.86,5.84c.31.97-.23,1.76-1.19,1.76"/>
    </g>
    <g id="BFA">
      <path class="cls-3" d="M532.52,303.33c.63.21,1.15.69,1.54,1.46.4.76.6,2.11.6,4.04,0,3.59-.24,5.78-.72,6.55-.48.78-1.59,1.16-3.34,1.16-.43,0-1.02.01-1.78.04v-13.57c1.83,0,3.06.11,3.69.31M511.34,353.73h20.28c7.05,0,11.72-.36,14-1.08,2.28-.72,3.93-2.08,4.97-4.08,1.04-2,1.57-5.06,1.57-9.19v-5.66c0-3.99-.72-6.95-2.16-8.88-1.44-1.93-4.19-3.31-8.23-4.14,3.62-.75,6.05-1.83,7.28-3.25,1.23-1.42,1.85-3.92,1.85-7.51,0-5.3-.87-9.15-2.62-11.54-1.75-2.39-4.05-3.97-6.89-4.76-2.84-.78-7.03-1.16-12.55-1.16h-17.49v61.24ZM533.73,327.05c.62.56.93,2.15.93,4.77v5.73c0,2.51-.35,4.08-1.04,4.71-.69.63-2.29.98-4.8,1.07v-17.24c2.64.08,4.28.4,4.9.96"/>
      <polygon class="cls-4" points="559.32 292.5 588.61 292.5 588.61 304.79 576.82 304.79 576.82 316.33 587.85 316.33 587.85 327.99 576.82 327.99 576.82 341.43 589.75 341.43 589.75 353.73 559.32 353.73 559.32 292.5"/>
      <rect class="cls-4" x="595.65" y="292.5" width="17.49" height="61.24"/>
      <path class="cls-4" d="M642.51,292.5v40.92c0,6.13-.07,10.08-.21,11.85-.14,1.76-.78,3.34-1.91,4.74-1.14,1.4-2.67,2.37-4.6,2.91-1.93.54-4.83.81-8.72.81h-8.78v-10.65c1.06.09,1.83.13,2.31.13,1.26,0,2.25-.28,2.98-.83.73-.56,1.15-1.24,1.26-2.05.11-.8.17-2.37.17-4.7v-43.13h17.49Z"/>
      <rect class="cls-4" x="650.2" y="292.5" width="17.49" height="61.24"/>
      <polygon class="cls-4" points="714.69 292.5 714.69 353.73 699.48 353.73 690.35 325.88 690.35 353.73 675.64 353.73 675.64 292.5 690.1 292.5 699.99 320.05 699.99 292.5 714.69 292.5"/>
      <path class="cls-4" d="M762.91,314.93h-17.49v-5.56c0-3.48-.18-5.67-.51-6.55-.34-.89-1.13-1.33-2.39-1.33-1.09,0-1.83.38-2.22,1.13-.39.75-.59,2.69-.59,5.83v29.44c0,2.75.19,4.56.58,5.41.39.86,1.16,1.29,2.33,1.29,1.28,0,2.15-.49,2.61-1.49.46-.99.69-2.91.69-5.76v-7.33h-3.55v-9.26h20.54v32.97h-11l-1.61-4.38c-1.2,1.89-2.7,3.31-4.52,4.24-1.82.94-3.96,1.4-6.44,1.4-2.94,0-5.7-.65-8.27-1.94-2.56-1.29-4.52-2.9-5.85-4.81-1.33-1.92-2.17-3.93-2.5-6.05-.33-2.11-.5-5.28-.5-9.5v-18.21c0-5.87.35-10.12,1.04-12.78.69-2.65,2.68-5.09,5.97-7.3,3.29-2.2,7.54-3.31,12.76-3.31s9.39.96,12.77,2.87c3.38,1.92,5.59,4.19,6.62,6.82,1.03,2.64,1.54,6.46,1.54,11.48v2.66Z"/>
      <polygon class="cls-3" points="802.43 292.5 832.09 292.5 832.09 304.79 819.92 304.79 819.92 316.33 830.7 316.33 830.7 327.99 819.92 327.99 819.92 353.73 802.43 353.73 802.43 292.5"/>
      <rect class="cls-4" x="837.25" y="292.5" width="17.49" height="61.24"/>
      <polygon class="cls-4" points="880.18 292.5 880.18 341.43 890.83 341.43 890.83 353.73 862.69 353.73 862.69 292.5 880.18 292.5"/>
      <path class="cls-4" d="M950.02,292.5v61.24h-15.34l-.06-41.34-6.02,41.34h-10.77l-6.41-40.45-.06,40.45h-15.34v-61.24h22.66c.67,3.63,1.36,7.96,2.06,12.96l2.48,15.64,4.02-28.6h22.79Z"/>
      <path class="cls-3" d="M1004.81,331.8c.52-5.36,1.61-13.94,3.29-25.73.97,10.24,1.86,18.82,2.65,25.73h-5.94ZM994.76,292.5l-8.97,61.24h18.16l.96-11.03h6.38l.96,11.03h17.85l-10.05-61.24h-25.29Z"/>
      <path class="cls-4" d="M1074.99,318.99h-17.49v-10.6c0-3.08-.19-5-.57-5.76-.38-.76-1.22-1.13-2.51-1.13-1.47,0-2.4.46-2.79,1.39-.39.94-.59,2.95-.59,6.06v28.49c0,2.97.2,4.9.59,5.81.4.9,1.29,1.35,2.67,1.35s2.19-.45,2.6-1.36c.41-.91.62-3.07.62-6.46v-7.77h17.49v2.43c0,6.37-.49,10.89-1.48,13.56-.99,2.67-3.17,5.01-6.54,7.01-3.38,2-7.53,2.99-12.48,2.99s-9.37-.84-12.71-2.52c-3.34-1.68-5.54-4.03-6.63-7.02-1.08-3-1.63-7.5-1.63-13.51v-17.93c0-4.41.17-7.73.5-9.94.33-2.21,1.33-4.34,2.98-6.4,1.65-2.06,3.94-3.67,6.88-4.83,2.93-1.16,6.3-1.75,10.1-1.75,5.17,0,9.43.9,12.79,2.72,3.36,1.8,5.57,4.06,6.62,6.75,1.06,2.69,1.59,6.9,1.59,12.62v5.8Z"/>
      <path class="cls-4" d="M1097.13,331.8c.52-5.36,1.61-13.94,3.29-25.73.97,10.24,1.86,18.82,2.65,25.73h-5.94ZM1087.07,292.5l-8.97,61.24h18.16l.96-11.03h6.38l.96,11.03h17.85l-10.05-61.24h-25.29Z"/>
      <path class="cls-4" d="M1147.79,303.56c.7.36,1.15.93,1.34,1.71.19.78.29,2.55.29,5.33v23.82c0,4.08-.29,6.59-.88,7.52-.59.93-2.16,1.39-4.7,1.39v-40.32c1.93,0,3.25.18,3.94.55M1126.36,353.73h22.1c4.19,0,7.32-.2,9.4-.6,2.08-.41,3.83-1.14,5.25-2.19,1.41-1.05,2.4-2.51,2.97-4.37.57-1.86.85-5.53.85-11.03v-21.44c0-5.8-.19-9.69-.58-11.67-.39-1.99-1.36-3.78-2.91-5.39-1.56-1.6-3.83-2.77-6.81-3.48-2.98-.7-8.71-1.06-17.16-1.06h-13.11v61.24Z"/>
      <polygon class="cls-4" points="1174.39 292.5 1203.68 292.5 1203.68 304.79 1191.88 304.79 1191.88 316.33 1202.92 316.33 1202.92 327.99 1191.88 327.99 1191.88 341.43 1204.82 341.43 1204.82 353.73 1174.39 353.73 1174.39 292.5"/>
      <path class="cls-4" d="M1264.72,292.5v61.24h-15.34l-.06-41.34-6.02,41.34h-10.77l-6.41-40.45-.06,40.45h-15.34v-61.24h22.66c.67,3.63,1.36,7.96,2.06,12.96l2.48,15.64,4.03-28.6h22.79Z"/>
      <path class="cls-4" d="M1310.03,292.5l-12.81,39.09v22.15h-16.23v-22.15l-12.3-39.09h16.07c2.42,12.04,3.84,20.11,4.26,24.23,1.04-6.56,2.68-14.63,4.93-24.23h16.07Z"/>
    </g>
    <g>
      <path class="cls-4" d="M614.73,253.62h-13.85c-4.83,0-5.58-1.08-5.58-8.57v-39.22c13.23-6.88,27.23-14.84,39-22.85l-11.58-14.44c-7.38,6.37-17.24,13.89-27.42,20.4v-40.27h-16.73v96.13c0,18.93,4.5,24.57,19.86,24.57h17.93c15.05,0,19.1-9.88,20.63-35.61-4.43-1-11.43-4.2-15.34-7.25-.94,21.57-1.77,27.1-6.93,27.1Z"/>
      <path class="cls-4" d="M544.95,178.13h-31.7v16h31.7v32.36c-13.65,4.86-27.27,9.57-36.43,12.28l7.14,16.51c8.71-3.59,19.02-7.91,29.29-12.36v27.57h16.7v-121.91h-16.7v29.55Z"/>
      <path class="cls-4" d="M730.28,240.39c8.06,8.78,18.2,21.11,22.63,28.76l14.15-9.42c-4.99-7.59-15.65-19.21-23.6-27.5l-13.19,8.15Z"/>
      <path class="cls-4" d="M753.04,225.98v-42.09h-88.85v42.09h36.05v28.89c0,1.69-.64,2.15-2.97,2.18-2.26.03-10.65.06-17.45-.21,2.13,4.33,4.36,10.8,5.07,15.49,10.85.03,18.9-.07,24.74-2.34,6.05-2.34,7.64-6.52,7.64-14.64v-29.39h35.76ZM680.15,197.67h55.85v14.5h-55.85v-14.5Z"/>
      <path class="cls-4" d="M669.27,232.62c-4.75,8.3-14.35,19.27-22.65,26.16,3.33,2.49,8.77,7.02,11.7,10.19,9.01-7.96,19.36-19.93,26.61-30.64l-15.66-5.72Z"/>
      <path class="cls-4" d="M710.91,145.1l-15.78,5.06c1.85,3.43,3.95,7.55,5.72,11.39h-51.92v15.76h118.27v-15.76h-47.25c-2.26-4.86-6.03-11.48-9.05-16.45Z"/>
      <path class="cls-4" d="M893.94,165.73h-42.58v-18.56h-17.22v18.56h-42.55v79.2h16.58v-7.75h25.98v7.15c0,20.52,5.25,26.08,23.72,26.08h25.55c16.33,0,21.35-7.77,23.59-28.85-3.87-.9-9.07-2.95-13.07-5.16v-70.67ZM877.53,181.39v12.96h-26.16v-12.96h26.16ZM877.53,209.09v12.43h-26.16v-12.43h26.16ZM834.15,181.39v12.96h-25.98v-12.96h25.98ZM808.17,221.52v-12.43h25.98v12.43h-25.98ZM881.77,254.2h-22.03c-7.41,0-8.37-1.25-8.37-9.71v-7.31h39.53c-1.09,13.6-2.65,17.02-9.13,17.02Z"/>
      <path class="cls-4" d="M993.47,195.78h-27.87c-.84-2.06-1.94-4.2-3.08-6.06h26.38v-38.62h-64.52v38.62h32.97l-10.66,2.15c.61,1.18,1.24,2.53,1.81,3.91h-30.09v12.25h75.06v-12.25ZM939.51,160.82h33.52v4.97h-33.52v-4.97ZM939.51,174.98h33.52v5h-33.52v-5Z"/>
      <path class="cls-4" d="M1000.98,187.44c12.79-7.95,26.15-19.69,35.39-32.61l-15.18-6.09c-6.93,10.62-20.22,21.36-31.55,27.58,4.02,2.96,8.77,7.71,11.34,11.12Z"/>
      <path class="cls-4" d="M990.03,214.27c3.99,2.99,8.63,7.74,11.07,11.28,13.66-8.39,28.28-20.78,38.14-34.35l-14.66-6.09c-7.58,11.24-22.28,22.6-34.55,29.16Z"/>
      <path class="cls-4" d="M930.35,240.7c-2.79,6.62-7.35,13.78-12.08,18.75,3.05,2.02,8.41,6.15,10.85,8.45,5.09-5.73,10.94-15.11,14.49-23.25l-13.26-3.96Z"/>
      <path class="cls-4" d="M987.31,258.28c-2.54-5.42-6.6-12.35-10.08-17.77l-11.23,4.87c4.17,6.89,8.85,16.18,10.79,21.96l11.96-5.71c-.35-.9-.78-1.9-1.26-2.95,3.88,3.29,8.29,8.38,10.69,12.19,17.53-9.85,33.44-24.67,43.51-42.87l-14.87-5.46c-8.15,15.08-23.73,28.2-39.51,35.74Z"/>
      <path class="cls-4" d="M986.89,240.19v-27.77h-60.39v27.77h21.64v17.2c0,1.2-.37,1.63-1.8,1.63-1.29.03-5.58.03-9.54-.1,1.84,3.6,3.76,8.82,4.45,12.84,7.23,0,12.82-.1,17.1-2.05,4.46-2.05,5.44-5.34,5.44-11.93v-17.59h23.1ZM941.31,222.9h30.02v6.93h-30.02v-6.93Z"/>
      <path class="cls-4" d="M1122.56,219.66c11.43-5.54,22.33-12.92,30.5-20.32l-10.21-8.05-3.33.79h-60.51v13.88h42.32c-4.81,2.97-10.12,5.72-15.19,7.73v8.43h-51.04v14.75h51.04v16.8c0,1.8-.74,2.36-3.42,2.42-2.7.16-12.7.16-21.21-.21,2.47,4.15,5.49,10.94,6.52,15.45,11.4,0,19.88-.21,26.17-2.57,6.32-2.23,8.36-6.44,8.36-14.7v-17.19h52.17v-14.75h-52.17v-2.45Z"/>
      <path class="cls-4" d="M1071.82,181.79h85.61v15.3h15.79v-29.42h-19.49c3.71-4.73,7.64-10.11,11.22-15.34l-16.61-5.03c-2.67,6.18-7.22,14.16-11.53,20.37h-17.59l8.05-3.11c-1.74-5.49-6.24-13.54-10.53-19.42l-14.21,5.3c3.36,5.22,6.84,11.99,8.71,17.22h-22.72l5.23-2.46c-2.17-5.14-7.53-12.29-12.25-17.55l-13.6,6.06c3.33,4.15,6.95,9.44,9.38,13.95h-20.52v29.42h15.06v-15.3Z"/>
      <path class="cls-4" d="M1245.59,200.52h55.23v-11.99h10.57v-26.48h-27.78c-1.64-4.94-4.67-11.81-7.7-17.06l-15.17,4.31c1.99,3.8,3.99,8.51,5.47,12.74h-31.16v26.48h10.54v11.99ZM1296.05,175.84v10.91h-46.26v-10.91h46.26Z"/>
      <path class="cls-4" d="M1233.03,220.05c0-7.88-1.66-17.36-9.79-27.97,3.86-10.33,8.19-23.79,11.63-35.08l-10.46-5.94-2.26.58h-29.68v119.85h14.02v-105.55h10.74c-2.13,8.72-4.94,19.62-7.6,27.81,7.67,9.39,9.31,18.11,9.31,24.52,0,3.86-.7,6.84-2.3,8.06-.99.7-2.29.99-3.64,1.02-1.63.16-3.51.03-5.79-.13,2.16,3.91,3.42,9.92,3.45,13.78,3.15.06,6.31.06,8.73-.31,2.96-.48,5.51-1.35,7.64-2.94,4.25-3.21,6-9.03,6-17.7Z"/>
      <path class="cls-4" d="M1300.79,240.68c-.27,13.74-.83,15.88-2.91,15.88h-4.81c-1.92,0-2.18-.53-2.18-4.38v-27.37h21.15v-14.3h-76.64v14.3h16.06c-1.66,16.8-6.33,27.68-27.77,34.2,3.3,3.07,7.46,9.02,9.03,12.95,25.81-9,32.08-24.56,34.14-47.15h8.9v27.47c0,13.34,2.57,17.77,14.5,17.77h9.28c9.5,0,13.2-5.05,14.44-23.55-3.94-1-10.21-3.33-13.18-5.83Z"/>
    </g>
  </g>
  <rect class="cls-4" x="1398.28" y="130" width="4.75" height="240"/>
  <path class="cls-2" d="M1492.33,323.48l-1.39-7.58,40.74-5.95c13.25-2.09,18.63-41.7,22.57-70.63,4.44-32.67,7.19-49.78,16.43-51.23,2.33-.37,4.61.21,6.61,1.66,7.13,5.17,10.15,21.01,14.49,46.42,3.93,23.03,8.82,51.7,18.77,58.92,1.89,1.37,3.83,1.84,6.1,1.48l85.56-13.95,1.52,7.56-85.58,13.95c-4.34.69-8.36-.3-11.96-2.91-12.62-9.15-17.38-37.06-21.98-64.05-3.02-17.71-6.45-37.78-11.28-41.29-.37-.27-.56-.27-.78-.23-.07.03-2.46.98-5.19,13.06-1.92,8.52-3.47,19.88-5.1,31.92-4.94,36.36-10.05,73.95-28.74,76.89l-40.78,5.96Z"/>
  <path class="cls-5" d="M1492.37,323.47l-1.48-7.56c36.35-5.73,53.74-8.26,65.26-9.94,5.97-.87,10.29-1.5,14.97-2.24,19.83-3.12,28.34-23.13,34.56-37.75,4.03-9.47,6.94-16.32,12.44-17.18,9.12-1.44,14.63,9.97,20.46,22.06,4.44,9.21,9.96,20.68,14.93,19.89l48.67-8.14,1.55,7.55-48.7,8.14c-10.79,1.69-17.17-11.54-23.34-24.34-3.48-7.22-8.74-18.13-12.08-17.59-1.65.66-4.64,7.7-6.83,12.83-6.5,15.27-16.31,38.34-40.17,42.1-4.73.75-9.06,1.38-15.06,2.25-11.5,1.67-28.87,4.21-65.17,9.93Z"/>
  <path class="cls-1" d="M1492.33,323.48l-1.4-7.58,44.54-6.54c14.29-2.25,18.42-8.82,22.41-15.16,3.35-5.33,6.82-10.85,15.44-12.2,10.7-1.68,16.42,5.09,20.6,10.04,3.97,4.7,6.25,7.13,10.59,6.44,7.53-1.19,13.95-17.42,18.65-29.27,4.93-12.45,8.19-20.67,14.01-21.59,6.68-1.05,9.04,7.94,12.32,20.38,1.59,6.02,3.23,12.25,5.23,16.81,1.94,4.41,3.35,5.24,3.73,5.16l43.73-7.37,1.56,7.55-43.77,7.38c-10.14,1.61-14.09-13.37-17.9-27.85-1.17-4.46-2.85-10.82-4.22-13.65-2.2,2.76-5.35,10.7-7.53,16.22-5.93,14.97-12.66,31.95-24.33,33.79-8.9,1.41-13.87-4.48-17.86-9.21-4.33-5.13-7.29-8.24-13.32-7.28-5.31.84-7.33,4.04-10.37,8.88-4.4,7-9.88,15.71-27.52,18.49l-44.58,6.54Z"/>
  <path class="cls-4" d="M1497.83,375.81l-10.03-7.02v-239.06l7.77-5.55,204.5,29.93,5.92,7.9v160.97l-4.94,7.91-1.57.35-201.65,44.58ZM1495.45,364.81l4.01,2.81,196.8-43.5,2.08-3.32v-156.23l-2.5-3.33-198.33-29.02-2.06,1.47v231.14Z"/>
  <g>
    <path class="cls-4" d="M1814.12,161.49c-3.01,2.81-6.3,5.23-9.86,7.28l4.71,6.91c7.28-4.73,13.71-11.07,19.28-19.03l-6.22-4.27c-2.26,3.27-4.9,6.3-7.91,9.1Z"/>
    <path class="cls-4" d="M1829.57,173.99l-6.53-4.14c-5.44,7.24-11.74,12.85-18.9,16.83-1.51-2.13-3.26-4.27-5.27-6.4l-5.59,3.2c2.13,2.72,4.21,5.76,6.22,9.1l3.39-2.26,3.52,4.77c4.52-2.35,8.76-5.35,12.72-9.01,3.96-3.66,7.44-7.69,10.45-12.09Z"/>
    <path class="cls-4" d="M1826.74,140.9l-6.22-4.52c-2.05,3.01-4.41,5.71-7.06,8.1-2.66,2.39-5.72,4.63-9.2,6.72l4.65,6.84c7.03-4.44,12.98-10.15,17.83-17.14Z"/>
    <path class="cls-4" d="M1806.02,159.17h-13.44c-.42-.92-.75-1.61-1-2.07h11.87v-19.28h-29.83v19.28h9.98l1.13,2.07h-14.07v6.03h35.35v-6.03ZM1780.72,143.16h15.63v1.82h-15.63v-1.82ZM1780.72,151.82v-1.88h15.63v1.88h-15.63Z"/>
    <path class="cls-4" d="M1779.46,187.93l1.76,6.28h4.52c2.47,0,4.25-.61,5.34-1.82,1.09-1.21,1.63-3.01,1.63-5.4v-7.03h10.74v-12.81h-29.83v12.81h3.58c-1.72,2.97-4.31,5.69-7.79,8.16l4.46,5.15c2.01-1.51,3.87-3.29,5.59-5.34ZM1781.22,172.42h14.69v2.32h-14.69v-2.32ZM1785.3,179.95v7.35h-5.34c1.17-1.51,2.16-2.97,2.95-4.4l-5.53-2.95h7.91Z"/>
    <path class="cls-4" d="M1895.12,186.8v-5.59l-6.15-2.07v7.85h-4.02c-.46,0-.79-.09-.97-.28-.19-.19-.28-.51-.28-.97v-13.69h-5.02c.88-3.52,1.32-7.74,1.32-12.68v-10.67h-6.91v10.99c0,5.27-.59,9.59-1.76,12.93-1.17,3.35-2.99,6.17-5.46,8.45-2.47,2.28-5.92,4.57-10.36,6.87l3.64,6.84c4.65-2.51,8.41-5.19,11.3-8.04,2.89-2.85,5.09-6.05,6.59-9.61v9.61c0,2.6.53,4.42,1.6,5.46,1.07,1.05,2.92,1.57,5.56,1.57h4.27c2.47,0,4.2-.5,5.18-1.51.98-1,1.48-2.83,1.48-5.46Z"/>
    <polygon class="cls-4" points="1868.12 144.85 1885.26 144.85 1885.26 175.56 1892.55 175.56 1892.55 138.26 1861.02 138.26 1861.02 175.56 1868.12 175.56 1868.12 144.85"/>
    <path class="cls-4" d="M1835.34,172.36l2.83,7.22c2.18-1.8,4.12-3.68,5.84-5.65v20.66h6.84v-23.73c0-.33.04-.5.13-.5s.19.1.31.31l4.65,7.97,4.83-4.58-5.02-8.1c-.5-.79-1.05-1.19-1.63-1.19-.38,0-.84.21-1.38.63l-1.51,1.13-.38-.63c1.59-2.26,3.05-4.73,4.36-7.41,1.32-2.68,2.25-5.27,2.79-7.79v-5.59h-8.73l3.52-1.63c-1.55-2.93-3.2-5.5-4.96-7.72l-5.84,3.14c1.63,2.05,3.03,4.12,4.21,6.22h-9.29v6.59h13.81c-1.09,3.52-2.9,7.1-5.43,10.74-2.53,3.64-5.85,6.95-9.95,9.92Z"/>
    <path class="cls-4" d="M1938.32,158.92h-13.63v7.16h8.6l-5.78,3.2c2.43,4.81,5.3,8.96,8.6,12.43-4.61,2.55-10.34,4.65-17.21,6.28l3.2,7.1c7.91-2.13,14.48-4.88,19.72-8.23,4.48,3.35,9.84,6.09,16.07,8.23l3.33-7.16c-5.07-1.55-9.42-3.54-13.06-5.97,5.02-4.65,8.67-10.53,10.93-17.64v-5.4h-13.37v-7.28h14.76v-7.16h-14.76v-7.66h-7.41v7.66h-14v7.16h14v7.28ZM1950.44,166.08c-1.67,4.31-4.35,8.06-8.04,11.24-3.01-2.93-5.76-6.68-8.23-11.24h16.26Z"/>
    <path class="cls-4" d="M1901.9,168.09l1.07,7.28c2.34-.46,4.67-.96,6.97-1.51v12.81h-6.91l2.07,7.54h4.83c2.68,0,4.52-.51,5.53-1.54,1-1.03,1.51-2.86,1.51-5.49v-15.26c2.55-.84,4.67-1.57,6.34-2.2l-.75-6.84c-2.3.8-4.17,1.38-5.59,1.76v-10.93h5.34v-7.03h-5.34v-10.17h-7.03v10.17h-7.28v7.03h7.28v12.75c-2.97.67-5.65,1.21-8.04,1.63Z"/>
    <path class="cls-4" d="M1967.71,181.02l4.96,6.4c4.6-3.31,8.25-6.24,10.93-8.79,2.68-2.55,4.7-5.07,6.06-7.54,1.36-2.47,2.23-5.19,2.61-8.16h.63v31.65h7.79v-31.65h.63c.33,2.89,1.27,5.57,2.79,8.04,1.53,2.47,3.7,4.97,6.53,7.5,2.83,2.53,6.62,5.52,11.4,8.95l4.96-6.4c-6.15-4.1-11.21-8.03-15.16-11.77-3.96-3.75-6.81-7.77-8.57-12.09h21.66v-7.41h-9.29l4.08-4.27c-3.01-3.01-6.57-5.8-10.67-8.35l-4.9,5.02c3.43,2.34,6.64,4.88,9.61,7.6h-13.06v-12.94h-7.79v12.94h-23.11v7.41h20.59c-1.72,4.4-4.47,8.49-8.26,12.28-3.79,3.79-8.59,7.65-14.41,11.59Z"/>
    <path class="cls-4" d="M2053.6,146.55c-2.26,1.67-4.54,3.18-6.84,4.52-2.3,1.34-4.37,2.32-6.22,2.95l1.51,6.15c4.9-.13,10.59-.42,17.08-.88-3.81,2.3-7.58,4.4-11.3,6.28-3.73,1.88-6.97,3.33-9.73,4.33l1.26,5.97c5.53-.25,12.22-.71,20.09-1.38v12.94h-7.54l2.07,6.97h4.9c2.93,0,5.05-.64,6.37-1.92,1.32-1.28,1.98-3.36,1.98-6.25v-12.37c6.99-.67,12.06-1.21,15.2-1.63l2.51,3.2,1.26,1.63,5.84-4.58c-4.52-5.82-9.02-10.69-13.5-14.63l-5.9,4.27c1.46,1.3,2.99,2.74,4.58,4.33l-16.7,1.57-4.27.38c9.46-4.56,18.56-10.46,27.31-17.71l-5.97-4.9c-2.35,2.22-5.05,4.42-8.1,6.59-4.9.54-9.84.94-14.82,1.19,3.68-1.97,7.51-4.56,11.49-7.79,8.83-.71,16.41-1.78,22.73-3.2l-2.7-6.09c-5.99,1.3-13.2,2.23-21.63,2.79-8.44.57-17.32.87-26.65.91l1.32,6.66c4.27,0,9.06-.1,14.38-.31Z"/>
    <path class="cls-4" d="M2047.45,187.65c2.85-2.11,5.38-4.34,7.6-6.69l-5.59-4.4c-4.27,4.06-9.5,7.49-15.7,10.3l4.65,6.4c3.18-1.63,6.19-3.51,9.04-5.62Z"/>
    <path class="cls-4" d="M2071.25,180.39c6.03,4.14,11.43,8.44,16.2,12.87l5.4-5.71c-4.9-4.06-10.36-8.18-16.39-12.37l-5.21,5.21Z"/>
    <path class="cls-4" d="M1823.16,305.22v-34.55h-23.35v-11.2h-8.06v11.2h-22.33v34.55h7.93v-4.48h14.4v17.6h8.06v-17.6h15.42v4.48h7.93ZM1791.74,293.32h-14.4v-15.23h14.4v15.23ZM1799.81,293.32v-15.23h15.42v15.23h-15.42Z"/>
    <path class="cls-4" d="M1878.38,295.55c-.64-1.41-1.73-3.2-3.26-5.37h3.14v-6.21h-11.9v-5.57h13.69v-6.27h-33.02v6.27h12.41v5.57h-10.81v6.21h10.81v7.36h-13.31v6.27h34.62v-6.27h-6.91l4.54-1.98ZM1866.35,297.54v-7.36h7.81l-4.99,2.18c1.54,2.22,2.62,3.95,3.26,5.18h-6.08Z"/>
    <path class="cls-4" d="M1891.63,318.78v-57.97h-56.31v57.97h7.81v-3.65h40.7v3.65h7.81ZM1843.13,308.1v-40.25h40.7v40.25h-40.7Z"/>
    <path class="cls-4" d="M1951.9,310.02h-14.91c-1.19,0-2.03-.23-2.5-.7-.47-.47-.7-1.3-.7-2.5v-5.63h22.52v-35.19h-22.52v-6.53h-7.68v6.53h-22.14v39.86h7.55v-4.67h14.59v6.4c0,3.37.77,5.81,2.3,7.33,1.54,1.51,4.1,2.27,7.68,2.27h14.78c3.03,0,5.21-.67,6.56-2.02,1.34-1.34,2.02-3.53,2.02-6.56v-3.33l-7.55-2.05v6.78ZM1933.8,272.9h14.85v7.29h-14.85v-7.29ZM1933.8,286.73h14.85v7.68h-14.85v-7.68ZM1926.12,294.4h-14.59v-7.68h14.59v7.68ZM1926.12,280.2h-14.59v-7.29h14.59v7.29Z"/>
    <path class="cls-4" d="M2012.02,267.27c-2.71,2.43-5.83,4.71-9.37,6.85l4.74,6.97c7.17-4.52,13.22-10.34,18.17-17.47l-6.34-4.61c-2.09,3.07-4.49,5.82-7.2,8.25Z"/>
    <path class="cls-4" d="M1977.37,311.55l1.79,6.4h4.61c2.52,0,4.33-.62,5.44-1.86,1.11-1.24,1.66-3.07,1.66-5.5v-7.17h10.94v-13.05h-30.39v13.05h3.65c-1.75,3.03-4.39,5.8-7.93,8.32l4.54,5.25c2.05-1.54,3.94-3.35,5.69-5.44ZM1979.16,295.75h14.97v2.37h-14.97v-2.37ZM1983.32,303.43v7.49h-5.44c1.19-1.54,2.2-3.03,3.01-4.48l-5.63-3.01h8.06Z"/>
    <path class="cls-4" d="M2012.69,284.61c-3.07,2.86-6.42,5.33-10.05,7.42l4.8,7.04c7.42-4.82,13.97-11.28,19.64-19.39l-6.33-4.35c-2.3,3.33-4.99,6.42-8.06,9.28Z"/>
    <path class="cls-4" d="M1991.45,307.01c2.18,2.77,4.29,5.87,6.33,9.28l3.46-2.3,3.58,4.86c4.61-2.39,8.93-5.45,12.96-9.18,4.03-3.73,7.58-7.84,10.65-12.32l-6.66-4.22c-5.55,7.38-11.97,13.1-19.26,17.15-1.54-2.18-3.33-4.35-5.38-6.53l-5.7,3.26Z"/>
    <path class="cls-4" d="M1968.41,288.39h36.02v-6.14h-13.69c-.43-.94-.77-1.64-1.02-2.11h12.09v-19.64h-30.39v19.64h10.17l1.15,2.11h-14.33v6.14ZM1978.65,265.93h15.93v1.86h-15.93v-1.86ZM1978.65,274.76v-1.92h15.93v1.92h-15.93Z"/>
    <path class="cls-4" d="M2085.57,286.85v-14.46h-41.08v14.46h41.08ZM2051.98,277.77h25.98v3.71h-25.98v-3.71Z"/>
    <path class="cls-4" d="M2093.83,263.69h-24.57c-.73-1.54-1.66-3.28-2.82-5.25l-7.68,2.05,2.05,3.2h-24.57v6.14h57.59v-6.14Z"/>
    <path class="cls-4" d="M2049.93,297.79v16.96h6.97v-2.88h19.39l1.6,5.89h6.53c2.9,0,5.05-.67,6.46-2.02,1.41-1.34,2.11-3.44,2.11-6.3v-20.03h-55.93v29.05h7.42v-23.23h40.95v16.06h-5.76v-13.5h-29.75ZM2072.71,306.62h-15.8v-3.71h15.8v3.71Z"/>
    <path class="cls-4" d="M2122.24,300.03c1.11,2.94,2.07,6.46,2.88,10.56l5.95-2.88c-.34-1.41-.8-3.01-1.38-4.8-.58-1.79-1.14-3.39-1.7-4.8l-5.76,1.92Z"/>
    <path class="cls-4" d="M2104.06,264.27v6.53h6.91l-4.03,1.47c.81,1.92,1.6,4.2,2.37,6.85h-6.4v6.53h11.45v4.54h-11.2v6.53h11.2v14.46h-4.61l1.6,6.85h2.43c2.73,0,4.64-.55,5.73-1.66,1.09-1.11,1.63-3.05,1.63-5.82v-13.82h10.94v-6.53h-10.94v-4.54h11.2v-6.53h-6.08c.85-2,1.62-4.31,2.3-6.91l-4.29-1.41h7.1v-6.53h-9.53c-.73-2.13-1.56-4.16-2.5-6.08l-6.78,1.92c.81,1.62,1.45,3.01,1.92,4.16h-10.43ZM2122.43,270.79c-.64,3.24-1.41,6.01-2.3,8.32h-8.38l3.58-1.22c-.38-1.83-1.22-4.2-2.49-7.1h9.6Z"/>
    <path class="cls-4" d="M2104.93,305.09c-.75,2.01-1.74,3.99-2.97,5.95l5.25,4.93c2.56-4.35,4.39-9.77,5.5-16.25l-6.01-1.41c-.43,2.52-1.01,4.78-1.76,6.78Z"/>
    <path class="cls-4" d="M2148.34,318.33h7.29v-32.44h6.78v-7.23h-20.22v-8c7.89-.94,14.52-2.28,19.9-4.03l-4.35-6.85c-2.94,1.15-6.24,2.07-9.89,2.75-3.65.68-7.97,1.3-12.96,1.86v18.24c0,7.47-.45,13.42-1.34,17.85-.9,4.44-2.54,8.57-4.93,12.41l6.14,5.95c2.64-4.56,4.51-9.38,5.6-14.46,1.09-5.08,1.7-11.24,1.82-18.49h6.14v32.44Z"/>
    <path class="cls-4" d="M2190.38,286.02c-2.35.81-4.25,1.41-5.7,1.79v-11.13h5.44v-7.17h-5.44v-10.37h-7.17v10.37h-7.42v7.17h7.42v12.99c-3.03.68-5.76,1.24-8.19,1.66l1.09,7.42c2.39-.47,4.76-.98,7.1-1.54v13.05h-7.04l2.11,7.68h4.93c2.73,0,4.61-.52,5.63-1.57,1.02-1.05,1.54-2.91,1.54-5.6v-15.55c2.6-.85,4.76-1.6,6.46-2.24l-.77-6.97Z"/>
    <path class="cls-4" d="M2206.44,281.99h-13.89v7.29h8.77l-5.89,3.26c2.47,4.91,5.4,9.13,8.77,12.67-4.69,2.6-10.54,4.74-17.53,6.4l3.26,7.23c8.06-2.18,14.76-4.97,20.09-8.38,4.56,3.41,10.02,6.21,16.38,8.38l3.39-7.29c-5.16-1.58-9.6-3.6-13.31-6.08,5.12-4.74,8.83-10.73,11.13-17.98v-5.5h-13.63v-7.42h15.04v-7.29h-15.04v-7.81h-7.55v7.81h-14.27v7.29h14.27v7.42ZM2218.79,289.28c-1.71,4.39-4.44,8.21-8.19,11.45-3.07-2.99-5.87-6.8-8.38-11.45h16.57Z"/>
    <path class="cls-4" d="M2291.74,311.04l5.05-6.53c-6.27-4.18-11.42-8.18-15.45-12-4.03-3.82-6.94-7.92-8.73-12.32h22.08v-7.55h-9.47l4.16-4.35c-3.07-3.07-6.7-5.91-10.88-8.51l-4.99,5.12c3.5,2.39,6.76,4.97,9.79,7.74h-13.31v-13.18h-7.93v13.18h-23.55v7.55h20.99c-1.75,4.48-4.55,8.65-8.41,12.51s-8.76,7.8-14.68,11.81l5.05,6.53c4.69-3.37,8.4-6.36,11.13-8.96,2.73-2.6,4.79-5.16,6.17-7.68,1.39-2.52,2.27-5.29,2.66-8.32h.64v32.25h7.93v-32.25h.64c.34,2.94,1.29,5.67,2.85,8.19,1.56,2.52,3.78,5.07,6.66,7.65,2.88,2.58,6.75,5.62,11.61,9.12Z"/>
    <path class="cls-4" d="M2328.72,268.36v-7.17h-23.61v7.17h7.23c-1.11,8.66-4.07,15.98-8.89,21.95l2.3,9.53c.9-1.02,1.98-2.64,3.26-4.86v22.97h6.85v-3.46h11.9v-33.27h-11.26c1.41-4.05,2.47-8.34,3.2-12.86h9.02ZM2321.11,288.13v19.39h-5.25v-19.39h5.25Z"/>
    <path class="cls-4" d="M2363.21,283.08h-5.76v-14.91h5.06v-6.91h-32.25v6.91h5.5v14.91h-6.53v7.1h6.21c-.3,4.74-.97,8.79-2.02,12.16-1.05,3.37-2.61,6.66-4.7,9.85l5.89,6.66c2.64-4.18,4.6-8.55,5.85-13.12,1.26-4.56,2.08-9.75,2.46-15.55h7.1v28.15h7.42v-28.15h5.76v-7.1ZM2350.03,283.08h-6.78v-14.91h6.78v14.91Z"/>
    <path class="cls-4" d="M2430.33,310.14v-8.13l-7.29-2.05v10.3h-3.33c-.77,0-1.32-.14-1.66-.42-.34-.28-.51-.78-.51-1.5v-17.98h-17.21v-6.46h-7.68v6.46h-16.83v6.78h16.32c-.56,2.39-1.63,4.45-3.23,6.17-1.6,1.73-3.8,3.26-6.59,4.61-2.79,1.34-6.39,2.66-10.78,3.93l3.58,6.78c7.64-2.18,13.46-5.01,17.47-8.51,4.01-3.5,6.46-7.83,7.36-12.99h9.79v11.97c0,2.13.28,3.8.83,4.99.55,1.19,1.45,2.05,2.69,2.56,1.24.51,2.92.77,5.05.77h4.1c2.94,0,5-.53,6.17-1.6,1.17-1.07,1.76-2.96,1.76-5.7Z"/>
    <path class="cls-4" d="M2380.04,271.24h41.72v6.72h7.68v-13.31h-24.31c-.9-2.17-1.96-4.16-3.2-5.95l-7.55,2.3c.81,1.07,1.6,2.28,2.37,3.65h-24.25v13.95h7.55v-7.36Z"/>
    <path class="cls-4" d="M2403.27,279.05c7.38,2.6,14.99,6.06,22.84,10.37l3.9-6.34c-7.76-4.05-15.25-7.36-22.46-9.92l-4.29,5.89Z"/>
    <path class="cls-4" d="M2387.56,284.58c3.95-1.81,7.43-3.85,10.46-6.11l-4.99-5.05c-5.89,4.1-13.05,7.06-21.5,8.89l3.2,6.85c4.61-1.24,8.88-2.76,12.83-4.58Z"/>
    <path class="cls-4" d="M2492.78,284.36v-4.16h4.54v-14.59h-14.08c-.85-2.22-1.94-4.54-3.26-6.98l-6.78,2.3c.72,1.24,1.45,2.79,2.18,4.67h-14.14v14.59h4.54v4.16h27ZM2468.21,272.39h22.01v5.18h-22.01v-5.18Z"/>
    <path class="cls-4" d="M2447.03,267.27h6.14c-1.02,4.91-2.52,9.88-4.48,14.91,2.99,5.25,4.48,9.75,4.48,13.5,0,1.32-.25,2.27-.77,2.85-.51.58-1.3.86-2.37.86h-2.24l1.34,8.38h3.14c2.22,0,4.01-.91,5.37-2.72,1.36-1.81,2.05-4.72,2.05-8.73,0-2.69-.33-5.12-.99-7.29-.66-2.18-1.67-4.52-3.04-7.04.85-2,1.7-4.47,2.53-7.39.83-2.92,1.48-5.75,1.95-8.48v-5.31h-20.03v57.52h6.91v-51.06Z"/>
    <path class="cls-4" d="M2492.21,310.59h-3.33c-.43,0-.71-.07-.86-.22-.15-.15-.22-.44-.22-.86v-14.08h9.79v-6.78h-36.66v6.78h8.45c-.13,2.99-.63,5.45-1.5,7.39-.88,1.94-2.36,3.63-4.45,5.05-2.09,1.43-5.03,2.76-8.83,4l3.65,6.85c4.74-1.62,8.41-3.54,11.04-5.76,2.62-2.22,4.46-4.72,5.5-7.52,1.04-2.79,1.61-6.13,1.7-10.01h3.9v15.87c0,2.39.48,4.04,1.44,4.96.96.92,2.61,1.38,4.96,1.38h5.25c2.43,0,4.1-.45,4.99-1.34.9-.9,1.34-2.56,1.34-4.99v-7.74l-6.14-2.18v9.21Z"/>
    <path class="cls-4" d="M1775.39,235.97h4.84c1.99,0,3.84-.33,5.54-.98,1.7-.65,3.18-1.58,4.44-2.78,1.26-1.2,2.24-2.61,2.95-4.23.7-1.62,1.06-3.41,1.06-5.35s-.35-3.79-1.06-5.4c-.71-1.61-1.7-3.02-2.97-4.21-1.27-1.2-2.76-2.12-4.46-2.76-1.7-.64-3.56-.96-5.58-.96h-10.73v26.69h5.97ZM1780.07,214.5c1.59,0,2.98.32,4.18.96,1.2.64,2.13,1.57,2.8,2.8.67,1.22,1,2.66,1,4.33s-.33,3.14-.98,4.37c-.66,1.22-1.58,2.16-2.78,2.82-1.2.66-2.6.98-4.21.98h-4.69v-16.25h4.69Z"/>
    <path class="cls-4" d="M1815.32,227.45c.04-.37.06-.72.06-1.08,0-1.79-.4-3.38-1.21-4.76-.81-1.39-1.9-2.47-3.29-3.25-1.39-.78-3-1.17-4.84-1.17s-3.54.42-5.03,1.25c-1.49.83-2.66,1.97-3.52,3.42-.86,1.45-1.29,3.08-1.29,4.9s.44,3.53,1.32,4.99c.88,1.46,2.09,2.6,3.63,3.42,1.54.82,3.3,1.23,5.29,1.23,1.56,0,2.99-.26,4.27-.77,1.29-.52,2.38-1.32,3.29-2.4l-3.21-3.17c-.55.63-1.2,1.1-1.93,1.42-.73.32-1.54.47-2.42.47-.98,0-1.83-.21-2.55-.62-.72-.41-1.27-1.01-1.66-1.79-.12-.24-.22-.5-.3-.77l13.13-.06c.13-.45.21-.86.25-1.23ZM1803.75,222.25c.67-.43,1.46-.64,2.36-.64.83,0,1.54.19,2.14.57.59.38,1.04.91,1.34,1.61.12.27.21.58.29.9l-7.94.05c.08-.25.16-.48.27-.7.37-.76.88-1.35,1.55-1.78Z"/>
    <path class="cls-4" d="M1833.37,235.08c1.36-.84,2.43-1.98,3.19-3.4.77-1.42,1.15-3.05,1.15-4.89s-.39-3.48-1.17-4.91c-.78-1.44-1.85-2.57-3.19-3.4-1.35-.83-2.88-1.25-4.59-1.25-1.23,0-2.37.25-3.4.76-.53.26-1.01.57-1.44.92v-1.3h-5.82v26.12h5.75v-9.01c.44.36.93.66,1.47.92,1.03.48,2.18.72,3.44.72,1.71,0,3.25-.42,4.61-1.27ZM1825.56,230.54c-.62-.37-1.1-.88-1.46-1.53-.35-.65-.53-1.4-.53-2.23s.18-1.57.53-2.23c.35-.65.84-1.17,1.46-1.53.62-.36,1.33-.55,2.14-.55s1.51.18,2.12.55c.61.37,1.09.88,1.46,1.53.37.66.55,1.4.55,2.23s-.18,1.58-.55,2.23c-.37.66-.86,1.17-1.47,1.53-.62.37-1.33.55-2.14.55s-1.48-.18-2.1-.55Z"/>
    <path class="cls-4" d="M1859.03,235.97v-18.37h-5.71v1.53c-.5-.47-1.06-.88-1.72-1.19-1-.48-2.11-.72-3.35-.72-1.69,0-3.19.41-4.52,1.23-1.32.82-2.37,1.95-3.14,3.4-.77,1.45-1.15,3.09-1.15,4.93s.38,3.47,1.15,4.89c.77,1.42,1.82,2.56,3.16,3.4,1.34.84,2.84,1.27,4.5,1.27,1.26,0,2.39-.24,3.38-.72.64-.31,1.2-.7,1.68-1.16v1.5h5.71ZM1849.47,231.09c-.78,0-1.48-.18-2.1-.55s-1.11-.88-1.47-1.53c-.37-.65-.55-1.4-.55-2.23s.18-1.57.55-2.23c.37-.65.86-1.17,1.47-1.53.62-.36,1.32-.55,2.1-.55s1.52.18,2.15.55c.63.37,1.11.87,1.44,1.51.33.64.49,1.38.49,2.21,0,1.28-.37,2.33-1.12,3.14-.74.81-1.73,1.21-2.97,1.21Z"/>
    <path class="cls-4" d="M1863.08,217.6v18.37h5.82v-10.05c0-1.18.28-2.07.85-2.66.57-.59,1.34-.89,2.32-.89.48,0,.91.08,1.29.23.38.15.68.35.91.61l3.44-4.39c-.5-.53-1.09-.93-1.76-1.19-.67-.26-1.44-.4-2.32-.4-1.99,0-3.56.59-4.71,1.78,0,0-.01.02-.02.02v-1.42h-5.82Z"/>
    <polygon class="cls-4" points="1892.45 217.6 1888.29 217.6 1888.29 210 1882.47 210 1882.47 217.6 1878.35 217.6 1878.35 222.55 1882.47 222.55 1882.47 235.97 1888.29 235.97 1888.29 222.55 1892.45 222.55 1892.45 217.6"/>
    <path class="cls-4" d="M1902.23,222.68c.45-.24.97-.36,1.55-.36.83,0,1.53.26,2.1.77.57.52.85,1.23.85,2.14v10.73h5.82v-10.73c0-.61.13-1.12.38-1.55.25-.43.61-.76,1.08-1,.47-.24.98-.36,1.53-.36.81,0,1.49.26,2.06.77.57.52.85,1.23.85,2.14v10.73h5.82v-11.41c0-1.54-.32-2.85-.94-3.93-.63-1.08-1.5-1.92-2.61-2.51-1.11-.59-2.36-.89-3.74-.89s-2.73.3-3.89.91c-.78.41-1.44.95-2.01,1.59-.53-.66-1.16-1.21-1.91-1.63-1.02-.58-2.16-.87-3.42-.87-1.39,0-2.61.28-3.69.85-.48.25-.91.56-1.3.91v-1.39h-5.82v18.37h5.82v-10.73c0-.61.13-1.12.4-1.55.26-.43.62-.76,1.08-1Z"/>
    <path class="cls-4" d="M1945.87,227.45c.04-.37.06-.72.06-1.08,0-1.79-.4-3.38-1.21-4.76-.81-1.39-1.9-2.47-3.29-3.25-1.39-.78-3-1.17-4.84-1.17s-3.54.42-5.03,1.25c-1.49.83-2.66,1.97-3.52,3.42-.86,1.45-1.29,3.08-1.29,4.9s.44,3.53,1.32,4.99c.88,1.46,2.09,2.6,3.63,3.42,1.54.82,3.3,1.23,5.29,1.23,1.56,0,2.99-.26,4.27-.77,1.29-.52,2.38-1.32,3.29-2.4l-3.21-3.17c-.55.63-1.2,1.1-1.93,1.42-.73.32-1.54.47-2.42.47-.98,0-1.83-.21-2.55-.62-.72-.41-1.27-1.01-1.66-1.79-.12-.24-.22-.5-.3-.77l13.13-.06c.13-.45.21-.86.25-1.23ZM1934.31,222.25c.67-.43,1.46-.64,2.36-.64.83,0,1.54.19,2.14.57.59.38,1.04.91,1.34,1.61.12.27.21.58.29.9l-7.94.05c.08-.25.16-.48.27-.7.37-.76.88-1.35,1.55-1.78Z"/>
    <path class="cls-4" d="M1955.85,218.11c-.51.27-.97.6-1.38.97v-1.48h-5.82v18.37h5.82v-10.47c0-.63.14-1.18.42-1.66.28-.48.66-.85,1.13-1.11.48-.26,1.02-.4,1.62-.4.91,0,1.66.3,2.27.89.61.59.91,1.35.91,2.29v10.47h5.82v-11.76c0-1.26-.3-2.42-.91-3.5-.61-1.07-1.44-1.92-2.49-2.55-1.06-.63-2.26-.94-3.59-.94-1.41,0-2.68.3-3.8.89Z"/>
    <polygon class="cls-4" points="1972.88 210 1972.88 217.6 1968.76 217.6 1968.76 222.55 1972.88 222.55 1972.88 235.97 1978.7 235.97 1978.7 222.55 1982.86 222.55 1982.86 217.6 1978.7 217.6 1978.7 210 1972.88 210"/>
    <path class="cls-4" d="M2006.54,218.43c-1.53-.83-3.23-1.25-5.12-1.25s-3.67.42-5.18,1.27c-1.51.84-2.7,1.98-3.57,3.42-.87,1.44-1.3,3.05-1.3,4.84s.44,3.45,1.32,4.91c.88,1.46,2.08,2.62,3.59,3.48s3.23,1.29,5.14,1.29,3.63-.43,5.14-1.29c1.51-.86,2.71-2.01,3.59-3.46.88-1.45,1.32-3.09,1.32-4.93s-.44-3.41-1.32-4.86c-.88-1.45-2.09-2.59-3.61-3.42ZM2005.03,229.03c-.34.67-.83,1.18-1.46,1.53-.63.35-1.35.53-2.15.53s-1.53-.18-2.15-.53c-.63-.35-1.12-.86-1.47-1.53-.35-.67-.53-1.43-.53-2.29,0-.81.18-1.54.53-2.19.35-.65.84-1.17,1.47-1.53.63-.36,1.35-.55,2.15-.55s1.52.18,2.14.55c.62.37,1.1.87,1.45,1.51.35.64.53,1.38.53,2.21s-.17,1.62-.51,2.29Z"/>
    <path class="cls-4" d="M2020.5,209.13c-1.23.71-2.18,1.66-2.83,2.85-.66,1.2-.98,2.55-.98,4.06v1.55h-4.08v4.95h4.08v13.42h5.82v-13.42h5.25v-4.95h-5.25v-1.74c0-.78.22-1.4.66-1.85.44-.45,1.06-.68,1.87-.68.43,0,.79.07,1.1.21.3.14.57.33.79.59l3.67-3.7c-.71-.7-1.53-1.27-2.48-1.7-.94-.43-2.05-.64-3.31-.64-1.64,0-3.07.35-4.31,1.06Z"/>
    <polygon class="cls-4" points="2057.05 214.42 2057.05 209.28 2044.47 209.28 2043.07 209.28 2038.5 209.28 2038.5 235.97 2044.47 235.97 2044.47 225.54 2056.45 225.54 2056.45 220.36 2044.47 220.36 2044.47 214.42 2057.05 214.42"/>
    <path class="cls-4" d="M2065.47,209.62c-.57-.6-1.32-.91-2.25-.91-.88,0-1.62.3-2.23.91-.6.61-.91,1.36-.91,2.27s.3,1.64.91,2.27c.61.63,1.35.95,2.23.95.93,0,1.68-.31,2.25-.95.57-.63.85-1.39.85-2.27s-.28-1.66-.85-2.27Z"/>
    <rect class="cls-4" x="2060.31" y="217.6" width="5.82" height="18.37"/>
    <rect class="cls-4" x="2070.13" y="208.53" width="5.82" height="27.44"/>
    <path class="cls-4" d="M2087.12,218.07c-.48.25-.91.56-1.3.91v-1.39h-5.82v18.37h5.82v-10.73c0-.61.13-1.12.4-1.55.26-.43.62-.76,1.08-1,.45-.24.97-.36,1.55-.36.83,0,1.53.26,2.1.77.57.52.85,1.23.85,2.14v10.73h5.82v-10.73c0-.61.13-1.12.38-1.55.25-.43.61-.76,1.08-1,.47-.24.98-.36,1.53-.36.81,0,1.49.26,2.06.77.57.52.85,1.23.85,2.14v10.73h5.82v-11.41c0-1.54-.32-2.85-.94-3.93-.63-1.08-1.5-1.92-2.61-2.51-1.11-.59-2.36-.89-3.74-.89s-2.73.3-3.89.91c-.78.41-1.44.95-2.01,1.59-.53-.66-1.16-1.21-1.91-1.63-1.02-.58-2.16-.87-3.42-.87-1.39,0-2.61.28-3.69.85Z"/>
    <path class="cls-4" d="M2123.88,235.31c1.36.72,2.95,1.08,4.76,1.08,1.16,0,2.25-.16,3.27-.49,1.02-.33,1.92-.74,2.7-1.25.34-.22.65-.45.93-.68l1.83,2.01h6.8l-14.78-16.59c-.45-.53-.81-1.01-1.06-1.44-.25-.43-.38-.92-.38-1.47,0-.63.25-1.16.76-1.61.5-.44,1.12-.66,1.85-.66s1.33.18,1.89.53c.55.35,1.07.87,1.55,1.55l3.93-3.7c-.4-.63-.96-1.23-1.66-1.8-.71-.57-1.54-1.03-2.49-1.4-.96-.37-2.07-.55-3.33-.55-1.56,0-2.95.35-4.16,1.04-1.21.69-2.16,1.61-2.85,2.76-.69,1.15-1.04,2.4-1.04,3.76,0,1.11.21,2.14.64,3.08.23.51.55,1.04.93,1.6-1.3.73-2.32,1.62-3.03,2.67-.87,1.3-1.3,2.78-1.3,4.44,0,1.54.37,2.93,1.1,4.18.73,1.25,1.78,2.23,3.14,2.95ZM2131.82,229.87c-.26.25-.54.47-.85.66-.62.38-1.34.57-2.17.57-.73,0-1.37-.14-1.93-.42s-.98-.67-1.29-1.17c-.3-.5-.45-1.07-.45-1.7,0-.81.19-1.49.57-2.06.31-.46.75-.85,1.31-1.17l4.82,5.29Z"/>
    <polygon class="cls-4" points="2158.65 235.97 2164.66 235.97 2164.66 214.5 2172.98 214.5 2172.98 209.28 2150.3 209.28 2150.3 214.5 2158.65 214.5 2158.65 235.97"/>
    <path class="cls-4" d="M2173.06,231.74c.88,1.46,2.09,2.6,3.63,3.42,1.54.82,3.3,1.23,5.29,1.23,1.56,0,2.99-.26,4.27-.77,1.29-.52,2.38-1.32,3.29-2.4l-3.21-3.17c-.55.63-1.2,1.1-1.93,1.42-.73.32-1.54.47-2.42.47-.98,0-1.83-.21-2.55-.62-.72-.41-1.27-1.01-1.66-1.79-.12-.24-.22-.5-.3-.77l13.13-.06c.13-.45.21-.86.25-1.23.04-.37.06-.72.06-1.08,0-1.79-.4-3.38-1.21-4.76-.81-1.39-1.9-2.47-3.29-3.25-1.39-.78-3-1.17-4.84-1.17s-3.54.42-5.03,1.25c-1.49.83-2.66,1.97-3.52,3.42-.86,1.45-1.29,3.08-1.29,4.9s.44,3.53,1.32,4.99ZM2179.27,222.25c.67-.43,1.46-.64,2.36-.64.83,0,1.54.19,2.14.57.59.38,1.04.91,1.34,1.61.12.27.21.58.29.9l-7.94.05c.08-.25.16-.48.27-.7.37-.76.88-1.35,1.55-1.78Z"/>
    <rect class="cls-4" x="2193.62" y="208.53" width="5.82" height="27.44"/>
    <path class="cls-4" d="M2207.26,235.16c1.54.82,3.3,1.23,5.29,1.23,1.56,0,2.99-.26,4.27-.77,1.29-.52,2.38-1.32,3.29-2.4l-3.21-3.17c-.55.63-1.2,1.1-1.93,1.42-.73.32-1.54.47-2.42.47-.98,0-1.83-.21-2.55-.62-.72-.41-1.27-1.01-1.66-1.79-.12-.24-.22-.5-.3-.77l13.13-.06c.13-.45.21-.86.25-1.23.04-.37.06-.72.06-1.08,0-1.79-.4-3.38-1.21-4.76-.81-1.39-1.9-2.47-3.29-3.25-1.39-.78-3-1.17-4.84-1.17s-3.54.42-5.03,1.25c-1.49.83-2.66,1.97-3.52,3.42-.86,1.45-1.29,3.08-1.29,4.9s.44,3.53,1.32,4.99c.88,1.46,2.09,2.6,3.63,3.42ZM2209.85,222.25c.67-.43,1.46-.64,2.36-.64.83,0,1.54.19,2.14.57.59.38,1.04.91,1.34,1.61.12.27.21.58.29.9l-7.94.05c.08-.25.16-.48.27-.7.37-.76.88-1.35,1.55-1.78Z"/>
    <polygon class="cls-4" points="2234.67 235.97 2242.49 217.6 2236.33 217.6 2232.38 228.9 2228.47 217.6 2222.19 217.6 2229.98 235.97 2234.67 235.97"/>
    <rect class="cls-4" x="2244.53" y="217.6" width="5.82" height="18.37"/>
    <path class="cls-4" d="M2247.44,215.1c.93,0,1.68-.31,2.25-.95.57-.63.85-1.39.85-2.27s-.28-1.66-.85-2.27c-.57-.6-1.32-.91-2.25-.91-.88,0-1.62.3-2.23.91-.6.61-.91,1.36-.91,2.27s.3,1.64.91,2.27c.61.63,1.35.95,2.23.95Z"/>
    <path class="cls-4" d="M2262.39,231.47c-.37.2-.86.3-1.49.3-1.01,0-1.92-.18-2.74-.55-.82-.36-1.54-.88-2.17-1.53l-3.33,3.33c.65.68,1.42,1.28,2.31,1.8.88.52,1.85.92,2.91,1.21,1.06.29,2.13.43,3.21.43,2.29,0,4.11-.54,5.46-1.61,1.35-1.07,2.02-2.5,2.02-4.29,0-1.16-.21-2.1-.64-2.82-.43-.72-.98-1.3-1.66-1.74-.68-.44-1.4-.78-2.15-1.02-.76-.24-1.47-.45-2.14-.62-.67-.18-1.22-.38-1.66-.61-.44-.23-.66-.53-.66-.91,0-.33.16-.59.49-.79.33-.2.82-.3,1.47-.3s1.38.15,2.1.43c.72.29,1.37.77,1.95,1.46l3.29-3.36c-.81-1.06-1.88-1.86-3.21-2.4-1.34-.54-2.77-.81-4.31-.81s-2.86.25-3.97.76c-1.11.5-1.97,1.19-2.57,2.06-.61.87-.91,1.9-.91,3.08s.21,2.05.64,2.76c.43.71.98,1.26,1.66,1.66.68.4,1.4.73,2.15.96.76.24,1.48.45,2.17.64.69.19,1.25.39,1.68.6.43.22.64.55.64,1,0,.38-.18.67-.55.87Z"/>
    <rect class="cls-4" x="2271.71" y="217.6" width="5.82" height="18.37"/>
    <path class="cls-4" d="M2274.62,215.1c.93,0,1.68-.31,2.25-.95.57-.63.85-1.39.85-2.27s-.28-1.66-.85-2.27c-.57-.6-1.32-.91-2.25-.91-.88,0-1.62.3-2.23.91-.6.61-.91,1.36-.91,2.27s.3,1.64.91,2.27c.61.63,1.35.95,2.23.95Z"/>
    <path class="cls-4" d="M2299.15,221.85c-.88-1.45-2.09-2.59-3.61-3.42-1.53-.83-3.23-1.25-5.12-1.25s-3.67.42-5.18,1.27c-1.51.84-2.7,1.98-3.57,3.42-.87,1.44-1.3,3.05-1.3,4.84s.44,3.45,1.32,4.91c.88,1.46,2.08,2.62,3.59,3.48,1.51.86,3.23,1.29,5.14,1.29s3.63-.43,5.14-1.29c1.51-.86,2.71-2.01,3.59-3.46.88-1.45,1.32-3.09,1.32-4.93s-.44-3.41-1.32-4.86ZM2294.03,229.03c-.34.67-.83,1.18-1.46,1.53-.63.35-1.35.53-2.15.53s-1.53-.18-2.15-.53c-.63-.35-1.12-.86-1.47-1.53-.35-.67-.53-1.43-.53-2.29,0-.81.18-1.54.53-2.19.35-.65.84-1.17,1.47-1.53.63-.36,1.35-.55,2.15-.55s1.52.18,2.14.55c.62.37,1.1.87,1.45,1.51.35.64.53,1.38.53,2.21s-.17,1.62-.51,2.29Z"/>
    <path class="cls-4" d="M2309.13,225.5c0-.63.14-1.18.42-1.66.28-.48.66-.85,1.13-1.11.48-.26,1.02-.4,1.62-.4.91,0,1.66.3,2.27.89.61.59.91,1.35.91,2.29v10.47h5.82v-11.76c0-1.26-.3-2.42-.91-3.5-.61-1.07-1.44-1.92-2.49-2.55-1.06-.63-2.26-.94-3.59-.94-1.41,0-2.68.3-3.8.89-.51.27-.97.6-1.38.97v-1.48h-5.82v18.37h5.82v-10.47Z"/>
    <polygon class="cls-4" points="2339.18 235.97 2345.19 235.97 2345.19 214.5 2353.5 214.5 2353.5 209.28 2330.82 209.28 2330.82 214.5 2339.18 214.5 2339.18 235.97"/>
    <path class="cls-4" d="M2353.58,231.74c.88,1.46,2.09,2.6,3.63,3.42,1.54.82,3.3,1.23,5.29,1.23,1.56,0,2.99-.26,4.27-.77,1.29-.52,2.38-1.32,3.29-2.4l-3.21-3.17c-.55.63-1.2,1.1-1.93,1.42-.73.32-1.54.47-2.42.47-.98,0-1.83-.21-2.55-.62-.72-.41-1.27-1.01-1.66-1.79-.12-.24-.22-.5-.3-.77l13.13-.06c.13-.45.21-.86.25-1.23.04-.37.06-.72.06-1.08,0-1.79-.4-3.38-1.21-4.76-.81-1.39-1.9-2.47-3.29-3.25-1.39-.78-3-1.17-4.84-1.17s-3.54.42-5.03,1.25c-1.49.83-2.66,1.97-3.52,3.42-.86,1.45-1.29,3.08-1.29,4.9s.44,3.53,1.32,4.99ZM2359.8,222.25c.67-.43,1.46-.64,2.36-.64.83,0,1.54.19,2.14.57.59.38,1.04.91,1.34,1.61.12.27.21.58.29.9l-7.94.05c.08-.25.16-.48.27-.7.37-.76.88-1.35,1.55-1.78Z"/>
    <path class="cls-4" d="M2377.88,235.14c1.54.83,3.26,1.25,5.18,1.25,1.51,0,2.87-.26,4.06-.77,1.2-.52,2.29-1.28,3.27-2.29l-3.74-3.7c-.43.48-.94.84-1.53,1.1-.59.25-1.27.38-2.02.38s-1.5-.18-2.15-.55c-.66-.37-1.17-.88-1.53-1.53-.37-.65-.55-1.41-.55-2.27s.18-1.57.55-2.21c.37-.64.87-1.15,1.51-1.51.64-.36,1.37-.55,2.17-.55.73,0,1.38.11,1.95.34.57.23,1.06.58,1.49,1.06l3.74-3.78c-.93-.96-2-1.68-3.19-2.17-1.2-.49-2.53-.74-3.99-.74-1.92,0-3.64.42-5.18,1.25-1.54.83-2.75,1.97-3.63,3.42-.88,1.45-1.32,3.09-1.32,4.93s.43,3.45,1.3,4.91c.87,1.46,2.07,2.61,3.61,3.44Z"/>
    <path class="cls-4" d="M2398.71,225.5c0-.63.14-1.18.42-1.66.28-.48.66-.85,1.13-1.11.48-.26,1.02-.4,1.62-.4.91,0,1.66.3,2.27.89.61.59.91,1.35.91,2.29v10.47h5.82v-11.76c0-1.39-.3-2.6-.91-3.65-.61-1.05-1.45-1.86-2.53-2.46-1.08-.59-2.34-.89-3.78-.89s-2.62.3-3.7.89c-.46.25-.87.56-1.25.9v-10.48h-5.82v27.44h5.82v-10.47Z"/>
    <path class="cls-4" d="M2420.33,225.5c0-.63.14-1.18.42-1.66.28-.48.66-.85,1.13-1.11.48-.26,1.02-.4,1.62-.4.91,0,1.66.3,2.27.89.6.59.91,1.35.91,2.29v10.47h5.82v-11.76c0-1.26-.3-2.42-.91-3.5-.61-1.07-1.44-1.92-2.49-2.55-1.06-.63-2.26-.94-3.59-.94-1.41,0-2.68.3-3.8.89-.51.27-.97.6-1.38.97v-1.48h-5.82v18.37h5.82v-10.47Z"/>
    <path class="cls-4" d="M2450.15,235.1c1.51-.86,2.71-2.01,3.59-3.46.88-1.45,1.32-3.09,1.32-4.93s-.44-3.41-1.32-4.86c-.88-1.45-2.09-2.59-3.61-3.42-1.53-.83-3.23-1.25-5.12-1.25s-3.67.42-5.18,1.27c-1.51.84-2.7,1.98-3.57,3.42s-1.3,3.05-1.3,4.84.44,3.45,1.32,4.91c.88,1.46,2.08,2.62,3.59,3.48s3.23,1.29,5.14,1.29,3.63-.43,5.14-1.29ZM2441.38,229.03c-.35-.67-.53-1.43-.53-2.29,0-.81.18-1.54.53-2.19.35-.65.84-1.17,1.47-1.53.63-.36,1.35-.55,2.16-.55s1.52.18,2.14.55c.62.37,1.1.87,1.45,1.51.35.64.53,1.38.53,2.21s-.17,1.62-.51,2.29c-.34.67-.83,1.18-1.46,1.53-.63.35-1.35.53-2.15.53s-1.53-.18-2.16-.53c-.63-.35-1.12-.86-1.47-1.53Z"/>
    <rect class="cls-4" x="2457.9" y="208.53" width="5.82" height="27.44"/>
    <path class="cls-4" d="M2471.51,235.1c1.51.86,3.23,1.29,5.14,1.29s3.63-.43,5.14-1.29c1.51-.86,2.71-2.01,3.59-3.46.88-1.45,1.32-3.09,1.32-4.93s-.44-3.41-1.32-4.86c-.88-1.45-2.09-2.59-3.61-3.42-1.53-.83-3.23-1.25-5.12-1.25s-3.67.42-5.18,1.27c-1.51.84-2.7,1.98-3.57,3.42-.87,1.44-1.3,3.05-1.3,4.84s.44,3.45,1.32,4.91c.88,1.46,2.08,2.62,3.59,3.48ZM2473.02,224.55c.35-.65.84-1.17,1.47-1.53.63-.36,1.35-.55,2.15-.55s1.52.18,2.14.55c.62.37,1.1.87,1.45,1.51.35.64.53,1.38.53,2.21s-.17,1.62-.51,2.29c-.34.67-.83,1.18-1.46,1.53-.63.35-1.35.53-2.15.53s-1.53-.18-2.15-.53c-.63-.35-1.12-.86-1.47-1.53-.35-.67-.53-1.43-.53-2.29,0-.81.18-1.54.53-2.19Z"/>
    <path class="cls-4" d="M2501.86,218.82c-.42-.35-.89-.66-1.42-.9-1-.47-2.12-.7-3.38-.7-1.66,0-3.16.4-4.48,1.19-1.32.79-2.36,1.87-3.12,3.23-.76,1.36-1.13,2.91-1.13,4.65s.38,3.23,1.13,4.61c.76,1.39,1.79,2.48,3.1,3.29,1.31.81,2.81,1.21,4.5,1.21,1.26,0,2.39-.24,3.38-.72.48-.23.91-.51,1.3-.82v1.12c0,1.31-.41,2.32-1.23,3.02-.82.71-1.95,1.06-3.38,1.06-1.11,0-2.07-.2-2.89-.61-.82-.4-1.56-1-2.21-1.78l-3.59,3.55c.88,1.26,2.09,2.24,3.61,2.93,1.52.69,3.28,1.04,5.27,1.04s3.72-.38,5.27-1.15c1.55-.77,2.77-1.86,3.65-3.27.88-1.41,1.32-3.06,1.32-4.95v-17.24h-5.71v1.22ZM2500.25,229.73c-.59.35-1.29.53-2.1.53s-1.46-.18-2.04-.53c-.58-.35-1.04-.84-1.38-1.46-.34-.62-.51-1.28-.51-1.98s.16-1.4.49-2c.33-.61.79-1.08,1.4-1.44.6-.35,1.3-.53,2.08-.53s1.5.18,2.08.53c.58.35,1.03.83,1.34,1.44.31.61.47,1.26.47,1.97,0,.78-.16,1.47-.47,2.06-.31.59-.77,1.06-1.36,1.42Z"/>
    <polygon class="cls-4" points="2523.33 217.6 2519.61 228.74 2515.96 217.6 2509.68 217.6 2516.68 234.71 2512.52 243.72 2518.49 243.72 2521.74 236.08 2529.6 217.6 2523.33 217.6"/>
    <path class="cls-4" d="M1786.99,354.24c-1.01.42-2.19.62-3.55.62-1.16,0-2.22-.19-3.17-.59-.96-.39-1.79-.96-2.49-1.7-.71-.74-1.25-1.62-1.63-2.65-.38-1.02-.57-2.16-.57-3.42s.19-2.33.57-3.36c.38-1.03.92-1.92,1.63-2.65.7-.73,1.54-1.29,2.49-1.68.96-.39,2.02-.59,3.17-.59,1.31,0,2.46.21,3.46.64,1,.43,1.83,1.02,2.51,1.78l4.01-4.05c-1.24-1.18-2.68-2.12-4.33-2.8-1.65-.68-3.53-1.02-5.65-1.02s-3.87.35-5.56,1.04c-1.69.69-3.17,1.66-4.44,2.89-1.27,1.23-2.26,2.69-2.97,4.37-.71,1.68-1.06,3.48-1.06,5.42s.35,3.75,1.06,5.42c.71,1.68,1.69,3.14,2.97,4.4,1.27,1.26,2.76,2.24,4.46,2.93,1.7.69,3.55,1.04,5.54,1.04,2.19,0,4.12-.33,5.78-1,1.66-.67,3.12-1.61,4.38-2.82l-4.04-4.04c-.71.78-1.56,1.38-2.57,1.8Z"/>
    <path class="cls-4" d="M1810.84,342.03c-1.08-.59-2.34-.89-3.78-.89s-2.62.3-3.7.89c-.46.25-.87.56-1.25.9v-10.48h-5.82v27.44h5.82v-10.47c0-.63.14-1.18.42-1.66.28-.48.66-.85,1.13-1.12.48-.26,1.02-.4,1.62-.4.91,0,1.66.3,2.27.89.61.59.91,1.35.91,2.29v10.47h5.82v-11.76c0-1.39-.3-2.6-.91-3.65-.61-1.04-1.45-1.86-2.53-2.46Z"/>
    <path class="cls-4" d="M1820.86,332.64c-.88,0-1.62.3-2.23.91-.6.61-.91,1.36-.91,2.27s.3,1.64.91,2.27c.61.63,1.35.94,2.23.94.93,0,1.68-.31,2.25-.94.57-.63.85-1.39.85-2.27s-.28-1.66-.85-2.27c-.57-.61-1.32-.91-2.25-.91Z"/>
    <rect class="cls-4" x="1817.95" y="341.52" width="5.82" height="18.37"/>
    <path class="cls-4" d="M1842.36,342.09c-1.06-.63-2.26-.95-3.59-.95-1.41,0-2.68.3-3.8.89-.51.27-.97.6-1.38.97v-1.48h-5.82v18.37h5.82v-10.47c0-.63.14-1.18.42-1.66.28-.48.66-.85,1.13-1.12.48-.26,1.02-.4,1.62-.4.91,0,1.66.3,2.27.89.61.59.91,1.35.91,2.29v10.47h5.82v-11.76c0-1.26-.3-2.43-.91-3.5-.61-1.07-1.44-1.92-2.49-2.55Z"/>
    <path class="cls-4" d="M1862.13,343.05c-.5-.47-1.06-.88-1.72-1.19-1-.48-2.11-.72-3.35-.72-1.69,0-3.19.41-4.52,1.23-1.32.82-2.37,1.95-3.14,3.4-.77,1.45-1.15,3.09-1.15,4.93s.38,3.47,1.15,4.89c.77,1.42,1.82,2.56,3.16,3.4,1.34.84,2.84,1.27,4.5,1.27,1.26,0,2.39-.24,3.38-.72.64-.31,1.2-.7,1.68-1.16v1.5h5.71v-18.37h-5.71v1.53ZM1858.28,355.01c-.78,0-1.48-.18-2.1-.55-.62-.36-1.11-.88-1.47-1.53-.37-.66-.55-1.4-.55-2.23s.18-1.57.55-2.23.86-1.17,1.47-1.53c.62-.37,1.32-.55,2.1-.55s1.52.18,2.15.55c.63.37,1.11.87,1.44,1.51.33.64.49,1.38.49,2.21,0,1.29-.37,2.33-1.12,3.14-.74.81-1.73,1.21-2.97,1.21Z"/>
    <polygon class="cls-4" points="1884.17 333.2 1879.59 333.2 1879.59 359.89 1885.57 359.89 1885.57 349.46 1897.55 349.46 1897.55 344.28 1885.57 344.28 1885.57 338.34 1898.15 338.34 1898.15 333.2 1885.57 333.2 1884.17 333.2"/>
    <rect class="cls-4" x="1901.4" y="341.52" width="5.82" height="18.37"/>
    <path class="cls-4" d="M1904.31,332.64c-.88,0-1.62.3-2.23.91-.6.61-.91,1.36-.91,2.27s.3,1.64.91,2.27c.61.63,1.35.94,2.23.94.93,0,1.68-.31,2.25-.94.57-.63.85-1.39.85-2.27s-.28-1.66-.85-2.27c-.57-.61-1.32-.91-2.25-.91Z"/>
    <rect class="cls-4" x="1911.23" y="332.45" width="5.82" height="27.44"/>
    <path class="cls-4" d="M1946.87,342.03c-1.11-.59-2.36-.89-3.74-.89s-2.73.3-3.89.91c-.78.41-1.44.95-2.01,1.59-.53-.66-1.16-1.21-1.91-1.63-1.02-.58-2.16-.87-3.42-.87-1.39,0-2.61.28-3.69.85-.48.25-.91.56-1.3.91v-1.39h-5.82v18.37h5.82v-10.74c0-.6.13-1.12.4-1.55s.62-.76,1.08-1c.45-.24.97-.36,1.55-.36.83,0,1.53.26,2.1.78.57.52.85,1.23.85,2.13v10.74h5.82v-10.74c0-.6.13-1.12.38-1.55.25-.43.61-.76,1.08-1,.47-.24.98-.36,1.53-.36.81,0,1.49.26,2.06.78.57.52.85,1.23.85,2.13v10.74h5.82v-11.42c0-1.54-.32-2.85-.94-3.93-.63-1.08-1.5-1.92-2.61-2.51Z"/>
    <path class="cls-4" d="M1970.38,333.2l-10.55,26.69h6.16l1.77-4.8h10.44l1.73,4.8h6.31l-10.47-26.69h-5.4ZM1969.56,350.25l3.5-9.47,3.42,9.47h-6.91Z"/>
    <path class="cls-4" d="M2000.51,342.65c-.41-.31-.86-.58-1.36-.81-1.03-.47-2.17-.7-3.4-.7-1.74,0-3.29.42-4.65,1.25-1.36.83-2.42,1.97-3.17,3.4-.76,1.44-1.13,3.07-1.13,4.91s.38,3.48,1.13,4.91c.76,1.44,1.81,2.57,3.16,3.4,1.35.83,2.9,1.25,4.67,1.25,1.23,0,2.37-.26,3.4-.77.55-.27,1.03-.6,1.47-.97v1.37h5.71v-27.44h-5.82v10.2ZM1998.92,354.46c-.61.37-1.32.55-2.15.55-.78,0-1.49-.18-2.12-.55-.63-.36-1.12-.88-1.46-1.53-.34-.66-.51-1.4-.51-2.23s.18-1.57.55-2.21c.37-.64.85-1.15,1.46-1.53.6-.38,1.31-.57,2.12-.57s1.51.18,2.12.55c.61.37,1.08.87,1.42,1.51.34.64.51,1.38.51,2.21s-.17,1.61-.51,2.27c-.34.65-.81,1.17-1.42,1.53Z"/>
    <polygon class="cls-4" points="2018.56 352.82 2014.65 341.52 2008.37 341.52 2016.16 359.89 2020.84 359.89 2028.67 341.52 2022.51 341.52 2018.56 352.82"/>
    <path class="cls-4" d="M2043.41,343.05c-.5-.47-1.06-.88-1.72-1.19-1-.48-2.11-.72-3.35-.72-1.69,0-3.19.41-4.52,1.23-1.32.82-2.37,1.95-3.14,3.4-.77,1.45-1.15,3.09-1.15,4.93s.38,3.47,1.15,4.89c.77,1.42,1.82,2.56,3.16,3.4,1.34.84,2.84,1.27,4.5,1.27,1.26,0,2.39-.24,3.38-.72.64-.31,1.2-.7,1.68-1.16v1.5h5.71v-18.37h-5.71v1.53ZM2039.55,355.01c-.78,0-1.48-.18-2.1-.55-.62-.36-1.11-.88-1.47-1.53-.37-.66-.55-1.4-.55-2.23s.18-1.57.55-2.23c.37-.66.86-1.17,1.47-1.53.62-.37,1.32-.55,2.1-.55s1.52.18,2.15.55c.63.37,1.11.87,1.44,1.51.33.64.49,1.38.49,2.21,0,1.29-.37,2.33-1.11,3.14-.74.81-1.73,1.21-2.97,1.21Z"/>
    <path class="cls-4" d="M2067.75,342.09c-1.06-.63-2.26-.95-3.59-.95-1.41,0-2.68.3-3.8.89-.51.27-.97.6-1.38.97v-1.48h-5.82v18.37h5.82v-10.47c0-.63.14-1.18.42-1.66.28-.48.66-.85,1.13-1.12.48-.26,1.02-.4,1.62-.4.91,0,1.66.3,2.27.89.61.59.91,1.35.91,2.29v10.47h5.82v-11.76c0-1.26-.3-2.43-.91-3.5-.61-1.07-1.44-1.92-2.49-2.55Z"/>
    <path class="cls-4" d="M2085.76,354.64c-.59.25-1.27.38-2.02.38s-1.5-.18-2.15-.55c-.66-.36-1.17-.88-1.53-1.53-.37-.66-.55-1.41-.55-2.27s.18-1.57.55-2.21c.37-.64.87-1.15,1.51-1.51.64-.37,1.37-.55,2.17-.55.73,0,1.38.11,1.95.34.57.23,1.06.58,1.49,1.06l3.74-3.78c-.93-.96-2-1.68-3.19-2.17-1.2-.49-2.53-.74-3.99-.74-1.92,0-3.64.42-5.18,1.25-1.54.83-2.75,1.97-3.63,3.42-.88,1.45-1.32,3.09-1.32,4.93s.43,3.45,1.3,4.91c.87,1.46,2.07,2.61,3.61,3.44,1.54.83,3.26,1.25,5.18,1.25,1.51,0,2.87-.26,4.06-.78,1.2-.52,2.29-1.28,3.27-2.29l-3.74-3.7c-.43.48-.94.84-1.53,1.1Z"/>
    <path class="cls-4" d="M2107.02,342.28c-1.39-.78-3-1.17-4.84-1.17s-3.54.42-5.03,1.25c-1.49.83-2.66,1.97-3.52,3.42-.86,1.45-1.29,3.08-1.29,4.89s.44,3.53,1.32,4.99c.88,1.46,2.09,2.6,3.63,3.42,1.54.82,3.3,1.23,5.29,1.23,1.56,0,2.99-.26,4.27-.78,1.29-.52,2.38-1.32,3.29-2.4l-3.21-3.18c-.55.63-1.2,1.1-1.93,1.42-.73.31-1.54.47-2.42.47-.98,0-1.83-.21-2.55-.62-.72-.42-1.27-1.01-1.66-1.8-.12-.24-.22-.5-.3-.77l13.13-.06c.13-.45.21-.86.25-1.23.04-.36.06-.72.06-1.08,0-1.79-.4-3.38-1.21-4.76-.81-1.39-1.9-2.47-3.29-3.25ZM2099.9,346.17c.67-.43,1.46-.64,2.36-.64.83,0,1.54.19,2.14.57.59.38,1.04.91,1.34,1.61.12.27.21.58.29.9l-7.94.05c.08-.25.16-.48.27-.7.37-.76.88-1.35,1.55-1.78Z"/>
    <path class="cls-4" d="M2126.87,342.65c-.41-.31-.86-.58-1.36-.81-1.03-.47-2.17-.7-3.4-.7-1.74,0-3.29.42-4.65,1.25-1.36.83-2.42,1.97-3.17,3.4-.76,1.44-1.13,3.07-1.13,4.91s.38,3.48,1.13,4.91c.76,1.44,1.81,2.57,3.16,3.4,1.35.83,2.9,1.25,4.67,1.25,1.23,0,2.37-.26,3.4-.77.55-.27,1.03-.6,1.47-.97v1.37h5.71v-27.44h-5.82v10.2ZM2125.28,354.46c-.61.37-1.32.55-2.15.55-.78,0-1.49-.18-2.12-.55-.63-.36-1.12-.88-1.46-1.53-.34-.66-.51-1.4-.51-2.23s.18-1.57.55-2.21c.37-.64.85-1.15,1.46-1.53.6-.38,1.31-.57,2.12-.57s1.51.18,2.12.55c.61.37,1.08.87,1.42,1.51.34.64.51,1.38.51,2.21s-.17,1.61-.51,2.27c-.34.65-.81,1.17-1.42,1.53Z"/>
    <polygon class="cls-4" points="2165.31 338.42 2165.31 333.2 2142.63 333.2 2142.63 338.42 2150.98 338.42 2150.98 359.89 2156.99 359.89 2156.99 338.42 2165.31 338.42"/>
    <path class="cls-4" d="M2178.73,342.28c-1.39-.78-3-1.17-4.84-1.17s-3.54.42-5.03,1.25c-1.49.83-2.66,1.97-3.52,3.42-.86,1.45-1.29,3.08-1.29,4.89s.44,3.53,1.32,4.99c.88,1.46,2.09,2.6,3.63,3.42,1.54.82,3.3,1.23,5.29,1.23,1.56,0,2.99-.26,4.27-.78,1.29-.52,2.38-1.32,3.29-2.4l-3.21-3.18c-.55.63-1.2,1.1-1.93,1.42-.73.31-1.54.47-2.42.47-.98,0-1.83-.21-2.55-.62-.72-.42-1.27-1.01-1.66-1.8-.12-.24-.22-.5-.3-.77l13.13-.06c.13-.45.21-.86.25-1.23.04-.36.06-.72.06-1.08,0-1.79-.4-3.38-1.21-4.76-.81-1.39-1.9-2.47-3.29-3.25ZM2171.6,346.17c.67-.43,1.46-.64,2.36-.64.83,0,1.54.19,2.14.57.59.38,1.04.91,1.34,1.61.12.27.21.58.29.9l-7.94.05c.08-.25.16-.48.27-.7.37-.76.88-1.35,1.55-1.78Z"/>
    <path class="cls-4" d="M2196.93,354.64c-.59.25-1.27.38-2.02.38s-1.5-.18-2.15-.55c-.66-.36-1.17-.88-1.53-1.53-.37-.66-.55-1.41-.55-2.27s.18-1.57.55-2.21c.37-.64.87-1.15,1.51-1.51.64-.37,1.37-.55,2.17-.55.73,0,1.38.11,1.95.34.57.23,1.06.58,1.49,1.06l3.74-3.78c-.93-.96-2-1.68-3.19-2.17-1.2-.49-2.53-.74-3.99-.74-1.92,0-3.64.42-5.18,1.25-1.54.83-2.75,1.97-3.63,3.42-.88,1.45-1.32,3.09-1.32,4.93s.43,3.45,1.3,4.91c.87,1.46,2.07,2.61,3.61,3.44,1.54.83,3.26,1.25,5.18,1.25,1.51,0,2.87-.26,4.06-.78,1.2-.52,2.29-1.28,3.27-2.29l-3.74-3.7c-.43.48-.94.84-1.53,1.1Z"/>
    <path class="cls-4" d="M2219.25,342.03c-1.08-.59-2.34-.89-3.78-.89s-2.62.3-3.7.89c-.46.25-.87.56-1.25.9v-10.48h-5.82v27.44h5.82v-10.47c0-.63.14-1.18.42-1.66.28-.48.66-.85,1.13-1.12.48-.26,1.02-.4,1.62-.4.91,0,1.66.3,2.27.89.61.59.91,1.35.91,2.29v10.47h5.82v-11.76c0-1.39-.3-2.6-.91-3.65-.61-1.04-1.45-1.86-2.53-2.46Z"/>
    <path class="cls-4" d="M2240.9,342.09c-1.06-.63-2.26-.95-3.59-.95-1.41,0-2.68.3-3.8.89-.51.27-.97.6-1.38.97v-1.48h-5.82v18.37h5.82v-10.47c0-.63.14-1.18.42-1.66.28-.48.66-.85,1.13-1.12.48-.26,1.02-.4,1.62-.4.91,0,1.66.3,2.27.89.61.59.91,1.35.91,2.29v10.47h5.82v-11.76c0-1.26-.3-2.43-.91-3.5-.61-1.07-1.44-1.92-2.49-2.55Z"/>
    <path class="cls-4" d="M2261.94,342.35c-1.53-.83-3.23-1.25-5.12-1.25s-3.67.42-5.18,1.27c-1.51.84-2.7,1.98-3.57,3.42-.87,1.44-1.3,3.05-1.3,4.84s.44,3.45,1.32,4.91c.88,1.46,2.08,2.62,3.59,3.48,1.51.86,3.23,1.29,5.14,1.29s3.63-.43,5.14-1.29c1.51-.86,2.71-2.01,3.59-3.46.88-1.45,1.32-3.09,1.32-4.93s-.44-3.41-1.32-4.86c-.88-1.45-2.09-2.59-3.61-3.42ZM2260.43,352.95c-.34.67-.83,1.18-1.46,1.53s-1.35.53-2.15.53-1.53-.18-2.15-.53-1.12-.86-1.47-1.53c-.35-.67-.53-1.43-.53-2.29,0-.81.18-1.54.53-2.19s.84-1.17,1.47-1.53c.63-.37,1.35-.55,2.15-.55s1.52.18,2.14.55c.62.37,1.1.87,1.45,1.51.35.64.53,1.38.53,2.21s-.17,1.62-.51,2.29Z"/>
    <rect class="cls-4" x="2269.71" y="332.45" width="5.82" height="27.44"/>
    <path class="cls-4" d="M2293.58,342.35c-1.53-.83-3.23-1.25-5.12-1.25s-3.67.42-5.18,1.27c-1.51.84-2.7,1.98-3.57,3.42-.87,1.44-1.3,3.05-1.3,4.84s.44,3.45,1.32,4.91c.88,1.46,2.08,2.62,3.59,3.48,1.51.86,3.23,1.29,5.14,1.29s3.63-.43,5.14-1.29c1.51-.86,2.71-2.01,3.59-3.46.88-1.45,1.32-3.09,1.32-4.93s-.44-3.41-1.32-4.86c-.88-1.45-2.09-2.59-3.61-3.42ZM2292.06,352.95c-.34.67-.83,1.18-1.46,1.53-.63.35-1.35.53-2.15.53s-1.53-.18-2.15-.53c-.63-.35-1.12-.86-1.47-1.53-.35-.67-.53-1.43-.53-2.29,0-.81.18-1.54.53-2.19.35-.66.84-1.17,1.47-1.53.63-.37,1.35-.55,2.15-.55s1.52.18,2.14.55c.62.37,1.1.87,1.45,1.51.35.64.53,1.38.53,2.21s-.17,1.62-.51,2.29Z"/>
    <path class="cls-4" d="M2313.66,342.74c-.42-.35-.89-.66-1.42-.9-1-.47-2.12-.7-3.38-.7-1.66,0-3.16.4-4.48,1.19-1.32.79-2.36,1.87-3.12,3.23-.76,1.36-1.13,2.91-1.13,4.65s.38,3.23,1.13,4.61c.76,1.39,1.79,2.48,3.1,3.29,1.31.81,2.81,1.21,4.5,1.21,1.26,0,2.39-.24,3.38-.72.48-.23.91-.51,1.3-.82v1.12c0,1.31-.41,2.32-1.23,3.02-.82.7-1.95,1.06-3.38,1.06-1.11,0-2.07-.2-2.89-.6-.82-.4-1.56-1-2.21-1.78l-3.59,3.55c.88,1.26,2.09,2.24,3.61,2.93,1.52.69,3.28,1.04,5.27,1.04s3.72-.38,5.27-1.15c1.55-.77,2.77-1.86,3.65-3.27.88-1.41,1.32-3.06,1.32-4.95v-17.24h-5.71v1.22ZM2312.06,353.65c-.59.35-1.29.53-2.1.53s-1.46-.18-2.04-.53c-.58-.35-1.04-.84-1.38-1.46-.34-.62-.51-1.28-.51-1.98s.16-1.4.49-2c.33-.6.79-1.08,1.4-1.44.6-.35,1.3-.53,2.08-.53s1.5.18,2.08.53c.58.35,1.03.83,1.34,1.44.31.6.47,1.26.47,1.97,0,.78-.16,1.47-.47,2.06-.31.59-.77,1.07-1.36,1.42Z"/>
    <polygon class="cls-4" points="2331.42 352.66 2327.76 341.52 2321.49 341.52 2328.49 358.63 2324.32 367.64 2330.3 367.64 2333.55 360 2341.41 341.52 2335.13 341.52 2331.42 352.66"/>
    <rect class="cls-4" x="2351.27" y="333.2" width="5.97" height="26.69"/>
    <path class="cls-4" d="M2376.41,342.09c-1.06-.63-2.26-.95-3.59-.95-1.41,0-2.68.3-3.8.89-.51.27-.97.6-1.38.97v-1.48h-5.82v18.37h5.82v-10.47c0-.63.14-1.18.42-1.66.28-.48.66-.85,1.13-1.12.48-.26,1.02-.4,1.62-.4.91,0,1.66.3,2.27.89.61.59.91,1.35.91,2.29v10.47h5.82v-11.76c0-1.26-.3-2.43-.91-3.5-.61-1.07-1.44-1.92-2.49-2.55Z"/>
    <path class="cls-4" d="M2389.22,345.98c.33-.2.82-.3,1.47-.3s1.38.15,2.1.43c.72.29,1.37.78,1.95,1.45l3.29-3.36c-.81-1.06-1.88-1.86-3.21-2.4-1.34-.54-2.77-.81-4.31-.81s-2.86.25-3.97.76c-1.11.5-1.97,1.19-2.57,2.06-.6.87-.91,1.9-.91,3.08s.21,2.05.64,2.76c.43.71.98,1.26,1.66,1.66.68.4,1.4.73,2.15.96.76.24,1.48.45,2.17.64.69.19,1.25.39,1.68.61.43.21.64.55.64,1,0,.38-.18.67-.55.87-.37.2-.86.3-1.49.3-1.01,0-1.92-.18-2.74-.55s-1.54-.88-2.17-1.53l-3.33,3.33c.65.68,1.42,1.28,2.31,1.79.88.52,1.85.92,2.91,1.21,1.06.29,2.13.43,3.21.43,2.29,0,4.11-.53,5.46-1.61,1.35-1.07,2.02-2.5,2.02-4.29,0-1.16-.21-2.1-.64-2.82-.43-.72-.98-1.3-1.66-1.74-.68-.44-1.4-.78-2.15-1.02-.76-.24-1.47-.45-2.14-.62-.67-.18-1.22-.38-1.66-.61-.44-.23-.66-.53-.66-.91,0-.33.16-.59.49-.79Z"/>
    <polygon class="cls-4" points="2409.18 333.92 2403.36 333.92 2403.36 341.52 2399.24 341.52 2399.24 346.47 2403.36 346.47 2403.36 359.89 2409.18 359.89 2409.18 346.47 2413.34 346.47 2413.34 341.52 2409.18 341.52 2409.18 333.92"/>
    <rect class="cls-4" x="2415.87" y="341.52" width="5.82" height="18.37"/>
    <path class="cls-4" d="M2418.78,332.64c-.88,0-1.62.3-2.23.91-.6.61-.91,1.36-.91,2.27s.3,1.64.91,2.27c.6.63,1.35.94,2.23.94.93,0,1.68-.31,2.25-.94.57-.63.85-1.39.85-2.27s-.28-1.66-.85-2.27c-.57-.61-1.32-.91-2.25-.91Z"/>
    <polygon class="cls-4" points="2434.13 333.92 2428.31 333.92 2428.31 341.52 2424.19 341.52 2424.19 346.47 2428.31 346.47 2428.31 359.89 2434.13 359.89 2434.13 346.47 2438.28 346.47 2438.28 341.52 2434.13 341.52 2434.13 333.92"/>
    <path class="cls-4" d="M2451.74,352.07c0,.96-.25,1.71-.74,2.27-.49.56-1.17.83-2.02.83-.58,0-1.08-.13-1.51-.38-.43-.25-.76-.61-.98-1.08-.23-.47-.34-1.01-.34-1.64v-10.55h-5.82v10.62c0,1.59.36,2.99,1.1,4.21.73,1.22,1.76,2.19,3.08,2.89,1.32.7,2.82,1.06,4.48,1.06s3.21-.35,4.5-1.04c1.29-.69,2.29-1.65,3.01-2.87.72-1.22,1.08-2.64,1.08-4.25v-10.62h-5.82v10.55Z"/>
    <polygon class="cls-4" points="2469.58 333.92 2463.76 333.92 2463.76 341.52 2459.64 341.52 2459.64 346.47 2463.76 346.47 2463.76 359.89 2469.58 359.89 2469.58 346.47 2473.74 346.47 2473.74 341.52 2469.58 341.52 2469.58 333.92"/>
    <path class="cls-4" d="M2489.73,342.28c-1.39-.78-3-1.17-4.84-1.17s-3.54.42-5.03,1.25c-1.49.83-2.66,1.97-3.52,3.42-.86,1.45-1.29,3.08-1.29,4.89s.44,3.53,1.32,4.99c.88,1.46,2.09,2.6,3.63,3.42,1.54.82,3.3,1.23,5.29,1.23,1.56,0,2.99-.26,4.27-.78,1.29-.52,2.38-1.32,3.29-2.4l-3.21-3.18c-.55.63-1.2,1.1-1.93,1.42-.73.31-1.54.47-2.42.47-.98,0-1.83-.21-2.55-.62-.72-.42-1.27-1.01-1.66-1.8-.12-.24-.22-.5-.3-.77l13.13-.06c.13-.45.21-.86.25-1.23.04-.36.06-.72.06-1.08,0-1.79-.4-3.38-1.21-4.76-.81-1.39-1.9-2.47-3.29-3.25ZM2482.6,346.17c.67-.43,1.46-.64,2.36-.64.83,0,1.54.19,2.14.57.59.38,1.04.91,1.34,1.61.12.27.21.58.29.9l-7.94.05c.08-.25.16-.48.27-.7.37-.76.88-1.35,1.55-1.78Z"/>
  </g>
</svg>